<?xml version="1.0" encoding="UTF-8"?>
<svg version="1.1" viewBox="0 0 1024 1024" width="1024" height="1024" xmlns="http://www.w3.org/2000/svg">
<path transform="translate(0)" d="m0 0h1024v1024h-1024z" fill="#E0E0E0"/>
<path transform="translate(513,92)" d="m0 0 4 1v2h6l3 1 7 1 13 4 9 5h7l3 2-2 2 4 1v-2l7 1 2 3 5 1 9 3 1 3h6l3 3 5 2v2l6 1 1 2 10 2 2 3-1 2 5 1 6 3v3l8 2 3 5 4 1 8 6 5 5 5 3 3 3v2l4 1 2 1v2l4 2 5 6 8 7 7 8 5 5 2 4 2 1 1 3 3 1 3 5 2 5 2 3 1 4 2 1 1-2 3 5v3l4 2 1 6 2 1 1 4 4 6 2 9h2l1 9h2l3 7v7h2l3 10 4 9 3 10 3 11 2 9-2 1-1-3-2-1 2 4 2 9v-8l2 1v9h-2l1 15 2 7 1 8-2 1 2 1 1 11v9l2 6 1 6 3 1v11l-2 9h-5l-2-5h-2v2h-3v2l-12 1-5 1-3-3v-2h-2v6h24l3 1 1 4 5-1 2 1v-3l-2-1 10-1 4 1 10-1 3 1 3-1 3 3v7l-3 10v9l-1 4-5 2h-6l-2-1 2 4v11l-1 7v21l1 23v25h-2l-2-3 1 5 3 2v10h-2v2h2v6h-3l1 3 2 1 1 17v14l-1 12 1 11 1 4-2 6 2 4h-2l1 17v36l-4 1-1 9h2v-8h2l1 11v9l-1 5h-2l2 5h2v9l-1 5-1 23v28l-1 2-4-1v-3l-1-2 1-11-4-1 2-5 2-7-4-2v-6l1-2h3l-1-14-1-7 1-5-2-1v-7l3-1-2-1-1-4v-11l1-13-1-1v-5l1-4v-5l-1-1-1-28-1-1 1-7v-2l-2-5h-1v2h-2l1 3v7l-3 3-3-2 2-4 1-5-1-4 1-3-1-7 3-14 1-9-1-3 2-6h1v8h2l-1-8 1-22-1-1v-14l-1-6 1-8 1-5-2-4v-52l1-19 4 1v7l1 10-1 25-1 2 2-1 1-16v-16l-1-16 4-2 3 1v-5l-1-2 2-10-1-1-5 2-5-1-4-3-4 1-2 2h-5l-4-2h-3l1 3-4 2h-10l-8 2-2-5 5-1h-13v8l6 1h4v3l-7-1v5l2 1h16v2l5-1 2 4h2v-3l2-1h7l2 3 3 1v-3h6l-1 3v-2l-3 3 2 1h-2l-1 3-6 1-2-1v-2l2-1h-6l2 1-1 4-17-1 2 3h2v2h2v3h-4v6h-4l-1-7-2-2v-3h2l-3-3-2-1 2 8-1 10v21l1 6-1 8 1 6-1 29h2l3-1 1 20 3 3 1-7v-9l-1-6 1-5v-3l6-4 2 10v7 3 8l-1 6h2v-2h2l-1 4h-2v2h-2l-2-8-1 6 1 4 3 1v8l-1 5 1 4-3 3-1 4-4 2v-14h3 1l-1-4h-4l-3 3-2 4-3 1 1 9-1 4 1 10v11l1 3-1 7v5h4l1 2 2 12 2 4v3h-2l-1 3h-2l1 3-2 2-4 1v13l-1 6 1 4v12l1 3-1 11v25l-1 14 1 6-1 2 1 4v7l-2 1-1-1v8l3 3v-5h2l1-2v2l3-1 2 2-3 4h8l-1 2h-12v3l11-1v2h3v-2h2v2l13-3 1-3 6-1 3 1v2l-6 2 4 2-4 2-29 1-7-2-4 2-10 2h-4l-1 13-4 1-3-6v-4h2v-8l2-2h6l6-2v2l2-1v-11l1-5-1-6 1-3-1-5 1-3-1-1-1-35v-28l1-4-1-8 1-11-1-1v-29l3-5-3-1v-13l2-3-2-2 1-11-1-4 3-1v-2h-3l1-7 2-3-3-1v-11l2-3h-2v-6h2l-2-4v-19-4-24l1-42-1-3v-17l-7-1-1-3-4-1-3-11-1-10 1-5 7-2 8-1v-3l-1-6 1-9h-2v-14l-1-14-2-14-2-20-1-3-1-8h4l-1-5-1-9-1-8h-2l2 9-1 4-2-1-3-11 1-11-4-14h-2l-2-6-8-20-6-16-10-19-3-5v-3h-2l-8-12-8-8v-2h-2l-4-6-2-1v-2l-4-2-9-10-4-3v-2l-4-2-5-6-8-4-5-6-5-2-4-4-7-3-19-10-3-1v-2l-3 1-6-3v-2l-11-3-5-4-6-1v-2l-15-3-12-3-5-1-2 2-11 1v2l-5 2-4 1-9 3-8 3h-5l-1 3h-4v2l-5 2-11 6h-6l-1 3-8 4h-2v2l-17 9-2 3-4 1-3 3-3 1-10 10-6 4-3 5-3 1-3 5-7 6-1-3-1 6h-2v3l-5 5-2 4h-2l-2 4-7 10-2 5h-2l-2 9h-2l-1 5-4 6-3 6-2 9-2 1-3 12h-2l-1 5-3 9-1 4-3 9-2 4h-2v2h2l-4 17-1 13h-2l-1 6-3-1-1 7h2l1-4v18l-1 1-2 23-3-1-1-5-1 14 1 2h-2v2l3-1-3 9-1 2h2v3h2l-2-6 4-3v15l-2 6h5v2l2-1h6l3 5v18l-2 3-2-1-1 7-9 1-2-1 1 8-1 17 1 18-1 18v73l-2 2v3h2l1 12h-2l1 2v6l-1-4h-2v7h2l1-2v4h-3v2h3v13l1 5-1 6 1 6v17l-3 2v4h2v9h-2l1 7h-2v4l4-1-2 7v50l1 7v13l-1 20 2-1h9l3-1 3 1v2l-16 2-4-2v-2h-2v-2h-2v4h3v2l7 2 3 3v2h3l-4-5h7l3 3 1 7-2 4-6-1-6-7-1 2h-3v2l-4 1v-4l2-2-1-4-14 1-1-3h7l-2-2-15-1h-2l-1 2h11v3h-13l-5 1-11-1-2-2 11-1h5v-2h-9l-6-2v-2h12l15 1 11-1 1-6h-6l-6-2 1-3 9 1v-3h-9l-4-2 4-2h11v-30l-1-7-2-1v-2h-2l-1 4h-2v-3h-2v-8l2-1-2-2 2-8 2-1 3 6h3v-11l-1-5-1-11-4 3-4-1v-6l1-3-2-1v-7l3 1 4 4 1-7 1-4v-22l1-6-1-3 2-5-2-4v-10l-2 2h-3l-2-1v-6l2-5 1-6-6-1 1-4 3 2v-2l5-1 1-3h2l-1-13h-4l-1-3 3-1-1-2v-8h-2v-16l4-3 1 11 1 4v-24l-1-6h2l-2-9h2l-2-5v-11l1-9v-4l-1-3 2-6h-2v-11l1-7-4 3h-12l-2-2-4-1 5-4 5-1 1 1 1-2h4l-1-1h-28l-3-2v12l-1 19-1 11h2l-1 21-1 6 1 7-1 6-1 5h2l1 7h-2v20l1 1v13l-1 1v21l1 13v20h4v6l3 1-2 3 2 8v6h3v2h-5l-1-3-2-1-2 4v14l-1 11v35l-1 3v20h-2v6h2v27l-1 6h-2l1 4-5-2-1-14-1-7v-2l4 1 2-6-3 1-1 3h-2v-67l2-3h-2v-10l1-4 3-1 1-6 2-6-4 1v8l-2-1v-14l-1-10v-12l2-6h-1v-5l2-2-2-1v-11l4-1-1-2h-3v-14l3-1v-3l-3-1v-16l2-5h-2v-6h2l-3-5 1-9v-6-3-20l1-3-1-5 1-11-1-2 2-12-1-16v-9l3-13-10 1-2-4h3v-3l-5 1-2-4-1-16-1-2 4-5 10-1 12 1 1 1v5l12-1v-4h2v-2h24 4v-2h-2l-1-2-7-1-2-1-2 3h-8l-7-1-1-3h-2l-2 4h-2v3l-4-2v-27l1-9 1-7 5-5 1-3-2 1-2 4 1-18 6-28 1-4 3-9v-7l6-18 4-13 5-13 6-15 1-4 3-1 1-6 6-10 4-9 5-9 3-5 10-13 4-5 3 1-10 13-8 11 5-5 9-11 4-5 3-5 1-4 2-3h2l1 2 1-2h2v-5l7-8h2l2-4 9-8 8-7 4-3h2v-2l14-10 5-4 5-2 15-9 11-5 7-3 3 1v-2l13-7 10-3 5-3 13-5 11-5 8-2 12-4 4-1z" fill="#F6F6F6"/>
<path transform="translate(566,449)" d="m0 0 2 1-6 5-5 1v2l-7 5-12 6-2-1-2 4-4 2-1 3h-2v4h-2l-2 5 4 1 3 2v2l5 1 3 2 6 1v2l6 1 7 2 3 3 9 1 3 2v2l4-2 5 3 3 1 6 1 5 2 11 5 10 5 8 3 1 2 5 2 7 8 1 5-3 5h-2l-2 6-5 6-4 1-1 3-6 3h-5l-5 4-6 2-5 3-5 1-5 3h-6v2l-5 1v-3h-2l-1 4-3 1-2-1-2 4-7 3-6 1v2l-5 1v-2h-2l-2 4-9 5-8 4-15 8-11 7-7 4h-2v3l-5 5-3 9 2 5 3 2v2l6 1v2l7 2 2 3h6l9 3 4 3 6 1 3 3v2l10 1 9 4 16 6 7 2 7 3 13 4 5 2 1-4 5 1 7 4 1 3 13 5 8 5h5l6 4 6 2 5 1 1 1v5l6-1 7 7v2h2l5 8v12l-2 3h2v2h-2v2h-2v9l-1 2h-2l-1 7-3 3-6 10-1 4-5 1-4 3-3 1-2 6-5 5-3-1 4-5h-2v2l-3 1-2 2v-2h-2l-1 6-5 4-3 4 6-4 2-2 2 1v4l-5 2-4 3-2-1-1 7-10 5-1 2 15 6 7 3 11 3 4 3h8l13 3 3 2 1 3h11l9 3 23 2 2 3-2 3h5l1 2-5 2-5-4-1 3h-6l-1-1-11-1-3-2v-2h4l-1-2-6 1v3h-8l-6-4-1 2-8-2-13-2-6-1v-2l-5 1-1-3-8-1-14-4-11-4-5-2v2l-12-1-4 1v-2l-8-1-6 1-1-3 3-2h3v-2l-5-1v-1l9-1v-2l5-2 5 1v-2h5l4-4-6 1-11-1 1-2 12-3 5-1v-2l7-4-9 1-10-1-1-2 7-1h4l10-1v2l6-1 2-4 3-1 1-3 3-3h2v-2l3-2 1-3h5l1-4h4v-4h3l1-3 3-3 2-3h3l1-5 4-7 2-6v-16l-3-1-5-8-4-5-5-2v-3l-7-1-4-5-4 1-3-3-5-2-1-3-6-2v2l-9 3h10l-2 4 3 2v2l-4-1-5-1-9 1-1-1h-10l2 5 3 4 4 1 4-1h8l8-1h5l1 4v5h-3v2h-3l3 3-11 2-1 1-14 1-2 2-4-2-7 2-6-1-4 1-9-1-3 1h-13l-10 1-17 3h-5v-3l2-3h-3v-2l5-3 3-6h-2v-2l4-3h3v-2l-6 1 1-4v-3l-5-2h-2l1 8-3 1 3 6-4 3h-2l-2 6-8 4-4 5h-4l-5 4h-2v3l7-2v3l-6 3 5-1 8 1-2-2 1-5 2-1h7l1 3h3v2l8-2h32v2h5l-4 2-1 1h-5v2l-10 2v-2l-16 3h-12v8l13-2v2h18l8 1-4 2-21 1-6 1-4-3-1 3h-10v2h-3l1 3 7 1h4l5 1 11 1 3 2-1 1-15 1-1-3-11 2-9-1v3l10-1 9-1-3 2h-2v2l-2 1h-8l-11 2-5 1-10 1-10-2-9 2 1-3 5-2 4-1-12-1-2-1-6 1-1-4 1-3 6-1-1 2 9 2v-2l19-1 7-3v-18l-4 1-1-3-8 3-4 3-5 2-12 7-8 4-5 2-4 3-8 3-3 3-9 4-9 3v-2h-2l-2 6-5 3h-3l-3 3-7 3-2 2-14 5-5 3-8 2h-4v2h-3v2l-14 7-9 5-8-1v2l-5 2-3 1-1 3-10 2-6 2-15 3h-3v-2h-3l-2 4-11 3-2-5 7-4 6-1 12-5 8-3h5v-2l14-5 4-1v-2l14-8 12-5 5-3 8-2-1-3 4-2 2-4 12-6 11-3h3v3l2-1v-4l6-1h6l-1-4 4-3 7-1v2h2l2-4 13-7 6-4 5-1 7-4 4 1 2-5 4-2h6v-3l5-2 1 1 5-5 7-1 1-3 5-1 6-4h2v-2l6-4 6-9 2-7-4-12-11-9v-2l-8-2-8-5-6-2-1-2-10-4-7-3v-2l-6-1-4-3v-2l-5-1v-2l-10-5-5-2v-6l-3-1 3-9 3-5 7-9 7-6h4l2-4h4v-2l11-7 4-2 2 4h2l-2-4 4-3 2-5 2-1h8 3 5l1-3h7l1-3 10-3h4v-2l11-4 13-4 1 4 2-2v-3l6-3 1-1 9-2 7-3 5-1 4-3 9-3h4v-2l7 1v-2l-2-1 6-3h4v-2l4-2h4l1-4h2l1-6 2-5-1-3-5-2-4-4-5-3-3-4-9-3-5-4-11-4v-2l-11-3-10-4-12-3v-2l-7-2-9-5-2-5 3-7 11-7 10-7 7-4 11-6 4-1 10-4z" fill="#F6F6F6"/>
<path transform="translate(516,157)" d="m0 0 2 1 2 16 3 49v12h2v13l2 16 2 9 1 24 1 8 10-9 8-7 10-10 11-9 13-11h2v4l-2 1-2 5-4 5-5 5-8 10-7 8-3 5-8 9h-2l-1 3h-2v2l13-1 23 2 6 2 20 2 19 2 28 2 6 1-1 2h-5v2l11-3v2l-3 3-19 2-15 1-17 2-22 1-2-1v2h-9l-5 2-12 1-2-1-7 1-10 1 10 8 4 5 3 5 2 4h2l4 5v3h3l9 13-1 2-4-2-7-4-5-5-11-9-3-4-7-4-6-7-1 4-1 14-4 24-2 24h-2l1 4-4 30-1 5-2-1-1-8-1-1-1-9-1-7-3-22-2-20-2-10-1-16h-2v-11h-2l-2 4-3 3-4 2-5 5-7 5-2 4h-3l-2 4-13 10-6 4-2-3 8-10 6-8 15-16 7-8 4-5 3-3-14-1-1-1-32-3-5-1h-12v-2h-14l-41-3-8-2 2-2 19-3 18-2 35-3h7v-2l33-2 10-1h2l-6-4-2-5-3-1-7-8-9-10-9-11-3-4-4-4-2-1v-2h-2l-2-3v-3h3v2l4 1 11 10 13 10 1 3 5 2 4 5 6 4 10 9 1 2v-9h2v-11l1-9 1-14 3-37 2-20 2-28 2-18z" fill="#F8F8F8"/>
<path transform="translate(246,474)" d="m0 0 4 2h29v2h-4l-1 3-4-1-6 4h4l2 2h11l4-2 1 3-2 15h2l-1 7v3l-1 2 2 1-1 16v6l1 3h-2l2 9-1 1 1 11v21l-3-3v-10l-2-2-1 3v10l-1 3h2l1 10-2 2v2l4-1 1 1 1 8-1 5-5 4h-3v2l-3-1-1 3h7l-2 11-1 1v6l3-1h2l2-1v13l2 4-2 5 1 2-1 9v21l-2 3-1 5-4-2-3-3v7l3 1-2 9 5-1 3-1 2 5v8l-1 2 2 1-1 11-4 1-2-5-1-1-2 8 2 2-1 3v-2h-2v8h2v3l2-1 1-3h2v2l3 1 1 13-1 24-4 1h-8l-2 1 12 2v3h-9l-1 2 12 2v6l-1 1-17 1-12-1h-7l-3-1v3l6 1-3 2-5 1-1-3 1-11v-20l1-3h-2v-6l1-4v-16l1-9v-35l1-8v-11l3-4 3 1v3h5v-2h-3l-3-15 2-2-2-1v-6h-4l-1-4v-22l-1-14v-14l1-1v-13l-1-2 1-19v-4l1-3h-2v-9l1-6-1-7 1-5 1-16 1-2h-2v-18l1-20z" fill="#E0E0E0"/>
<path transform="translate(230,438)" d="m0 0 18 1 1 1v5h6v6h-12l-2 1-6-2v16h5l4 5v3h2l1 5-1 31-1 7h2l-1 21-1 6 1 7-1 6-1 5h2l1 7h-2v20l1 1v13l-1 1v21l1 13v20h4v6l3 1-2 3 2 8v6h3v2h-5l-1-3-2-1-2 4v14l-1 11v35l-1 3v20h-2v6h2v27l-1 6h-2l1 4-5-2-1-14-1-7v-2l4 1 2-6-3 1-1 3h-2v-67l2-3h-2v-10l1-4 3-1 1-6 2-6-4 1v8l-2-1v-14l-1-10v-12l2-6h-1v-5l2-2-2-1v-11l4-1-1-2h-3v-14l3-1v-3l-3-1v-16l2-5h-2v-6h2l-3-5 1-9v-6-3-20l1-3-1-5 1-11-1-2 2-12-1-16v-9l3-13-10 1-2-4h3v-3l-5 1-2-4-1-16-1-2 4-5z" fill="#F6F6F6"/>
<path transform="translate(781,470)" d="m0 0 4 1v7l1 10-1 25-1 2 2-1 1-16v-7l1-5 2 2v24l1 23v25h-2l-2-3 1 5 3 2v10h-2v2h2v6h-3l1 3 2 1 1 17v14l-1 12 1 11 1 4-2 6 2 4h-2l1 17v36l-4 1-1 9h2v-8h2l1 11v9l-1 5h-2l2 5h2v9l-1 5-1 23v28l-1 2-4-1v-3l-1-2 1-11-4-1 2-5 2-7-4-2v-6l1-2h3l-1-14-1-7 1-5-2-1v-7l3-1-2-1-1-4v-11l1-13-1-1v-5l1-4v-5l-1-1-1-28-1-1 1-7v-2l-2-5h-1v2h-2l1 3v7l-3 3-3-2 2-4 1-5-1-4 1-3-1-7 3-14 1-9-1-3 2-6h1v8h2l-1-8 1-22-1-1v-14l-1-6 1-8 1-5-2-4v-52z" fill="#F9F9F9"/>
<path transform="translate(500,703)" d="m0 0 14 2h29v3h-8l-5 2-1 1 12 1h8l12 2 5 1h8l-2 4h-10l-14 3-9 1-8 2-10 2v2h9l4 2 5-1 5 2v-3h9v3h-5v2l6 1-1 2-8 1h-4v2h18l-2-2 9-2v-2l4 2-1 1 2 2-3 1 4 1h12l13-1 7-1v-2l-3 1-14-1-5-1v-2l-5 1-8-1-6-2 1-2h26l1-2h10l8-1h5l1 4v5h-3v2h-3l3 3-11 2-1 1-14 1-2 2-4-2-7 2-6-1-4 1-9-1-3 1h-13l-10 1-17 3h-5v-3l2-3h-3v-2l5-3 3-6h-2v-2l4-3h3v-2l-6 1 1-4v-3l-5-3v-2h3v-4l-4 1-9-6z" fill="#F5F5F5"/>
<path transform="translate(515,256)" d="m0 0h1l3 36 2 12v8h2v5h7l-2 4v2l43 5 10 2v1l-26 1-5 1-11-1v2l-9 1-1 4 1 3-7-1-3 13-2 18-2 20-2-2-1-6v-8l-2-8-1-12-3-16-4-1h-3l-1-2h2l-2-3-6-1v-2l-6 1-16-2-24-2v-1l18-2 10-1 5-1 13-1 9-1v-7l4 3 3-8 2-19 2-16 1-16z" fill="#DCDCDC"/>
<path transform="translate(491,755)" d="m0 0h7l1 3h3v2l8-2h32v2h5l-4 2-1 1h-5v2l-10 2v-2l-16 3h-12v8l13-2v2h18l8 1-4 2-21 1-6 1-4-3-1 3h-10v2h-3l1 3 7 1h4l5 1 11 1 3 2-1 1-15 1-1-3-11 2-9-1v3l10-1 9-1-3 2h-2v2l-2 1h-8l-11 2-5 1-10 1-10-2-9 2 1-3 5-2 4-1-12-1-2-1-6 1-1-4 1-3 6-1-1 2 9 2v-2l19-1 7-3v-18l-4 1-2-5 3-2h3v-2l4-1v2l7-2v3l-6 3 5-1 8 1-2-2 1-5z" fill="#E1E1E1"/>
<path transform="translate(271,342)" d="m0 0 2 1 1 5 2 5 5 1v-7l4-4 3 1-1 3h-4l-1 19h1l2-17 3 3 4 1v5l-2 1-1 9 1 2-1 5 2 2h-3l1 7-1 11h-5l-2 4h-2l-1 5 1 6 4 1 1 15-5 1-10-1-1-6-5-1-1 5 1 3h-5l1-13 1-7v-8l2-16 3-3 1-9v-10l3-12z" fill="#DEDEDE"/>
<path transform="translate(346,198)" d="m0 0v3l-7 10-4 7v2l1-2 2 1-5 5v-2l-3 3h2l-1 4h-2l-1 5-6 10-3 7-4 10 2-1 4-9 3-5h3l-2 5-6 11-2 6-5 11 3-1v2h-4l-3 9-2 8v2h-2l-1-6v-7l2-4 1-5 6-16v-2h-2l-1 7-2 1-2 5-1-4-1-1-7 16-4 10-1 5 1 2h-3l1 11 1 6 1 3 1 4 3 2-1 5-1 7-4-1v-4h-3l-1 8-5-1-2-4h-2v2h-2l-1-2 1-9 3-9 5-16h2l1-7 3-5v-3h2l2-9h2l2-10h2l2-8 13-25 7-9 1-3 3-3h2v-3l2-1 2-4h3l2-5 5-5z" fill="#ABAAAB"/>
<path transform="translate(776,444)" d="m0 0 4 1 5 3 4-1 6-2-1 11-1 3 1 2-1 4h-5l-1 1 1 26v11l-1 11-3 1 1-33-1-9v-2h-3l-3 4-2-7 4-2h-6v3l-4-1-1-3-9 2v3h-5l-1-2 3-1-3-1h-3v-2l-4 1h-12l-3-3 1-4 7 1-1-3-6 1-3-2-1-8 1-1h14l-1 2h-5l3 4 7-2h11l2-2v-2l4-1 3 2h5z" fill="#ddd"/>
<path transform="translate(741,293)" d="m0 0 2 2 5 16 3 6 4 19 1 6h-2l-2-7h-2l-1 11-2-1 1-2-6 1 3 3h1l1 10 1 11h2l-1-9 1-3h2v6h3l1-5 3-3 2 9 1 6-3-2v-2l-6 2 1 3-5 7-1 6v3h-2v4l4-2-2 5-1 2-4 1 1 5 1 10-1 3 2 1-5 2-1-9-1-3 1-5-1-12 1-7h2v2h2l1-9-2-4h2l-3-4-1 2h-3l-2-14-2-13-3-15 3-9 2-3h2l-1-10 2 1 1 4 2 1-2-6-2-3z" fill="#AAA9AA"/>
<path transform="translate(661,175)" d="m0 0h2v3l4 1 11 9 6 7 5 5 5 6 5 4 5 9 7 8 8 13 5 9 4 8 6 16 2 5 3 7v4l-3 1-1 7-4-3-1-11-2-1-1 4-2-1v2l3 3 1 5 2 1v2h2l-5 15h-2l-2-7-4-15-3-6-4-13-5-14 2-2 8 16 3 9 2 1-3-11h3l2 1-2-9h-2l-1-9-3-1-1-5-3-3 1-3h-2v-3l-2-1-3-6-1-4-3-1-2-3v-5l-3 1-1-3-2-1-1-3-2-1-1-3-4-3v-2h-3l-3-5-7-7-2-1 1 7-4-3 1-8-7 1-3-3v-2h3z" fill="#A7A6A7"/>
<path transform="translate(508,718)" d="m0 0 7 3-3 7 6-1v2l-5 3 1 1-3 7-4 3h-2v2h3l-2 5h7l15-3 14-1h10l4-1 9 1 4-1 9 2-3 3-13 2h-9l-1 6-3 1h-39l-8 1v-2h-3l-1-2h-9v5l4 2-8 1-4-1-5 1 1-2 6-3-2-1-7 3-1-2h3v-3l6-4 3-3v3l7-7 7-3 2-5 5-4-2-2v-3l2-1v-8z" fill="#ABAAAB"/>
<path transform="translate(756,365)" d="m0 0h3l5 8 1 15 2 11 1 10-4 8-2 6h3v2h-15v-2h-2l-2-5-3-2 1-5-1-10-1-5 5-1 2-6-3 1-1-5h3l-1-4 3-7 3-5v-2z" fill="#E0E0E0"/>
<path transform="translate(754,578)" d="m0 0h1l1 9h2v-2l2-1 2-3-1 16-2 1 1 6 1 2v26l-5 1-1-7h2l-1-4 1-3v-5h-2l-2 5-1 3h-2v9l2 5-2 3 3 3-3 1v7h2l-1 5 1 2h2l1-3-1-5 1-4 2-4 4 3v14l-7 2-2 2-1 9-2 2-3-7-1-11-4 3-1-8 1-8-1-6v-11l-1-7 1-7v-5l1-2h2l3-6h3l4-1 1 6-2 3-2-4v8l-1 6 4-3v-4l3-2-1-5 1-8v-4l-3-3-1-4z" fill="#A9A8A9"/>
<path transform="translate(466,763)" d="m0 0 3 2-1 2 4-2 1 1v18l-8 4-15 1-4-1v2l-10-1 1-2-5 1-1 2 2 1-1 2 7-1 5 1 9 1-3 3-4 1-5 1-1 2-4-1-1-5-13 1-2-1v-5l-5 1 2-3 7-3 2-2 8-3 11-6 6-4 7-3z" fill="#AFAEAF"/>
<path transform="translate(672,191)" d="m0 0 4 2 8 8v3h3l5 5v3l3 1v3l3 1 1 2h2l2 6 3 3 3 7 2 1 1 6h2v4l3 2 1 5 2 1 1 9h2l2 4v5l-4-1 2 6v5l-3-1-5-13-5-10h-2l-8-14v-4h-2l-2-4-1-5h-2l-4-9-2-1-3-5-4-6-2-1-3-5-4-9z" fill="#EDEDED"/>
<path transform="translate(606,707)" d="m0 0 7 3 2 3 5 2 3 2h4l3 4 7 2v3l5 1 8 10 2 4 2 1 1 7v9l-2 6-4 6-2-2v-4l-3-1 4-1 2-6-2-1h2l1-13-3 1-5-3-4-2 7-1 1-1-8-1-6-6-1-5-2-1v10l-7-1h-6l-2 2-1-6h-10l-3 1h-10l-3 1-5-1-1-4-2-2v-4l2-1h8l2 1 8-1 3 1 2-1 1 2 3 1-4-5 3-3-10 1-3-2 10-2z" fill="#AAA9AA"/>
<path transform="translate(751,675)" d="m0 0 3 3-2 1-1 5 2 2 3-2 1 3-3 4-3 1 1 4 4 2-1 2-3-2-1 9 1 2-2 4-2-1 1 8 4 8-1 6h-3l1 4-3-3-2-5-1-3-2-1v9l1 6v9l2 1 1-5 4-3 1 5 1 7h-2l-1 8-9 2-1-1v-36l1-7-1-1v-15l-1-3 1-4v-13l2-2 4-1v-3l3-2h3z" fill="#A9A8A9"/>
<path transform="translate(282,446)" d="m0 0 1 2 7 1 5-1v4l1 11 1 3-4 2-7-2-1-5h2v-2h3v-7l-3 2v3h-3l-1 3-1-4-3 1-2 2-6-3h-8l-1 6h-6v2l-2 2-2 1h-7l3 4v2l-4 1-3-6-6-2-1-9v-7l2-1 6 2 4-1h16l3-1 5 1 10-1z" fill="#A9A8A9"/>
<path transform="translate(567,695)" d="m0 0 9 1 7 2v2l4-1v2h6l9 4-1 2-14 2-4-2h-9l-1 1h-16l-5 1v2h11l17 1-2 2-15 2-8-2-9-1h-9l-13-2v-1l7-2 10-1 2-1h-30l-12-2 2-2 8-1 2-1h12l3-1 5 1 7 1h15l5-1 9 1 5 1-3-3z" fill="#A7A6A7"/>
<path transform="translate(473,785)" d="m0 0h7l-1 3h2v-3h9l7 2h4l5 1 11 1 3 2-1 1-15 1-1-3-11 2-9-1v3l10-1 9-1-3 2h-2v2l-2 1h-8l-11 2-5 1-10 1-10-2-9 2 1-3 5-2 4-1-12-1-2-1-6 1-1-4 1-3 6-1-1 2 9 2v-2l19-1z" fill="#F7F7F7"/>
<path transform="translate(739,473)" d="m0 0 5 2v2h-2l3 5 1 18 2 1h-3l1 7-1 19 3 3 1 7 1 8 1 3 3 1-3 4v8h-2l2 7v9l-1 7-5-4v-20l-3 2-2 4-1-6 1-28-1-7 1-8-1-7v-25l1-5-1-5z" fill="#AAA9AA"/>
<path transform="translate(267,484)" d="m0 0 3 2h11l4-2 1 3-2 15h2l-1 7v3l-1 2 2 1-1 16v6l1 3h-2l2 9-1 1 1 11v21l-3-3v-10l-2-2-1 3v10l-2 3-2-4-2-2h2l-3-5 1-4h2l1-7-1-8 1-3-4 4h-2v-3l2-1 1-4h3l1-6h2l1 2 1-6v-22l-1-3h2l-2-15v-4l-3 1 2 5v35h-2l-2-8 1-17 1-7-4-1-3-7-4-5-4-2z" fill="#A9A8A9"/>
<path transform="translate(275,630)" d="m0 0h1l1 6 3-1h2l2-1v13l2 4-2 5 1 2-1 9v21l-2 3-1 5-4-2-3-3v7l3 1-2 9 5-1 3-1 2 5v8l-1 2 2 1-1 11-4 1-3-10 3-6v-6l-7-1-1-5-1-16v-2h2v2h2l1-3 2-2h-3v-6l1-2v-8l-3-3v-8l-2-1 5-2-2-14-3-2 1-5z" fill="#A9A8A9"/>
<path transform="translate(592,780)" d="m0 0h11l-1 3-8 1h-5v2h10l4 1h11l-3-4h10l3 2-1 3 5-1 1-2-3-1 3-1v-2l4 1-2 5-1 2h-2v2l-5 1-1 5-9 5-1 2h-2v2h-6l4-4 4-3h3l2-5 3-1v-6h-2l1 3-5 1h-2l-11 1h-21l-3-2 4-1v-2h-22l-7-1-3-1h-7v-2l6-1 37-1z" fill="#FBFBFB"/>
<path transform="translate(288,295)" d="m0 0 4 5h-3l1 11 1 6 1 3 1 4 3 2-1 5-1 7-4-1v-4h-3l-1 8-5-1-2-4h-2v2h-2l-1-2 1-9 3-9 5-16h2l1-6z" fill="#A8A7A8"/>
<path transform="translate(755,549)" d="m0 0 2 2v7l1 1v7 3 8l-1 6h2v-2h2l-1 4h-2v2h-2l-2-8-1 6 1 4 3 1v8l-1 5 1 4-3 3-1 4-4 2v-14h3 1l-1-4h-4-2l-1-9 1-3h-2l2-4 3 1 1-7v-9l-1-6 1-5v-3z" fill="#EBEBEB"/>
<path transform="translate(562,718)" d="m0 0h16v7l-1 4h-3l-26 1-4-1v3l-6-1-4 1-4-2-9-1v-2l7-3 6-1 11-2 10-2z" fill="#A9A8A9"/>
<path transform="translate(764,445)" d="m0 0 9 3-1 5-10 4-1-4-5 2-4 8 2 1-3 1h-16l-3-3 1-4 7 1-1-3-6 1-3-2-1-8 1-1h14l-1 2h-5l3 4 7-2h11l2-2v-2z" fill="#A7A6A7"/>
<path transform="translate(508,827)" d="m0 0h30l4 2h6l-1 3h-7l-7 1-4-2 2 4h12l-2 4h-7-4-11l-1-3h9v-2h-22l-5-1-10 1h-15l-10-2 3-2 20-1h12v2h2v-3z" fill="#FBFBFB"/>
<path transform="translate(801,801)" d="m0 0 5 1v2l5-3 3 3v27l-3 5-4-2v-17l-3 3-1 6-3-3-2-9 1-4-4-1h2v-3l-2-1 1-3z" fill="#F6F6F6"/>
<path transform="translate(515,256)" d="m0 0h1l3 36 3 20v5h-13l-1-4 3-19 1-12 2-20v-5z" fill="#A9A8A9"/>
<path transform="translate(490,677)" d="m0 0 1 2h13l12 1 13 3 1-4 9 4-4 2-17 2-5-1-27-1-19-3 2 3 9 1-2 1v2l4 1 1 3-9-3-11-8-4-3h10l4 1 7-1h8z" fill="#959495"/>
<path transform="translate(539,111)" d="m0 0 9 2 11 4v2l-10-2-4 2 5 2 12 1v-2h7l4 4-10-2v2l6 1 12 6 7 3 9 5 1 3 3 3-6-2-24-12-30-11-15-4v-2h5l5-1h3z" fill="#ABAAAB"/>
<path transform="translate(537,764)" d="m0 0h15v1l-18 2-1 2h18l-1 3-11-2 1 7-13-2-3-3-12 3-13 1v-8l7-1 10-1 8-1h3v2z" fill="#AAA9AA"/>
<path transform="translate(281,491)" d="m0 0h1l1 20v3 22l-1 10-2-4v-2h-2v4l-5 1v2l-4 1 1-8-2-4 2-9 1-3 3 2 1-8h1l2 11v4h2l-1-5v-31l-1-4z" fill="#F8F8F8"/>
<path transform="translate(399,160)" d="m0 0 2 1-1 2 3-1-1 3-10 6-5 4-3 3-5 4h-2l-1 3-8 7-5 5-9 10-9 12h-2l-2 5-3 5-7 11-2-2 6-11 6-8 1-3h3l1-4 6-7 3-3 6-7 3-3v-2l-2-2 3-3 7-1v-3l8-7 12-10 3 1 1-3z" fill="#969596"/>
<path transform="translate(432,864)" d="m0 0h41l3 1 2-1 10 1-1 2-14 1-5 1-13 1-17 1-5 1-3 2h-14l-5 1v-2h-4v-2l7-1h3l15-3 5 1v-2h-5z" fill="#FCFCFC"/>
<path transform="translate(626,816)" d="m0 0h4l-1 18 1 2v6h-7l-16-8 2-4 9-3-1-4 2-3 4-1z" fill="#A8A7A8"/>
<path transform="translate(370,845)" d="m0 0 15 1 10 1h3 17l15 1h14l17 2v1l-12 3h-3v2h-5v-2l-6-1h-21l-4-1h-8l-6-1h-9l-12-2-5-2z" fill="#FCFCFC"/>
<path transform="translate(287,452)" d="m0 0h3v7h-3l-1 7 3 1-5 1h-6-3l-11 1-9-1-3-1 2-3h2v-2h6l1-6 8-1 6 3 2-2h3l1 3 1-2h3l-1-4z" fill="#E0E0E0"/>
<path transform="translate(384,165)" d="m0 0h3v2l2 1-9 7-6 6h-2l1 3-1 1h-7l-1 4 1 3-2 3h-2l-2 4-4 2h-4l-2 5-8 7-1 3h-2l2-5 6-8 4-5 5-5 1-3 1-4 6-3 2-3 2 1 1-3h2l1-5 7-4 1-2z" fill="#E4E3E4"/>
<path transform="translate(221,804)" d="m0 0 3 1v3h2v-3h9v2h-2v3l4 1h-2v2l-5 1-5-1v15h-3l-1-6 1-2-4 1v10l-2 3-4-2-1-2 2-6-1-7 2-6v-4l4-1 2 1z" fill="#F8F8F8"/>
<path transform="translate(510,758)" d="m0 0h32v2h5l-4 2-1 1h-5v2l-10 2v-2l-16 3h-9v-2l-7-1 4-2 3-2h5v-2z" fill="#F5F5F5"/>
<path transform="translate(282,537)" d="m0 0h1l1 7 2 3-1 3 1 11v21l-3-3v-10l-2-2-1 3v10l-2 3-2-4-2-2h2l-3-5 1-4h2l1-7-1-8 1-3-4 4h-2v-3l2-1 1-4h3l1-6h2l1 2z" fill="#DCDCDC"/>
<path transform="translate(277,811)" d="m0 0 5 1 11-1 2 6-3 2 1 2h3v-2h3l1-3 6 6v2l6 1-3 3-11 6-2-1-1-3-5-2-1-2v-10h-16l-5-2v-1h9z" fill="#A8A7A8"/>
<path transform="translate(501,600)" d="m0 0 3 1 1-1 7 1-4 3-6 2-3-1v4l-6 4h-3v3l-16 1-4 1h-4l-4-2 4-3 9-2 1-3 4-1 8-3 6-1 1-2 3 3h4v-2l-2-1z" fill="#ECECEC"/>
<path transform="translate(529,352)" d="m0 0 4 2 5 6 4 4-6 1-1 3 7 2-6 7-8 16 1 2-3 1-1-5 3-20z" fill="#A9A8A9"/>
<path transform="translate(594,756)" d="m0 0h11l9 1 4 1 7 1 1 2-1 2-17 1-3-1-7 1h-9l-6-1-7-1v-2l-7 1h-5l-1-2 20-1 2-1h7v2h2z" fill="#FBFBFB"/>
<path transform="translate(508,342)" d="m0 0 7 2 5 3 1 3-2 13-2 15-1 14-2-2-1-6v-8l-2-8-1-12z" fill="#A7A6A7"/>
<path transform="translate(543,593)" d="m0 0h2v2l7-2-1 8-7 2-4 3-15 1v5l-4 1h-5l-6 5-7 1-1 5-3 3-3-6 13-8 16-9 7-3 9-5z" fill="#A9A8A9"/>
<path transform="translate(566,732)" d="m0 0 11 2h5v2h11l11 1v2l-9 2-13 1h-12l-3-3 2-1-1-3-2-1 1 3-8 2 7 1v1h-15l-10-1v-2l12-2h5v-3z" fill="#AAA9AA"/>
<path transform="translate(493,322)" d="m0 0h6v10h-12l-16-2-24-2v-1l18-2 10-1 5-1z" fill="#A9A8A9"/>
<path transform="translate(585,845)" d="m0 0 12 2v-2l12 3 1 2-6-1-1 10-1-2h-10l-8-1h-6v-10h6z" fill="#A9A8A9"/>
<path transform="translate(584,855)" d="m0 0 8 1 6 1-4 2-3 1 18 2v3h-5l-5-1-10-1h-18l-3-1-5 1-13-1-1-3 16-2h10l1-1z" fill="#F9F9F9"/>
<path transform="translate(528,323)" d="m0 0 43 5 10 2v1l-26 1-5 1h-20v-6z" fill="#A7A6A7"/>
<path transform="translate(631,722)" d="m0 0 6 1v3l5 1 8 10 2 4 2 1 1 7v9l-2 6-4 6-2-2v-4l-3-1 4-1 2-6-2-1h2l1-13-3 1-5-3-4-2 7-1 1-1-8-1-6-6z" fill="#A9A8A9"/>
<path transform="translate(597,133)" d="m0 0 2 4 6 1 12 6 9 6 1 3-4-1-5-5-2-1v2l4 2-2 1v2l9 3 7 3v2h-5v2l-5-2-5-4-10-5-5-4-3-3 7 1h2v-2h-3v-2l-7-1-7-6 2-1 2 1z" fill="#9B9A9B"/>
<path transform="translate(742,726)" d="m0 0 3 1 2 6 2 4 1-2h3v-5l3 3v3h2l1 10-4-1-1 9-3-1-1-9-4 3-1 4-3-1v-13l-1-7z" fill="#F1F1F1"/>
<path transform="translate(661,175)" d="m0 0h2v3l4 1 11 9 6 7 5 5 5 6 2 1-1 3-2-1 1 3h-2l-1-3-4-3v-2h-3l-3-5-7-7-2-1 1 7-4-3 1-8-7 1-3-3v-2h3z" fill="#A6A5A6"/>
<path transform="translate(357,864)" d="m0 0 15 1-1 3h-5v2l11-2 4 1 9 1v2l-7 2-7-1-1 2-8-1h-21l-5-1v-2l6-1h11l1-1-2-1z" fill="#FCFCFC"/>
<path transform="translate(410,823)" d="m0 0 9 1 7-1 3 1h14l9 2-5 4-6-1-4 1h-32l-7-2v-1l10-3z" fill="#FCFCFC"/>
<path transform="translate(431,781)" d="m0 0 3 1-2 4 3 1-3 1-1 2 2 1-1 2 7-1 5 1 9 1-3 3-4 1-5 1-1 2-4-1-1-5-13 1-2-1v-5l-5 1 2-3 7-3 2-2z" fill="#AAA9AA"/>
<path transform="translate(444,631)" d="m0 0h28l-1 9-2-1 1-3-8 2h-3-12l-3 1-1-1-15 1v-3l6-4h2l1 2z" fill="#929192"/>
<path transform="translate(455,659)" d="m0 0 11 2h4l12 2 5 2-3 2h-20l-3-1h-21v-3l3-3z" fill="#929192"/>
<path transform="translate(497,795)" d="m0 0 3 1-2 5h-3l-1 5-6 1-1-6-10 1-3-1-1 5h-16l3-4-2-1 10-2h7l6-2 7-1h7z" fill="#AAA9AA"/>
<path transform="translate(516,689)" d="m0 0 5 1 28 1 1 4-10 2-8 1-7-1-15-2-7-2 1-2 5-1h6z" fill="#959495"/>
<path transform="translate(689,860)" d="m0 0 23 2 2 3-2 3h5l1 2-5 2-5-4-1 3h-6l-1-1-11-1-3-2v-2h4l-2-4z" fill="#FCFCFC"/>
<path transform="translate(740,785)" d="m0 0h1l1 9h5v-2l9-1v3l-4-1 1 7 4 2v4l-3 3h-3v-2l-3 1h-8v-3l12-1-7-1 2-4-5-1h-2v5l-3-1-1-6-1-8 4 4z" fill="#F2F2F2"/>
<path transform="translate(510,774)" d="m0 0h2v2h18l8 1-4 2-21 1-6 1-4-3-1 3h-10v2h-8l-4-2 7-5 18-1z" fill="#F7F7F7"/>
<path transform="translate(644,386)" d="m0 0 5 3 3 4v6l-6 6-5-2-4-2-1-9 6-5z" fill="#FBFBFB"/>
<path transform="translate(691,809)" d="m0 0 7 2 5 4 4 2-2 5-4 1-3-1-6 1-5-2-1-1v-7z" fill="#FBFBFB"/>
<path transform="translate(436,806)" d="m0 0h19l18 1v3h-11l-1 2v-2l-10 2h-13v-2l-9 1h-6v-2h2v-2z" fill="#FCFCFC"/>
<path transform="translate(539,343)" d="m0 0h31l-3 3-7 3-4 4-2 5h-2l-4-5v-2l-4-2z" fill="#B0B0B0"/>
<path transform="translate(755,614)" d="m0 0h2l1 7-1 5h-2v11l-1 2 2 9-1 3 1 4-2 3-3-1-1-4 2-3h-2v-7l2-2-3-3 2-4-2-3 1-9h2l1-4z" fill="#EDEDED"/>
<path transform="translate(468,119)" d="m0 0 5 2 2 1h6l4-1v2l-9 3-9 2-2 2-4-1 3-1v-2l-3 1-2 2h-5l-1 2 3 2-4 3-4-1 1-5-4-1 10-4 8-4z" fill="#A2A1A2"/>
<path transform="translate(259,430)" d="m0 0 3 1v3h15l3-3 6 2h3v3h2v2l-4 2v-2l-9 1h-20l-2 1-3-2h2v-3h2z" fill="#949394"/>
<path transform="translate(556,298)" d="m0 0 2 1 5 13v2l-12 1-2 1h-8v-2l8-7z" fill="#A9A8A9"/>
<path transform="translate(375,275)" d="m0 0 4 1 5 4v6l-4 5h-6l-5-5 1-8z" fill="#FBFBFB"/>
<path transform="translate(628,444)" d="m0 0 4 1 5 5v5l-5 5-3 1-5-3-2-5 2-7z" fill="#FBFBFB"/>
<path transform="translate(749,743)" d="m0 0 2 2 1 10h-2l-1 8-9 2-1-1v-15l2-3 2 4 2 1 1-5z" fill="#A9A8A9"/>
<path transform="translate(327,266)" d="m0 0 2 3-3 5-2 5v4h-2l-1 4-2 7h-2v6l-3 1 1 4-1 4 1 2h-3v6h-2l-1 10-4 9h-1l1-11 3-11h2l-1-4 4-10 4-13 3-6 4-10z" fill="#9A999A"/>
<path transform="translate(629,781)" d="m0 0 4 1-2 5-1 2h-2v2l-5 1-1 5-9 5-1 2h-2v2h-6l4-4 4-3h3l2-5 3-1v-6h-2l1 3-5 1-1-5-2-3h10l3 2-1 3 5-1 1-2-3-1 3-1z" fill="#F5F5F5"/>
<path transform="translate(347,198)" d="m0 0 2 2-9 12-2 4h2l1-4 4-2 2-4h2l1-5 5-1 1 3-5 4-5 6-1 3h-3l-1 4-6 8h-3v-3h-2l1-3h4l2-3-1 1-2 1 1-4 6-11z" fill="#EFEFEF"/>
<path transform="translate(280,746)" d="m0 0h2v2l3 1 1 13-1 24-4-2h2l-3-8 3-4 1-8-5-1-3-8v-4h3z" fill="#A9A8A9"/>
<path transform="translate(577,716)" d="m0 0 4 1 1 2h-2l2 5 3 4 6 1-1 2h-26l2 2-6 1-2-1v3l-8-1-2-1v-2h5v-2l2-1 15-1v-1h6l1 2v-10l-2-2z" fill="#E0E0E0"/>
<path transform="translate(390,800)" d="m0 0 1 2 4 1-2 7-6 2-2 4h-17l3-4 8-2 1-3 5-1 3-3z" fill="#AAA9AA"/>
<path transform="translate(645,265)" d="m0 0h7l3 5v7l-3 3-9-2-2-4 1-4z" fill="#FBFBFB"/>
<path transform="translate(628,557)" d="m0 0h2v5l-8 7-12 5-4 1v2h-2l-1-5 7-6 8-1 3-1 1-4 5-2z" fill="#A9A8A9"/>
<path transform="translate(246,474)" d="m0 0 4 2h29v2h-4l-1 3-4-1-6 3-7-1-5-1-3 6-1 12h-1l-1-12z" fill="#A9A8A9"/>
<path transform="translate(659,781)" d="m0 0v3l1 6-3 1-1 6-6 3-4 5-7 1-2-1 5-5 2-6 5-2 5-3 2 1 1-7z" fill="#AAA9AA"/>
<path transform="translate(775,427)" d="m0 0h1v8h-4l-2 5h-2l-1-4h-28l1-7h2l3 4 10-1h7l-1-3 4 1v-2h2l2 5 3-1 2 1z" fill="#A7A6A7"/>
<path transform="translate(246,803)" d="m0 0h12l13 1 2 2-7 1-1 2h11v3h-13l-5 1-11-1-2-2 11-1h5v-2h-9l-6-2z" fill="#FBFBFB"/>
<path transform="translate(277,336)" d="m0 0h2l3 4 6 2-3 1-1 3-2 1-1 7h-2l-1 2v-2l-3-1-2-5-1-5-1 5h-1v-7h2v-2l5-1z" fill="#F1F1F1"/>
<path transform="translate(752,698)" d="m0 0 5 2v-2l3 1 1 8-1 9-4 4v-4l-4-2-2-9z" fill="#F4F4F4"/>
<path transform="translate(508,718)" d="m0 0 7 3-3 7 6-1v2l-5 3 1 1-3 7h-5l-1-1v-5-2l-1-4 2-1v-8z" fill="#939293"/>
<path transform="translate(615,212)" d="m0 0 4 2 5 5-1 7-4 2h-3-3l-3-6 2-7 3-1z" fill="#FBFBFB"/>
<path transform="translate(437,133)" d="m0 0 2 1-6 5 6-1 4-2h5l-5 4-16 8-4 1v-4l-2-1v-4l9-3v-2z" fill="#9C9B9C"/>
<path transform="translate(364,185)" d="m0 0v3l1 4-2 3h-2l-2 4-4 2h-4l-2 5-8 7-1 3h-2l2-5 6-8 4-5 5-5 2-6h3z" fill="#eee"/>
<path transform="translate(492,666)" d="m0 0 11 1 9 4v2h-35l-7-1 4-2 17-1z" fill="#939293"/>
<path transform="translate(486,630)" d="m0 0 2 1 3 2-1 16-4 1-4-3-2-7 3-7z" fill="#A9A8A9"/>
<path transform="translate(310,259)" d="m0 0h2l1 3-4 8-2 7-1 5-2 3-1-2-3 1-1-4-3 3 1-4 5-12 2-1 1 4 2-4h2l-1-3z" fill="#eee"/>
<path transform="translate(299,402)" d="m0 0h2l4 10 1 10-4 1-2-4-2 2 1 5-4 1 2-4h-2l1-8 2-2h-2v-4-6z" fill="#D7D7D7"/>
<path transform="translate(370,384)" d="m0 0 4 1 2 6-3 6-5 1-3-2-1-3-2-2 1-5z" fill="#FBFBFB"/>
<path transform="translate(648,720)" d="m0 0 5 2 5 3 2 4 7 4 3 3v7l-1 4 1 6-4-4-1-6-3-7-4-4-6-7-4-4z" fill="#D5D4D5"/>
<path transform="translate(274,706)" d="m0 0 1 2 5-1 3-1 2 5v8l-1 2 2 1-1 11-4 1-3-10 3-6v-6l-7-1-1-4z" fill="#A8A7A8"/>
<path transform="translate(257,664)" d="m0 0 2 1v2h2l-1 14-1 5h-2v-5h-4l-3-14 4-2 3 1z" fill="#A7A6A7"/>
<path transform="translate(283,484)" d="m0 0h2l1 3-2 15h2l-1 7v3l-1 2 2 1-1 16v6l1 3h-2l1 4-2 3-1-11v-22l-1-3h2l-2-15v-6h2l-1-5z" fill="#979697"/>
<path transform="translate(281,491)" d="m0 0h1l1 20v3 22l-3-3-1-5v-31l-1-4z" fill="#EFEFEF"/>
<path transform="translate(755,549)" d="m0 0 2 2v7l1 1v7l-4 2v6h-3l-2-13 1-5v-3z" fill="#F5F5F5"/>
<path transform="translate(285,349)" d="m0 0 3 3 4 1v5l-2 1-1 9 1 2-1 5 2 2h-3l-1 2-4-10z" fill="#A9A8A9"/>
<path transform="translate(253,418)" d="m0 0 3 1 1 3 2 1v3l4 2-4 1-2 6h-2v3l-4-2v-16z" fill="#F1F1F1"/>
<path transform="translate(401,455)" d="m0 0 4 1 2 2 1 6-3 5h-6l-3-2v-7z" fill="#FAFAFA"/>
<path transform="translate(399,160)" d="m0 0 2 1-1 2 3-1-1 3-10 6-5 4-3 3-5 2-2-1 4-6 11-9 3 1 1-3z" fill="#A3A2A3"/>
<path transform="translate(579,125)" d="m0 0h2v2l9 3v2h3l1 3 4 3v2l9 2v2h3v2l4 2-6-1-8-3-3-2v-3l-5-2-12-6-2-2z" fill="#EDEDED"/>
<path transform="translate(526,699)" d="m0 0 7 1v2l3 1-7 2-16 1-12-2 2-2 8-1 2-1h12z" fill="#939293"/>
<path transform="translate(529,273)" d="m0 0h1l3 9 3 6v2h-5l4 7 3 2-7 8h-1l-1-18-1-11z" fill="#AAA9AA"/>
<path transform="translate(634,162)" d="m0 0 6 2 7 8 3 1 4 5-4 3-3-2-1-3-9-5-6-5 4-1z" fill="#999899"/>
<path transform="translate(597,133)" d="m0 0 2 4 6 1 12 6 9 6 1 3-4-1-5-5-2-1v2l4 2-3 2-5-4-2-4h-3v-2l-7-1-7-6 2-1 2 1z" fill="#E4E4E4"/>
<path transform="translate(515,103)" d="m0 0 9 3 11 3v1h-9l-7 2h-3l-3-1v-2h-9l1-3z" fill="#A6A5A6"/>
<path transform="translate(484,829)" d="m0 0h16l1 3-7 2h-19l-10-2 3-2z" fill="#FCFCFC"/>
<path transform="translate(753,730)" d="m0 0 3 3v3h2l1 10-4-1-1 9-3-1-1-11 1-3-2-1 1-3h3z" fill="#F4F4F4"/>
<path transform="translate(470,644)" d="m0 0h2l1 3v2l5 5-1 2h-11l-6-1-2 2-6-4v-2h14l3-3h-2v-2z" fill="#939293"/>
<path transform="translate(707,840)" d="m0 0h8l14 2v2l-4 1h-10l-1 3-5-1v-2h-6l-5-2v-1l8-1z" fill="#FCFCFC"/>
<path transform="translate(301,264)" d="m0 0h2l-1 5-6 14-4 10-2 6-2-3-2-1 3-5v-3h2l2-9h2l2-10h2z" fill="#959495"/>
<path transform="translate(515,256)" d="m0 0h1l2 24v12l-1-2h-6l2-16 1-16z" fill="#939293"/>
<path transform="translate(314,466)" d="m0 0h1v8l-10 2-2 3h-2l1 12-2 3-1-8v-15l11-1 1-2h2z" fill="#A7A6A7"/>
<path transform="translate(300,706)" d="m0 0h1l2 8-1 9v14l-4 3-1-10v-16l2-5z" fill="#AAA9AA"/>
<path transform="translate(636,800)" d="m0 0h2l-4 8 2 1v7h-6l-2-3-8 5v-3h2l1-3 5-5 1-4 7-1z" fill="#E7E6E7"/>
<path transform="translate(573,128)" d="m0 0 5 1 4 3 5 1 10 6 1 3 3 3-6-2-16-8-7-4z" fill="#989798"/>
<path transform="translate(750,474)" d="m0 0 14 1 4 1-6 1-1 5-2 1v3h-2l-1 7-2-3v-11h-6l-1-4z" fill="#A8A7A8"/>
<path transform="translate(465,140)" d="m0 0 2 1-2 6-9 4-9 2-1-4 14-7z" fill="#AAA9AA"/>
<path transform="translate(750,568)" d="m0 0h1v6l2-1 1-5 4 1v8l-1 6h2v-2h2l-1 4h-2v2h-2l-2-8-1 4-3 1z" fill="#F0F0F0"/>
<path transform="translate(524,806)" d="m0 0 8 1h9l-3 2-7 2h-22l1-4z" fill="#FCFCFC"/>
<path transform="translate(364,816)" d="m0 0 4 1-1 5-5 2-10 3-5-2 3-3z" fill="#AAA9AA"/>
<path transform="translate(774,802)" d="m0 0 5 1v2l-6 2 4 2-4 2h-21l2-4h2v2l13-3 1-3z" fill="#FBFBFB"/>
<path transform="translate(794,445)" d="m0 0 1 3-2 11 1 2-1 3-5-1-1-14 5-3z" fill="#A9A8A9"/>
<path transform="translate(786,471)" d="m0 0h1l1 16v16l-1 11-3 1 1-33-1-6z" fill="#E1E1E1"/>
<path transform="translate(756,641)" d="m0 0 5 3v14l-8 1 2-5-1-5 1-4z" fill="#AAA9AA"/>
<path transform="translate(501,600)" d="m0 0 3 1 1-1 7 1-4 3-6 2-16 2-5 2h-6l2-2 5-2 9-3h3l1-2 3 3h4v-2l-2-1z" fill="#A3A2A3"/>
<path transform="translate(300,548)" d="m0 0h1l1 5 3 1-1 10-2 5-1 5 3 1 1 4-5 4-1-21z" fill="#AAA9AA"/>
<path transform="translate(566,732)" d="m0 0m-8 1h8l1 4-8 2 7 1v1h-15l-10-1v-2l12-2h5z" fill="#A9A8A9"/>
<path transform="translate(299,657)" d="m0 0 1 2 4 2v6l-2 4v8l2 2v4l-4 1-3 5-1-2v-5h3v-21l-1-4z" fill="#AAA9AA"/>
<path transform="translate(529,475)" d="m0 0h3l2 9v6l-6-1-5-3 2-5h2v-4h2z" fill="#A9A8A9"/>
<path transform="translate(770,629)" d="m0 0h4l1 6 1 7h-3v5l-2-1v-2l-3-1-1-6 2-6z" fill="#AAA9AA"/>
<path transform="translate(661,175)" d="m0 0h2v3l4 1 9 8-3 3-3-1v-2l-7 1-3-3v-2h3z" fill="#949394"/>
<path transform="translate(751,796)" d="m0 0 2 4 4 2v4l-3 3h-3v-2l-3 1h-8v-3l12-1-7-1 1-3h5z" fill="#D2D2D2"/>
<path transform="translate(510,774)" d="m0 0h2v2h18l8 1-4 2-21 1-6 1-2-4 5-1z" fill="#FBFBFB"/>
<path transform="translate(489,697)" d="m0 0 3 1-1 2 9 2-2 5 5 2 5 3h3v4l-5 1-3-2 1-1-3-1-7-8-7-5z" fill="#979697"/>
<path transform="translate(753,514)" d="m0 0h3l1 9v10l-4 3-2-7 1-12z" fill="#FCFCFC"/>
<path transform="translate(281,410)" d="m0 0 2 1 1 15-5 1-10-1-1-4 2-1h7l4-2 1-7-3-1z" fill="#A8A7A8"/>
<path transform="translate(312,274)" d="m0 0 1 3-1 2 3-1v2h-4l-3 9-2 8v2h-2l-1-6v-7l2-4 1-5 3-2v3h2z" fill="#9A999A"/>
<path transform="translate(497,795)" d="m0 0 3 1-2 5h-3l-1 5-6 1-1-8h-2v-2l3-1h7z" fill="#AEADAE"/>
<path transform="translate(709,256)" d="m0 0 4 5 5 11 2 5v5l-2 1v-3l-3-1-4-13-3-8z" fill="#9C9B9C"/>
<path transform="translate(378,176)" d="m0 0 1 3v3h-2l-1 3-8 7-1 2h-3v-4l-2-2 3-3 7-1v-3z" fill="#949394"/>
<path transform="translate(754,578)" d="m0 0h1l1 9h2v-2l2-1 2-3-1 16-4 1-1-8-3-3-1-4z" fill="#A9A8A9"/>
<path transform="translate(499,353)" d="m0 0h2l1 11v6h-3l-1 5-6-4 3-2h4l-2-7-3-3z" fill="#A3A2A3"/>
<path transform="translate(736,809)" d="m0 0 8 2h10l1 2-3 3h-17z" fill="#AAA9AA"/>
<path transform="translate(425,210)" d="m0 0 5 3 1 6-4 3-4-1-2-2v-6h2v-2z" fill="#FCFCFC"/>
<path transform="translate(530,679)" d="m0 0 9 4-4 2-17 2-3-3h3l1-3 10 2z" fill="#919091"/>
<path transform="translate(300,597)" d="m0 0h1v9l4 1-1 4-2 5-2 10-2-4h2l-1-5v-7h-2l-1-4 3-2z" fill="#A9A8A9"/>
<path transform="translate(299,764)" d="m0 0 3 4v7l-1 1v5l2 2v7h-3v7h-1l-1-15v-14z" fill="#AAA9AA"/>
<path transform="translate(468,612)" d="m0 0 15 1 6 1v1l-15 2-4 1h-4l-4-2 4-3z" fill="#9C9B9C"/>
<path transform="translate(792,631)" d="m0 0 1 2h2v12l1 8-3 6-2-2v-3h2l-3-5 3-8-2-1z" fill="#AAA9AA"/>
<path transform="translate(562,120)" d="m0 0h7l4 4-10-2v2l6 1 4 2 1 3-3 1-11-4-1-3 1-2h2z" fill="#ADACAD"/>
<path transform="translate(472,700)" d="m0 0 4 2 10 8 3 10-2 1-3-9-5-1v-2l-6-1z" fill="#A9A8A9"/>
<path transform="translate(778,641)" d="m0 0 4 3 2 6h-2v9l-1 8h-1v-8h-4l1-4v-10h2z" fill="#A8A7A8"/>
<path transform="translate(300,501)" d="m0 0h4l-3 10h2v5l-1 1v5l2 1 1 4-3 1-1 9h-1l-1-15v-16z" fill="#AAA9AA"/>
<path transform="translate(279,596)" d="m0 0h5l1 1 1 8-1 5-5 2v-5l-1-1z" fill="#A9A8A9"/>
<path transform="translate(553,327)" d="m0 0h12l16 3v1l-24 1-3-2 1-1z" fill="#989798"/>
<path transform="translate(262,400)" d="m0 0h1v16l2 1-3 3 1 7h-5l1-13 2-12z" fill="#A6A5A6"/>
<path transform="translate(477,338)" d="m0 0 9 2h7v3l-7 5v-4l-13-1v-4z" fill="#A6A5A6"/>
<path transform="translate(277,811)" d="m0 0 5 1h10v4h-19l-5-2v-1h9z" fill="#B2B1B2"/>
<path transform="translate(278,561)" d="m0 0h2v19l-2 3-2-4-2-2h2l-3-5 1-4h2z" fill="#AAA9AA"/>
<path transform="translate(437,133)" d="m0 0 2 1-6 5 1 2-8 3h-5v-4l9-3v-2z" fill="#D8D8D8"/>
<path transform="translate(248,680)" d="m0 0 3 1v3h4v3l-6 2h-2v13l-2-4v-14z" fill="#A9A8A9"/>
<path transform="translate(457,679)" d="m0 0h10l2 6 9 1-2 1v2l4 1 1 3-9-3-11-8z" fill="#949394"/>
<path transform="translate(292,448)" d="m0 0 4 1-1 4 1 10 1 3-4 2-3-2v-5l3-1-2-9-1-2z" fill="#939293"/>
<path transform="translate(621,791)" d="m0 0h5l-3 1-1 5-9 5-1 2h-2v2h-6l4-4 4-3h3l2-5z" fill="#F0F0F0"/>
<path transform="translate(641,777)" d="m0 0h2l-2 5-3 3h-3v4l-4 1-1 3h-5l-1 4h-3l2-5 5-1v-2h2l1-2 3 1v-7z" fill="#C6C5C6"/>
<path transform="translate(246,624)" d="m0 0 4 5 1 3-4 1 1 20-1 4 3 1h-4l-1-4v-27z" fill="#AAA9AA"/>
<path transform="translate(310,307)" d="m0 0 5 3-3 1v6h-2l-1 10-4 9h-1l1-11 3-11h2l-1-4z" fill="#A8A7A8"/>
<path transform="translate(435,662)" d="m0 0h2v3l2 1-1 3 7 1 5 3v2l-11-3-3-3-6-3-1-2z" fill="#9E9D9E"/>
<path transform="translate(514,610)" d="m0 0m-1 1 2 1v2l-5 4-7 1-1 5-3 3-3-6 13-8z" fill="#ABAAAB"/>
<path transform="translate(246,554)" d="m0 0 1 2h2l1 5-2 2 1 8 1 3-2 6-2 2v-14l-1-6z" fill="#AAA9AA"/>
<path transform="translate(456,124)" d="m0 0 4 1 1 2-2 2h-5l-1 2 3 2-4 3-4-1 1-5-4-1 10-4z" fill="#A3A2A3"/>
<path transform="translate(791,795)" d="m0 0 5 4 4 2-4 2-1 2 4 2-2 1h-9l2-4z" fill="#AAA9AA"/>
<path transform="translate(728,282)" d="m0 0 3 1 1 11 4 2v2h-2l-1 2v-2h-2v-2l-3-1-1-6-3-2 1-3 2 1z" fill="#EFEFEF"/>
<path transform="translate(346,198)" d="m0 0v3l-7 10-5 8-1-4-2-1v-2h3l2-5 5-5z" fill="#979697"/>
<path transform="translate(324,203)" d="m0 0 3 1-10 13-7 9h-2l1-4 11-14z" fill="#FCFCFC"/>
<path transform="translate(592,825)" d="m0 0 4 1-5 5-5-1v2l-8 1-4 1 2-5h8v-2l7-1z" fill="#A4A3A4"/>
<path transform="translate(278,540)" d="m0 0h2l1 8-2 6-1 7-2-3 1-8-4 4h-2v-3l2-1 1-4h3z" fill="#A8A7A8"/>
<path transform="translate(356,192)" d="m0 0h2l-4 8-3 1-2 5-8 7-1 3h-2l2-5 6-8 4-5 5-5z" fill="#989798"/>
<path transform="translate(551,806)" d="m0 0 15 1-3 2-12 1 2 1v2h-11v-2h7v-2l-3-1v-1z" fill="#FCFCFC"/>
<path transform="translate(435,786)" d="m0 0 3 1-1 1 9 2-2 1v2l-4 1-2-1-6 1-1-4 1-3z" fill="#eee"/>
<path transform="translate(434,632)" d="m0 0h2l1 2 7-2 3 2-3 3-3-1-5 2-8 1v-3z" fill="#989798"/>
<path transform="translate(271,734)" d="m0 0 2 1v12l-3 1-1 2-2-4 1-9z" fill="#FBFBFB"/>
<path transform="translate(510,729)" d="m0 0h3v3l1 1-3 7h-5l-1-1v-5z" fill="#A7A6A7"/>
<path transform="translate(718,324)" d="m0 0h2v4l2 1v7l3 12h-2l-1-2h-3l-1-9 1-4z" fill="#D5D5D5"/>
<path transform="translate(489,113)" d="m0 0 11 2 3 1v2l-10 2-5-3-4-2v-1z" fill="#A5A4A5"/>
<path transform="translate(245,786)" d="m0 0 3 2v2h-3l2 12-2 4 6 1-3 2-5 1-1-3 1-11v-7z" fill="#AAA9AA"/>
<path transform="translate(259,430)" d="m0 0 3 1v3h5l-1 3h-3v2h-5l-2 1-3-2h2v-3h2z" fill="#A8A7A8"/>
<path transform="translate(741,400)" d="m0 0 3 1 1 10-1 3 2 1-5 2-1-9-1-3z" fill="#A9A8A9"/>
<path transform="translate(553,730)" d="m0 0h9l4 3-6 1-2-1v3l-8-1-2-1v-2h5z" fill="#E4E4E4"/>
<path transform="translate(560,711)" d="m0 0 20 1-2 2-15 2-8-2 4-2z" fill="#A9A8A9"/>
<path transform="translate(750,601)" d="m0 0 2 1v4h2l1-2 1 4-2 2-1 4-4 2v-14z" fill="#eee"/>
<path transform="translate(587,534)" d="m0 0 8 4 2 5-4 6-1-4-4-5z" fill="#AAA9AA"/>
<path transform="translate(291,803)" d="m0 0h2v2h2v2l5 1h7v3l-3 1 3 2v2h-3v-2l-3-1v-2l-7-2v-2h-3z" fill="#CECDCE"/>
<path transform="translate(775,635)" d="m0 0 2 4v4h2v2h-2l1 3v7l-3 3-3-2 2-4 1-5-1-4 1-3z" fill="#F2F2F2"/>
<path transform="translate(741,607)" d="m0 0 2 4 1 9-1 5-1 9h-2v-9l-1-7z" fill="#949394"/>
<path transform="translate(278,502)" d="m0 0 2 2v29h-2l-2-8 1-17z" fill="#AAA9AA"/>
<path transform="translate(618,153)" d="m0 0 9 3 7 3v2h-5v2l-5-2-6-7z" fill="#939293"/>
<path transform="translate(415,148)" d="m0 0 4 1-1 4-7 3-3 2h-7l1-2 6-3z" fill="#989798"/>
<path transform="translate(545,766)" d="m0 0h21l3 2-9 1-10-1h-16v-1z" fill="#FCFCFC"/>
<path transform="translate(764,625)" d="m0 0h5v11l-2 6-2-1-1-6z" fill="#F8F8F8"/>
<path transform="translate(768,343)" d="m0 0 2 2v8h-3l2 11v9l-2-3-2-9v-9l2-3v3h2z" fill="#CECECE"/>
<path transform="translate(755,614)" d="m0 0h2l1 7-1 5h-3l-1 2-3-4v-2h2l1-4z" fill="#F0F0F0"/>
<path transform="translate(258,438)" d="m0 0 5 1-2 1v4l-10 1v-6h6z" fill="#E7E7E7"/>
<path transform="translate(597,133)" d="m0 0 2 4 6 1 9 5-3 1-11-3-7-6 2-1 2 1z" fill="#9C9B9C"/>
<path transform="translate(743,445)" d="m0 0 8 1-1 4-6 2-4 1-2-5 5-1z" fill="#EDEDED"/>
<path transform="translate(524,224)" d="m0 0h3l1 2v11h-2v10h-1l-1-12z" fill="#AAA9AA"/>
<path transform="translate(363,194)" d="m0 0 2 1-11 12-6 8h-3l2-4 5-6 3-3 6-7z" fill="#979697"/>
<path transform="translate(524,771)" d="m0 0 4 4v2h-11l-5-1 2-2z" fill="#ddd"/>
<path transform="translate(592,701)" d="m0 0 10 4-1 2-14 2v-2h3l1-5z" fill="#939293"/>
<path transform="translate(420,644)" d="m0 0 5 2v2l-5-1 2 4-1 5-6-1v-5z" fill="#959495"/>
<path transform="translate(530,293)" d="m0 0 3 1 2 3 3 2-7 8h-1l-1-12z" fill="#A9A8A9"/>
<path transform="translate(526,109)" d="m0 0h10v2l-5 4-5-1-1 2-3-1-1-5z" fill="#E8E8E8"/>
<path transform="translate(452,799)" d="m0 0 5 2-2 2 1 2h-13l-1-3z" fill="#AEADAE"/>
<path transform="translate(444,777)" d="m0 0h3l-2 4-10 5h-3l1-4z" fill="#EBEBEB"/>
<path transform="translate(753,643)" d="m0 0 1 2h2l-1 6 1 4-2 3-3-1-1-4 1-4v-5z" fill="#F1F1F1"/>
<path transform="translate(673,198)" d="m0 0 7 5 2 5 3 6 4 2-3 2-4-5-4-4-3-5z" fill="#959495"/>
<path transform="translate(793,594)" d="m0 0 3 4v8h-3v9h-2v-18z" fill="#AAA9AA"/>
<path transform="translate(525,589)" d="m0 0h4v2l2 1-16 5h-7l2-2 10-3 5-1z" fill="#9D9C9D"/>
<path transform="translate(282,564)" d="m0 0h1l1 11-1 4-3 1-1-7v-6z" fill="#EFEFEF"/>
<path transform="translate(750,481)" d="m0 0 2 2v10l2 1h-2l-1 3-3-2-1-5 1-3 1-5z" fill="#AAA9AA"/>
<path transform="translate(310,259)" d="m0 0h2l1 3-4 8-2 7-3-1 2-9 3-1-1-3z" fill="#F0F0F0"/>
<path transform="translate(742,796)" d="m0 0 1 2 3-1 2 2-3 4h8l-1 2h-12z" fill="#F6F6F6"/>
<path transform="translate(613,538)" d="m0 0h8v3l-5 3-8-1 1-4z" fill="#949394"/>
<path transform="translate(496,790)" d="m0 0h7l2 5h-2l-1-2-15 1h-4v-3h10z" fill="#D8D7D8"/>
<path transform="translate(551,513)" d="m0 0 7 2 5 2v2l-2 1h-9z" fill="#AAA9AA"/>
<path transform="translate(723,349)" d="m0 0 2 1 2 10 1 13-2 1-2-11z" fill="#A4A3A4"/>
<path transform="translate(270,563)" d="m0 0 3 1v2l2 1-1 5 2 2v3l-4-1-3-4 1-6z" fill="#F5F5F5"/>
<path transform="translate(740,429)" d="m0 0h2l3 4 7-1 4 2-6 2h-11z" fill="#989798"/>
<path transform="translate(747,352)" d="m0 0h6l-1 4h-2v12h-2l-2-9z" fill="#E7E7E7"/>
<path transform="translate(595,338)" d="m0 0 1 4-1 1h-12l-1-2h2v-2z" fill="#AAA9AA"/>
<path transform="translate(451,798)" d="m0 0 9 2-1 5 12 1v1h-16l-1-4v-2l-2-1-4-1z" fill="#E1E1E1"/>
<path transform="translate(611,783)" d="m0 0h10l3 2-3 2h-3l1 3-5 1-1-5z" fill="#F0F0F0"/>
<path transform="translate(539,691)" d="m0 0h10l1 4-11 1-3-4z" fill="#919091"/>
<path transform="translate(746,571)" d="m0 0h4l1 6-1 7-5-4z" fill="#A2A1A2"/>
<path transform="translate(292,453)" d="m0 0 2 4-1 3-2 1-1 6-4-1-1-5h2v-2h3v-5z" fill="#AAA9AA"/>
<path transform="translate(284,765)" d="m0 0 2 4-1 17-4-2h2l-3-8 3-4z" fill="#AAA9AA"/>
<path transform="translate(740,727)" d="m0 0h1l2 13-1 9-2-3-1-10v-8z" fill="#979697"/>
<path transform="translate(301,424)" d="m0 0h1l3 9 2 5-3 1-5-1 1-13z" fill="#A6A5A6"/>
<path transform="translate(539,343)" d="m0 0h12l-2 4-2 2 1 2-4-2z" fill="#A8A7A8"/>
<path transform="translate(579,125)" d="m0 0h2v2l9 3v2h3v2l-9-1-4-2-2-2z" fill="#D1D1D1"/>
<path transform="translate(619,798)" d="m0 0h2v2h-2l-1 3-8 7-2-1 2-5h2l1-3z" fill="#AAA9AA"/>
<path transform="translate(664,737)" d="m0 0h4l2 4-1 6 1 6-4-4-1-6-2-5z" fill="#AAA9AA"/>
<path transform="translate(392,719)" d="m0 0h5l1 4-2 5-4-1-1-6z" fill="#FCFCFC"/>
<path transform="translate(774,466)" d="m0 0h6l-1 3v-2l-3 3 2 1h-2l-1 3-6 1-2-2 3-1 1-3h3z" fill="#FCFCFC"/>
<path transform="translate(267,434)" d="m0 0h6l4 3 4 1-6 1h-10l-2-2z" fill="#929192"/>
<path transform="translate(761,417)" d="m0 0 2 4-1 2h3v2h-15l-1-5 1 2 10-1z" fill="#A3A2A3"/>
<path transform="translate(302,408)" d="m0 0 3 4 1 10-4 1-1-1v-13z" fill="#AAA9AA"/>
<path transform="translate(710,817)" d="m0 0 2 1 1 5 2 6-2 2h-4v-11z" fill="#AAA9AA"/>
<path transform="translate(695,775)" d="m0 0 4 1v7l-6 1-1-4h2z" fill="#FCFCFC"/>
<path transform="translate(667,767)" d="m0 0 2 1-1 9-3 4h-5l3-6 3-5z" fill="#AAA9AA"/>
<path transform="translate(566,734)" d="m0 0 4 2-1 1 2 2-6 4-7-1 1-2-2-2 9-2z" fill="#E1E1E1"/>
<path transform="translate(467,682)" d="m0 0 19 2v1h-7l-1 2-9-1z" fill="#EFEFEF"/>
<path transform="translate(235,812)" d="m0 0h2v4l-2 1h-8l-1 3-1-7h8z" fill="#A8A7A8"/>
<path transform="translate(266,806)" d="m0 0h9l9 1 1 2-9 1-11-1z" fill="#C7C6C7"/>
<path transform="translate(475,757)" d="m0 0 1 2-2 1 1 4-5 3h-2l-2-5 3-2h3v-2z" fill="#E3E3E3"/>
<path transform="translate(327,266)" d="m0 0 2 3-3 5-2 5v4h-2l-1 3-1-5 4-10z" fill="#A2A1A2"/>
<path transform="translate(289,841)" d="m0 0 3 1v3l-14 5h-2l1-3 11-5z" fill="#ddd"/>
<path transform="translate(747,597)" d="m0 0 4 1 2-1 1 6-2 3-2-4-3 4-2-1v-6z" fill="#959495"/>
<path transform="translate(282,514)" d="m0 0h1v22l-3-3-1-11 2-2z" fill="#E8E8E8"/>
<path transform="translate(786,495)" d="m0 0 2 1-1 18-3 1 1-18z" fill="#DCDCDC"/>
<path transform="translate(285,343)" d="m0 0 3 1-1 3h-4l-1 15-4-4 2-1 1-10 2-2z" fill="#A2A1A2"/>
<path transform="translate(748,807)" d="m0 0h3v2l2 1-1 2h-8l-4-2 1-2z" fill="#EFEFEF"/>
<path transform="translate(489,697)" d="m0 0 3 1-1 2 9 2-2 5 2 1h-3l-8-7-2-2z" fill="#9A999A"/>
<path transform="translate(470,661)" d="m0 0 12 2 5 2v1h-13l-2-2-3-2z" fill="#919091"/>
<path transform="translate(598,530)" d="m0 0 12 1 3 1v2l-6 1-3-1h-4z" fill="#959495"/>
<path transform="translate(283,484)" d="m0 0h2l1 3-1 10h-2v9h-1l-1-16h2l-1-5z" fill="#9E9D9E"/>
<path transform="translate(772,386)" d="m0 0h2l2 17v6h-2l-2-17z" fill="#FCFCFC"/>
<path transform="translate(283,347)" d="m0 0 4 1h-3l1 8-1 10h-3z" fill="#EDEDED"/>
<path transform="translate(324,246)" d="m0 0h3l-2 5-6 11h-2l3-9z" fill="#A09FA0"/>
<path transform="translate(430,858)" d="m0 0h11l-2 4h-10l-1-3z" fill="#FCFCFC"/>
<path transform="translate(278,701)" d="m0 0 4 1 1 4-4 3-4-1v-6z" fill="#EAEAEA"/>
<path transform="translate(274,691)" d="m0 0 3 1 4 5 2 2-6 2-3-3z" fill="#EDEDED"/>
<path transform="translate(298,667)" d="m0 0h1l1 5v12l-2-4-2 2-1-10h3z" fill="#DDDCDD"/>
<path transform="translate(498,667)" d="m0 0h5l9 4v2l-14-1v-4z" fill="#A4A3A4"/>
<path transform="translate(735,788)" d="m0 0 3 3 3 4-1 8-3-1-1-6z" fill="#A8A7A8"/>
<path transform="translate(301,264)" d="m0 0h2l-1 5-4 8h-3l2-7v-2h2z" fill="#999899"/>
<path transform="translate(321,244)" d="m0 0 2 3-2 6-4 8h-2l1-5 3-7z" fill="#EBEBEB"/>
<path transform="translate(432,157)" d="m0 0 5 2-2 3-3 1h-8l2-3z" fill="#AAA9AA"/>
<path transform="translate(599,813)" d="m0 0 5 1-5 4-7 1-2 2-4-1 3-1 1-2 6-1z" fill="#ABAAAB"/>
<path transform="translate(594,792)" d="m0 0 13 1-4 6v-3h-9l-3-3z" fill="#AAA9AA"/>
<path transform="translate(382,172)" d="m0 0 4 1 1 2-3 3-5 2-2-1 4-6z" fill="#A9A8A9"/>
<path transform="translate(236,858)" d="m0 0h3l1 4-1 1-11 1v-2z" fill="#FCFCFC"/>
<path transform="translate(648,720)" d="m0 0 5 2 5 3 3 6-4-1-8-7z" fill="#ABAAAB"/>
<path transform="translate(469,663)" d="m0 0 6 1v1l9 1v1h-18v-3z" fill="#AAA9AA"/>
<path transform="translate(275,618)" d="m0 0h5l-2 11-2 1-2-11z" fill="#AAA9AA"/>
<path transform="translate(284,562)" d="m0 0 2 1v19l-3-3v-15z" fill="#9A999A"/>
<path transform="translate(717,468)" d="m0 0 4 1 7 1 1 4-3 2-5-2-2-4z" fill="#A8A7A8"/>
<path transform="translate(714,271)" d="m0 0 4 1 2 5v5l-2 1v-3l-3-1z" fill="#979697"/>
<path transform="translate(616,146)" d="m0 0 4 2 4 4 3 2v2l-5-1-4-2v-4l-2-1z" fill="#F0F0F0"/>
<path transform="translate(627,811)" d="m0 0 3 1v4l-5 2-4 3-2-1-1 2v-3h3l2-4z" fill="#E8E8E8"/>
<path transform="translate(589,811)" d="m0 0 4 1 4-1 6 1-4 2-5 1-10-1-1-2z" fill="#F7F7F7"/>
<path transform="translate(280,797)" d="m0 0h5v6l-3 1-4-2v-4z" fill="#AAA9AA"/>
<path transform="translate(604,764)" d="m0 0h9l2 2-11 4z" fill="#AAA9AA"/>
<path transform="translate(252,667)" d="m0 0 4 1 1 5v7h-3l-1-9z" fill="#EAEAEA"/>
<path transform="translate(501,600)" d="m0 0 3 1 1-1 7 1-4 3-6 2-1-2 1-2-2-1z" fill="#A9A8A9"/>
<path transform="translate(579,527)" d="m0 0 8 5-1 2h-8v-6z" fill="#AAA9AA"/>
<path transform="translate(578,516)" d="m0 0 4 1 11 4 2 2h-2l-1 3-8-6-6-3z" fill="#A1A0A1"/>
<path transform="translate(499,291)" d="m0 0h3v15l-5-5 2-1z" fill="#A6A5A6"/>
<path transform="translate(378,176)" d="m0 0 1 3v3h-2l-1 3-5 2 1-6z" fill="#969596"/>
<path transform="translate(643,173)" d="m0 0h7l4 5-4 3-3-2-1-3-3-1z" fill="#939293"/>
<path transform="translate(461,126)" d="m0 0h3v2l-2 2-3 2-3 1-4-2 2-3h5z" fill="#DADADA"/>
<path transform="translate(634,808)" d="m0 0 2 1v7h-6l1-5z" fill="#AAA9AA"/>
<path transform="translate(275,739)" d="m0 0h2l3 5v5l-3 1v-3h-2z" fill="#F8F8F8"/>
<path transform="translate(573,128)" d="m0 0 5 1 5 5-3 2-8-5z" fill="#A4A3A4"/>
<path transform="translate(528,724)" d="m0 0 4 1v3 1h-11v-2z" fill="#929192"/>
<path transform="translate(566,715)" d="m0 0h8l-2 4h-9v-3z" fill="#EBEBEB"/>
<path transform="translate(530,679)" d="m0 0 9 4-4 2h-7z" fill="#9A999A"/>
<path transform="translate(300,679)" d="m0 0 4 2v4l-4 1-3 5-1-2v-5h3z" fill="#A8A7A8"/>
<path transform="translate(739,473)" d="m0 0 5 2v2h-2v8l-2 3-1-3 1-5-1-5z" fill="#979697"/>
<path transform="translate(303,273)" d="m0 0 1 4 2 1-1 7-2-2-3 1 2-9z" fill="#C4C4C4"/>
<path transform="translate(347,198)" d="m0 0 2 2-9 12-4 4 2-5 7-10z" fill="#E7E7E7"/>
<path transform="translate(751,796)" d="m0 0 2 4 4 2-5 1h-7l1-3h5z" fill="#AAA9AA"/>
<path transform="translate(680,708)" d="m0 0 3 2v6l-3 1-2-3-1-4z" fill="#FCFCFC"/>
<path transform="translate(532,692)" d="m0 0 5 1 3 4-8 1-1-5z" fill="#A7A6A7"/>
<path transform="translate(470,686)" d="m0 0h8l-2 1v2l4 1 1 3-9-3z" fill="#9B9A9B"/>
<path transform="translate(784,466)" d="m0 0 1 4-4 1-3 4-2-7 4-1 4 1z" fill="#C7C6C7"/>
<path transform="translate(594,420)" d="m0 0 3 1v5l-4 3-2-5 1-3z" fill="#FCFCFC"/>
<path transform="translate(742,365)" d="m0 0 3 3v2h-2l-2 5h-3v-5z" fill="#E6E6E6"/>
<path transform="translate(245,803)" d="m0 0 1 2 15 2v2l-5 1-6-1-2-2-3-1z" fill="#E1E1E1"/>
<path transform="translate(549,687)" d="m0 0 5 1 8 3v2l-10-1z" fill="#9A999A"/>
<path transform="translate(264,667)" d="m0 0 2 2-1 11h-3v-7z" fill="#AAA9AA"/>
<path transform="translate(452,651)" d="m0 0h11l-1 3-4 3-6-4z" fill="#999899"/>
<path transform="translate(281,491)" d="m0 0h1v12h-3v-6l-1-4z" fill="#eee"/>
<path transform="translate(307,357)" d="m0 0 1 4h2l-1 6-4 2 1-10z" fill="#AAA9AA"/>
<path transform="translate(515,256)" d="m0 0h1v20l-3-3 1-11v-5z" fill="#929192"/>
<path transform="translate(699,239)" d="m0 0 4 1 3 5v3l-4-1-3-7z" fill="#949394"/>
<path transform="translate(368,178)" d="m0 0 1 3-5 5-6 3-1-3 6-3 2-3 2 1z" fill="#9E9D9E"/>
<path transform="translate(406,148)" d="m0 0 4 1-2 5-4 2-1-2-2-1 3-3h2z" fill="#C9C9C9"/>
<path transform="translate(497,127)" d="m0 0 4 1h-2l-1 4h-10l4-2 1-2z" fill="#AAA9AA"/>
<path transform="translate(582,825)" d="m0 0 4 2h-2l1 3h-7l-2-3z" fill="#DCDBDC"/>
<path transform="translate(544,729)" d="m0 0h9v3l-5 1h-7l3-1z" fill="#eee"/>
<path transform="translate(531,708)" d="m0 0h6l-2 1v2h5v1h-11l-5-1v-1z" fill="#989798"/>
<path transform="translate(565,585)" d="m0 0 4 2-3 3-9 2-4 1 4-4 6-2z" fill="#AAA9AA"/>
<path transform="translate(405,369)" d="m0 0 3 1v6l-3 2-2-2 1-6z" fill="#FCFCFC"/>
<path transform="translate(308,320)" d="m0 0 1 3-1 5-3 8h-1l1-11z" fill="#989798"/>
<path transform="translate(338,220)" d="m0 0 1 3-5 5h-2v-3h-2l1-3 3 1z" fill="#eee"/>
<path transform="translate(601,142)" d="m0 0h6v2h3v2l4 2-6-1-7-2z" fill="#F3F3F3"/>
<path transform="translate(330,789)" d="m0 0 6 1 1 3-7 2-2-4h2z" fill="#FCFCFC"/>
<path transform="translate(617,731)" d="m0 0h3v2h5l-1 3-2-1 1 6-3-1 1-5h-4z" fill="#F9F9F9"/>
<path transform="translate(557,707)" d="m0 0 4 2 1 2-2 1h-6l-2-1v-2z" fill="#EDEDED"/>
<path transform="translate(610,549)" d="m0 0 3 1v2l-7 4h-3l2-4z" fill="#949394"/>
<path transform="translate(283,527)" d="m0 0 2 4v6l1 3h-2l1 4-2 3-1-11z" fill="#929192"/>
<path transform="translate(279,431)" d="m0 0 5 4-1 2-7 1v-2l-2-1 3-1z" fill="#A7A6A7"/>
<path transform="translate(267,365)" d="m0 0 1 4h2l-1 5-2 7-2-2 1-7v-6z" fill="#AAA9AA"/>
<path transform="translate(718,324)" d="m0 0h2v4l2 1v12h-2l-2-15z" fill="#B2B1B2"/>
<path transform="translate(317,215)" d="m0 0h2l-1 4-7 9h-2l2-4z" fill="#D8D8D8"/>
<path transform="translate(399,160)" d="m0 0 2 1-1 2 3-1-1 3-7 3-2-2 3-3z" fill="#979697"/>
<path transform="translate(501,99)" d="m0 0v3l-4 4-5-1-3 1 2-4h4v2h2l1-4z" fill="#CFCFCF"/>
<path transform="translate(600,525)" d="m0 0 6 2h2l1 4-4 1-7-2 4-2z" fill="#DFDFDF"/>
<path transform="translate(733,458)" d="m0 0h3l-1 4 7 1-1 2h-6l-3-3z" fill="#979697"/>
<path transform="translate(302,354)" d="m0 0 1 2 3 1v9l-2-3h-2l-1-5z" fill="#C7C6C7"/>
<path transform="translate(742,343)" d="m0 0h6l1 4h-2v5l-4-5-2-3z" fill="#E1E1E1"/>
<path transform="translate(516,271)" d="m0 0h1v9l-1 4h-2l-1-3v-7l2 1z" fill="#A1A0A1"/>
<path transform="translate(556,109)" d="m0 0 5 2 4 2-1 3-6-3-6-2z" fill="#DBDBDB"/>
<path transform="translate(726,816)" d="m0 0 9 1-2 4-5 2 1-5h-3z" fill="#AAA9AA"/>
<path transform="translate(641,777)" d="m0 0h2l-2 5-5 2-2-1 1-3z" fill="#AAA9AA"/>
<path transform="translate(269,642)" d="m0 0h2l2 9-3 2-2-3v-6z" fill="#FCFCFC"/>
<path transform="translate(246,511)" d="m0 0 3 3-1 14h-1l-1-11z" fill="#AAA9AA"/>
<path transform="translate(791,473)" d="m0 0 6 2-3 5h-2l-1 2-1-6z" fill="#AAA9AA"/>
<path transform="translate(558,341)" d="m0 0m-3-1 3 3-20 1-1-2 16-1z" fill="#E1E1E1"/>
<path transform="translate(307,286)" d="m0 0 1 3-2 8v2h-2l-1-6 1-6 3 1z" fill="#939293"/>
<path transform="translate(397,156)" d="m0 0 6 4h4v2h-3l-1 2-3-1-1-2h-3z" fill="#DFDFDF"/>
<path transform="translate(590,138)" d="m0 0 7 1 1 3 3 3-6-2-5-2z" fill="#A1A0A1"/>
<path transform="translate(607,805)" d="m0 0 2 2 1 4-6 1-1-3z" fill="#D9D9D9"/>
<path transform="translate(311,804)" d="m0 0 4 1v2l-11 1-4-1 4-2z" fill="#FCFCFC"/>
<path transform="translate(505,719)" d="m0 0 2 3v5l-5 1 1-5z" fill="#E1E1E1"/>
<path transform="translate(237,683)" d="m0 0 3 3v2h-2v8l-2-1v-11z" fill="#FBFBFB"/>
<path transform="translate(751,679)" d="m0 0 4 1v5l-3 2-2-5z" fill="#F1F1F1"/>
<path transform="translate(514,376)" d="m0 0 2 1v15l-2-2-1-6z" fill="#959495"/>
<path transform="translate(768,343)" d="m0 0 2 2v8h-3l-1 5h-1l1-9 1 3h2z" fill="#A5A4A5"/>
<path transform="translate(565,328)" d="m0 0 13 1 3 2h-13v-2z" fill="#949394"/>
<path transform="translate(462,325)" d="m0 0 3 1-3 3-15-1v-1z" fill="#969596"/>
<path transform="translate(346,198)" d="m0 0v3l-6 8h-2l1-4 5-6z" fill="#9C9B9C"/>
<path transform="translate(430,136)" d="m0 0h2l-2 4-6 3h-2v-3z" fill="#949394"/>
<path transform="translate(398,876)" d="m0 0h8l-3 3-7 1z" fill="#FCFCFC"/>
<path transform="translate(724,816)" d="m0 0 4 3-1 3h-6l1-5z" fill="#FCFCFC"/>
<path transform="translate(612,799)" d="m0 0h3v2l-3 3h-2v2h-6l4-4z" fill="#F3F3F3"/>
<path transform="translate(740,780)" d="m0 0 2 4 1 5 5 1-2 1v2l-5-1z" fill="#AAA9AA"/>
<path transform="translate(435,786)" d="m0 0 3 1-1 1 5 1v1l-9 1-2-1 1-3z" fill="#ddd"/>
<path transform="translate(446,782)" d="m0 0h2v3h-2v2l-6 1v-3z" fill="#E8E8E8"/>
<path transform="translate(282,537)" d="m0 0h1l1 7 2 3v2h-6v-7h1z" fill="#DADADA"/>
<path transform="translate(271,342)" d="m0 0 2 1 2 10-4-2-1 2z" fill="#A5A4A5"/>
<path transform="translate(337,215)" d="m0 0 4 1-1 5h-3l-1-1-2 1 1-4z" fill="#F1F1F1"/>
<path transform="translate(757,803)" d="m0 0h9v2l-9 2-1-3z" fill="#FBFBFB"/>
<path transform="translate(628,776)" d="m0 0 3 4h-3v2l-6 2v-4l6-1z" fill="#AAA9AA"/>
<path transform="translate(477,679)" d="m0 0 3 2-1 2h-8l-3-2z" fill="#9E9D9E"/>
<path transform="translate(442,632)" d="m0 0 5 1-2 4-4-1-5 1 4-4z" fill="#A9A8A9"/>
<path transform="translate(269,627)" d="m0 0 2 1v11l-2 1-1-7z" fill="#FCFCFC"/>
<path transform="translate(754,578)" d="m0 0h1l2 11h-3l-2-6z" fill="#9D9C9D"/>
<path transform="translate(751,479)" d="m0 0h3l1 11-4-1 2-9z" fill="#E9E9E9"/>
<path transform="translate(292,448)" d="m0 0 4 1-1 8h-2l-3-8z" fill="#959495"/>
<path transform="translate(300,417)" d="m0 0h1v15h-1v-5l-3-1h2l-2-6z" fill="#ECECEC"/>
<path transform="translate(284,406)" d="m0 0h3v7h-2l-1 7h-1v-9z" fill="#D8D8D8"/>
<path transform="translate(285,349)" d="m0 0 3 3 4 1v5l-3-1-2-3-2 3z" fill="#989798"/>
<path transform="translate(690,204)" d="m0 0h3l3 3-1 3-2-1 1 3h-2l-1-3-2-2z" fill="#929192"/>
<path transform="translate(351,200)" d="m0 0h4l1 3-6 4v-6z" fill="#F3F3F3"/>
<path transform="translate(563,122)" d="m0 0h6l5 1-1 4-10-3z" fill="#EFEFEF"/>
<path transform="translate(567,918)" d="m0 0h7l2 1v2h-11z" fill="#FCFCFC"/>
<path transform="translate(631,857)" d="m0 0 10 1v2l4-1 1 2h-9l-6-3z" fill="#AAA9AA"/>
<path transform="translate(628,807)" d="m0 0 1 3-4 5-5 3v-3h2l1-3z" fill="#A6A6A6"/>
<path transform="translate(247,794)" d="m0 0 3 3v4l-5-1v-4h2z" fill="#F5F5F5"/>
<path transform="translate(506,735)" d="m0 0 7 1-2 4h-5l-1-3z" fill="#908F90"/>
<path transform="translate(246,711)" d="m0 0 4 2-2 4-1 8h-1l-1-9z" fill="#AAA9AA"/>
<path transform="translate(241,698)" d="m0 0h1v11h-2l-1-8z" fill="#D6D6D6"/>
<path transform="translate(454,642)" d="m0 0 2 2-8 3h-4l1-3 8-1z" fill="#999899"/>
<path transform="translate(498,607)" d="m0 0 1 2-6 4-5-2 3-2z" fill="#9E9D9E"/>
<path transform="translate(261,597)" d="m0 0 4 2 1 3-4 2-2-3z" fill="#FCFCFC"/>
<path transform="translate(241,489)" d="m0 0h2v10l-3 2v-7z" fill="#D8D8D8"/>
<path transform="translate(797,453)" d="m0 0h3l-1 11-3 1z" fill="#D0CFD0"/>
<path transform="translate(287,452)" d="m0 0h3v7l-5 1 1-7z" fill="#EDEDED"/>
<path transform="translate(484,307)" d="m0 0 9 6 1 2-9-2z" fill="#A3A2A3"/>
<path transform="translate(614,144)" d="m0 0 5 1 8 6v2l-4-1-5-5-4-2z" fill="#969596"/>
<path transform="translate(553,121)" d="m0 0 7 1v3l-3 1-5-2z" fill="#9A999A"/>
<path transform="translate(489,113)" d="m0 0 1 2h2l1 2 3 2h-4l-8-4v-1z" fill="#959495"/>
</svg>
