<?xml version="1.0" encoding="UTF-8"?>
<svg version="1.1" viewBox="0 0 1254 1254" width="1254" height="1254" xmlns="http://www.w3.org/2000/svg">
<path transform="translate(0)" d="m0 0h1254v1254h-1254z" fill="#F7F7F7"/>
<path transform="translate(655,315)" d="m0 0h3l-2 8h6l18 6 9 4 5 2v3l6 1 1 4 5-2 2 4 4 2v2h5l2 4 4-1v2h-2v2l5 1v2h5l3 6 8 7v3l3 1v3l3-1 1 3 4 2 3 4v4l5 2 4 10 4 4 3 8 3 1 2 7 3 5-1 7-4 1v-2h-3l1 5h3l1 4v-6l5 1 1 5 3 1 3 10 2 1-1 7h3l-1 5 2 1-1 7 3 1-3 6 4 2-2 6 3 1 1 4-1 2 2 2-3 5-3-1v-2l-3-1 1 4 3 3v15l4-3h2v13l-1 6h2v14h3l2-4-1 5-1 2h-2v9l1 10 1 11 1 4-2 6h-3l-1 7-2 4 3 3v-5l3-3 3 2v7l-5 1-2-1 5 5 5 4-1 2h-3l2 2 1 8-4 4 4 1 1 5-3 3 3 1 1 5 1 6h3 2l-1 5-2 2 1 4h-6l6 3 2 5h-3l-1-2-1 5-1 3h3l1-4 3 2-1 5-3 1 4 4 2-4 2-1 1 13-2 3v-5l-2 1 1 6h4v4l3 2v6l1 4h-3l-1-3h-2l1 7 6-2 1 2 4 2-3 3 4 2 1 7 4 2 1 7-3 4-1 7 5 2v-2h6l3 7 4 5-1 5 4 1v4h-4-4l-5-1 1 5 2 1v-2h3v2l10 2-2-3v-3l3 1v3l4 1 4 5v3h2v2h-11l-6-4h-3v2l5 2v2l5-1 4 3 7 1v-2l4 1 3 3v4l-5 2-1 2 3 1 4-4h2l-1 4 5 1v2h4v2l-10 1v2h7l9 3 5 5-2 1-5-2-2-2-13-1-3-1 1-5-9 1-4-1v-2l-8-3-9-1 1 3h11l4 2v3l-13-1-1-1-10-1-3 3h-8l-1-3 4 1 3 1v-2l-5-2h-10l-6-1-7-1-3 1-2-2-8-1v2l-10-2-8 1-1-2-4-1-1 3-5-2-6 1-4-2-5 1-1-1-13-1h-6l-2 1-12-1v-2h-19l-3 1-18-2-11 1-21-1-11 1v2l-3 1 1-7-4 3-7 1-1-1h-16l-11 1h-4-3-9l-7-1-12 1-2-1-18 1-9 1-6-2-3 2h-8l-1 1h-6l-3-1-11 1h-17l-5 1-22 2-3-1v-2l3-3h-6l-6 1 2 4-9 3h-5-4l-5 1-4-2-2 3-9 2-6 2-2-4-3 4-9 2-3-1-8 3-5-1v2l-4 1 3-5 5-4 6 1 3-2v-4l9-1h6l2-1v-2l-4-3-6-1v3l-4-1-2 3h-4v-2l2-1 3-5 4-3 7 1 4-3-7-2v-4h2v-2h2l1-3 2-2 2-5h3v-4h8l2-2v-6l-6 3 2-5 2-3h2l1-6-1-3h4l2-5 4-9h2v-7l2-1v-5l2-2v-3l2-1 2-8v-3h2l1-7 4-4-2-5 3-4 3-2-1-10 4-2 2 3 4-5v-3l1-5v-6l-3 5h-2v2h2l-1 4-2 3-3-1 1-9 2-3h2v-2l-3-1 2-14 2-1v-6l2-3 3 1 2-3v-7l1-2h-3v3h-3v-8l1-6-2-3 3-2 1-4 1-2v-9l2-5 3 1 1 5h3l-2 5-1 1 2 1v4l-2 2 6 2 1-4h3v-3l-4-1-1-5 1-5v-3l1-2h5l-2-10-1-1v-5h2l1-5 1-2h-2l1-4h2v-2h-2l-2-7 4-3-2-4-2-1 1-6 5-2v-6l-1-4 3-6-1-3 1-2-4-4-2 3-1 5h2l1-4 1 4 1 3-3 2-3 8h2l-1 5-2 2h-3l2 5 1 5-4 9 2 3v6l-2 1 1 1-1 19-3 3-3-1v-2l-4-2 2-9v-7l1-9v-4l1-3v-5l3-4h-2l-1-9 2-6-1-5 3-2 4 1-1-3-4-1v-8l2-4h3l-3-3 2-13 1-7-1-2h2l1-5 2-7 1-8 2-3 3-11 3-7 1-4h2l1-5 4-7 2-3 2-7 3-2 1-4 2-3h2l2-6 2-4 4-3 1-5 4 1 1-4 7-8 4-5h4v-3l8-6 3-1 1-8h2v3l5-3 4-2 1-2 7-3 13-7 7-3 12-4 3 1v-2l9-2 1-1h6l7-2 8-1h14l3 1 3-1 12 3-1-5z" fill="#7C7C7C"/>
<path transform="translate(513,821)" d="m0 0 7 1 1 4-4 1-4-1v3l9-1h31l4-2 7 1h4l3 2 1-3 6 1 7-1 6 1 2-2h3v3l5-2h6l3 1 2-1h26 3l4 1h8l4-1 6 1 4-1h7l8 1h12l1 2 10-2 1 1 16 1 1-3 3 4 2-3h2l1 2 13-1 1 2 3 1v-2l9 1 16 1 5 1h15l10 2 1-3h2v3l2-1 7 2h12l7 1 3-1 2 1 1-3h3l2 4 11 1 3 2 3-1v3l5-2 9 2h4l1-3h2v4l9 2h4l3 3h5l5 3 5 2 2 5 4-1-2 4-4 5-2 4-4-1 2 4h-2l1 4-4 2v-5l1-3-7 2-3 4h-8l-2-1v3l-6-1v2l-2 1v3l-6 1-4-3h-2v2h-2v2l-9 2v-2h-2v-2h-5v2h2v2l-8 5-3-1v-2l5-3h3v-2l-6 2h-9l-3 1-2-1-1 5-2-1 1-2-9 1-2 3h-3v-2l-7-1-3 2h-5v2l5-1 6-1 3 2v3l-6 3h-12l1-4 1-2h-3v7l-3-1v-6h-2l-1 5-3 2h-3v-2l-12-4-1 4-3 1v2l3 1v3l-5-1v-8h2v-3l-7 2-9-1-1 2 10 1 3 1-1 5-5-1 1 4-1 5h-7l2-4h2l-4-9h-3l4 3-1 7h-2v2l-8 1h-3l-21 1-11 2-5 5-1 5-1 2h-2l2-11h-2l-2 6-5-2 3-1 1-4 1-2h5l1-7v-10l-1-10-6-1v-3l4-1-1-4 1-3h-6l-2-5-2-2h-5v7l-3 1-2-3-2 3 3 1 2 4 5 1-1 2h-3l-2 6 3 2v3l-2 1v9l-1 3 1 3-3 1v5h-3l1 6-6 8-4 1-1 3h-4l-1 4h-2l-2 4-13 6-7-1v2h-10l-4 1-2-2h-6l-10-5-4-1-5-5v-2h-5v-4l-5-1v-5h-2l-3-9v-5l-3-1v-24l-2-2 1-1-4-1v-5h4v2l4 1v-7l1-3h-3v3l-3 1-1-1v-6l-3 3-1 5-10 3 1 5-3 3-1 12-2 3h2v3h-2l2 9v10l5 1v2h-2l1 4-5-1v-5l-2-2-1-8-22-1-6-1v-2h-6l-2 3-9-1-13-1 1-3-1-2-2 2-9-1 2-5-3-1v-3h-2v-2l3 1-1-3-6 1-1-3h-2l-1 3h-4l1 5h-15l3-4h5l3 1v-3h-10l-5 2-1-3-4 2h-9l-1 2-5-1v-3h4v-2l-9 1h-5v2h-5l1-2 3-1 2-3-5-3 1 4-4 2-5-1-5-3v-2l-5 1-1-4-5 2 2 2-4 1-4-3v-2l3-1 1-2-6 1-3-2-1 5-4 1-1-4h2v-2l-5 1-1 2-6-2 1-4h-6l-8-3-1-2h-5v-3l-6-2-3-4 1-6 6-4h2v-2l4 1 5-3 9-1v-2l13-3h6l5-1 11-2h9l4-1v-2h-2l1-3 5-2-2 7 5-1v-5l5-1v3l-3 2 4 1 5-3 9 2v-6l3 1v4h2v-3h2v2h2l1-2v2h4l2-4 4-1 1 3-1 2 9-3 3 1h9l9-1 1-1h18l6-3z" fill="#7B7B7B"/>
<path transform="translate(627,263)" d="m0 0h14l8 5 4 4 2 5 2 1v12h-2v6l-3 5-4-2-4 1v-2l-9 1-4-1-1 1-16 1-4 1-1-3-2-9-1-1v-6l3-5 1-4 7-5 3-4h6z" fill="#7A7A7A"/>
<path transform="translate(861,335)" d="m0 0 5 1 1 1 8 1 5 1 8 1 21 3 5 1 4 1v5l3 3 1 7 5 1v3l-4 3 4 3-2 6h2l2 7 1 12 1 6h-4l-6-23-2-17-8-9-8-4-20-3-19-4-3-3z" fill="#7A7A7A"/>
<path transform="translate(571,954)" d="m0 0 9 5v2h9l2 4 5 2 6 1 7 2h8l5 1 8-1 12-2 4-1 1-3v2l6-2h5l-2 3-6 3-9 3-11 2-12 1h-7l-12-4-5-1-13-6-3-3-7-5z" fill="#7A7A7A"/>
<path transform="translate(984,336)" d="m0 0h4v3h6v2l-12 3-3 1-12 2-7 3-8 4-4 6h-2l-1-4-2-1v3h-2v-6h6v-3h3l6-6 9-1 2-3 3 1h10l4-1z" fill="#7A7A7A"/>
<path transform="translate(280,597)" d="m0 0 5 1 3 3v2l6 2 2 3 3 1 2 3 4 2-1 3h4l1 3 4 2 2 2 4 1v3l2 1v2l5 2-1 3-6-2-6-5v-3l-4-1-10-9-5-3-14-14z" fill="#7A7A7A"/>
<path transform="translate(974,599)" d="m0 0h3l-2 4-7 8-14 12-5 4-4 3h-2l1-4 3-3 1-2h3l5-7h3l1-3 6-2 1-5 4-2z" fill="#7A7A7A"/>
<path transform="translate(288,685)" d="m0 0 5 2h3l7 2 4-1 6 2h3v2l-2 1h-15l-13-3-5-2 1-2z" fill="#7A7A7A"/>
<path transform="translate(963,690)" d="m0 0h10v3l-1 1-13 2-4 1h-18l-1-3 4 1 7-1 1-1 14-2z" fill="#7A7A7A"/>
<path transform="translate(401,799)" d="m0 0h5v5l2 1 1-3 5 2 2-4 3-1v6l-4 2-11 1-5 1-2-6 2-1 2 1z" fill="#F8F8F8"/>
<path transform="translate(256,662)" d="m0 0 7 1 22 3 10 4-1 2-11-2-8-2-11-1-7-2z" fill="#7A7A7A"/>
<path transform="translate(475,476)" d="m0 0 3 1v3l-2 1-1 7h3l1-4 1-2h3v2h-2l1 4-2 3-5-1-1 7-5-1 2-4v-8z" fill="#F8F8F8"/>
<path transform="translate(985,668)" d="m0 0 3 1-5 3-9 2-5 1-6 2-7 1-3 2-5-1 3-3 13-3 11-2 1-1 8-1z" fill="#7A7A7A"/>
<path transform="translate(296,585)" d="m0 0 5 3 7 5 4 4v2l4 2 3 3v3l-4-2-4-4-4-2-4-5-5-5v-2h-2z" fill="#7A7A7A"/>
<path transform="translate(584,910)" d="m0 0 5 1v9l2 1v-3h3l1 6-2 2-5-1v-2h-2l-1-2v-7z" fill="#F8F8F8"/>
<path transform="translate(320,607)" d="m0 0 4 2 5 6 3 1 4 6 2 2v3h-3l-3-3-2-4-3-1-3-5-4-4z" fill="#7A7A7A"/>
<path transform="translate(406,784)" d="m0 0 2 4h4v3h-4l-1 3-7 1-6 1v-2h4v-4l-4 1v-2h5l1 2 4 1-1-5h2z" fill="#F8F8F8"/>
<path transform="translate(475,792)" d="m0 0h2l-3 9-4 2h-7l-2-2 1-3 7 1 1-3 3-1z" fill="#F8F8F8"/>
<path transform="translate(935,610)" d="m0 0h4l-2 6-1 2-6 1-1 4-4 1-1-2 6-7z" fill="#7A7A7A"/>
<path transform="translate(594,927)" d="m0 0 4 1 3 3 5-2 3 4-5 4-4-2-1-2-5-2z" fill="#F8F8F8"/>
<path transform="translate(836,894)" d="m0 0 6 2v3h-7v2h-6l-4 2-1-3 1-2 5-1 5-2z" fill="#7A7A7A"/>
<path transform="translate(738,820)" d="m0 0 8 1 1 4-4 1-11 1 1-4h5z" fill="#7A7A7A"/>
<path transform="translate(458,605)" d="m0 0 3 1v2l3 1v2h-3l1 5 2 1-1 4h-7l3-6z" fill="#F8F8F8"/>
<path transform="translate(786,905)" d="m0 0 7 1 3-1v2h5l1 2h-9l-11 2v-4z" fill="#7A7A7A"/>
<path transform="translate(555,932)" d="m0 0 3 2 3 6 4 5v2l3 1v3l-4-2-5-6-2-4v-3l-3-1z" fill="#7A7A7A"/>
<path transform="translate(803,892)" d="m0 0 5 1 2 1v3l-6 3h-3l-1-6z" fill="#909090"/>
<path transform="translate(495,808)" d="m0 0 5 3v5l-4 2v-2l2-2h-12v-4l4-1 4 2z" fill="#7A7A7A"/>
<path transform="translate(924,303)" d="m0 0 5 1v2h-2l1 4-2 5-4 2 1-13z" fill="#7A7A7A"/>
<path transform="translate(850,809)" d="m0 0 11 2 5 3-2 2-4-2h-11l-1-4z" fill="#F8F8F8"/>
<path transform="translate(784,467)" d="m0 0 3 1 1 5-6 3h-2l-1-6z" fill="#F8F8F8"/>
<path transform="translate(806,818)" d="m0 0h7l2 2-1 4-3-3-3 1 1 3h-6v-3l2-1z" fill="#7A7A7A"/>
<path transform="translate(539,789)" d="m0 0 4 1-1 3-2 1-1 5-1 1h-5v-2l5-1-1-5-4-1z" fill="#F8F8F8"/>
<path transform="translate(852,813)" d="m0 0h8l4 2v3l-13-1-1-3z" fill="#7A7A7A"/>
<path transform="translate(803,601)" d="m0 0 4 2v7l-5 1-2-2 2-6z" fill="#7A7A7A"/>
<path transform="translate(788,477)" d="m0 0h3l-1 5-7 3v-4l-3-1 1-2 7 1z" fill="#F8F8F8"/>
<path transform="translate(434,702)" d="m0 0h2v3l3 3-2 5-4-1-1-4-1-3h2z" fill="#F8F8F8"/>
<path transform="translate(988,684)" d="m0 0 1 4-5 3-9 1 2-4 10-1z" fill="#7A7A7A"/>
<path transform="translate(766,437)" d="m0 0h2l3 4v4l6 2v2l-4 1-5-4v-3l-3-5z" fill="#F8F8F8"/>
<path transform="translate(739,389)" d="m0 0h1v5h2v-5h3l-1 7-2 3-2-4-4-2 1-3z" fill="#F8F8F8"/>
<path transform="translate(492,893)" d="m0 0 5 5h-12l-3-4z" fill="#F8F8F8"/>
<path transform="translate(601,813)" d="m0 0h5l1 4-5 1-3-1h-5l1-3z" fill="#7A7A7A"/>
<path transform="translate(606,794)" d="m0 0h9v3l-9 1-4 1 1-3z" fill="#F8F8F8"/>
<path transform="translate(488,794)" d="m0 0 4 4-3 1-1 3-5-1 1-5z" fill="#F8F8F8"/>
<path transform="translate(372,890)" d="m0 0 1 2 5-2 2 4 2 1-4 2v-3l-6 1-3-1v-2z" fill="#7A7A7A"/>
<path transform="translate(428,797)" d="m0 0h1l1 7h-5l-1 4h-3l1-4z" fill="#F8F8F8"/>
<path transform="translate(452,904)" d="m0 0 5 1 2 1v-2h2l-2 4-1 1h-9v-2z" fill="#7A7A7A"/>
<path transform="translate(484,823)" d="m0 0h4l-1 3-5 1-4 1h-7l2-3z" fill="#7A7A7A"/>
<path transform="translate(539,815)" d="m0 0h4v2l5-1v3l-4 2-3-2-5-1v-2z" fill="#7A7A7A"/>
<path transform="translate(447,794)" d="m0 0h6l1 2-7 2-2 3-3 1-1-1v-5l5-1z" fill="#F8F8F8"/>
<path transform="translate(410,819)" d="m0 0h2v2h7v2l-4 2-4-1v-3h-2l-1 3-3-2v-2z" fill="#7A7A7A"/>
<path transform="translate(419,895)" d="m0 0 6 2v2h-3v2h2l-1 3-4-2-1-4z" fill="#7A7A7A"/>
<path transform="translate(661,810)" d="m0 0 5 1-1 5-2 1-5-2z" fill="#7A7A7A"/>
<path transform="translate(852,789)" d="m0 0 4 1 6 4-2 2h-3l-1-2-5-2z" fill="#F8F8F8"/>
<path transform="translate(629,788)" d="m0 0h5l3 2v2l-4 2h-3l-3-5z" fill="#F8F8F8"/>
<path transform="translate(508,820)" d="m0 0h2v3l-4 4-5-1v-3l7-1z" fill="#7A7A7A"/>
<path transform="translate(492,902)" d="m0 0 11 2-1 3-5 1-5-4z" fill="#F8F8F8"/>
<path transform="translate(847,886)" d="m0 0h3v2l-8 5-3-1v-2z" fill="#7A7A7A"/>
<path transform="translate(346,879)" d="m0 0h4v2l7 2v2h-5l-6-3z" fill="#7A7A7A"/>
<path transform="translate(339,873)" d="m0 0h8l-1 4-4 1-3-2z" fill="#7A7A7A"/>
<path transform="translate(780,810)" d="m0 0h8l1 3-2 1h-7z" fill="#7A7A7A"/>
<path transform="translate(742,790)" d="m0 0h10v2l-2 1 2 3h-6v-3l-4-1z" fill="#F8F8F8"/>
<path transform="translate(836,806)" d="m0 0h11v3l-4-1-6 2-2-3z" fill="#F8F8F8"/>
<path transform="translate(434,763)" d="m0 0 1 2h2v2l-9 2-1-3 2-2h4z" fill="#F8F8F8"/>
<path transform="translate(326,637)" d="m0 0 9 1 3 4-8-1z" fill="#7A7A7A"/>
<path transform="translate(796,611)" d="m0 0 2 1 3 7h-2l-2 4h-1z" fill="#F8F8F8"/>
<path transform="translate(948,598)" d="m0 0 4 1v4l-7 1 1-4z" fill="#7A7A7A"/>
<path transform="translate(486,465)" d="m0 0h2l-1 8-3 1-1 2h-2l1-4h2l-1-5z" fill="#F8F8F8"/>
<path transform="translate(626,820)" d="m0 0h7v4h-6l-2-3z" fill="#7A7A7A"/>
<path transform="translate(930,323)" d="m0 0 2 1-1 6-5-1-1-3z" fill="#7A7A7A"/>
<path transform="translate(685,936)" d="m0 0 2 1v2h-3v5l-3 2v-4-4z" fill="#7A7A7A"/>
<path transform="translate(869,887)" d="m0 0 2 1 1 6-6 1z" fill="#7A7A7A"/>
<path transform="translate(816,774)" d="m0 0 7 2h3l-2 4-5-1-3-3z" fill="#F8F8F8"/>
<path transform="translate(823,740)" d="m0 0 5 1 2 3-3 4-2-1 1-4-3-1z" fill="#F8F8F8"/>
<path transform="translate(961,587)" d="m0 0 3 1-6 7h-3v-4h4z" fill="#7A7A7A"/>
<path transform="translate(621,813)" d="m0 0h3v2l3 1v2h-7z" fill="#7A7A7A"/>
<path transform="translate(514,796)" d="m0 0 3 1-1 3-7 1-3-2z" fill="#F8F8F8"/>
<path transform="translate(845,766)" d="m0 0 2 1-1 2 4 1 1 4-4-1-3-3z" fill="#F8F8F8"/>
<path transform="translate(772,434)" d="m0 0h3v2h2l1 8-2-1v-4h-3z" fill="#F8F8F8"/>
<path transform="translate(469,905)" d="m0 0h8v2l-9 2z" fill="#7A7A7A"/>
<path transform="translate(463,904)" d="m0 0 4 1-1 5h-4z" fill="#7A7A7A"/>
<path transform="translate(915,877)" d="m0 0h6v2l-4 2h-5l-1-2z" fill="#7A7A7A"/>
<path transform="translate(900,875)" d="m0 0h2v3l-7 3h-4l1-3 4-1z" fill="#7A7A7A"/>
<path transform="translate(432,728)" d="m0 0 3 1-3 3v5l-4-2 1-6z" fill="#F8F8F8"/>
<path transform="translate(465,641)" d="m0 0 3 1v3h-2v4h-3l1-7z" fill="#F8F8F8"/>
</svg>
