<?xml version="1.0" encoding="UTF-8"?>
<svg version="1.1" viewBox="0 0 1254 1254" width="1254" height="1254" xmlns="http://www.w3.org/2000/svg">
<path transform="translate(0)" d="m0 0h1254v1254h-1254z" fill="#F7F7F7"/>
<path transform="translate(625,112)" d="m0 0 2 1v2h2v-2l3-1 7 1 6 9 4 1 1 2v3l3 1v2h-3l1 2 4-1 1 4h3l1 6h-2l2 2 3 1v6h2v2h2l-1 4 3 1v3l2 1-4 1 9 2 1 5v8l1 2h3v2l2 1h-2l1 4 4 2-1 4 5-1-3 6 4-1v2h-2l2 4v3h2l1-2 5 5-3 1 4 2v2l9-2 1 3-3 1 3 2 1-2 7 2 10 1 4 4h4l2 2h10l6 3v2l5-1 1 1 8-1 3 3 1 2h7l7 2 2 5 3 1v-2l7 1v2l-4 2 7 2v-2h3l3 3v2h5v3l5-2 1 3h8l-1 4-1 1 7 2 1 3h4v2h4l2-1 2 2h-3v3l7-1 3 2v2l-2 1 1 3 4-2 3 3 4 1 2 2-2 3h2v-2l5 1 1 4-1 2 6 1v2h5l4 6v3l3-1 2 4 6 2 3 3v3l5 1 8 5v3h-2v2l3 1v4l5-1 6 3 1 4h-3l4 1 1 2h3v3l6 2v9l9 1-1 4 1 2 3 1-1 4 6 6 1-2 4 5v3l-2 1 2 2 1-3h2l5 9v3h3v2l-3 1 4 1 1 5h2l1-2 1 3 2 1-6 1 4 1v3l5 3v9l1 1 1-9 2 2v3h2l-1 7 4 1v2h-5l4 3v2h2l1-4-1 7 4-1 1 4-2 3h2v2l4-1 1 3-3 2-1 3 5 1v3l-1 2 2 1h3l1 7-1 5 3 1-1 3h2l4 9h-2v2h2v6h2l2 7-3 1 2 4h2v-3h2v4l3 1v4l-5-2v2l3 1v2h2l-1 5v3l5 2v3l1 10 1 1 2 9h2l3 6 3 2-1 5h2l2-4 3 4v2h2l1-4 4 1v8l3-1 2 1v2l10 1 8 3 1 7h4v2h4l1 4h2l1-2 1 2h6l-1 2-1 1 3 1v-2l2 1 1-3 6 5h5l1 2-9 1 12 4-1 4 6-2-1 5 3-2 4 1v4l5 5 3-1 1 4-1 2 3 1v2h3l-1 8-2 2 2 4h-6v2l2 1-5 2-1 3h-3l-1 3h-2l-1-3-2 6-8 3-4 2v3h-3l-2-3-4 9-1 1-9-1 1 5-4 1h-2v2h-3v-2l-4-1-1 6 2 1h-2l-1 3-2-1-1 4-3 1-2-2v-2l-3 5-7 1 1 1-3 2h-2l-1-3-4 1h-4l1 1 7 1v2h-5l-5 6h-7l-1 6-2 1 2 3-2 1-1 3-2-2-1-4-1 2-1 1 1 4 3 1-2 7h-2v7l-3 3 1 5h-2v5h-2l-3 7 1 3h-2v2l3 1-1 2h-2v-2h-2l-1 6 4 1-2 6-1-3h-2l-1 6v4 7h-3v2h-2v3h-2v2h2l-1 2-2-1-1 6-1-2h-2l2 4-4 2 2 7-5 1 2 3h-3l-2 6v3h-4l2 4-4 2v-3l-1 3 1 8h-2v-3l-3 2 1 3-2 3-3-1v2h2l-5 10-5 2 1 3 5-1-1 3-5 3h-2l1 3-7 5-1 1 2 1-1 2-5-1-2 5-2 1 1 5-4 2v3l-2 1 1 3-4 4h-2v2l-2 1-2 3-2-4-3 3 4 1-1 4-4 1-4 4-2 1-3 5-5 6h-2v2h-2l-2-2v2l2 1-1 5h-4v2l-3 1-1 2-3 2v2h-2v3h-2l-2-2-1 7h-4l-2-2-4 1-1 2h6v3h-7v3l-5 3-4-2 1 3-3 1v5l-4 2-2-6-2 3h-2l-1 4h-2l-1 3-3-2-3-1v4h6l-1 2-10 5h-2l-1 3-1-2-3 2-3-1-2-1 2 6h-3l-1-2-1 3h-4l-1 3h-2l-2 2-1-1-2 5h-6v3l-3-1v-2l-3 1-1 3-2-3v7h-3v2h-4l-5 3-2-3v2l-5 1v2l-8 2-2 3h-2l-1-4-4 3h-4l-5 2-2-1v2h-2l-1 6h-2v-2h-3v-3l-3 1 1 2-1 2h-2l-1-2-2 3-5-2 1 5-8-1-2-2-1 4-2 2h-4v-2h-2l-1 3-5 1-4-1-1 4-4 4-2-8-4 7-3 1v3l3 1-3 5-3 1v2h-2l1 6h-3v2h-2v3h4v2l-8 1-2 14-5 3-2 6-3 3-2 5-1 3h-2v4h-4l-1 5-2 2 3 3h-2l-1 4-5 2-2 5-3 2 1 4-2 3v-4h-2l1 4h-4l-3 3 3 1-3 3-4 1-2-1v-5l-5 1h-7l-5-1-1-4-4-4-2-11-3-1-4-10-4-4v-5l-4-2-2-3v-3l3-1-4-4h-2l-2-10v7l-2-2-1-6h-2l-1-6h-2v-2l3-1-3-4-1-7-5-1-2-4v-3l-2-2-5-2-1-6h-6l-1-5h-3l-1 2-8-4v2l-7-1v2h-2v-3h-2l-1 2-5-3-9-1-1-1v-6h-5v3l-3-1 1-2h-15l-2-6h-10l1-3-6 1-1-5h-2l-1 2-3-5v3l-6-1-5-2-1-3-3 2-4-1-4-2-1-3-5-2-4-1-4-4-7-1v2l-3-1v-9h-3v-2l-8 1 3-3h-5v-3l-7-1v-3l-1 3h-2l-1-7h-4l-2-4 1-2-3 1-4-2-3-4-6-1 1-4h-2l-1 5-3-4 2-1v-3l-5-1-1-3-3 1v-4l-7-2-2-6h-2v-4l-3 3-2-1v-2l-3-1 3-2-3-1h-3l-4-4 1-5-5-1-2-5 1-3-6-2-1 3-4-2v-2l4 1v-2h-2v-4l-4 1-2-5v-3l-4-1-1-4h-2l-1 2v-4l-3-1 2-2-5-1v-6l-3-1v-3h2v-2l-4 1h-3l-3-3-1-7 1-1-8-3-3-7-1-1-1-9-3-4-8-2 3-2 1-1-3-6v-2l-4-1-2-5-5-1v-3l3-2h2l-1-5h-3l-2-10v8l-2-2-4-10-3-3 5-2-1-3h-2v2h-2l1-6 1-1-2-1-1 2v-2h-2v-9h-2v-4l-3-1 1-7-5-2v-4h-2v-9l2-2-2-8v-3l-1 5 1 4h-2l-3-9v-3l-1-5-1-3h6l-1-2h-2v-3h-4v-6l-4-2-1-3-3 1v-2l-4-1h-2v-4h-2l-1 3-3-2v2l-7-2v-2l4-1-6-2-5-6-4-2-3 3-5-2v-3l-7-2-3-3h-5l-2-3v-2l-10-1 1-3-4-1-3-3-3-1v-2h-3l-1-6-5-1-2 4h-1l-2-6-3-4-6-2v-5l-1-3-3-1v-4h-2l-1 2v-3h2l1-7 6-1v-2h2v2l4-1v-2h-2l2-6 4-2 3 1v-2h4l1-10 3-1h8l2-1 1-3h3v3l3-1v-2h2l-1-5h4l1-3h3v-2l7-1 2-5 1 4 5-5h2l1 2 2-2h6v-2h-6l2-4 7-2 2 1v-3h2v2h2l1-3 2-2-2-1v-2h3l1 2 7-2 4 2-3-3 1-2 5-1 4-5-5-1 3-1 1-4 3-4-3 1-1-3 4-2-2-5 3-1 2-3v4h2v-4l-2-1v-8l3-5 2-4v-5l1-1h5l-2-5 3-7 1-7 1-1-1-2h6l-4-3 2-1 1-6h3l-2-2v-3l4-2 2 4v-1l1-9 1-1-3-2v-3l4-4 3-5 3 1 1-5-2-4h-2v-2l4 1v-2h5l-1-2h3l-1-4 4-4 1 1 1-9 3-1v-3l2-2 1-2h4l-1-4 1-4h6l1-9 2 4 3-3 1-4 4-2-1-6 4 1v-3l1-1 2-7 4 1 1-2h-2v-2l4-2-4-2 1-1h5v-2l5-2v5h2v-7l1-1-1-2h4l2-5 1 2h2v-6l1 2h3v-3h2v-2l-4 1-1-2 5-2 5-6h3l5-5 4-1 4-8-1-2 6-5h3l1 5h2l-2-6 7-3 6-1-1-2-4-2 2-2h3l6-3h2l1 3-1-5-4-1 1-2 7 1 1-2 4 1v2h4v-2h-3v-2h-2v-2l5-1 3-5 3 1v2h2l1-6 1 2h2l1-9 3 4 3-5 13-1-5-1 3-4h2l2-2v4l2-8 4 2h4v-2l7-2 1-2 9 1 1-3 1-1 4-1h2l4-1 4 1v-3h-9l4-3 3 1v-2l8-1h5l3-2h3l3 1v2h2v-2h2l2-4 4-5 5 1 2-1v2h2l-1-3 4-3 2 3 2-5 2 1v2h2l1-3 2 3 9-1 2-1v3h2v-4h2v2h3l1-2 4-3 10-1-2-2-1 1h-5l5-8 2-5 3-1 1-5h3l1-2-4-1v-2h4v-5l3-2-2-2 4-2 1 8 1-4-1-5h3v-5l4-3h-3v-2l-2-1 5 1-1-3 1-4h3l1-7 2 1 1-4 2-1v-4l5-1 1-10 4-5v-2l4 1-2-5 5-1 3-1v-2z" fill="#F7F7F7"/>
<path transform="translate(625,112)" d="m0 0 2 1v2h2v-2l3-1 7 1 6 9 4 1 1 2v3l3 1v2h-3l1 2 4-1 1 4h3l1 6h-2l2 2 3 1v6h2v2h2l-1 4 3 1v3l2 1-4 1 9 2 1 5v8l1 2h3v2l2 1h-2l1 4 4 2-1 4 5-1-3 6 4-1v2h-2l2 4v3h2l1-2 5 5-3 1 4 2v2l9-2 1 3-3 1 3 2 1-2 7 2 10 1 4 4h4l2 2h10l6 3v2l5-1 1 1 8-1 3 3 1 2h7l7 2 2 5 3 1v-2l7 1v2l-4 2 7 2v-2h3l3 3v2h5v3l5-2 1 3h8l-1 4-1 1 7 2 1 3h4v2h4l2-1 2 2h-3v3l7-1 3 2v2l-2 1 1 3 4-2 3 3 4 1 2 2-2 3h2v-2l5 1 1 4-1 2 6 1v2h5l4 6v3l3-1 2 4 6 2 3 3v3l5 1 8 5v3h-2v2l3 1v4l5-1 6 3 1 4h-3l4 1 1 2h3v3l6 2v9l9 1-1 4 1 2 3 1-1 4 6 6 1-2 4 5v3l-2 1 2 2 1-3h2l5 9v3h3v2l-3 1 4 1 1 5h2l1-2 1 3 2 1-6 1 4 1v3l5 3v9l1 1 1-9 2 2v3h2l-1 7 4 1v2h-5l4 3v2h2l1-4-1 7 4-1 1 4-2 3h2v2l4-1 1 3-3 2-1 3 5 1v3l-1 2 2 1h3l1 7-1 5 3 1-1 3h2l4 9h-2v2h2v6h2l2 7-3 1 2 4h2v-3h2v4l3 1v4l-5-2v2l3 1v2h2l-1 5v3l5 2v3l1 10 1 1 2 9h2l3 6 3 2-1 5h2l2-4 3 4v2h2l1-4 4 1v8l3-1 2 1v2l10 1 8 3 1 7h4v2h4l1 4h2l1-2 1 2h6l-1 2-1 1 3 1v-2l2 1 1-3 6 5h5l1 2-9 1 12 4-1 4 6-2-1 5 3-2 4 1v4l5 5 3-1 1 4-1 2 3 1v2h3l-1 8-2 2 2 4h-6v2l2 1-5 2-1 3h-3l-1 3h-2l-1-3-2 6-8 3-4 2v3h-3l-2-3-4 9-1 1-9-1 1 5-4 1h-2v2h-3v-2l-4-1-1 6 2 1h-2l-1 3-2-1-1 4-3 1-2-2v-2l-3 5-7 1 1 1-3 2h-2l-1-3-4 1h-4l1 1 7 1v2h-5l-5 6h-7l-1 6-2 1 2 3-2 1-1 3-2-2-1-4-1 2-1 1 1 4 3 1-2 7h-2v7l-3 3 1 5h-2v5h-2l-3 7 1 3h-2v2l3 1-1 2h-2v-2h-2l-1 6 4 1-2 6-1-3h-2l-1 6v4 7h-3v2h-2v3h-2v2h2l-1 2-2-1-1 6-1-2h-2l2 4-4 2 2 7-5 1 2 3h-3l-2 6v3h-4l2 4-4 2v-3l-1 3 1 8h-2v-3l-3 2 1 3-2 3-3-1v2h2l-5 10-5 2 1 3 5-1-1 3-5 3h-2l1 3-7 5-1 1 2 1-1 2-5-1-2 5-2 1 1 5-4 2v3l-2 1 1 3-4 4h-2v2l-2 1-2 3-2-4-3 3 4 1-1 4-4 1-4 4-2 1-3 5-5 6h-2v2h-2l-2-2v2l2 1-1 5h-4v2l-3 1-1 2-3 2v2h-2v3h-2l-2-2-1 7h-4l-2-2-4 1-1 2h6v3h-7v3l-5 3-4-2 1 3-3 1v5l-4 2-2-6-2 3h-2l-1 4h-2l-1 3-3-2-3-1v4h6l-1 2-10 5h-2l-1 3-1-2-3 2-3-1-2-1 2 6h-3l-1-2-1 3h-4l-1 3h-2l-2 2-1-1-2 5h-6v3l-3-1v-2l-3 1-1 3-2-3v7h-3v2h-4l-5 3-2-3v2l-5 1v2l-8 2-2 3h-2l-1-4-4 3h-4l-5 2-2-1v2h-2l-1 6h-2v-2h-3v-3l-3 1 1 2-1 2h-2l-1-2-2 3-5-2 1 5-8-1-2-2-1 4-2 2h-4v-2h-2l-1 3-5 1-4-1-1 4-4 4-2-8-4 7-3 1v3l3 1-3 5-3 1v2h-2l1 6h-3v2h-2v3h4v2l-8 1-2 14-5 3-2 6-3 3-2 5-1 3h-2v4h-4l-1 5-2 2 3 3h-2l-1 4-5 2-2 5-3 2 1 4-2 3v-4h-2l1 4h-4l-3 3 3 1-3 3-4 1-2-1v-5l-5 1h-7l-5-1-1-4-4-4-2-11-3-1-4-10-4-4v-5l-4-2-2-3v-3l3-1-4-4h-2l-2-10v7l-2-2-1-6h-2l-1-6h-2v-2l3-1-3-4-1-7-5-1-2-4v-3l-2-2-5-2-1-6h-6l-1-5h-3l-1 2-8-4v2l-7-1v2h-2v-3h-2l-1 2-5-3-9-1-1-1v-6h-5v3l-3-1 1-2h-15l-2-6h-10l1-3-6 1-1-5h-2l-1 2-3-5v3l-6-1-5-2-1-3-3 2-4-1-4-2-1-3-5-2-4-1-4-4-7-1v2l-3-1v-9h-3v-2l-8 1 3-3h-5v-3l-7-1v-3l-1 3h-2l-1-7h-4l-2-4 1-2-3 1-4-2-3-4-6-1 1-4h-2l-1 5-3-4 2-1v-3l-5-1-1-3-3 1v-4l-7-2-2-6h-2v-4l-3 3-2-1v-2l-3-1 3-2-3-1h-3l-4-4 1-5-5-1-2-5 1-3-6-2-1 3-4-2v-2l4 1v-2h-2v-4l-4 1-2-5v-3l-4-1-1-4h-2l-1 2v-4l-3-1 2-2-5-1v-6l-3-1v-3h2v-2l-4 1h-3l-3-3-1-7 1-1-8-3-3-7-1-1-1-9-3-4-8-2 3-2 1-1-3-6v-2l-4-1-2-5-5-1v-3l3-2h2l-1-5h-3l-2-10v8l-2-2-4-10-3-3 5-2-1-3h-2v2h-2l1-6 1-1-2-1-1 2v-2h-2v-9h-2v-4l-3-1 1-7-5-2v-4h-2v-9l2-2-2-8v-3l-1 5 1 4h-2l-3-9v-3l-1-5-1-3h6l-1-2h-2v-3h-4v-6l-4-2-1-3-3 1v-2l-4-1h-2v-4h-2l-1 3-3-2v2l-7-2v-2l4-1-6-2-5-6-4-2-3 3-5-2v-3l-7-2-3-3h-5l-2-3v-2l-10-1 1-3-4-1-3-3-3-1v-2h-3l-1-6-5-1-2 4h-1l-2-6-3-4-6-2v-5l-1-3-3-1v-4h-2l-1 2v-3h2l1-7 6-1v-2h2v2l4-1v-2h-2l2-6 4-2 3 1v-2h4l1-10 3-1h8l2-1 1-3h3v3l3-1v-2h2l-1-5h4l1-3h3v-2l7-1 2-5 1 4 5-5h2l1 2 2-2h6v-2h-6l2-4 7-2 2 1v-3h2v2h2l1-3 2-2-2-1v-2h3l1 2 7-2 4 2-3-3 1-2 5-1 4-5-5-1 3-1 1-4 3-4-3 1-1-3 4-2-2-5 3-1 2-3v4h2v-4l-2-1v-8l3-5 2-4v-5l1-1h5l-2-5 3-7 1-7 1-1-1-2h6l-4-3 2-1 1-6h3l-2-2v-3l4-2 2 4v-1l1-9 1-1-3-2v-3l4-4 3-5 3 1 1-5-2-4h-2v-2l4 1v-2h5l-1-2h3l-1-4 4-4 1 1 1-9 3-1v-3l2-2 1-2h4l-1-4 1-4h6l1-9 2 4 3-3 1-4 4-2-1-6 4 1v-3l1-1 2-7 4 1 1-2h-2v-2l4-2-4-2 1-1h5v-2l5-2v5h2v-7l1-1-1-2h4l2-5 1 2h2v-6l1 2h3v-3h2v-2l-4 1-1-2 5-2 5-6h3l5-5 4-1 4-8-1-2 6-5h3l1 5h2l-2-6 7-3 6-1-1-2-4-2 2-2h3l6-3h2l1 3-1-5-4-1 1-2 7 1 1-2 4 1v2h4v-2h-3v-2h-2v-2l5-1 3-5 3 1v2h2l1-6 1 2h2l1-9 3 4 3-5 13-1-5-1 3-4h2l2-2v4l2-8 4 2h4v-2l7-2 1-2 9 1 1-3 1-1 4-1h2l4-1 4 1v-3h-9l4-3 3 1v-2l8-1h5l3-2h3l3 1v2h2v-2h2l2-4 4-5 5 1 2-1v2h2l-1-3 4-3 2 3 2-5 2 1v2h2l1-3 2 3 9-1 2-1v3h2v-4h2v2h3l1-2 4-3 10-1-2-2-1 1h-5l5-8 2-5 3-1 1-5h3l1-2-4-1v-2h4v-5l3-2-2-2 4-2 1 8 1-4-1-5h3v-5l4-3h-3v-2l-2-1 5 1-1-3 1-4h3l1-7 2 1 1-4 2-1v-4l5-1 1-10 4-5v-2l4 1-2-5 5-1 3-1v-2zm-45 179-1 3-5-2v3l-4-3-3 3h-3l-5 4-1 2-5-3-1 3-5-2v2l-7 2-2 1-1-2-7 1 1 2h5v2h-4v2l-9-1-7 2-2 1-2-2-3 1-3 6-4-2h-3v2h2v3l-10-1-1 6h-3v2h2v2l-7-1-5 2-1 2-3 1v-2l2-1-2-1-5 1-1 8-7 1-1 4-9 3-1 3-3 1 1 1h-3l-2-4-2 5-3 1 6 1-2 1v2h-5l-2 3-5 1 1 2-4 1v3h-2v2h-2-1l-2-3v2l-2 1 1 2-3 1v2l-5-1-1 3 7 1-8 3v3l-2 1v-2h-2l-2 6-4 4-1 3v-7l-4 4-1 5h-2v-2h-2v3l-3 1 4 1 1 2h-2l-2 4-7 4-1 5-4 6-3-1-4 2 5 1v2h-2v2h-5l1 6-4-2v2h-2v4l2 2-5 1 1 5-7 2-1 3-1 11-3 1v2h-2l-2 5-3 4v3h-2l-1-2-3 7v2l-2 7-4-3v5h2v2l2 1v3h-2l-2 2-2-1v6l-4 2-2 4v2 3l4 2-4 1-1 8 1 3-1 3-4 1 3 1v2l-3 1-2 5-3 1 1 2 1 15h-2l1-3-1-2h-2l1 8 1 2v6l-1 4-2 1 2 9-4 1-1 8 1 5-1 7 1 3 2 1v3l2 5v4h3v3l-4-1 1 6-4 2-1 9 2 6-1 1v7l3 3-2 1 1 3 2-1v2h-2l1 4 1 6v3h4v3h-2l1 7v2l-2 6v3h3v2h2l1 3h3v3l-2 1v4h3l-1 3-2 2 4 8v5l3 2 1 9 3 2-1-7h2v7l1 3 3 1 1 4-3-1-3 3 9 3v2l-2 1 4 4 2 7h2l-5 2v2l6 1 1 8 4 1 2 5 1 6 1-4h2v2h3l-1 2-3 1v2l6 2 2-1-1 4 3 4-1 3h2v-2h2l1 5 3 3h2l2 5h3l1 5 3 3 1 7h3l2 3h4l1 3h3v7l2-1v-3h2v3l2 1v5l5 2-1 4 9 1v2h2v2h4v2l-3 1 1 3 5-2 3-1v6l2 3 7 2 2 7 5-2 3 7h13l-1 2-1 3v2h3v-2l7 2 1 7 1 2h2v-2l8 4 4-1-2 6h10l1-2v2l1 5 6-2v6l4-2v-2h2v2l3 2h4v2l-2 1h2l1 3h2l-1-6 6 3 6 2 5 3 8 2v-2h2l1 2 2-1v6h17l1 3h4l1 2 4-1 1 3 1-2 3-1 6 2 2-1h4v-2l6 3h2l1-3 3 4 2-4h3l1-3-3-1 10 1 2-2v-3h2l4-4v-2l-1-1h2l1 3 4-2v-2h4l1 4 4-4v4h3l1 2 5 2 3 4h6l1 6h6l2-1 1 3 3 2 2-2 8-1 4-4 8-1v2l10-2 2 4 5-3-1-3 8-1 4-3 7 1v3l5-1-1-5h5l3-5 3 3 6-2v-2h2l1-2 7 1 1-4 3 1v-2h4l2-2-1-1 7-1 1-4 12-4 3-4 3-1 1-3 2-1v3l6-2 3-3h4v-3h2v2l4-2v-2l-2-2 2-2h6l2-4h2l-1-4h2v2h2l2-4 4-2 2-4 4-1v2l3-1-1-4-3 1v-2l4-1h4l4-1v-3l5-3-2-3h5l-2-1v-2l3 1v-3h4l3-3v-3h3l1-7h2v2h2l-2-8h2v2l5-1v-4h2l-1-4 8-1v-2l-5-1 4-2-1-4h2l1-2 1 5h1l1-6 2 1v-5h2v-3l6-1v-2h-3v-2l4 1v-3l-1-5 4-1 4-8-1-5 1 1h1v-5h2v6l2-4 1-4 2-5v-3h2v-2h4l2-5-3-4 5-3 2-2v-8l2 2 2-7v-2l2-3v-3l5-1-3-1 1-4-1-2h3v-4l4 3v-3l-1-2h-2v-4-3h3v-2l-2-1 2-5 1-2v-3l2-5-3-5 5-2v-3h3l1-3h-5v-2l3-1 3-9 1-5-5-1v-3h2v-10h3l-3-10h6l-1-3h-2l-4-5 4-1-1-2h-2l-1-7 4-5h-3l1-8h-2v-2l4-1-2-2 1-1v-6h-3l1-4 1-9h-2l1-4-2-1 1-5-2-10h2l-1-7-4-2-2-6v-14l-2-3-3-1 1-7-4-2-1-16-1 2h-2l1-4-2-5h-5l1-3 1-1 1-3h-2l-2-4-1 2-3-7-3-3-1-3 2-2-3-1v-2h-2l2-4-2-4h-2v2h-2l-1-4-3-6 1-3h4l-1-2h-3v-2l-6-2v-2l2-1-2-2h-3l-1-3h-2v-3h-2l-2-6-3-1v-7l-2 4-3-3h-2l1-6-3-1-1-4v2h-2v-2l-2-1v-4l-8-1-1-11-4-1v2l-2-1-1-4-2 2-2-5-1-5h-11v-6l-5-2v-4h-2v-3l-6 1 1-4h-3-2v-2h-3l-1-3-2-1-2-3-3 1 1-4-5 1-1-3-4-3h-3l-1 1v-3l-3-1-1-2h-2l-1 3-5-4-1-3h-5l-3-1-2 1 3-3 3 1 1-4-6-1-1-1h-5l-1-4v4h-5v-4l-4 1-2 1v-2h2v-2l-7 1 1-4h-8l-1-5-4 1-6-4-12-2-2-2h-7l-3-5h-3l-1 2-3 1-1-3h-3-2l-1 2-2-4h-9l-3 1h-6l-1 1-1-5-8 1-4 5-2 1-1-2-8 5v3h-2v4h-2l-3 4v3l-4-3v3h-3l-3 6-3-1-3-3-2 4-2-3h-2v-2l-3-1-1-2-5-1-4-3h-2v-2h-2l3-4-1-3-3 1v2h-5v-6l-4 1-1-5-7-1v2l-6 1v-2l3-1-5-2z" fill="#F5F5F5"/>
<path transform="translate(625,112)" d="m0 0 2 1v2h2v-2l3-1 7 1 6 9 4 1 1 2v3l3 1v2h-3l1 2 4-1 1 4h3l1 6h-2l2 2 3 1v6h2v2h2l-1 4 3 1v3l2 1-4 1 9 2 1 5v8l1 2h3v2l2 1h-2l1 4 4 2-1 4 5-1-3 6 4-1v2h-2l2 4v3h2l1-2 5 5-3 1 4 2v2l9-2 1 3-3 1 3 2 1-2 7 2 10 1 4 4h4l2 2h10l6 3v2l5-1 1 1 8-1 3 3 1 2h7l7 2 2 5 3 1v-2l7 1v2l-4 2 7 2v-2h3l3 3v2h5v3l5-2 1 3h8l-1 4-1 1 7 2 1 3h4v2h4l2-1 2 2h-3v3l7-1 3 2v2l-2 1 1 3 4-2 3 3 4 1 2 2-2 3h2v-2l5 1 1 4-1 2 6 1v2h5l4 6v3l3-1 2 4 6 2 3 3v3l5 1 8 5v3h-2v2l3 1v4l5-1 6 3 1 4h-3l4 1 1 2h3v3l6 2v9l9 1-1 4 1 2 3 1-1 4 6 6 1-2 4 5v3l-2 1 2 2 1-3h2l5 9v3h3v2l-3 1 4 1 1 5h2l1-2 1 3 2 1-6 1 4 1v3l5 3v9l1 1 1-9 2 2v3h2l-1 7 4 1v2h-5l4 3v2h2l1-4-1 7 4-1 1 4-2 3h2v2l4-1 1 3-3 2-1 3 5 1v3l-1 2 2 1h3l1 7-1 5 3 1-1 3h2l4 9h-2v2h2v6h2l2 7-3 1 2 4h2v-3h2v4l3 1v4l-5-2v2l3 1v2h2l-1 5v3l5 2v3l1 10 1 1 2 9h2l3 6 3 2-1 5h2l2-4 3 4v2h2l1-4 4 1v8l3-1 2 1v2l10 1 8 3 1 7h4v2h4l1 4h2l1-2 1 2h6l-1 2-1 1 3 1v-2l2 1 1-3 6 5h5l1 2-9 1 12 4-1 4 6-2-1 5 3-2 4 1v4l5 5 3-1 1 4-1 2 3 1v2h3l-1 8-2 2 2 4h-6v2l2 1-5 2-1 3h-3l-1 3h-2l-1-3-2 6-8 3-4 2v3h-3l-2-3-4 9-1 1-9-1 1 5-4 1h-2v2h-3v-2l-4-1-1 6 2 1h-2l-1 3-2-1-1 4-3 1-2-2v-2l-3 5-7 1 1 1-3 2h-2l-1-3-4 1h-4l1 1 7 1v2h-5l-5 6h-7l-1 6-2 1 2 3-2 1-1 3-2-2-1-4-1 2-1 1 1 4 3 1-2 7h-2v7l-3 3 1 5h-2v5h-2l-3 7 1 3h-2v2l3 1-1 2h-2v-2h-2l-1 6 4 1-2 6-1-3h-2l-1 6v4 7h-3v2h-2v3h-2v2h2l-1 2-2-1-1 6-1-2h-2l2 4-4 2 2 7-5 1 2 3h-3l-2 6v3h-4l2 4-4 2v-3l-1 3 1 8h-2v-3l-3 2 1 3-2 3-3-1v2h2l-5 10-5 2 1 3 5-1-1 3-5 3h-2l1 3-7 5-1 1 2 1-1 2-5-1-2 5-2 1 1 5-4 2v3l-2 1 1 3-4 4h-2v2l-2 1-2 3-2-4-3 3 4 1-1 4-4 1-4 4-2 1-3 5-5 6h-2v2h-2l-2-2v2l2 1-1 5h-4v2l-3 1-1 2-3 2v2h-2v3h-2l-2-2-1 7h-4l-2-2-4 1-1 2h6v3h-7v3l-5 3-4-2 1 3-3 1v5l-4 2-2-6-2 3h-2l-1 4h-2l-1 3-3-2-3-1v4h6l-1 2-10 5h-2l-1 3-1-2-3 2-3-1-2-1 2 6h-3l-1-2-1 3h-4l-1 3h-2l-2 2-1-1-2 5h-6v3l-3-1v-2l-3 1-1 3-2-3v7h-3v2h-4l-5 3-2-3v2l-5 1v2l-8 2-2 3h-2l-1-4-4 3h-4l-5 2-2-1v2h-2l-1 6h-2v-2h-3v-3l-3 1 1 2-1 2h-2l-1-2-2 3-5-2 1 5-8-1-2-2-1 4-2 2h-4v-2h-2l-1 3-5 1-4-1-1 4-4 4-2-8-4 7-3 1v3l3 1-3 5-3 1v2h-2l1 6h-3v2h-2v3h4v2l-8 1-2 14-5 3-2 6-3 3-2 5-1 3h-2v4h-4l-1 5-2 2 3 3h-2l-1 4-5 2-2 5-3 2 1 4-2 3v-4h-2l1 4h-4l-3 3 3 1-3 3-4 1-2-1v-5l-5 1h-7l-5-1-1-4-4-4-2-11-3-1-4-10-4-4v-5l-4-2-2-3v-3l3-1-4-4h-2l-2-10v7l-2-2-1-6h-2l-1-6h-2v-2l3-1-3-4-1-7-5-1-2-4v-3l-2-2-5-2-1-6h-6l-1-5h-3l-1 2-8-4v2l-7-1v2h-2v-3h-2l-1 2-5-3-9-1-1-1v-6h-5v3l-3-1 1-2h-15l-2-6h-10l1-3-6 1-1-5h-2l-1 2-3-5v3l-6-1-5-2-1-3-3 2-4-1-4-2-1-3-5-2-4-1-4-4-7-1v2l-3-1v-9h-3v-2l-8 1 3-3h-5v-3l-7-1v-3l-1 3h-2l-1-7h-4l-2-4 1-2-3 1-4-2-3-4-6-1 1-4h-2l-1 5-3-4 2-1v-3l-5-1-1-3-3 1v-4l-7-2-2-6h-2v-4l-3 3-2-1v-2l-3-1 3-2-3-1h-3l-4-4 1-5-5-1-2-5 1-3-6-2-1 3-4-2v-2l4 1v-2h-2v-4l-4 1-2-5v-3l-4-1-1-4h-2l-1 2v-4l-3-1 2-2-5-1v-6l-3-1v-3h2v-2l-4 1h-3l-3-3-1-7 1-1-8-3-3-7-1-1-1-9-3-4-8-2 3-2 1-1-3-6v-2l-4-1-2-5-5-1v-3l3-2h2l-1-5h-3l-2-10v8l-2-2-4-10-3-3 5-2-1-3h-2v2h-2l1-6 1-1-2-1-1 2v-2h-2v-9h-2v-4l-3-1 1-7-5-2v-4h-2v-9l2-2-2-8v-3l-1 5 1 4h-2l-3-9v-3l-1-5-1-3h6l-1-2h-2v-3h-4v-6l-4-2-1-3-3 1v-2l-4-1h-2v-4h-2l-1 3-3-2v2l-7-2v-2l4-1-6-2-5-6-4-2-3 3-5-2v-3l-7-2-3-3h-5l-2-3v-2l-10-1 1-3-4-1-3-3-3-1v-2h-3l-1-6-5-1-2 4h-1l-2-6-3-4-6-2v-5l-1-3-3-1v-4h-2l-1 2v-3h2l1-7 6-1v-2h2v2l4-1v-2h-2l2-6 4-2 3 1v-2h4l1-10 3-1h8l2-1 1-3h3v3l3-1v-2h2l-1-5h4l1-3h3v-2l7-1 2-5 1 4 5-5h2l1 2 2-2h6v-2h-6l2-4 7-2 2 1v-3h2v2h2l1-3 2-2-2-1v-2h3l1 2 7-2 4 2-3-3 1-2 5-1 4-5-5-1 3-1 1-4 3-4-3 1-1-3 4-2-2-5 3-1 2-3v4h2v-4l-2-1v-8l3-5 2-4v-5l1-1h5l-2-5 3-7 1-7 1-1-1-2h6l-4-3 2-1 1-6h3l-2-2v-3l4-2 2 4v-1l1-9 1-1-3-2v-3l4-4 3-5 3 1 1-5-2-4h-2v-2l4 1v-2h5l-1-2h3l-1-4 4-4 1 1 1-9 3-1v-3l2-2 1-2h4l-1-4 1-4h6l1-9 2 4 3-3 1-4 4-2-1-6 4 1v-3l1-1 2-7 4 1 1-2h-2v-2l4-2-4-2 1-1h5v-2l5-2v5h2v-7l1-1-1-2h4l2-5 1 2h2v-6l1 2h3v-3h2v-2l-4 1-1-2 5-2 5-6h3l5-5 4-1 4-8-1-2 6-5h3l1 5h2l-2-6 7-3 6-1-1-2-4-2 2-2h3l6-3h2l1 3-1-5-4-1 1-2 7 1 1-2 4 1v2h4v-2h-3v-2h-2v-2l5-1 3-5 3 1v2h2l1-6 1 2h2l1-9 3 4 3-5 13-1-5-1 3-4h2l2-2v4l2-8 4 2h4v-2l7-2 1-2 9 1 1-3 1-1 4-1h2l4-1 4 1v-3h-9l4-3 3 1v-2l8-1h5l3-2h3l3 1v2h2v-2h2l2-4 4-5 5 1 2-1v2h2l-1-3 4-3 2 3 2-5 2 1v2h2l1-3 2 3 9-1 2-1v3h2v-4h2v2h3l1-2 4-3 10-1-2-2-1 1h-5l5-8 2-5 3-1 1-5h3l1-2-4-1v-2h4v-5l3-2-2-2 4-2 1 8 1-4-1-5h3v-5l4-3h-3v-2l-2-1 5 1-1-3 1-4h3l1-7 2 1 1-4 2-1v-4l5-1 1-10 4-5v-2l4 1-2-5 5-1 3-1v-2zm1 5 1 5h-2l-1-2-1 3 2 1 1 3-5-1 1 5-2 2-4 1-3 8-1 4-4 3 1 3 7-1-2 5-1 4h-2v-6l-3 1-1-1h-2l-2 8h2l-1 5h-2l-1-3-3 1v5h2l-4 5 1 3-4 2-4 1v2l2 1v2l-4 1 3 1v4l-6 2-1 3 1 3-3 1 1 2-3-1-1 6-3 1 3 8h-5v5l-6 1h-3l-5 1h-3v3l-5-1-9-1v3h-5v-2l-6 2v2h-8l-7 4-3-1v2l-8 1v-2l-9 3-7 5-3 1v3l-3-2h-5l-7 6 2 4-5 1-2-4h-2v4l-2 1-1-4-5 2-1 4h-5l-1 6h-2l1-4-4-1-2 6-8 2v-2h-2l-1 7-3-3h-2l-1 3-3 2v2l-3 1v2l-6-1-3 1-2 4v4l-4-1-1 3-7-1-4 5-2 5-4 1-1 2 1 2h-2v-2l-4 1-2 1v2h4l-1 2h-5l-3 7h-2-3v3h-4v2h3v3l-5-1-5 3-2 3 2 3-4-1-1 2 1 1h-5l-2 4v4l-5-1-2 3 2 2 1 4-4 1v-4l-4 1-1 6 4 1 1 4-4-2h-4v4h4v3l-5 1-1-5h-4l-2 2v5h-4l1 5-4 1-5 5-2 4 2 3-7 2 2 4 2 1-4 2v-4h-2v4h-3l1 4 1 2-3-1 1 4h-3v2l-5 1 2 4-3 1-5 10-5 2-1 7-2 2-2 7v2h-3l1 4h-2l-1 5-2 1v4l-3 1v2l2 1-3 1-1 5-4 2 1 6-4 2-2 10-3 4 2 5 1 2-4-2v5h-2l-1 7h3l1 7-6-4-1 5-4 5 2 4-1 7-1 2-5 1 1 3 2 2 1 6-2 2v4l-2 1v2l4 2-2 1-3-2-4 1-3 5-6-1-5 2v5l-3-2h-7v5l-6 2v2l-3-2-4 1-4 6-3-3v5h-3v2h-2l1-3h-2l-1 3 1 3-5-4-3 2-3 5-5-1-1 6-5-1v4l-4 1v-2h-2l-1 2-5 1-1 6h2l-1 3-4 1-1-5h-2l-4 4v2l-3 1v2l-5 1v2l-7 1v3h2l2 4 7 2-1 3h4l1 3 4-2 2 5v3h6l4-1 1 3-4 1 5 3h3v-2h4v2h-3v2l5-1 3-1-1 5 5 4 2-1 1-1 5 7h4v-2l3 1v2h-3v2l9 3 3-1 2 4 3-2 1 6 11 2 2-1v2l4 2 2 3h3l1-4 5 1-2 6 4 3h4l1 3 6-2-2 6v2l-1 5 5 3-1 6h-3v2l2 1-1 6 4 2v10h2v3l4 1-2 3v3l3 1 1 5-3 1 2 3h3v3h-2l1 3h2v4h3l-2 5 4 3-2 1 1 3h2l2 4 3-3h2l-1 3-3 1v7l4 4-2 1v4l4 1 1 4h2l1 4 3 2-1 5 5 4 3-1-2 4 1 7 4 1 2 6h2l1 5 2-1 1-1 2 7h2v6l3 2v2l2 1 1 4 7 4 1 6h3l3 1 1 7 5 1-1 4 3 3h2l4 3h2l2 4-3 1 3 1 4-1v3l-3 1 2 1 2 4 6 2 1 5 1 2 5-1v3 2l5 2 3-1 1 4-3 1 2 1 1 4 3-3h2v3h4v2h-3v3l5 2 4-3v4l-2 2 2 2h8l1-1 1 5h-3v2l8 4 2-2 3 2v5l3 1 1-2 2 1-1 2 1 3 7 1 4 1 1 5 5-1 1 2-5 1v2l7-2v2l4 1 1 2h3v3l5 1v-2h-3v-2l5 3 1 4h3l1 2 5 2h4v3h3v-2l8 1 1 5h6l2 1 2 3 3-1-1 4 6 2v-4l-1-2 8 1v4l-2 2 8 3h4v-3l4 2-1 3 5 1v2l4-1v-3h2v4h9v3h2v2h3l1-4 2 1-2 3 3 1 3-3v3l3 1 1 2 5-1 6 2 5-1 3-1 2 2v1l8 1 3-1v6l3 1v4l-2 2 2 2 2 4 4 3 1 5v8h2l2-2 2 6 2-1-2 5 4 4 1-5-1-3h2l1 7-3 3 4 3v5h2l1 5 4-1 2 1v2l-4 2 4 1-2 1 1 5 1 2h2l-1-4h2l1 4-1 3 1 3h2l-1 3 6 7 5-1-1 3-5 2 1 4h2v2h2v-2h2l-1 5 4 1v2h3l2 4h6l-3-5 5-1-1-7h2l1 3 4-4 1-4 3-3-2-4 5-5h-3l5-9 2-1 1-4 3-1-1-4 3-1 1-6-3-4 1-3 1 4 4 2v-3h2v-6l2-1v-3l4-2-1-5 5 1-2-8 5-1 1-5-1-2 4-2 4-9-1-5 4-2h6l4-1h4l2-2 1-3 4 3h2l1-2h8l6-4 11-2 1 2 2-3 6-1 1 2 1-5 3 1 5-1 3-2-1-2 5 2v-3l5 2v-5l3 2h3l1-3h8l-1-4 4 1-3-3v-2h2l2 4h5l-1-2 5-1 2-3 2 2 3-2v-2l4-1 4-4v-2l4-1 7-1 1 3h2l-1-5h3l1-2 5-2-1-4 4 2v-3l5 2 4-2v-5h3l1 2 6-6-2-3h5v-4h2l1 3 3-1v-2h2v-4h4v-3l7-2-1-4h4v-2h3l2 4 1-2-1-8 5 1 3-7 4-1 1-2 7-4 3-2v-4h3l1-4 5-1v-4-2l3-1-1-3h2v2h2l1-6 5-1-1-8 6 2 3-5-2-4v-2l3-1 1 2 1-5 6-2 2-4-1-3h5l1-3 2-1v-3h-2v-4h2l1 3h2l-1-6h4v-3h2l2-5 1-4-4-2h6l1-4 2-1-1-2 4-1-3-1v-2l3 1 1-7 4 1v-8h3l-1-6h2v-2l4 1v-5l-2-4 4-2 1-4h2v-2l-4 1v-6h2l1 3 3-1 1-7 2-2v-6l2-2-1-3 3 1v-7l-1-5 6-1-4-6 4-2 1-3-3-3h3l2 1 1-4-2-1v-4l3-1 2-7-4-4h-4v-2h3v-2l-3-1-1-2h2v-2h-4l1-2 5-1-1 6 3 1 1 6h4l2-4-2-1 2-13h-2l1-4 7 1h2l3-4h-3v-7l2-3 2 1v2h-2l1 4h6l1-3 5-1 3-2 2-4 3 1 4-1v-4l4-1v2l3-1v-2l6-2 2-4 5 1 5-4 2-3 6-2h2v-3h2l1 3v-2l6-2 2-4 4-1v-2l9-1 3-3v-2h3l2-3 2 1 1-2h2l1-4 4-1 2-1v-5h-5l-1-4 2-1-4 1v-2l-7-2-2-5h-7l-2 1 1-5-6-1-1-4h-3v-2l-5 1v-4l-7 1-1 4-2-3h2l-1-5-1-3-8-1-1-3-8-2-2-1v-2l-7-4-3 1h-3v-7l-10-2h-3-4l-1-2h-2l1-4-6 1-3 1-2-4-3-1-1-9 3-3-1-3-2-1v-4l3-3-3-4-6 1-1-2h3v-13l-4-1-1-2 3-1-3-4-1-8-4 1 1-7-4-3-3 1v-3l7-1-1-2h-2l1-5-2-3-1-4-1-3-2-1 1-5-2-2h-4l1 6-3-6-1-5-2-3v-5-3-5l-5 3-1-4v-4-4h-2v2h-2l1-5-2-7-3-2v3l-4-1 3-7-2-2h-6l5-2-3-4-1 3h-2v-4h2v-3h-6v-6l-4-1-1-3h2l-1-5-7 1v-3l2-1v-6l-9 1 2-3-1-6-4 1v-5l-4 1v-5l-7 2v-3l6-1-2-1-1-3-3 3-1-6-5 2v-2h2l1-4h-4l-2-2v-4l-6-1v-5l-2-1-4 1v-6h-3l-1-4-5-3-3-1-2-4-4-1-1-4-3-1-3-3h-2v-2h-2v-2l-4-1-2-3h-2l-2-4h-5v-3h-3l-1-3-4-2-1-2h-3l-2-3-5-3-1-3-9-3-3-3-6 2v-2h2l-2-4-8-1-5-5v-2l-12-3-6-4-5 1-1-4-5-1h-4-4l-3 1-4-2 1-5-6-2h-7v-2l-6-2-2 3-3-1-3 4v2l-9 1v-3l5-2 3-2-2-4-3-3h-4v2l-3-1-2-2-10-2v4h-3l-1-4-4-2v5h-2l-1-3h-2l-3-4h-5l-1 2-7-2-1-10-2-1-1-4h-4l2-5-2-5h-2l-1-4-5-5 1-3h-2l2-4-3-1-2-3v-5h-4l-1-2 3-1-2-5-6-2-3-7-1 2h-3v-2h-4v-3h4v2h4l1-6-3-1-3 2-2-8h3l-1-4-3 2-7-4-6-9 6-1v-2h-4l-1-5-3-2z" fill="#A1A1A1"/>
<path transform="translate(596,278)" d="m0 0 4 1 4 2-1 5h3l1-2 1 3 2 1v2l-2 1 4 2 4 7 3 1v2l3 2v2h2l1 5 4 1v2l5-3 4-1 1-5h3v-4h2l1-6h3l1-2 1-3 3-4 2-4 5-5 5 1h3l9 1 1 3 1-2 7 1v2h2v-2l11 1 2 2 7 1 1 2 4-1 2 2 6 1v-2l7 1 2 6 5-1 2 2 5 2v2h8v-2h2l3 4v3l3-1 5 2v2l7 1 1 3 4-2 2 4v1l7 2 3 1v3h4v2h2l1-2 4 4 4 1v3l6 2 4 3 6 4-1 2h6l2 7 5-1 1 3 4 1-1 4 5 1 2 4 3-1 1 3 4 1 3 6h5v5l3 1 1 3 5 1v2h2v6l4 1 1 4 3 1 4 4v3l4 1 5 6 1 2 3 1 1 5 4 1 1 4h2l2 6 6 2-1 6 2 4 4 1 2 1 1 6-1 3 4 3 1 8v3l5-1 3 5v4l1 6h4l2 8-2 7h5l1 5-1 2h2v5l5-1 1 7 1 4-2 3 4 1 1 8-1 3h3v15l1 5 4-1 2 7v5l-1 1 2 1-1 8-1 1 1 2-3 1 3 1 2 4 1 7 1 2v6l1 7-2 5h-2l2 9-4 4 4 1 1 4-2 4-3-1 3 3 2 5 1 4-4 5 1 8-2 4 1 5-1 1-1 9h-2v12l-1 5v3h-2l1 6h-2v5l-3 8-1 10-3 1v7l-3 5-1 5-2 1-2 4v4l-1 3-3 1 1 3-2 4-1 3-2 1-3 7-3 5h-2l1 4h-3l-1 7-6 8-2 7h-2l-2 5-4 3-3 8-4 1v2l-2 1-3 5-2 2-1 4h-3l-1 4-2 2-1 3h-4l-3 6-4 3-3 5h-3l-2 1-1 3h2v2l-8 4-3 2-3 5-3 1v3h-4l-2 4-2 1 1 2h-3l-1 3h-3l-1 3h-3v2l-6 1v2h-2l-1 3-5-1-1 4h3v2l-14 4-1-4h-5l1 7-3 3-1 3h-6v2l-6 1 1 4-4 1-4-1-3 5-2-1v3l-4-2-1 3-7 3-4 1h-2l-3 3-6-1-4 2-2 4-4 1h-3-7l-2 4h-9l-4 1-1 2-14 3-3-1-1 2-10-1-4 2h-8l-3-1v5h-3v-3l-6 1v2h-3l-4-9-3-1v-3h-2l-1-2h-2l-3-5-5-1v-4l-8-1-3 2-4 10-3 1-1 2h-2l-1 3h-2l1 5-3-1-5 3-6-2-11-1v-2l-6 1-4-2-3 1-6-1v-2l-5 1-4-1h-8l-1-4h-8l-2-3h-7l-9-3-2-1-1-3-4 1-2-2-4-1-7-1-1-4-4 1v-2l-4 1-1-4-8 1 1-5-5 1-5-4-6-2-1-4h-3l-1-2h-6l-2-2v-3l-5-1-2-2-4-1v-2h-5v-4h-5l-1-4h-3l-1-3-4-2 1-2-5 1-2-3-1-3-4-1-1-2-3-1v-2l-3-1v-3l-5-1v-3h-3v-2l-5-1-2-5-3-2v-3l-4-1v-4h-2v-2h-4v-4h-3v-3l-4-1-3-6-4 1-2-4 1-3v-3l-4 1-2-4 2-4-5 1-4-8-1-4-4-1-2-5-1-5-5 1-4-6 1-3h2l1 3h2v-2l-7-4 2-6-7-2-2-6-1-4v-3-3h-4v-7l-4-2v-3l-1-3v-3l-1-1v-5l-3-1v-5l-4-2 1-7-1-1h-5l3-8h-2l1-7-1-3-3-1 1-6-2-4-5-1-1 3h-4v-5h4l-1-3 3-1 3 3v-6l-1-4-1-7 1-3h-3v-2h2l-1-7-2-10-1-9v-3-2-4h2l1-4 2-1 1-5-3-1-1-4 1-2-4-1-1-3h-2l-1 2-4-3v-5l-2-4h4l1-2 3 1v7l3 1v2h2l1-7-2-1 1-5 1-8-1-5 2-5v-7l2-5 2-10v-6-4h4l-1-7 2-6 3-8 1-2 1-7v-2-7l4-2 1-2-2-1 3-1v-6l4-1 1-8 2-1 1-5 4-2 1-3h-2v-6l6-4-1-3h2v-2l4-4 5-8 1-6 4-1 3-5 2-4 2 1-1-5 4-4h3l-1-3 4-2 1-4 4-2v-3l2-1 1-4h2v-2h4v-4l4-1v-4h3l1-4h4v-4h3l1-3h3v-4l6-2 1-4 10-10 1 2 2-1v-5l4 1v-3h4l1-4h4l1-3h2l3-3h3v-3l3-1v-4l4 2 4-1-1-3 2-2 7-3 7-1 1-4 4-1v-4l8-2 2 1 1-3h2l2-4 8-1 3-1v2h2v-3h4v-3l3-1 3-3h3l1-4 2 1v2h3l1-3 4 2 3-2 2 1v-3l4 1 2 1 1-3 9-3 6-1 1 1 2-2h6l2 1 1-3h5l1-3 5-1h3l6-1v2h2l-1-3 5 2h5l4-1zm-16 13-1 3-5-2v3l-4-3-3 3h-3l-5 4-1 2-5-3-1 3-5-2v2l-7 2-2 1-1-2-7 1 1 2h5v2h-4v2l-9-1-7 2-2 1-2-2-3 1-3 6-4-2h-3v2h2v3l-10-1-1 6h-3v2h2v2l-7-1-5 2-1 2-3 1v-2l2-1-2-1-5 1-1 8-7 1-1 4-9 3-1 3-3 1 1 1h-3l-2-4-2 5-3 1 6 1-2 1v2h-5l-2 3-5 1 1 2-4 1v3h-2v2h-2-1l-2-3v2l-2 1 1 2-3 1v2l-5-1-1 3 7 1-8 3v3l-2 1v-2h-2l-2 6-4 4-1 3v-7l-4 4-1 5h-2v-2h-2v3l-3 1 4 1 1 2h-2l-2 4-7 4-1 5-4 6-3-1-4 2 5 1v2h-2v2h-5l1 6-4-2v2h-2v4l2 2-5 1 1 5-7 2-1 3-1 11-3 1v2h-2l-2 5-3 4v3h-2l-1-2-3 7v2l-2 7-4-3v5h2v2l2 1v3h-2l-2 2-2-1v6l-4 2-2 4v2 3l4 2-4 1-1 8 1 3-1 3-4 1 3 1v2l-3 1-2 5-3 1 1 2 1 15h-2l1-3-1-2h-2l1 8 1 2v6l-1 4-2 1 2 9-4 1-1 8 1 5-1 7 1 3 2 1v3l2 5v4h3v3l-4-1 1 6-4 2-1 9 2 6-1 1v7l3 3-2 1 1 3 2-1v2h-2l1 4 1 6v3h4v3h-2l1 7v2l-2 6v3h3v2h2l1 3h3v3l-2 1v4h3l-1 3-2 2 4 8v5l3 2 1 9 3 2-1-7h2v7l1 3 3 1 1 4-3-1-3 3 9 3v2l-2 1 4 4 2 7h2l-5 2v2l6 1 1 8 4 1 2 5 1 6 1-4h2v2h3l-1 2-3 1v2l6 2 2-1-1 4 3 4-1 3h2v-2h2l1 5 3 3h2l2 5h3l1 5 3 3 1 7h3l2 3h4l1 3h3v7l2-1v-3h2v3l2 1v5l5 2-1 4 9 1v2h2v2h4v2l-3 1 1 3 5-2 3-1v6l2 3 7 2 2 7 5-2 3 7h13l-1 2-1 3v2h3v-2l7 2 1 7 1 2h2v-2l8 4 4-1-2 6h10l1-2v2l1 5 6-2v6l4-2v-2h2v2l3 2h4v2l-2 1h2l1 3h2l-1-6 6 3 6 2 5 3 8 2v-2h2l1 2 2-1v6h17l1 3h4l1 2 4-1 1 3 1-2 3-1 6 2 2-1h4v-2l6 3h2l1-3 3 4 2-4h3l1-3-3-1 10 1 2-2v-3h2l4-4v-2l-1-1h2l1 3 4-2v-2h4l1 4 4-4v4h3l1 2 5 2 3 4h6l1 6h6l2-1 1 3 3 2 2-2 8-1 4-4 8-1v2l10-2 2 4 5-3-1-3 8-1 4-3 7 1v3l5-1-1-5h5l3-5 3 3 6-2v-2h2l1-2 7 1 1-4 3 1v-2h4l2-2-1-1 7-1 1-4 12-4 3-4 3-1 1-3 2-1v3l6-2 3-3h4v-3h2v2l4-2v-2l-2-2 2-2h6l2-4h2l-1-4h2v2h2l2-4 4-2 2-4 4-1v2l3-1-1-4-3 1v-2l4-1h4l4-1v-3l5-3-2-3h5l-2-1v-2l3 1v-3h4l3-3v-3h3l1-7h2v2h2l-2-8h2v2l5-1v-4h2l-1-4 8-1v-2l-5-1 4-2-1-4h2l1-2 1 5h1l1-6 2 1v-5h2v-3l6-1v-2h-3v-2l4 1v-3l-1-5 4-1 4-8-1-5 1 1h1v-5h2v6l2-4 1-4 2-5v-3h2v-2h4l2-5-3-4 5-3 2-2v-8l2 2 2-7v-2l2-3v-3l5-1-3-1 1-4-1-2h3v-4l4 3v-3l-1-2h-2v-4-3h3v-2l-2-1 2-5 1-2v-3l2-5-3-5 5-2v-3h3l1-3h-5v-2l3-1 3-9 1-5-5-1v-3h2v-10h3l-3-10h6l-1-3h-2l-4-5 4-1-1-2h-2l-1-7 4-5h-3l1-8h-2v-2l4-1-2-2 1-1v-6h-3l1-4 1-9h-2l1-4-2-1 1-5-2-10h2l-1-7-4-2-2-6v-14l-2-3-3-1 1-7-4-2-1-16-1 2h-2l1-4-2-5h-5l1-3 1-1 1-3h-2l-2-4-1 2-3-7-3-3-1-3 2-2-3-1v-2h-2l2-4-2-4h-2v2h-2l-1-4-3-6 1-3h4l-1-2h-3v-2l-6-2v-2l2-1-2-2h-3l-1-3h-2v-3h-2l-2-6-3-1v-7l-2 4-3-3h-2l1-6-3-1-1-4v2h-2v-2l-2-1v-4l-8-1-1-11-4-1v2l-2-1-1-4-2 2-2-5-1-5h-11v-6l-5-2v-4h-2v-3l-6 1 1-4h-3-2v-2h-3l-1-3-2-1-2-3-3 1 1-4-5 1-1-3-4-3h-3l-1 1v-3l-3-1-1-2h-2l-1 3-5-4-1-3h-5l-3-1-2 1 3-3 3 1 1-4-6-1-1-1h-5l-1-4v4h-5v-4l-4 1-2 1v-2h2v-2l-7 1 1-4h-8l-1-5-4 1-6-4-12-2-2-2h-7l-3-5h-3l-1 2-3 1-1-3h-3-2l-1 2-2-4h-9l-3 1h-6l-1 1-1-5-8 1-4 5-2 1-1-2-8 5v3h-2v4h-2l-3 4v3l-4-3v3h-3l-3 6-3-1-3-3-2 4-2-3h-2v-2l-3-1-1-2-5-1-4-3h-2v-2h-2l3-4-1-3-3 1v2h-5v-6l-4 1-1-5-7-1v2l-6 1v-2l3-1-5-2z" fill="#A1A1A1"/>
<path transform="translate(575,241)" d="m0 0 3 1 1 5 5 3 1 5 1 2 4 1-2 4h-8l-6 2h-9v2h-3l-1-2-4 1-1 2-6-1v2l-5 1h-8v2l-9 3h-4v2l-5 1-8 1-3 3-10 1 1 3-6 3h-2l-2 4h-3l-1-2-6 1v2h-5v5h-4v-2l-6 3h-2l-2 6h-7l-2 3h-3v2l-4-1-2 4-10 6h-4l-1 4-6 2-4 1 1 3h-3l-1 3h-2l-3 4-5 1v5l-3 2v2h-2v-2l-4 3-1 5-3-1-1 3-3 1-6 7-3 1 3 1 1 4-9-1-1 4-3 3h-3l1 4-9 6-2 4-2 3h-3l1 4h-2v3h-3l-1 4-1 2h-4v5l-3 3-1 3-2 2-5 6-1 4-2 3h-2l-2 7-3 2-2 6h-2l1 3-1 2h-3l-1 5v3l-5 7h-2l1 3-1 3-2 1-2 8h-3l-1 6-2 5 1 5-4-1v6l-3 8-1 3-1 4-4 5 2 6-3 7-3 13-4 1v2h3l-1 8-3 1 2 4-1 5h-2v2h2l-1 4h-2l2 9-1 4-4-1-2-4-4-2-2-3-4-1-1-3-3-2v-10l1-5v-2h2l-1-5 1-6 2-5h2l-1-4 1-4v-3h2l1-4 1-2-4-1 2-4 4-3-2-1v-6l3-1 1-3h2l-2-4 4-2-1-4 3-6 2-7h2v-6l2-2 3-10-2-1v-3h3v2h2l1-6 2-3v-2l4 1-1-6 3-3h3l-1-5 5-1-3-2 2-4 4-4 1-5 1-2 3-1 2-7 4-1 3-9h2l2-4h2v-4l3-1v-3h2l1-4 4 1v-4h2l2-5 2-1 1-4 1-3h3l1-6 5-2 1-2h2v-3l4-2 2-4 3-2 2 1 1-4 3-1 1-3 5-1v-4l5-3 1-2h3l1-4 4-3h3v-3h4v-2h3l1-4 4-3h2v-2h4l2-4 4-2h3v-2l3-1v2h2l-1-3 5-3h3l1-3 8-6h3l1-2 9-3 3-2h3l1-3 4-1 3 2v-4l5-1 2-2 3 1v-3h2l1-2 7-3 5-1 9-3h11v-5h4l1-2h4l10-4h2v-2l4 1 3-1 4 1 2-3h7l7-1v2h4v-3h8z" fill="#A1A1A1"/>
<path transform="translate(270,651)" d="m0 0 4 2-1 9 2 6-1 3v5l4 1v8l-1 5 3 4v7l-2 2 2 5h2v2l2 1 1 10 3 5 3 9v3l2 5 2 4v3h2l1-2 2 1-1 3h-2l1 4 3 4 1 6-1 2h2v-2l3 1-1 4 1 3-1 3h2l1 5h2l1 5 4 3 2 7 3-1 4 9 2 1v7h4l2 5 3 1 3 9 4 1 1 2 1 3-1 2 3-1 2 2 2 6 5 5 3 5 6 3 3 6 3 3v2l4 1 2 3v4l5 1 8 7v2l3 1 1 3 4 1 2 3 4 1v4l4 1 2 2 4 2 6 4v2l4 1 2 5h4v3l7 2 2 4 5-1 5 3 2 3 6-1v4l4 1 4 3 5 2 4 4v3l2 1v-3l3 1v2l9 1 5 2 2 1v2l4-1 6 2 1 4 5-2 3-1 2 4 3 2v2h3v-2l5 1 9 4 4 2 16 1 4 2 7-2 1 5 7-1 9 1 4 1-1 4-2 1-2 4h-2v4h-3l-1 5-3 2-4-1-1-3h-2v3h-5l-3-2h-5l-1-2h-5v-3l-6 1-4-1-1 3-7-3v-3l-3 1-6-2-7-3-4-1-3-1v-2h-5-4l-1-4h-5v2h-2l1-4-5 1-6-2v-3l-5-1-7-1-1-5-7 1-2-4h-4v-2l-9-2-1-3-8-3-8-4-2-2v-3h-4v-2h-5l-1-4-6-1v-2l-6-3v-3h-4l-1-2-5-3-11-8 1-3-3-1-1-2-3-1-1-3h-3v-2h-3l-5-8-5-4-4-2 1-4-6-2-2-3-5-6-2-1-3-5-3-3-2-4-6-5v-4l-3-1v-2h-2l-1-6h-5v-5l-3-5 1-3-5 2-2-7-4-5v-3l3-1v-5h-2v5l-1-3-4-2-3-3v-3h-2l-3-8v-3h-2v-5l-5-2v-6l-3-3-1-5-2-1-5-15-2-4v-6h-2v-5l-2-2-5-1v-3h2l-1-10 1-2-4-1 1-4-3-7 1-7-3-2v-7h-2l1-5-4-9 2-9 4 1 1-3 5-3 3-4v-3h3z" fill="#A1A1A1"/>
<path transform="translate(686,241)" d="m0 0 15 3 5 2v-2l6 1 4 1 5 2 6 3h7l6 3 4-1 2-1 2 6 10 2 2 5h8 3 4l4 5 6 1 8 4v2h5v3l10 1h3l-2 5 3 1v-2l4 1 3 3 3 1v3l4-1v2l4 1v2l4 1 1 2 6 1v2h2l1 4 5 1 1 3 4 1-3 1v2l4 1h3l5 2v2l-1 1 4 1 4 3v2l5 2 1 2 4 2-1 2h-2v2l5-2v3l5 3 2 5 1-2h2l1 4 2 1v2l4 2 3 3 1 4 4 2 1 5 4-1v2h2l-1 5h4l1 5 5 1 1 7 4-1 2 5v3l4 2 1 2-2 5h2v-2h3l3 6v2h2l3 9h3v5h2l-1 5h5l1 1 1 7 2 1 2 6h-3l1 2 5 3 3 4 2 5 4 4 2 5-1 7h3v3l3 2 1 7h-3l-1 6h2l1-3 4 1 1 4-2 1v2l3 1 2 3-1 7 1 4h2l-1 5h2l1 4 2 3v3l5 1 1 3-3 1 2 11 2 19 1 1v10h-4l-2 4-5 4h-2l-2 4-2-1v3l-3 1-1-3v-11l-2-2 1-3-1-4 1-1-2-5-1-6-1-4-2-6 1-6-4-8v-9h-2l-2-5v-5h2v-3l-5-1v-6l-2-3-1-3v-9l-5-1-1-5 1-4h-4v-4l-2-1 1-4h-3l1-4-3-1-1-7-3-1-1-5-4-1v-8l-4-5-1-3-5-5v-2l-6-5-4-8-1-4-6-3-3-6h2v-3l-5-1-5-7v-2l-3 1-3-6-2-1v-3h-3l-3-4v-4l-4 1-3-3v-4h-2v-2l-5-1v-3l-4-1v-2h-2l-1-3-3-1-4-4v-3l-4-1v-2l-7-1-3-5-3-1v-3l-3 1v-4l-5-1-2-1v-3l-5-1-1-2-8-4v-4l-4 2-5-4-6-2 1-4-5 1-4-1-1-3-4-1-3-3-4-1v-2l-5-1-1-1h-7l-4-2-1-3-8-3-6-1v-3l-7 1-3-1v2h-2v-3l-9-3h-7l-1-2-9-1-5-2-6-2-5 1-9-2-3-1h-2l-4-1-2 1-4-2 7-11h3v-3h3l1-5z" fill="#A0A0A0"/>
<path transform="translate(982,651)" d="m0 0 4 3v2l3 1 1 3 5 2 1 5 4 1v3h2v5l-1 3v8l-3 1-1 5 2 4-3 2-1 9-2 5-2 10-3 5-1 9-4 1 1 5-3 3 1 3-2 1v5l-4 2-2 9-2 6-2 2h-3l1 6-1 4-3 2-1 3h-2v5l-4 2v4h-2l-1 4-2 4h-2l1 3-4 5-2 5-2 1-4 9-4 3-1 3h-2v4h-2l-1 4-4 2 2 1-1 3-8 4-1 6-4 6-3 2h-3v-2h-2l-2 5-1 2h2l-2 4h-2l-1 3h-2l-1 3h-2v2l-3 1-1 3-4-1v2l2 1-3 1-2-1-1 5-3 3h-4v2l-2 2v2l-5-1 1 4-4 1-1 4-4 1-3 3h-3l-1 3-5 4-3-1 1 5-4 1-1-1-3 5h-6l-5 7-1-2-5 2-1 4h-2v2l-5-1-1 2h-2l-1 4-7 1v3l-8 3-7 3-3 2h-3l-1 2-6 1-4 2-2 3-3-2v2l-2 1h-8l-1 4-8 3-3-2v3l-8-1v2h-5v2l-8 1-1-1-1 2-7-1v2l-4 1v2l-9-1-3 2h-8l-4 1 1 4-3-3v-2l-3-1v-2h-3v-3h-2l-7-9 1-2h8l5-2h12v-2l7-1 8-1h4l9-4 4 1v-2l5 2-1-4 9-1 6-1 1-3 5-2 3 2v-2l4-3 11-1 1-3 6-2h4l1-3h2v-2l8-3 1-1h5l-1-3 3-3h5v-2l7-3 1-2h4l1-2 4-1 3-6h2v2l4-4h4v-4h3l2-3h4v-2l3-3h2l1-3 2-1 1-3 6-2 1-4 6-1 7-7 3-5h2v-3l5-2 1-3 4-1v-7h4l1-2h4l1-5 3-1 1-6 6-1h2v-2l-3 1 1-5 1-2h2v-2l3-1 1-2h2l1-5h2v-3h2l1-4 3-1v-6l4-1 2-7h3v-6l4-4 1-3h2l1-7 1-2h2l1-5 2-5 2-2 1-3 2-2v-4h3l-2-4 3-1 1-5 4-9h2v-6l2-1v-9l3-1 1-6v-3l2-5 1-5v-6l4-2v-19l6-2h-2v-4h3l-1-3-2-1 1-6-1-3z" fill="#A1A1A1"/>
<path transform="translate(628,405)" d="m0 0 2 2v3h2v-2l5-2 5 2 1-2 3 2 4 1 1 2h4v2l6 2v1l5 1-1 5-2 1 2 4v2l3 3 3-2v4h-3l-1 4v2l-1 4 2 2 2 11-1 2-1 1 3 1-1 5-2 9v7h-2l4 4v2l-3 2 2 1 1 9-1 7-1 4 1 5h-4l4 1v2h-2v2l2 1-1 5 1 4-2 4 2 1h-3v2l4 2v4l1 4-3 4 3 2 1 7-3 2-2 1v4h4l1 7 5 3v-4l3 1 1 2 6 1 4 3 6-2 2-1 1 6h6l-1-1v-4h4v6h2v-3l4-2h5v-2l5 1 1 2 4-2 6 1 3-1v2l6-2 2 2v3l12-3v2l3 1 1-4 1 4h2v-2h3l1-3h8v2l6-2 3 2 7 1v3l7-1h12l4 2 1 4 3-3 1 2 2 1v3l4 2 3 3h-3l5 6v2l-2 1 5 3 1 3-2 3h-2l1 6 2 6v4l-5 1-1 2h2v6h-2v2h-2l-2 4v2l-1 3-6 1-2-1-1 3-9 2-2 2-3-1-4 1-3-1-1-1-1 3-6 1h-3l-5 2-2-3-7-1-1-3-3 1v3l-3-1-1 2v-5l-3 1v4l-5-2-1 3-2-1v-2l-6 3-7-1-2-1-7-1v2l-7 2h-2v-3l-6 1v-2h-2v5l-3-3v-2l-6 2-2 1-9-2-3 1-3-1-6 1h-6l-2 11h-5l2 3v7l2 5-4-2v3h2l-1 14-2 3h2l1-2 1 2-1 2h-2l2 4-2 2-2 8h2v2h-2l1 6h3l-1 8-1 4-1 3 1 7 2 4h-3l1 5h-2l-1 8-1 4h2l1 2v16h2l2 5-3 1-2 5v13h-4l-1 3h-6l-1-10v-3-2l-1-2 2-4-3-1h4l-2-5 1-5-1-4 2-6-2-2v-6-3l1-8 1-7-2-7 3-1 1-6h-2l-1 3-2-1v-5l-1-3h2l-1-5 3-3-2-3 1-5-1-4 1-2h2l-1-5-1-4v-4l-2-3 5-1-1-3h-3l1-4h3l-3-5 2-5 1-3-2-1-1 2v-7l3-3-3-1 3-1v-2h-3v-2h3l-2-3 1-4 1-2 4 1 7-1 4 1 5-1 1 3h4l1-3h4 7l2 2 12 1 3 1 1-2 6-1 1 3h2l-1-4 10 1h4l4-1 1 3 5-1 2 1v-2h2v2h6v-2l4 1 6-4h2l1 3-4 2 12-3 3 1 4-1 1-3h3v3l5 1 1-3h2v2h12l6 1 4-1 2 2 1-2h3l-1-4v-9l3-1-1-7v-4h2l-3-5-2-7h5v-2h-2l1-6-3-3v-2l-4 1-2-2-4-1v2l-6 1-4-2-3 2 1 5-5-1-6-4v-2l5 1-2-3-11 1-6-2 2 6v5h-3v-4l-4-2v-4l-10 2-1-3h-7l-2 3h-2v-2h-5-4l-7-1-5 2-5-1-1 3-6-2v2h-2l-1-4-5 3-4-2-8-2-3-1-1 4h-5l-1-2-5 2-6-1-4 2v-4h-2l1 5h-3l-1-2-4 1-3-2v-2h-2l-1-6 2-3-1-11 1-2-2-1-1-7 2-1-2-1 1-4 1-2-1-4 3-1-1-4 2-5h-2l1-4h-3l1-13 1-5-1-4h2l1-4h-2l-1 3-2-1v-5l1-2 1-5 2-3-1-5-1-3h3l-2-3-1-10 1-4-2-3 1-5 3-6-4 1 2-5 1-8-4-1 1-5 3-7v-4h-4v-2h-4v-3l6-1 1-5-5-2v2h-6l-1-1-1 2-8 1-2-5h-2v2l-6 3-4-1v2h-5v-3h-3l-1 4h-5l-3-4v-6l8-1 3-3 1 2 1-3 9 2 1-2z" fill="#A1A1A1"/>
<path transform="translate(598,418)" d="m0 0h2l2 10-2 1 1 6v3l1 2-2 1 2 5-3 7h2v3h-2l1 4-1 2 3 1v8h2l1 6-4 1v-4h-2l1 8v8l2 3-2 14h2v6l-2 1 2 8-3 4-1 7 4-1 1 6-2 4-2 1v2l5 1 2 6-4 1-2 5-1 5h2l-2 7 1 9h-2l2 9-1 5-1 1h-5l-2-5h-2v5h-6l-2-1-9-1-1 2h-4v-2h-7l-4 2-7-3-1 3h-9v-2h-2v3l-4-1-4-3-12 1-3 3h-8l-5-3-2 1v-2l-4 3h-3v-2h-7l-1 3h-6l-4-3-5 2-6 2h-8v-2l-4-1-3-2-8 1v4l-6-1 1 4-4 4-4 1-1 2h4l1 2 4-1v2h-2v2h3l-1 3-5 1-4 2 1 2v8l5-1v10h-3l1 5 1 4 2 1v-2l10 1 4 4 1-3 3 1 4-1 4 1h3l3 1 1-3 14 1 2 1v-2h8l-1 2-4 2 12-1 3 1 5-2 8 2h3l1-4 3 1 4 1 5 3 2-4 5-1 4 2h2l2-5 5 1v4l7 1 3 1 3-1 2-4h2v3l3-1 2 3 6-6 1 4h2v2l5-2 6-1h3l3-1v3l3 1v7l-2 4 3-1-1 6 3 1-4 4 2 4 1 3h-3l1 8 1-4h2l1 5-2 2v7l-2 5-1 3 1 6v3l2 5-1 4-1 6h3l-2 9 1 1v9l-1 3h2l-1 5-3 3 1 6-2 3h2l1-3 2 1v3h-2l1 5h-3v9h2v4h-3l2 7 1 2h5l-1 7h-2v-4l-2-1-1 6h-2l2 6v6l5 2v3h4l1-2h6l4 2v3l7-1 3-3 10 1v-2l4 1 1 1 7 1 1-2 7 1 1 3-5 1-1 6-3-3h-3v2h-2l-1-2-4 1-1 2h-2l-1-2-5 2h-3v3l-4-2-4-1h-3l-2-1-4 2-5-1-2-1-1-4-2 3-4-4v-2h4l1-2h-14l1-4 2-3-1-2-4-2 1-3-1-4 2-6 2-1-3-3 1-7v-2l-4-4 3-2-3-7 2-1 1-9 1-1-2-1-1-8h3l-3-6 1-8 1-9h-2l2-4 1-1h-3l-1-10h3l-3-8 5-2-4-6 5-5-4-1-1-3h3l-4-4v-8h2l-4-5-3-7v-3h-6l-1 2h-7l-4-1-4 1-1 3-2-1v-2h-7l-1-3-1 3h-2v-2l-2 1 1 3-5-2-2 1-1-6-1 1-1 4-4-3h-2l-1 2-7 1 1-3-10 3-5 2v-2l-7-1-4-1-4 2-2-4-2-1 1 4h-2v-3l-5 2-8-1v-2l-5 1 3 1v2l-7 1-2-1-4 2-4-1v-3l-8 3-2 1-1-7-3 1-12-1-1-6-6 1-1-8-1-10-2-2h2l-1-11-2-1 1-2h2v-5h-2v-2h3v-11l2-2 2 1v-2h-3l1-2 5-1 1-4-4 1 1-3 7-1h3 8l-2-1v-2h2l1-3h2v2l9-1 6-1 3 1 2-1 2 4 4-2 1 2h2l1-3 2 1v2h-2v2l3-1 2-4h2l2 3h4l1-5 4 1v-2h3l-1 3h6 3 6v-2h2l2 6 2-4 9 1v3l4 1v-2h-2l-1-3 3-1 5 2 2-3 6 1 3 2 3-2h4l2-1v2h3v-2h2v7l4-1-2-4 2-2 3 3 6 1-2-4 11-1 3-3-1-2 2-8h2v-3l1-1-1-2 2-1v-3l-2-5-1-2 2-7-5-2v-3h2l-2-6h4l1-4 2-3h-3l-2-6 6-2-4-4 1-5 5-1v-2l-4 1-2-2 2-1-1-4-1-5-2-2 3-3-2-2 1-5-2-6v-2l3-1v-4l-2-1 1-2 2 1-1-6-2-1 5-1 2 1v-2h-7l2-3v-9l1-2-1-8 1-6h2l2-6 4 1-1-3z" fill="#A1A1A1"/>
<path transform="translate(628,961)" d="m0 0 3 1 4 8 2 6h3v2h4l1 7h4l1 3 4 2 1 7h3l2 5 3 1 1 5-2 1-3 5v3l-2 1-1 6h-3l-1 2h2l-1 6-5 1 1 5v3l-3 1-2 5-3 5 2 2-2 1-3 7h-4l-1 8 1 2 4-1-1 5-4 2-2-1-1 4-1 2h-3l-4-9 1-5h-2l-1-6-8-1-1 3-3-1 7-7 1-8h-5l1-4-2-1-1-7-6-1-1-2 4-1-2-4-1-4-2-1-3-11-4-5-1-4 2-3h2l4-8-1-4 6-3 2-3h4v-3l4-1v-4h2l1-5h3v-3l5-5z" fill="#A2A2A2"/>
<path transform="translate(629,158)" d="m0 0h2l3 8 1 4h-2l2 5 4 2 2 8-3 3h2v-2h3v4l3 1 1 5 3 6-1 4-3 1v2l6-2 6 15 4 4 6-2 1 4-5 3h-2l-2 7-5 5-1 4-5 3-1 2v5l-3 2-2 6-4 8-3 3h-2l-2 6-4 1-4-6v-3h-2v-3l-3-1-1-5-6-8-2-5-8-5 3-2-1-4-5-1 1-5h-4l-1-8 1-1h6l-1-5-1-3 2-4 5 1-1-2v-8l2-1 1 2 2-4 1-4 1-2h2l-1-6 4-1v-3h-2l1-7 1-2 5-2 1-8h2l-1-5z" fill="#A1A1A1"/>
<path transform="translate(230,581)" d="m0 0 6 1 3 5v2h4v3l5 2 2 3 5 2v3h2v2l4 1 1 4 2 3 4 2v2h3l1 5-2 4h-3l-5 5 1 1h2l-2 5h-6l-3 1 1 4h-3l-2-1v3l-4 1-2 3-6 1v5h-2v3l-5-1v-3l-5-1-5-3v-3h-8l-6-3-2-4h-4v-2l-4 1-4-4-1-2h-2l-1 2h-3v-4h-10l-1-4v-2h-3v-2l-3 1-4-3v-2h2l1-3 8-2 1-3h5v-2h2l1-3h5l5-5-3-4h2l-3-5 4-4v2h4l1 4-2 7 10-5 1-2 7-1 1-3 6-2 5-4z" fill="#A1A1A1"/>
<path transform="translate(1021,580)" d="m0 0h3l3 4v2l4-1 1 4 5-1 1 2 5 2 5 3 1-3h2v7l7-1 1 2-1 2 5 1 7 5 6-1 1 3 4 2v2l7 1 2 4-9 3 2 5 1 4h-4v-5h-6l-1 5h-3v-2h-6v2h-2l-1 4-6-1-4 3-2 4-4 1-2-1v2l-6 1 1 4-1 2h-2v-4l-3-1-1 5-3 2h-4l-1 3-4 1-2-4-3-1-4-6-5-2-2-3v-3h-4l-5-6v-2l-4-1v-3h-4l-5-5v-4l4-1 2-5 4-2h4l-2-4 4-2 4-4h4l1-5 4-2 2-3 2 1v-3h2v-2z" fill="#A2A2A2"/>
<path transform="translate(444,605)" d="m0 0 6 2 1 5-7 2h-4l-1-7 3 1z" fill="#A0A0A0"/>
<path transform="translate(403,293)" d="m0 0h4l-1 13h-4l-2-2v-6z" fill="#A1A1A1"/>
<path transform="translate(455,630)" d="m0 0h2l1 1 3-1-1 4-1 2-10 1-5-1-1-3h3l7-1z" fill="#A0A0A0"/>
<path transform="translate(658,959)" d="m0 0 5 2v-2h6l1 4h-5l-1 5-3-1v-3l-4-1z" fill="#A0A0A0"/>
<path transform="translate(461,967)" d="m0 0 5 1 6 2-1 3h-5v2l-5-1-1-6z" fill="#A7A7A7"/>
<path transform="translate(607,424)" d="m0 0h2v3h3v7l-3 2h-6l1-4 2 1z" fill="#A0A0A0"/>
<path transform="translate(594,211)" d="m0 0h6l1 4-3 1-4 6-2-3 1-7z" fill="#A0A0A0"/>
<path transform="translate(607,615)" d="m0 0 4 1 2 6-2 3h-2l-5-5 2-4z" fill="#A0A0A0"/>
<path transform="translate(431,898)" d="m0 0 5 1 1 4-4-1-1 5-1-2-4 1-1-4z" fill="#A0A0A0"/>
<path transform="translate(443,623)" d="m0 0h3v2l5-2 1 4-3 2h-6l-4-4z" fill="#A0A0A0"/>
<path transform="translate(207,611)" d="m0 0 3 1 1 7 1 4-7 2-1-3 4-2-2-4-2-2z" fill="#F8F8F8"/>
<path transform="translate(367,324)" d="m0 0 3 3-3 2h-4l-2 5h-3l2-9z" fill="#A0A0A0"/>
<path transform="translate(246,531)" d="m0 0h2v5l2 1-1 8-3-1v-5l-3-2 1-4z" fill="#A0A0A0"/>
<path transform="translate(633,1013)" d="m0 0 2 1-1 3 3-1 1-3h2v5l1 2-1 2h-2v6h-3l2-10-5-1-1-3z" fill="#F8F8F8"/>
<path transform="translate(645,437)" d="m0 0 3 2-1 4h-7l-4-2v-2z" fill="#A0A0A0"/>
<path transform="translate(713,952)" d="m0 0 10 1v6l-7-1-4-3z" fill="#A0A0A0"/>
<path transform="translate(1006,521)" d="m0 0 2 1 1 8h-3l-5-2v-4h3z" fill="#A0A0A0"/>
<path transform="translate(750,941)" d="m0 0h2l1 4h4l-2 4-8-1v-3z" fill="#A0A0A0"/>
<path transform="translate(490,244)" d="m0 0h5l4 5-2 2-7-1-1-4z" fill="#A0A0A0"/>
<path transform="translate(638,796)" d="m0 0h4v6l1 2-7 1v-6z" fill="#A4A4A4"/>
<path transform="translate(513,235)" d="m0 0 2 1v2l3-1 2 3v3l-6 2-4-5h4z" fill="#A0A0A0"/>
<path transform="translate(604,188)" d="m0 0h5l-1 5-3 1-3-1-1 2-2-4z" fill="#A0A0A0"/>
<path transform="translate(637,781)" d="m0 0h5l2 4-3 3-5-1v-5z" fill="#A0A0A0"/>
<path transform="translate(640,457)" d="m0 0 5 1 1 5-4 1-5-1 2-5z" fill="#A0A0A0"/>
<path transform="translate(595,958)" d="m0 0 3 1-2 4-1 1h-8v-5l4 1v2h2z" fill="#A0A0A0"/>
<path transform="translate(313,845)" d="m0 0 4 2 3 7v3h-4l1-3-5-4z" fill="#A0A0A0"/>
<path transform="translate(236,592)" d="m0 0 4 1 2 4-1 4-3 1-2-1v-4z" fill="#F8F8F8"/>
<path transform="translate(639,527)" d="m0 0 3 1v2h2l2 5-4 2v-4l-5-1z" fill="#A0A0A0"/>
<path transform="translate(479,302)" d="m0 0 4 1 2 5-4 1-5-2 2-4z" fill="#A0A0A0"/>
<path transform="translate(297,497)" d="m0 0h6l2 2v5h-3l-1-2-4-1z" fill="#A0A0A0"/>
<path transform="translate(270,459)" d="m0 0 4 1 1 5-4 2-3-1z" fill="#A0A0A0"/>
<path transform="translate(291,692)" d="m0 0h2l2 5v5l-4-1-1-8z" fill="#A0A0A0"/>
<path transform="translate(481,608)" d="m0 0 5 2 1 3h-7l-2 1-1-3 1-2z" fill="#A0A0A0"/>
<path transform="translate(287,635)" d="m0 0h2v7h-2v2l-4-1 1-5z" fill="#A0A0A0"/>
<path transform="translate(289,804)" d="m0 0 3 3v4h-6v-4z" fill="#A0A0A0"/>
<path transform="translate(307,395)" d="m0 0h2v6l-4 3-4-2 4-3z" fill="#A0A0A0"/>
<path transform="translate(316,383)" d="m0 0 5 1-2 5-5 1-1-5 3-1z" fill="#A0A0A0"/>
<path transform="translate(969,641)" d="m0 0h3l-1 4-3 5-3-1 1-4h2z" fill="#A0A0A0"/>
<path transform="translate(211,598)" d="m0 0 3 1v6h-4v-3h-2v-3z" fill="#F8F8F8"/>
<path transform="translate(192,579)" d="m0 0 4 1-1 4-3 1-4-2z" fill="#A0A0A0"/>
<path transform="translate(640,589)" d="m0 0 5 1-2 6-4-2-1-4z" fill="#A0A0A0"/>
<path transform="translate(295,412)" d="m0 0 3 1-1 5-1 2-4-1 2-6z" fill="#A0A0A0"/>
<path transform="translate(617,218)" d="m0 0h2l1 6-3 1-4-4z" fill="#F8F8F8"/>
<path transform="translate(616,1086)" d="m0 0h3l3 6v2l-5-2-2-2z" fill="#A0A0A0"/>
<path transform="translate(658,986)" d="m0 0 4 3-1 4-5-1 1-5z" fill="#A0A0A0"/>
<path transform="translate(621,635)" d="m0 0h2l-1 5 5 1v2l-5-1-4-2 1-3h2z" fill="#A0A0A0"/>
<path transform="translate(811,600)" d="m0 0h2l-1 7-5 1-1-3 3-1z" fill="#A0A0A0"/>
<path transform="translate(739,939)" d="m0 0 6 1v2h2v2l-4 1-5-3z" fill="#A0A0A0"/>
<path transform="translate(1057,609)" d="m0 0 3 1v6l1 4-3-1-1-5-2-1z" fill="#F8F8F8"/>
<path transform="translate(415,887)" d="m0 0h4v2l-2 1-3 6h-2v-4h2l-1-3h2z" fill="#A0A0A0"/>
<path transform="translate(472,627)" d="m0 0 7 2-1 3-5 1-2-5z" fill="#A0A0A0"/>
<path transform="translate(224,572)" d="m0 0 5 1v3l-1 1h-5z" fill="#A0A0A0"/>
<path transform="translate(617,471)" d="m0 0 2 1 1 6h-4l-2-6z" fill="#A0A0A0"/>
<path transform="translate(592,986)" d="m0 0 3 1v5l-5 1 1-6z" fill="#A0A0A0"/>
<path transform="translate(298,821)" d="m0 0 4 2 1 3-5 1-2-4z" fill="#A0A0A0"/>
<path transform="translate(640,690)" d="m0 0 4 2-4 2 2 4h-4l1-3h-2v-2z" fill="#A0A0A0"/>
<path transform="translate(628,660)" d="m0 0h1v5l-4 6-1-5 2-5z" fill="#A0A0A0"/>
<path transform="translate(196,647)" d="m0 0 4 2 1 5-5 1 1-5z" fill="#A0A0A0"/>
<path transform="translate(812,632)" d="m0 0 5 1-1 5 2 2h-4l-3-5z" fill="#A0A0A0"/>
<path transform="translate(955,615)" d="m0 0 2 4 1 5-5-2v-6z" fill="#F8F8F8"/>
<path transform="translate(446,324)" d="m0 0 4 1v3l-4 3-1-1v-5z" fill="#A0A0A0"/>
<path transform="translate(955,716)" d="m0 0h2l1 8-5-1z" fill="#A0A0A0"/>
<path transform="translate(965,684)" d="m0 0h4v4l-3 3-3-1z" fill="#A0A0A0"/>
<path transform="translate(599,474)" d="m0 0h2v4h2l-2 7-2-3z" fill="#F8F8F8"/>
<path transform="translate(399,352)" d="m0 0h8l1 3-4 1-6-2z" fill="#A0A0A0"/>
<path transform="translate(726,282)" d="m0 0 5 2-1 4-4-1-1-4z" fill="#A0A0A0"/>
<path transform="translate(614,277)" d="m0 0 7 1v3h-7z" fill="#A0A0A0"/>
<path transform="translate(587,212)" d="m0 0 2 4-1 7-2-1-1-6z" fill="#A0A0A0"/>
</svg>
