<?xml version="1.0" encoding="UTF-8"?>
<!-- Generator: visioncortex VTracer 0.6.12 -->
<svg version="1.1" xmlns="http://www.w3.org/2000/svg" width="384" height="384">
<path d="M0 0 C126.72 0 253.44 0 384 0 C384 126.72 384 253.44 384 384 C257.28 384 130.56 384 0 384 C0 257.28 0 130.56 0 0 Z M264 52 C262.73 54.73 262.86 57.35 263.5 60.25 C266.07 63.24 269.99 63.81 273.82 64.17 C275.71 64.23 277.58 64.23 279.46 64.2 C280.14 64.19 280.82 64.19 281.52 64.19 C283.66 64.18 285.8 64.15 287.94 64.12 C289.4 64.11 290.86 64.11 292.32 64.1 C295.88 64.08 299.44 64.04 303 64 C302.99 64.44 302.99 64.88 302.98 65.34 C302.91 69.95 302.87 74.55 302.84 79.16 C302.82 80.88 302.8 82.6 302.77 84.32 C302.74 86.79 302.72 89.26 302.71 91.73 C302.69 92.5 302.68 93.27 302.66 94.06 C302.66 97.46 302.71 99.48 304.4 102.49 C306 104 306 104 307.94 104.46 C308.62 104.43 309.3 104.4 310 104.38 C310.68 104.36 311.36 104.35 312.06 104.34 C314.24 103.96 315.35 103.46 317 102 C317.88 99.87 318.15 97.97 318.24 95.68 C318.26 95.03 318.29 94.38 318.32 93.71 C318.34 93.01 318.36 92.31 318.39 91.59 C318.41 90.86 318.44 90.13 318.46 89.38 C318.52 87.83 318.57 86.29 318.61 84.74 C318.69 82.4 318.78 80.07 318.87 77.73 C319.5 59.24 319.5 59.24 315.25 53.06 C311.23 48.95 305.91 48.76 300.48 48.7 C300.07 48.7 300.07 48.7 298.02 48.7 C297.18 48.69 296.33 48.69 295.45 48.69 C293.67 48.68 291.89 48.68 290.1 48.68 C287.38 48.69 284.65 48.66 281.92 48.64 C280.18 48.64 278.45 48.64 276.71 48.64 C276.3 48.63 276.3 48.63 274.25 48.61 C269.94 48.64 267.14 48.71 264 52 Z M83 55 C83 55.66 83 56.32 83 57 C82.01 57 81.02 57 80 57 C80 57.99 80 58.98 80 60 C80.95 59.86 81.9 59.71 82.88 59.56 C83.41 59.48 83.94 59.4 84.49 59.32 C86 59 86 59 88 58 C88 57.01 88 56.02 88 55 C86.35 55 84.7 55 83 55 Z M94.66 48.04 C92.4 48.08 90.14 48.16 87.88 48.25 C87.19 48.26 86.5 48.28 85.8 48.29 C80.79 48.54 76.82 49.65 73 53 C69.79 58.54 69.59 64.29 69.71 70.53 C69.71 71.41 69.72 72.28 69.72 73.19 C69.74 75.96 69.77 78.73 69.81 81.5 C69.83 83.39 69.84 85.28 69.85 87.17 C69.89 91.78 69.94 96.39 70 101 C70.66 101 71.32 101 72 101 C72.66 102.32 73.32 103.64 74 105 C75.12 105.03 76.25 105.05 77.38 105.06 C78 105.07 78.63 105.09 79.27 105.1 C81 105 81 105 83 104 C85.7 100.25 85.25 96.16 85.2 91.73 C85.19 90.94 85.19 90.15 85.19 89.33 C85.18 86.8 85.15 84.28 85.12 81.75 C85.11 80.03 85.11 78.32 85.1 76.6 C85.08 72.4 85.04 68.2 85 64 C85.42 63.99 85.83 63.99 86.26 63.98 C90.61 63.92 94.96 63.83 99.31 63.74 C100.93 63.7 102.55 63.68 104.17 63.65 C106.51 63.62 108.84 63.57 111.17 63.51 C111.53 63.51 111.53 63.51 113.36 63.49 C117.49 63.37 119.9 63.01 123 60 C122.84 59.34 122.84 59.34 122 56 C118.31 55.12 114.92 54.92 111.15 55.12 C110.88 55.13 110.88 55.13 109.51 55.19 C107.8 55.27 106.09 55.35 104.38 55.44 C102.66 55.52 100.94 55.59 99.22 55.67 C98.15 55.72 97.09 55.77 96.02 55.82 C93.68 55.93 91.35 56 89 56 C89 56.99 89 57.98 89 59 C88.28 59.2 88.28 59.2 84.7 60.17 C82.29 61.35 80.48 62.77 79 65 C78.46 67.33 78.53 69.57 78.61 71.95 C78.62 72.61 78.62 73.27 78.63 73.95 C78.65 76.05 78.7 78.15 78.75 80.25 C78.77 81.68 78.79 83.1 78.8 84.53 C78.85 88.02 78.92 91.51 79 95 C78.01 94.67 77.02 94.34 76 94 C75.97 89.23 75.96 84.46 75.95 79.69 C75.94 78.07 75.93 76.45 75.92 74.83 C75.91 72.49 75.91 70.16 75.9 67.83 C75.9 67.11 75.89 66.38 75.89 65.64 C75.89 62.27 75.94 59.24 77 56 C90.59 52.65 105.08 52.88 119 53 C119 51.68 119 50.36 119 49 C114.72 47.95 110.65 47.84 106.25 47.88 C105.88 47.88 105.88 47.88 104.02 47.89 C100.9 47.92 97.78 47.99 94.66 48.04 Z M123.19 83.38 C122.99 83.57 122.99 83.57 121.98 84.59 C119.4 88.31 119.86 92.94 119.87 97.29 C119.86 98.02 119.86 98.76 119.86 99.52 C119.85 101.98 119.85 104.45 119.85 106.91 C119.85 108.68 119.85 110.45 119.84 112.22 C119.84 117.02 119.83 121.82 119.83 126.62 C119.83 129.62 119.83 132.62 119.83 135.62 C119.82 145.53 119.81 155.45 119.81 165.37 C119.81 165.9 119.81 166.44 119.81 166.99 C119.81 167.52 119.81 168.06 119.81 168.61 C119.82 177.28 119.81 185.96 119.79 194.63 C119.78 203.54 119.77 212.45 119.77 221.36 C119.77 226.36 119.77 231.36 119.76 236.36 C119.75 241.07 119.75 245.77 119.76 250.47 C119.76 252.2 119.75 253.92 119.75 255.65 C119.74 258 119.75 260.36 119.75 262.71 C119.75 263.06 119.75 263.06 119.74 264.79 C119.76 268.36 119.97 270.93 122 274 C124.07 275.79 125.65 276.27 128.36 276.41 C128.67 276.43 128.67 276.43 130.24 276.53 C130.88 276.56 131.53 276.59 132.19 276.62 C132.51 276.64 132.51 276.64 134.17 276.74 C135.78 276.84 137.39 276.92 139 277 C138.99 277.22 138.99 277.22 138.94 278.36 C138.3 294.08 138.3 294.08 141.79 298.81 C145.78 302.75 150.34 304.12 155.88 304.13 C156.26 304.14 156.26 304.14 158.18 304.15 C158.6 304.15 158.6 304.15 160.68 304.15 C161.12 304.15 161.12 304.15 163.33 304.16 C166.23 304.16 169.12 304.17 172.02 304.17 C173.02 304.17 174.02 304.17 175.02 304.17 C180.26 304.18 185.5 304.19 190.74 304.19 C195.61 304.18 200.48 304.2 205.35 304.21 C209.54 304.22 213.73 304.23 217.93 304.23 C220.43 304.23 222.92 304.23 225.42 304.24 C228.22 304.25 231.01 304.25 233.8 304.24 C234.62 304.25 235.43 304.25 236.27 304.26 C249.1 304.19 249.1 304.19 253.38 300.06 C253.91 299.38 254.45 298.7 255 298 C255.35 297.55 255.71 297.1 256.08 296.64 C257.23 294.59 257.31 293.11 257.41 290.77 C257.43 290.37 257.43 290.37 257.53 288.34 C257.56 287.5 257.59 286.67 257.62 285.81 C257.64 285.39 257.64 285.39 257.74 283.25 C257.84 281.17 257.92 279.08 258 277 C258.74 277.03 259.47 277.07 260.23 277.11 C269.21 277.35 269.21 277.35 272 275.94 C276.3 271.78 277.25 266.97 277.39 261.12 C277.43 258.75 277.43 256.38 277.42 254.02 C277.43 252.71 277.44 251.4 277.45 250.09 C277.47 246.54 277.47 243 277.47 239.46 C277.47 236.5 277.48 233.54 277.49 230.58 C277.5 223.59 277.51 216.6 277.5 209.61 C277.49 202.41 277.52 195.21 277.55 188.01 C277.59 181.81 277.6 175.62 277.59 169.42 C277.59 165.73 277.6 162.04 277.62 158.34 C277.64 154.87 277.64 151.4 277.62 147.92 C277.62 146.65 277.62 145.38 277.64 144.11 C277.71 137.55 277.62 132.4 273.27 127.07 C272 126 272 126 270 126 C269.75 125.42 269.49 124.83 269.23 124.23 C267.87 121.76 266.36 120.19 264.31 118.25 C259.71 113.79 255.55 109.01 251.41 104.12 C244.47 95.94 244.47 95.94 242 94 C241.34 94 240.68 94 240 94 C239.79 93.46 239.59 92.93 239.38 92.38 C237.47 89.08 234.95 86.41 232 84 C231.34 84 230.68 84 230 84 C229.94 83.55 229.88 83.09 229.81 82.62 C228.8 80.6 227.71 80.17 225.63 79.41 C222.18 78.55 218.62 78.72 215.08 78.74 C214.64 78.74 214.64 78.74 212.39 78.73 C209.96 78.72 207.54 78.72 205.11 78.73 C202.57 78.74 200.02 78.73 197.47 78.73 C193.2 78.72 188.92 78.73 184.65 78.74 C179.71 78.75 174.78 78.75 169.85 78.74 C165.6 78.73 161.36 78.73 157.11 78.73 C154.58 78.73 152.05 78.73 149.52 78.73 C146.7 78.72 143.87 78.73 141.05 78.74 C140.22 78.74 139.39 78.73 138.53 78.73 C132.93 78.77 127.3 79.06 123.19 83.38 Z M73 277 C71.07 280.12 70.65 282.79 70.39 286.42 C70.35 286.94 70.32 287.46 70.28 288 C69.91 293.54 69.78 299.08 69.76 304.63 C69.75 306.33 69.72 308.03 69.69 309.73 C69.62 316.93 70.3 322.44 74.75 328.31 C81.08 333.06 89.01 332.28 96.53 332.21 C98.5 332.19 100.46 332.19 102.42 332.19 C103.68 332.18 104.95 332.17 106.22 332.17 C106.8 332.17 107.37 332.17 107.96 332.16 C112.04 332.12 115.98 331.66 120 331 C120.33 330.01 120.66 329.02 121 328 C121.66 328 122.32 328 123 328 C122.67 326.35 122.67 326.35 121 318 C116.15 316.44 112.05 315.72 106.97 315.8 C106.66 315.81 106.66 315.81 105.05 315.81 C103.06 315.82 101.06 315.85 99.06 315.88 C97.7 315.89 96.33 315.89 94.97 315.9 C91.64 315.92 88.32 315.96 85 316 C85.16 315.6 85.32 315.2 85.49 314.79 C86.12 312.58 86.13 310.62 86.13 308.32 C86.13 307.39 86.14 306.47 86.14 305.52 C86.13 304.54 86.13 303.57 86.12 302.56 C86.12 302.07 86.12 302.07 86.12 299.57 C86.08 292.66 85.81 285.86 85 279 C84.34 279 83.68 279 83 279 C82.67 278.01 82.34 277.02 82 276 C78.27 274.96 76.21 274.68 73 277 Z M304 280 C303.09 282.18 302.88 284.02 302.89 286.37 C302.89 287.03 302.89 287.69 302.89 288.37 C302.89 289.08 302.9 289.78 302.9 290.51 C302.9 290.88 302.9 290.88 302.91 292.72 C302.91 295.04 302.92 297.36 302.94 299.69 C302.94 301.26 302.95 302.84 302.95 304.42 C302.96 308.28 302.98 312.14 303 316 C302.54 315.99 302.54 315.99 300.22 315.97 C296.8 315.93 293.39 315.91 289.98 315.89 C288.5 315.88 287.02 315.87 285.55 315.85 C283.42 315.82 281.3 315.81 279.17 315.8 C278.51 315.79 277.86 315.78 277.18 315.77 C273.63 315.77 271.02 315.92 268 318 C266.17 321.13 265.43 324.02 266.28 327.56 C267.49 329.99 269.57 330.45 272 331.41 C275.23 332.37 278.31 332.43 281.66 332.4 C282.36 332.4 283.07 332.4 283.8 332.41 C285.28 332.41 286.76 332.4 288.24 332.39 C290.49 332.38 292.74 332.39 295 332.41 C296.45 332.41 297.89 332.4 299.34 332.4 C300.01 332.4 300.67 332.41 301.36 332.42 C306.57 332.34 311.23 331.34 315.3 327.9 C318.02 324.89 318.62 321.96 318.68 317.95 C318.7 317.38 318.72 316.81 318.75 316.22 C318.81 314.37 318.85 312.53 318.88 310.69 C318.89 310.06 318.91 309.44 318.92 308.79 C319.11 301.3 319.15 293.83 318.31 286.38 C318.25 285.74 318.18 285.1 318.11 284.44 C317.86 282.71 317.86 282.71 317 280 C313.26 277.27 307.53 276.47 304 280 Z " fill="#000000" transform="translate(0,0)"/>
<path d="M0 0 C0.7 -0.02 1.4 -0.03 2.12 -0.05 C2.88 -0.05 3.64 -0.06 4.42 -0.06 C4.81 -0.07 4.81 -0.07 6.79 -0.09 C8.45 -0.11 10.11 -0.12 11.77 -0.12 C14.29 -0.13 16.81 -0.18 19.34 -0.23 C20.95 -0.24 22.56 -0.25 24.17 -0.25 C24.92 -0.27 25.67 -0.29 26.45 -0.31 C31.3 -0.27 33.88 0.72 37.45 4.04 C39.86 6.78 39.68 9 39.66 12.53 C39.66 13.04 39.66 13.55 39.66 14.07 C39.65 15.69 39.64 17.31 39.63 18.93 C39.62 20.03 39.62 21.13 39.61 22.23 C39.6 24.92 39.58 27.61 39.56 30.31 C38.9 30.31 38.24 30.31 37.56 30.31 C37.65 30.92 37.73 31.54 37.82 32.17 C37.87 32.57 37.87 32.57 38.13 34.62 C38.18 35.02 38.18 35.02 38.44 37.04 C38.56 39.16 38.4 40.39 37.56 42.31 C36.9 42.31 36.24 42.31 35.56 42.31 C35.56 40.99 35.56 39.67 35.56 38.31 C34.9 38.31 34.24 38.31 33.56 38.31 C33.56 37.65 33.56 36.99 33.56 36.31 C34.22 36.31 34.88 36.31 35.56 36.31 C35.23 35.75 34.89 35.2 34.54 34.62 C33.37 31.85 33.5 30.21 33.88 27.24 C33.98 26.39 34.07 25.53 34.18 24.65 C34.49 22.75 34.88 21.09 35.56 19.31 C34.9 19.31 34.24 19.31 33.56 19.31 C33.54 18.62 33.51 17.93 33.49 17.22 C33.43 16.32 33.37 15.42 33.31 14.49 C33.27 13.6 33.22 12.71 33.17 11.79 C32.56 9.31 32.56 9.31 30.78 7.52 C28.45 6.24 27.01 5.86 24.38 5.68 C23.51 5.62 22.65 5.55 21.76 5.49 C20.69 5.42 19.63 5.36 18.56 5.31 C16.39 5.18 14.21 5.06 12.03 4.93 C10.54 4.85 9.04 4.77 7.54 4.7 C-1.61 4.22 -1.61 4.22 -5.44 2.31 C-3.2 0.07 -2.96 0.05 0 0 Z " fill="#000000" transform="translate(274.4365234375,52.693603515625)"/>
<path d="M0 0 C0.41 -0 0.41 -0 2.49 -0.02 C5.18 -0.03 7.87 -0.03 10.55 -0.03 C12.43 -0.03 14.31 -0.03 16.19 -0.04 C20.12 -0.05 24.05 -0.05 27.98 -0.04 C32.5 -0.03 37.03 -0.05 41.56 -0.07 C45.94 -0.09 50.32 -0.09 54.7 -0.09 C56.55 -0.09 58.4 -0.09 60.26 -0.1 C62.85 -0.12 65.44 -0.11 68.03 -0.1 C68.79 -0.11 69.55 -0.11 70.34 -0.12 C76.4 -0.06 79.81 1.59 84.15 5.9 C84.63 6.38 85.11 6.86 85.6 7.35 C85.85 7.6 85.85 7.6 87.07 8.84 C87.32 9.08 87.32 9.08 88.59 10.34 C89.06 10.81 89.54 11.29 90.02 11.78 C90.45 12.21 90.88 12.64 91.32 13.09 C92.25 14.27 92.25 14.27 92.25 16.27 C92.68 16.36 93.11 16.46 93.55 16.55 C95.87 17.54 96.95 18.97 98.57 20.9 C99.18 21.62 99.79 22.34 100.42 23.08 C101.03 23.81 101.63 24.53 102.25 25.27 C107.18 31.11 111.99 36.47 118.12 41.06 C119.25 42.27 119.25 42.27 119.25 45.27 C119.87 45.54 120.49 45.81 121.13 46.09 C123.33 47.32 124.18 48.03 125.25 50.27 C125.25 51.26 125.25 52.25 125.25 53.27 C125.91 53.27 126.57 53.27 127.25 53.27 C127.24 53.76 127.23 54.25 127.22 54.75 C127.06 61.09 126.9 67.43 126.75 73.77 C126.74 74.29 126.73 74.8 126.72 75.33 C126.33 92.22 126.16 109.09 126.29 125.98 C126.35 135.79 126 145.49 125.25 155.27 C123.2 152.72 122.89 150.66 122.62 147.42 C122.58 146.93 122.54 146.45 122.5 145.95 C122.36 144.33 122.25 142.71 122.13 141.09 C122.11 140.81 122.11 140.81 122 139.39 C121.15 128 121.1 116.63 121.24 105.22 C121.31 98.88 121.23 92.71 120.49 86.4 C120.16 83.42 120.06 80.46 120.07 77.46 C120.07 76.88 120.07 76.3 120.07 75.71 C120.14 69.46 121.12 63.4 122.25 57.27 C121.59 57.27 120.93 57.27 120.25 57.27 C120.25 56.61 120.25 55.95 120.25 55.27 C120 55.43 120 55.43 118.73 56.24 C115.35 57.65 112.24 57.69 108.6 57.79 C107.87 57.82 107.13 57.85 106.37 57.87 C104.81 57.93 103.26 57.97 101.7 58.02 C99.33 58.09 96.96 58.18 94.58 58.28 C93.07 58.33 91.56 58.37 90.04 58.42 C89.33 58.45 88.63 58.48 87.9 58.51 C82.4 58.63 79.57 57.42 75.49 53.63 C73.6 50.03 73.63 46.55 73.5 42.52 C73.47 41.67 73.43 40.81 73.4 39.92 C73.04 29.03 73.63 18.15 74.25 7.27 C72.01 6.94 69.76 6.61 67.5 6.27 C67.19 6.23 67.19 6.23 65.58 5.99 C62.45 5.53 59.43 5.15 56.25 5.27 C56.25 4.61 56.25 3.95 56.25 3.27 C55.26 3.27 54.27 3.27 53.25 3.27 C53.25 3.93 53.25 4.59 53.25 5.27 C37.9 6.2 22.76 6.28 7.38 5.84 C5.31 5.78 3.24 5.73 1.18 5.68 C-3.8 5.55 -8.77 5.42 -13.75 5.27 C-14.3 11.86 -14.85 18.44 -15.31 25.02 C-15.35 25.64 -15.39 26.25 -15.44 26.88 C-15.54 28.35 -15.64 29.81 -15.75 31.27 C-15.09 31.27 -14.43 31.27 -13.75 31.27 C-13.79 31.7 -13.79 31.7 -14 33.83 C-14.1 34.94 -14.21 36.04 -14.31 37.15 C-14.34 37.43 -14.34 37.43 -14.48 38.83 C-14.86 43.05 -14.86 43.05 -13.75 45.27 C-14.08 45.93 -14.41 46.59 -14.75 47.27 C-14.84 49.33 -14.89 51.36 -14.88 53.42 C-14.88 54.03 -14.88 54.63 -14.88 55.26 C-14.88 56.54 -14.88 57.83 -14.88 59.11 C-14.87 61.07 -14.88 63.02 -14.88 64.98 C-14.88 66.23 -14.88 67.48 -14.88 68.73 C-14.88 69.31 -14.88 69.89 -14.88 70.49 C-14.86 73.89 -14.45 76.94 -13.75 80.27 C-13.72 82.04 -13.72 82.04 -13.87 83.61 C-13.91 84.18 -13.96 84.75 -14.01 85.34 C-14.07 85.91 -14.12 86.49 -14.18 87.09 C-14.23 87.68 -14.29 88.28 -14.34 88.9 C-14.47 90.36 -14.61 91.82 -14.75 93.27 C-15.41 93.27 -16.07 93.27 -16.75 93.27 C-16.58 93.99 -16.42 94.7 -16.25 95.44 C-15.75 98.25 -15.62 100.83 -15.61 103.69 C-15.61 104.19 -15.61 104.68 -15.61 105.19 C-15.61 106.23 -15.61 107.27 -15.61 108.31 C-15.62 109.9 -15.61 111.49 -15.61 113.08 C-15.61 114.09 -15.61 115.11 -15.61 116.13 C-15.61 117.04 -15.61 117.96 -15.62 118.9 C-15.73 120.94 -15.97 122.41 -16.75 124.27 C-16.09 124.27 -15.43 124.27 -14.75 124.27 C-14.75 124.93 -14.75 125.59 -14.75 126.27 C-15.41 126.27 -16.07 126.27 -16.75 126.27 C-16.42 127.1 -16.42 127.1 -14.75 131.27 C-15.41 131.27 -16.07 131.27 -16.75 131.27 C-16.87 136.02 -16.87 136.02 -15.75 138.27 C-15.93 139.57 -16.13 140.87 -16.37 142.16 C-18.03 151.04 -17.89 159.84 -17.76 168.83 C-17.75 169.36 -17.75 169.9 -17.74 170.45 C-17.72 171.92 -17.69 173.39 -17.66 174.86 C-17.73 176.95 -17.94 178.38 -18.75 180.27 C-19.41 180.27 -20.07 180.27 -20.75 180.27 C-21.67 148.33 -21.9 116.41 -21.87 84.46 C-21.87 79.46 -21.87 74.45 -21.88 69.45 C-21.88 64.52 -21.88 59.59 -21.88 54.67 C-21.88 51.77 -21.88 48.87 -21.88 45.97 C-21.92 8.43 -21.92 8.43 -17.75 2.27 C-12.27 -0.07 -5.87 -0.02 0 0 Z M79.25 13.27 C79.18 18.19 79.13 23.1 79.09 28.01 C79.08 29.68 79.05 31.35 79.03 33.02 C78.99 35.42 78.98 37.82 78.96 40.23 C78.95 40.97 78.93 41.72 78.91 42.49 C78.91 45.62 79.07 47.85 80.32 50.75 C83.27 53.07 85.9 52.78 89.55 52.67 C90.25 52.66 90.96 52.65 91.69 52.65 C93.94 52.63 96.19 52.58 98.44 52.52 C99.97 52.5 101.5 52.49 103.03 52.47 C106.77 52.43 110.51 52.36 114.25 52.27 C115.34 48.48 115.34 48.48 114.54 46.6 C111.63 42.7 108.49 39.68 104.77 36.56 C101.3 33.51 98.21 30.09 95.07 26.71 C94.47 26.07 93.88 25.44 93.27 24.78 C90.15 21.41 87.2 18.04 84.5 14.33 C83.25 13.27 83.25 13.27 81.11 13.12 C80.5 13.17 79.89 13.22 79.25 13.27 Z " fill="#000000" transform="translate(145.7451171875,82.725341796875)"/>
<path d="M0 0 C0.81 -0.01 1.62 -0.01 2.45 -0.02 C4.16 -0.03 5.86 -0.03 7.56 -0.04 C10.18 -0.05 12.79 -0.08 15.4 -0.11 C17.06 -0.12 18.72 -0.12 20.38 -0.12 C21.16 -0.14 21.94 -0.15 22.75 -0.16 C23.11 -0.16 23.11 -0.16 24.94 -0.15 C25.58 -0.16 26.22 -0.16 26.88 -0.16 C28.49 0.2 28.49 0.2 29.71 1.73 C29.97 2.21 30.22 2.7 30.49 3.2 C29.83 3.2 29.17 3.2 28.49 3.2 C28.49 3.86 28.49 4.52 28.49 5.2 C23.35 5.25 18.21 5.29 13.06 5.31 C11.32 5.32 9.57 5.34 7.82 5.35 C5.3 5.38 2.79 5.39 0.27 5.4 C-0.51 5.41 -1.28 5.42 -2.08 5.43 C-6.88 5.43 -10.98 4.8 -15.51 3.2 C-11.49 -0.82 -5.37 0.03 0 0 Z " fill="#000000" transform="translate(169.51171875,125.796875)"/>
<path d="M0 0 C0.51 -0 1.02 -0.01 1.55 -0.01 C3.23 -0.02 4.91 -0.02 6.59 -0.02 C7.76 -0.03 8.93 -0.03 10.11 -0.03 C12.56 -0.04 15.02 -0.04 17.47 -0.04 C20.61 -0.04 23.75 -0.05 26.89 -0.07 C29.31 -0.08 31.73 -0.08 34.15 -0.08 C35.31 -0.08 36.47 -0.09 37.63 -0.1 C39.25 -0.11 40.87 -0.1 42.49 -0.1 C43.41 -0.1 44.33 -0.1 45.28 -0.1 C47.87 0.16 49.51 0.83 51.74 2.15 C51.74 2.81 51.74 3.47 51.74 4.15 C49.17 5.43 47.31 5.28 44.42 5.29 C44.15 5.29 44.15 5.29 42.78 5.3 C40.99 5.31 39.2 5.31 37.4 5.31 C36.16 5.32 34.91 5.32 33.67 5.32 C31.06 5.33 28.44 5.33 25.83 5.33 C22.49 5.33 19.14 5.34 15.79 5.36 C13.22 5.37 10.65 5.37 8.07 5.37 C6.84 5.38 5.61 5.38 4.37 5.39 C2.65 5.4 0.92 5.39 -0.81 5.39 C-1.3 5.39 -1.3 5.39 -3.78 5.39 C-6.28 5.14 -7.45 4.87 -9.26 3.15 C-9.26 2.49 -9.26 1.83 -9.26 1.15 C-6.11 0.22 -3.28 0.01 0 0 Z " fill="#000000" transform="translate(164.255859375,153.854736328125)"/>
<path d="M0 0 C1.61 0.01 3.22 0.02 4.84 0.02 C9.98 0.06 15.11 0.12 20.25 0.19 C21.14 0.2 22.03 0.21 22.94 0.22 C28.26 0.3 33.58 0.39 38.9 0.51 C40.59 0.54 42.28 0.58 43.97 0.61 C46.33 0.65 48.69 0.71 51.04 0.77 C51.75 0.79 52.45 0.8 53.17 0.81 C53.82 0.83 54.46 0.85 55.12 0.87 C55.4 0.88 55.4 0.88 56.82 0.91 C58.25 1.19 58.25 1.19 60.25 3.19 C57.61 5.38 55.66 5.41 52.28 5.35 C51.78 5.34 51.28 5.34 50.77 5.33 C49.67 5.32 48.58 5.3 47.49 5.28 C44.46 5.23 41.43 5.21 38.41 5.19 C37.76 5.18 37.11 5.18 36.44 5.17 C29.13 5.15 21.83 5.42 14.52 5.67 C-19.52 6.85 -19.52 6.85 -26.75 4.19 C-26.75 3.53 -26.75 2.87 -26.75 2.19 C-17.85 -0.21 -9.15 -0.08 0 0 Z " fill="#000000" transform="translate(182.75,179.8125)"/>
<path d="M0 0 C0.71 -0 1.43 -0.01 2.17 -0.01 C3.68 -0.02 5.18 -0.02 6.69 -0.01 C8.99 -0.01 11.29 -0.04 13.59 -0.06 C15.06 -0.06 16.53 -0.06 18 -0.06 C18.68 -0.07 19.37 -0.08 20.07 -0.09 C24.49 -0.05 27.01 0.64 30.57 3.3 C33.43 6.85 35.02 10.8 35.57 15.3 C34.91 15.3 34.25 15.3 33.57 15.3 C33.57 16.29 33.57 17.28 33.57 18.3 C34.56 18.3 35.55 18.3 36.57 18.3 C36.57 17.64 36.57 16.98 36.57 16.3 C39.44 16.18 42.32 16.11 45.19 16.05 C46 16.02 46.81 15.98 47.64 15.95 C52.24 15.87 55.46 16.23 59.29 18.85 C64.59 24.88 64.01 31.59 63.96 39.14 C63.97 40.4 63.97 41.65 63.97 42.91 C63.98 45.53 63.97 48.15 63.96 50.78 C63.94 54.13 63.95 57.47 63.97 60.82 C63.98 63.41 63.98 66 63.97 68.59 C63.97 69.83 63.97 71.06 63.98 72.29 C64.03 84.55 64.03 84.55 60.57 89.3 C57.88 90.18 57.88 90.18 55.57 90.3 C55.57 90.96 55.57 91.62 55.57 92.3 C43.54 92.39 31.52 92.46 19.5 92.51 C13.92 92.53 8.34 92.56 2.75 92.6 C-2.11 92.64 -6.98 92.67 -11.85 92.68 C-14.42 92.68 -17 92.69 -19.58 92.72 C-22.46 92.75 -25.34 92.76 -28.22 92.75 C-29.06 92.77 -29.91 92.78 -30.79 92.8 C-36.03 92.76 -39.57 91.99 -43.43 88.3 C-46.56 84.08 -46.83 79.23 -46.64 74.15 C-46.62 73.47 -46.61 72.79 -46.6 72.09 C-46.57 70.61 -46.53 69.13 -46.49 67.65 C-46.43 65.22 -46.41 62.79 -46.39 60.35 C-46.37 56.01 -46.3 51.67 -46.23 47.33 C-46.2 45.54 -46.18 43.75 -46.16 41.96 C-46.14 39.33 -46.09 36.7 -46.04 34.07 C-46.04 33.28 -46.04 32.49 -46.04 31.67 C-45.9 26.52 -44.91 23.17 -41.43 19.3 C-34.91 13.74 -24.51 15.15 -16.43 15.3 C-16.35 14.64 -16.27 13.98 -16.18 13.3 C-15.31 9.02 -13.53 3.72 -9.82 1.21 C-6.52 -0.05 -3.51 -0 0 0 Z M-7.43 4.3 C-7.93 5.25 -8.43 6.2 -8.92 7.15 C-9.2 7.68 -9.47 8.21 -9.76 8.76 C-10.6 10.68 -10.67 12.23 -10.43 14.3 C-11.09 14.3 -11.75 14.3 -12.43 14.3 C-12.43 14.96 -12.43 15.62 -12.43 16.3 C-13.09 16.3 -13.75 16.3 -14.43 16.3 C-15.09 17.62 -15.75 18.94 -16.43 20.3 C-16.71 20.31 -16.71 20.31 -18.11 20.33 C-20.64 20.38 -23.16 20.47 -25.68 20.55 C-26.56 20.56 -27.43 20.58 -28.33 20.59 C-28.75 20.61 -28.75 20.61 -30.89 20.69 C-31.66 20.71 -32.44 20.73 -33.24 20.75 C-35.52 21.32 -37.07 21.96 -38.66 23.74 C-40.56 27.58 -40.06 32.35 -40.08 36.57 C-40.1 37.68 -40.11 38.8 -40.14 39.92 C-40.17 42.27 -40.2 44.61 -40.22 46.95 C-40.24 49.94 -40.28 52.92 -40.33 55.9 C-40.38 58.77 -40.42 61.64 -40.45 64.5 C-40.46 65.04 -40.47 65.58 -40.48 66.13 C-40.69 82.4 -40.69 82.4 -38.13 86.28 C-36.04 87.54 -34.77 87.66 -32.34 87.63 C-31.56 87.62 -30.77 87.62 -29.97 87.61 C-29.15 87.59 -28.34 87.57 -27.5 87.55 C-27.09 87.55 -27.09 87.55 -25.04 87.54 C-21.32 87.49 -18.03 87.31 -14.43 86.3 C-14.43 86.96 -14.43 87.62 -14.43 88.3 C-12.45 88.3 -10.47 88.3 -8.43 88.3 C-8.43 87.64 -8.43 86.98 -8.43 86.3 C-7.77 86.3 -7.11 86.3 -6.43 86.3 C-6.43 86.96 -6.43 87.62 -6.43 88.3 C0.29 88.37 7.01 88.42 13.73 88.46 C16.85 88.47 19.97 88.49 23.09 88.53 C26.11 88.56 29.14 88.58 32.16 88.59 C33.3 88.59 34.44 88.6 35.59 88.62 C43.36 88.72 50.2 87.96 57.57 85.3 C59.28 83.59 58.95 81.06 59.13 78.74 C59.17 78.22 59.22 77.7 59.26 77.16 C59.37 75.88 59.47 74.59 59.57 73.3 C58.91 73.3 58.25 73.3 57.57 73.3 C57.9 72.64 58.23 71.98 58.57 71.3 C58.7 69.89 58.7 69.89 58.71 68.25 C58.72 67.63 58.72 67.01 58.73 66.38 C58.73 65.71 58.73 65.03 58.73 64.34 C58.74 63.64 58.74 62.95 58.74 62.23 C58.75 60.74 58.75 59.25 58.75 57.76 C58.75 55.54 58.77 53.31 58.79 51.08 C58.82 44.34 58.7 37.66 57.8 30.98 C57.74 30.46 57.68 29.94 57.62 29.4 C57.02 25.57 55.64 23.61 52.57 21.3 C50.18 20.75 50.18 20.75 47.58 20.69 C46.65 20.66 45.71 20.63 44.75 20.59 C43.78 20.58 42.81 20.57 41.82 20.55 C40.83 20.52 39.85 20.49 38.84 20.46 C36.41 20.39 33.99 20.34 31.57 20.3 C31.37 19.54 31.18 18.78 30.98 18 C30.72 17 30.45 15.99 30.19 14.99 C30.07 14.49 29.94 13.99 29.81 13.47 C29.08 10.73 28.4 8.48 26.57 6.3 C25.1 5.81 25.1 5.81 23.29 5.65 C22.93 5.62 22.93 5.62 21.12 5.45 C15.77 5.13 10.42 4.92 5.07 4.74 C3.85 4.69 2.63 4.65 1.42 4.61 C-1.53 4.5 -4.48 4.4 -7.43 4.3 Z M-42.43 21.3 C-42.43 22.29 -42.43 23.28 -42.43 24.3 C-40.78 23.97 -39.13 23.64 -37.43 23.3 C-37.43 22.31 -37.43 21.32 -37.43 20.3 C-40.43 20.3 -40.43 20.3 -42.43 21.3 Z M-21.43 88.3 C-21.43 89.29 -21.43 90.28 -21.43 91.3 C-20.44 91.3 -19.45 91.3 -18.43 91.3 C-18.43 90.31 -18.43 89.32 -18.43 88.3 C-19.42 88.3 -20.41 88.3 -21.43 88.3 Z " fill="#000000" transform="translate(189.43359375,206.69921875)"/>
<path d="M0 0 C6.15 3.55 11.24 8.3 13.38 15.2 C14.69 21.93 14.77 28.46 11.29 34.52 C8.04 38.74 3.16 44.22 -2.19 45.44 C-2.19 44.45 -2.19 43.46 -2.19 42.44 C-3.18 42.44 -4.17 42.44 -5.19 42.44 C-5.19 43.76 -5.19 45.08 -5.19 46.44 C-13.28 46.93 -18.5 45.75 -24.88 40.69 C-29.01 36.96 -32.5 32.09 -33.19 26.44 C-33.26 25.89 -33.34 25.34 -33.41 24.77 C-33.9 18.43 -31.33 13.81 -28.19 8.44 C-27.84 7.85 -27.5 7.25 -27.15 6.64 C-26.99 6.45 -26.99 6.45 -26.19 5.44 C-25.53 5.44 -24.87 5.44 -24.19 5.44 C-24.19 4.78 -24.19 4.12 -24.19 3.44 C-16.26 -1.29 -9.02 -4 0 0 Z M-22.05 9.13 C-26.54 14.08 -27.63 18.36 -27.53 24.99 C-26.82 30.09 -24.36 34.29 -20.72 37.89 C-17.09 40.41 -13.4 40.79 -9.06 40.88 C-8.81 40.88 -8.81 40.88 -7.54 40.91 C-2.86 40.79 0.06 39.17 3.36 35.9 C3.76 35.4 4.15 34.89 4.56 34.38 C4.97 33.87 5.38 33.36 5.8 32.84 C8.93 28.52 8.44 22.57 7.81 17.44 C6.52 13.06 4.27 8.82 0.41 6.2 C-7.88 2.27 -15.19 2.89 -22.05 9.13 Z " fill="#000000" transform="translate(208.1875,235.5625)"/>
<path d="M0 0 C1 5.78 1.15 11.39 1.12 17.25 C1.13 18.15 1.13 19.04 1.14 19.97 C1.14 20.83 1.13 21.69 1.13 22.58 C1.13 23.36 1.13 24.13 1.13 24.93 C1.01 26.83 0.7 28.25 0 30 C0.66 30 1.32 30 2 30 C2.33 32.64 2.66 35.28 3 38 C9.72 40.75 15.48 41.36 22.69 41.12 C33.71 40.86 33.71 40.86 39 42 C39 42.66 39 43.32 39 44 C33.99 45.1 29.03 45.38 23.92 45.61 C22.33 45.69 20.75 45.78 19.17 45.87 C4.35 46.62 4.35 46.62 -1.5 43.1 C-4.06 40.54 -4.25 37.87 -4.39 34.36 C-4.36 32.63 -4.32 30.91 -4.25 29.19 C-4.23 28.3 -4.21 27.42 -4.2 26.51 C-4.15 24.34 -4.08 22.17 -4 20 C-3.34 20 -2.68 20 -2 20 C-2 19.01 -2 18.02 -2 17 C-2.66 17 -3.32 17 -4 17 C-3.89 14.35 -3.76 11.71 -3.62 9.06 C-3.59 8.31 -3.56 7.55 -3.53 6.78 C-3.49 6.06 -3.45 5.34 -3.41 4.6 C-3.38 3.93 -3.35 3.27 -3.32 2.58 C-3.21 2.06 -3.11 1.54 -3 1 C-1 0 -1 0 0 0 Z " fill="#000000" transform="translate(79,281)"/>
<path d="M0 0 C1.7 2.26 2.56 4.2 3 7 C2.56 8.75 2.56 8.75 2 10 C2.66 10 3.32 10 4 10 C4.1 13.75 4.17 17.51 4.22 21.26 C4.24 22.54 4.27 23.81 4.3 25.09 C4.35 26.93 4.37 28.77 4.39 30.61 C4.41 31.17 4.43 31.74 4.45 32.32 C4.46 36.01 3.7 38.3 1.18 41.05 C-2.41 43.95 -8.09 43.13 -12.49 43.1 C-13.19 43.1 -13.89 43.09 -14.62 43.09 C-16.85 43.09 -19.08 43.08 -21.31 43.06 C-22.83 43.06 -24.35 43.05 -25.87 43.05 C-29.58 43.04 -33.29 43.02 -37 43 C-37.66 41.35 -38.32 39.7 -39 38 C-38.59 38.01 -38.59 38.01 -36.54 38.05 C-33.5 38.1 -30.46 38.14 -27.42 38.16 C-26.11 38.18 -24.8 38.2 -23.49 38.23 C-8.55 38.52 -8.55 38.52 -4 35 C-2.33 32.83 -1.75 31.56 -1.88 28.81 C-1.92 27.88 -1.96 26.96 -2 26 C-1.34 26 -0.68 26 0 26 C-0.08 25.56 -0.08 25.56 -0.5 23.31 C-1.02 19.68 -1.11 16.1 -1.12 12.44 C-1.13 11.9 -1.13 11.35 -1.14 10.8 C-1.13 7.09 -0.69 3.64 0 0 Z M-8 39 C-8 39.99 -8 40.98 -8 42 C-6.02 41.67 -4.04 41.34 -2 41 C-2 40.01 -2 39.02 -2 38 C-4.51 38 -5.76 38.15 -8 39 Z " fill="#000000" transform="translate(310,284)"/>
</svg>
