<?xml version="1.0" encoding="UTF-8"?>
<!-- Generator: visioncortex VTracer 0.6.12 -->
<svg version="1.1" xmlns="http://www.w3.org/2000/svg" width="384" height="384">
<path d="M0 0 C126.72 0 253.44 0 384 0 C384 126.72 384 253.44 384 384 C257.28 384 130.56 384 0 384 C0 257.28 0 130.56 0 0 Z M139.08 71.33 C135.88 76.3 134.53 81.12 134.32 86.98 C134.29 87.66 134.25 88.34 134.22 89.04 C133.81 98.57 133.85 108.12 133.87 117.65 C133.87 120.41 133.87 123.16 133.86 125.92 C133.86 130.53 133.86 135.14 133.87 139.75 C133.88 145.06 133.87 150.36 133.87 155.66 C133.86 160.26 133.86 164.85 133.87 169.44 C133.87 172.17 133.87 174.9 133.86 177.62 C133.86 180.66 133.87 183.7 133.87 186.73 C133.87 187.61 133.87 188.49 133.86 189.4 C133.93 209.58 133.93 209.58 139 216 C141.14 217.21 141.14 217.21 143 218 C143 218.66 143 219.32 143 220 C149.14 222.79 154.68 223.56 161.38 223.75 C162.33 223.78 163.28 223.82 164.26 223.85 C170.6 224.04 176.91 224 183.25 223.69 C183.63 223.67 183.63 223.67 185.54 223.58 C186.23 223.54 186.93 223.49 187.64 223.45 C188.24 223.41 188.85 223.37 189.47 223.33 C191 223 191 223 193 221 C193.27 219.56 193.27 219.56 193.25 218 C193.26 217.48 193.26 216.97 193.27 216.44 C193 215 193 215 191 213 C189.06 212.67 187.26 212.48 185.31 212.38 C184.72 212.34 184.13 212.3 183.52 212.26 C179.38 212.02 175.24 211.98 171.1 212.01 C170.59 212.01 170.07 212.02 169.55 212.02 C166.97 212.04 164.4 212.07 161.82 212.12 C160.87 212.14 159.91 212.15 158.93 212.16 C158.5 212.17 158.5 212.17 156.34 212.21 C152.71 211.88 150.66 210.78 148.31 208 C144.85 201.62 145.85 192.39 145.87 185.32 C145.87 184.41 145.87 183.5 145.87 182.56 C145.86 180.1 145.86 177.63 145.87 175.16 C145.87 172.55 145.87 169.94 145.86 167.33 C145.86 162.94 145.86 158.55 145.87 154.16 C145.88 149.14 145.87 144.11 145.87 139.09 C145.86 134.73 145.86 130.38 145.87 126.02 C145.87 123.44 145.87 120.85 145.86 118.27 C145.86 108.65 145.89 99.03 146.32 89.42 C146.34 88.73 146.36 88.05 146.39 87.35 C146.62 83.06 147.43 80.47 150 77 C154.32 73.36 158.38 73.62 163.86 73.74 C164.29 73.75 164.29 73.75 166.47 73.76 C169.23 73.79 171.99 73.83 174.75 73.88 C178.35 73.92 181.95 73.96 185.55 73.99 C185.99 74 185.99 74 188.2 74.02 C196.5 74.07 204.73 73.62 213 73 C212.99 73.91 212.98 74.82 212.97 75.75 C212.93 79.14 212.91 82.53 212.89 85.92 C212.88 87.38 212.87 88.84 212.85 90.3 C212.82 92.41 212.81 94.52 212.8 96.63 C212.79 97.28 212.78 97.93 212.77 98.59 C212.77 102.81 213.4 106.08 215 110 C217.85 112.85 222.17 113.05 226.05 113.11 C227.16 113.11 228.28 113.11 229.39 113.1 C229.99 113.1 230.58 113.09 231.19 113.09 C233.06 113.09 234.94 113.08 236.81 113.06 C238.09 113.06 239.37 113.05 240.65 113.05 C243.76 113.04 246.88 113.02 250 113 C250 113.44 249.99 113.88 249.99 114.34 C249.94 118.95 249.91 123.55 249.89 128.16 C249.88 129.88 249.87 131.6 249.85 133.32 C249.82 135.79 249.81 138.26 249.8 140.73 C249.79 141.5 249.78 142.27 249.77 143.06 C249.77 146.87 249.81 149.71 252 153 C253.12 153.05 254.25 153.09 255.38 153.12 C256 153.15 256.63 153.17 257.27 153.2 C259 153 259 153 261 151 C261.26 149.14 261.26 149.14 261.27 146.84 C261.28 145.99 261.29 145.13 261.3 144.24 C261.3 143.31 261.3 142.38 261.3 141.43 C261.3 140.95 261.3 140.95 261.31 138.53 C261.32 136.49 261.32 134.47 261.32 132.43 C261.31 129.85 261.33 127.27 261.35 124.68 C261.37 122.2 261.36 119.72 261.36 117.24 C261.37 116.32 261.38 115.4 261.39 114.45 C261.33 106.29 259.1 100.78 253.94 94.56 C253.76 94.34 253.76 94.34 252.87 93.21 C251.97 92.1 250.99 91.04 250 90 C249.34 90 248.68 90 248 90 C247.88 89.72 247.88 89.72 247.27 88.28 C245.78 85.6 243.88 83.66 241.69 81.56 C241.28 81.16 240.87 80.77 240.46 80.36 C239.66 79.58 238.86 78.8 238.05 78.02 C236.83 76.84 235.63 75.64 234.44 74.44 C234.06 74.07 233.69 73.7 233.3 73.32 C232.23 72.24 231.19 71.12 230.17 69.99 C229.49 69.27 228.82 68.55 228.12 67.81 C227.51 67.14 226.89 66.46 226.26 65.77 C221.66 62.16 216.07 61.7 210.38 61.69 C209.76 61.69 209.14 61.68 208.5 61.67 C206.47 61.64 204.44 61.64 202.41 61.63 C200.99 61.62 199.56 61.61 198.14 61.6 C195.16 61.59 192.18 61.58 189.2 61.57 C185.4 61.57 181.6 61.53 177.8 61.49 C174.86 61.46 171.92 61.45 168.97 61.45 C167.57 61.44 166.17 61.43 164.78 61.41 C154.45 61.27 145.63 62.24 139.08 71.33 Z M161.18 118.86 C160 121 160 121 160.25 123.69 C161 126 161 126 162 127 C163.62 127.11 165.24 127.15 166.86 127.16 C167.11 127.16 167.11 127.16 168.38 127.18 C170.06 127.19 171.73 127.2 173.4 127.2 C174.56 127.21 175.72 127.21 176.88 127.22 C179.31 127.23 181.75 127.24 184.18 127.24 C187.3 127.25 190.43 127.27 193.55 127.3 C195.94 127.32 198.34 127.32 200.74 127.32 C201.89 127.33 203.04 127.33 204.19 127.35 C205.8 127.36 207.41 127.36 209.02 127.36 C209.93 127.36 210.85 127.36 211.79 127.37 C214 127 214 127 215.31 125.58 C216.53 122.8 215.75 120.89 215 118 C212.56 116.78 210.95 116.85 208.23 116.82 C207.75 116.82 207.26 116.81 206.77 116.8 C205.17 116.78 203.57 116.77 201.97 116.76 C201.43 116.76 200.88 116.75 200.32 116.75 C197.43 116.73 194.54 116.71 191.65 116.7 C188.67 116.69 185.68 116.66 182.7 116.62 C180.41 116.59 178.11 116.59 175.82 116.58 C174.72 116.58 173.62 116.57 172.52 116.55 C170.98 116.52 169.44 116.52 167.9 116.53 C167.02 116.52 166.15 116.52 165.25 116.51 C163 117 163 117 161.18 118.86 Z M161.4 142.86 C160 145 160 145 160.12 147.69 C161 150 161 150 163 151 C164.41 151.1 165.82 151.15 167.23 151.16 C168.11 151.17 168.98 151.18 169.88 151.19 C170.83 151.19 171.78 151.2 172.75 151.2 C173.72 151.21 174.69 151.21 175.69 151.22 C177.74 151.23 179.79 151.24 181.84 151.24 C184.47 151.25 187.1 151.27 189.73 151.3 C192.24 151.32 194.74 151.32 197.25 151.33 C197.72 151.33 197.72 151.33 200.12 151.37 C200.99 151.36 201.86 151.36 202.77 151.36 C203.54 151.36 204.31 151.36 205.1 151.37 C207 151 207 151 208.28 149.64 C209.36 147.17 208.78 145.52 208 143 C205.64 140.64 205.18 140.74 201.98 140.71 C201.57 140.7 201.57 140.7 199.47 140.67 C198.58 140.67 197.68 140.67 196.76 140.66 C195.84 140.66 194.92 140.65 193.97 140.64 C192.02 140.63 190.07 140.63 188.12 140.63 C185.14 140.63 182.16 140.59 179.18 140.55 C177.29 140.54 175.4 140.54 173.51 140.54 C172.62 140.52 171.72 140.51 170.81 140.5 C163.91 140.55 163.91 140.55 161.4 142.86 Z M204 168 C202.58 169.62 201.29 171.27 200 173 C199.63 172.18 199.26 171.35 198.88 170.5 C198.07 169.11 198.07 169.11 197 168 C194.84 167.53 193.23 167.75 191 168 C188.51 171.75 188.99 174.59 189.69 178.81 C189.79 179.43 189.89 180.06 189.99 180.7 C191.72 190.79 191.72 190.79 194 193 C199.51 194.82 203.56 193.14 208.81 191.12 C209.59 190.84 210.36 190.56 211.16 190.27 C216.82 188.18 216.82 188.18 218 187 C218.27 182.74 218.27 182.74 218 181 C216 179 216 179 214.49 178.8 C213.96 178.83 213.42 178.85 212.88 178.88 C211.93 178.92 210.98 178.96 210 179 C214.28 171.99 221.92 168.26 229.69 166.33 C239.79 164.99 247.94 168.06 256 174 C257.95 175.85 259.5 177.77 261 180 C261.56 180.76 262.11 181.53 262.69 182.31 C266.65 190.43 266.52 198.4 264 206.94 C260.91 214.37 254.89 220.44 247.81 224.12 C240.57 226.95 232.43 227.77 225.02 225.03 C218.88 222.27 214.58 217.9 210.52 212.61 C207.74 209.14 207.74 209.14 205.37 208.68 C203.71 208.68 203.71 208.68 201 209 C199.55 211.3 198.97 212.59 199.19 215.34 C200.19 218.63 201.68 220.47 204 222.94 C204.4 223.37 204.8 223.81 205.22 224.25 C213.14 232.53 222.06 236.93 233.54 237.35 C246.87 237.51 256.4 233.31 266.25 224.31 C273.56 216.62 276.73 206.49 277 196 C276.72 184.86 272.75 175.05 265.06 166.88 C248.02 151.3 220.48 150.75 204 168 Z M231 173 C229.98 180.01 229.87 187.06 230.25 194.12 C230.28 194.76 230.3 195.4 230.33 196.06 C230.53 198.95 230.67 200.55 232.42 202.93 C234 204 234 204 236 204 C236 204.66 236 205.32 236 206 C237.52 207.74 239.35 209.15 241.12 210.62 C241.6 211.05 242.07 211.47 242.56 211.9 C245.09 214.01 246.92 215.28 250.28 215.35 C253 215 253 215 254.44 213.81 C255.31 210.99 255.08 209.81 254 207 C251.52 204.03 248.76 201.08 245.45 199.04 C242.7 197.21 241.22 195.96 240.46 192.66 C240.26 189.87 240.22 187.12 240.25 184.31 C240.24 182.41 240.23 180.51 240.2 178.61 C240.21 177.78 240.22 176.94 240.22 176.08 C240 174 240 174 238 172 C235.64 171.63 232.78 171.22 231 173 Z " fill="#000000" transform="translate(0,0)"/>
<path d="M0 0 C4.53 3.71 8.77 7.64 12.94 11.75 C13.43 12.23 13.93 12.72 14.44 13.22 C14.9 13.68 15.36 14.14 15.84 14.61 C16.26 15.02 16.67 15.43 17.1 15.86 C18 17 18 17 18 19 C18.66 19 19.32 19 20 19 C20.33 19.99 20.66 20.98 21 22 C14.4 22 7.8 22 1 22 C0.21 18.85 -0.12 16.81 -0.1 13.67 C-0.1 13.27 -0.1 13.27 -0.09 11.25 C-0.08 10.42 -0.07 9.6 -0.06 8.75 C-0.06 7.91 -0.05 7.07 -0.05 6.2 C-0.04 4.14 -0.02 2.07 0 0 Z " fill="#000000" transform="translate(223,80)"/>
</svg>
