<?xml version="1.0" encoding="UTF-8"?>
<svg version="1.1" viewBox="0 0 1254 1254" width="1254" height="1254" xmlns="http://www.w3.org/2000/svg">
<path transform="translate(0)" d="m0 0h1254v1254h-1254z" fill="#414141"/>
<path transform="translate(960,600)" d="m0 0 3 2v2l3-2 5 1 3 1 6 1v2l5 1 3-1 4 2v2l4-1 8 5 5 1 7 4v2h3v2h4l4 4 10 7 6 7 5 5 4 1 7 7v3l-2 1 1 3h2v-2h2l6 8 3 6-3 1 1 5h2v-4h2l2 3-1 5-1 2h5l1 3-3 2v3h2l1-2 1 5-1 2 4 5v6l1 4 1 5 1 8h-2v6l4-1 1 7-1 11h2l-1 3-1-1-1 2h2l-3 12-1 9-6 25-2 3-2 7v2l3-3-1 7-5-1-1 8h-2l-1 5-3 7-5 11-4 8-3 8h-2l-1 5-6 11-8 15-6 10-8 13-2 8-3 3h-2l1 5-3 3-1-2-3 6-6 9-1 6-5 2v6l-4 3-2 4h-2v4h-2v3l-2 1-3 6-3 3h-2v3h-2v3h-2l-1 4h-2v4h-2v3h-3v4l-2 1-1 3-2 3h-3l1 3-5 3-4 4-5 1-5-5-1-3-4-1-3-2v-3l-10-10v-4l-4-1-2-6v-2l-3 1-1-5-4-2-1-5-2-2v-3h-3l-6-12-3-4-2 1-1-3h2v-2h-2l-5-5-1-4-5-9-4-2 2-2-8-11-3-7-4-4-1-4-4-7-1-4h-2l-5-11-4-8-3-4-3-7h-2l-1-5-2-8h-2l-5-11-2-1v-5l-3-6v-4h-2l-6-16v-3l-2-1-1-4-1-7-2-6-1-5-2-13v-8l-1-5v-17l2-18 3-9v-2l3-10 2-6h2l1-4 3-9h2l2-4 3-7h2l2-5 4-6h2l2-4 3-7 4 1 2-4 1-3h3v-2h2l1-3 9-7h3l1-3h3v-2h3l1-3 4-2h3v-2l5-1 11-5 3 1 4-4 7-1 5-2 7-2h9l2-2h18l3 1z" fill="#414141"/>
<path transform="translate(304,386)" d="m0 0 5 2 1 2 6-1 7 1 5 1 4 1 5 2 2-2h7l8 3 3 1 1 2 1-2h10l7 3h7l6 2 2 2 10-1 12 2 3 1h3 4l5 2v2l5-2h7l6 2 19 3 5 1 1 3-3 1-9-1h-4l-2-1v2l-5 1-2-1v2l17 3 16 3v2h2l-2-5 8 1v3l7-1 2 4 3 1 2-5 9 3 4 2h-3v2l4 1 1-3 6-2 1 3-3 3 6-1h4 2v3l6-2 1 3 4-1 2 1 1-3h2l2 3 7 1 1 4h-4l4 1 1 2 5-1v2l5-1 3 2v3l-5-1-4 1-6 2v-2h-2v2h-3l-1-4-2 3-6-2 1 6-3 1-8-1-2-1-3 1-7-2h-4l-6-1-4 1-7-2h-12v-2h-6l-5 1-3-2h-10v-2l-9 1-1-1h-7l-4-1-13-1-1-1-11-1-5-2-2 1-8-2-9-2v2h-2v-2h-12l-12-2-1-3-8 1-6-1-14-2-3-1h-8l-5-1h-7l1 12-3-1 5 12v4l6-1h9l11 2 4 2h2 9l4 2h3v3l-6-1v2l8 1 7 2-4-2-3-1 1-4 5 1-1-4h3l5 5v-2l7 2 13 1 9 3 1-2 11 2 2 1v-2l9 1 2 5 6-2 3 4-5 2 8 1-2-3v-3l5 1 4 1 5-1 7 1v2l6-1 9 1 3 3v2l-5-1h-2l6 2 5 1-3-4 1-3 4-2 6 3 17 2 19 2 4 1v2l3-2h5l6 3v-2h8l5 1 6-2 3 2v-2l8-1 1 2 3-3h2l1 7h4l-1 4 5 3 2-1 2 6 1 2h3l1 5 4 2 3 5 6 4 2 1 3 5 4 4 4 2 3 5 3 1 3 5h3l5 5v2l4 1 7 7 4 3 1 3 4 1 5 4 3 3 4 2 1 3 3 1v2l3 1v2l4 1v3l5 1 1 4 4 2 1 3h3l1 3 3 2v2l4 1v2h2l4 5v3l4 1v3h2l-1 6-2 8h-2l-2 4-7-1-1-3-2-1v7l-2 1h-7l-3-1v2l-4-1-2-2-1 3-10 1-7-2-4 2h-5l-5-1-4 1v-2h-2v-3h-6l1 3-5 2-7-1-3-1-7-1-8-3-1-2-5-2-1-3-3-1v-2l-4-2-2 4h-2l1 3-6 4-8 4-12 2-6 2-2-1v-2l-7 3-6-1-2 1-8-2-6-2-5-2-8-6-2-5-3-1v3h-4v2h-4v2h-5l-1 1h-6l-7-2v-3l-4-1-3-3v-2h-2l-2 6-6 6-7 3-8 1-1 1h-13l-1 1h-6l-1-4h-4v3h-15l-10-5-3-2v-4h-4l-4 1v-6h-2l-2-2 3 9 3 2-2 2-4-1-1-1-2-18 1-4h2l-1-4-4-1-2-2v-3h-2l-6-7-5-6h2v-2l-4-1-2-3v-4l-3 1-3-5-1-4-5-2-1-6-3-3v-3l-3-1-1-3-3-1-1-7-4-3-5-9v-3l-2-1-1-3-3-3 2-3-4 1-6-11v-3h2l-3-5-4-1-1-4 2-1-1-3-2-1-1-7-2-4v-2l-2-1-2-8v5l-3-1-3-9 2-3-1-4-3 1-3-9v-7l2-1v2h2l-2-6 3-6h-2v-2l-5 1v-5l-1-4 2-1 3 1 1-8-1-5-5-4 1-5 6 2v-2h-2v-4h3z" fill="#ACACAC"/>
<path transform="translate(960,600)" d="m0 0 3 2v2l3-2 5 1 3 1 6 1v2l5 1 3-1 4 2v2l4-1 8 5 5 1 7 4v2h3v2h4l4 4 10 7 6 7 5 5 4 1 7 7v3l-2 1 1 3h2v-2h2l6 8 3 6-3 1 1 5h2v-4h2l2 3-1 5-1 2h5l1 3-3 2v3h2l1-2 1 5-1 2 4 5v6l1 4 1 5 1 8h-2v6l4-1 1 7-1 11h2l-1 3-1-1-1 2h2l-3 12-1 9-6 25-2 3-2 7v2l3-3-1 7-5-1-1 8h-2l-1 5-3 7-5 11-4 8-3 8h-2l-1 5-6 11-8 15-6 10-8 13-2 8-3 3h-2l1 5-3 3-1-2-3 6-6 9-1 6-5 2v6l-4 3-2 4h-2v4h-2v3l-2 1-3 6-3 3h-2v3h-2v3h-2l-1 4h-2v4h-2v3h-3v4l-2 1-1 3-2 3h-3l1 3-5 3-4 4-5 1-5-5-1-3-4-1-3-2v-3l-10-10v-4l-4-1-2-6v-2l-3 1-1-5-4-2-1-5-2-2v-3h-3l-6-12-3-4-2 1-1-3h2v-2h-2l-5-5-1-4-5-9-4-2 2-2-8-11-3-7-4-4-1-4-4-7-1-4h-2l-5-11-4-8-3-4-3-7h-2l-1-5-2-8h-2l-5-11-2-1v-5l-3-6v-4h-2l-6-16v-3l-2-1-1-4-1-7-2-6-1-5-2-13v-8l-1-5v-17l2-18 3-9v-2l3-10 2-6h2l1-4 3-9h2l2-4 3-7h2l2-5 4-6h2l2-4 3-7 4 1 2-4 1-3h3v-2h2l1-3 9-7h3l1-3h3v-2h3l1-3 4-2h3v-2l5-1 11-5 3 1 4-4 7-1 5-2 7-2h9l2-2h18l3 1zm-25 24-5 2-10 1-11 3v2l-4 1-3-1-5 3 1 3-6-1-4 2 2 2-3 2v-2h-3v4l-3 1v2h-2v-2h-2l-1 5-3 2-3-1-4 3 1 4-4-1v5l-4-1-3 6-2 2 1 2-3-1-1 4h2v2h-3l-1-2-4 6-1 4-3 1-3 6h3l-1 3-1-2h-2l-7 20-4 13-1 5v8l3-1v7h-2v-5h-2v11h2l1 2-2 1-1 10 2 4 1-2-1 13 2 1 1-3v6l-1 2 2 3h2v2h-2l1 5 3 1-1 4 3 1 2 6-2 1 1 5 4 9 8 17 6 12 2 1 2 5 3 5h3l-1 5 5 5v3l2 3h3v2h-2v2l4-1-2 4 4 5v2h2v2l3 3h-2l5 10 3 2v5l3 1 2 5 4 5 1 4 5 5 1 4h2l2 5 1 3h2l1 5 2 1 2-1v5l2 2 2 4 3 1-1 4 4 4 5 9 3 3 1 3h2l1 6 6 5 6-8 2-1 1-5h2l6-10 1-4h2l6-10v-3h2v-2h2l4-7 6-8 3-6v-3l3-1 4-8 2-1 1-3 4-4 2-7 2-5 4-2 3-9 8-13 3-5 2-2 2-6 4-8 4-10v-2h2v4h2l2-5 1-7 3-8v-3h2l2-7 3-9 1-7h2l2-6 2-9v-9h3v-5l1-3 1-8 1-6-2-3h2v-3h-2l2-4v-5l-2-3 1-4-1-1-1-9-2-6-1-7-2-7-2-4-2-6-4-7-3-7-7-10-4 1-2-6-4-4h-2l1-1-2-4-4-2-2 2v-5h-3l-2-4-4-2 1 3-3-1 1-3-5-4-5-1-8-5-11-3-6-3-14-3-12-1z" fill="#ACACAC"/>
<path transform="translate(760,759)" d="m0 0 10 1v2l-3 1 5 3v-3l3 1 3 9 1 4v11l-1 3-1 5-2 15-2 7 1 2h-2l-1 5h-2l1 6-2 10-2 5-3 9-2 5 1 5-3 8-2 6-1 7-2 11h-3l1 9-1 4-4-1 1 8h2l-1 10 1 4-1 4-2 1-2-1-2 4 1 9 6 30 1 4 1 5 3 13 1 9 2 2v6l1 5-1 2h2l2 11-1 2h-3l-1-7-2-1 1 3-1 3 2 2-5 3-3-1v-2h2l-1-2-3-1 1 5v6l-3-2-3-8-3-9v-6h-2l-2-8v-7h-3l1-9h-2l-2-10-1-13-2-7v-5l-2-10v-3h2l-2-5-4 2-6-1-9 2-5-1-2 1h-11-3l-1 1-18-1-1-2-1 2-8-1-4 1-12-1 3 4-2 4-3 4h1 3l-1 12-1 4h-3l-1-1v2l4 2-1 7-2 12-2 5-1 8-3-1-2-2v3l3 1-1 9-3 8-1 8-3 1 1 5-3 8-2-1v-6l2-3-4 1v1 3h-4l-2-4-1 2h-2l-1-4 4-1 2 1-1-2-4-2-1-5 2-8v-6l2-2 2-12 2-9v-3l2-10 1-4 2-11 1-5v-3l4-16-8-1-9-7-1-10 3-7 3-5 7-3 5-3 6-1 10-3 5-1 12-2h6l3 1 1-1h7l5-1h14l9 2v-10l2-12-1-3 6-28 1-2 1-8 1-1 1-7 3-9 4-11 8-20 5-8v-2l5-5 8-7 7-4h3z" fill="#ADADAD"/>
<path transform="translate(479,800)" d="m0 0 10 2v-2l26 1 7 2 1-2 11 1 1 3 4-2h4v3h4v-2h8l3 2h6l3-1 20 5 7 1 6 2 8 2 9 4 1 2 4 2 4 6 1 10-5 8-5 4-4 2h-5l-6 4-5-1v2l-4 2-4-1-2 3-12 2-5 2-17 2h-3l-9 1-4-3v2l-11 2-17 1h-5l-3-2-1 3-8-1-3-1-3 2-16-1h-3l-7-2-7 1-6-1-3 1-11-2h-12-3l-8-2h-5l-2-2h-11l-6-4-8-1-7-2-4-3v-3l-7 1-3-3-7-4-2-5v-7l2-4 4-4 4 1 1-4h2v-2l8-3h3l1-3 3 1 1-2 9-1 3-2 10-1 6-2 9-1 12-3-1 4 4-3 4-1h10l6-1 2 1v-2h26z" fill="#AEAEAE"/>
<path transform="translate(316,175)" d="m0 0 3 2v3l8-1 4-1 3 4 4-1h3l10 2v2l6 1v-2l8 1 2 1h5v2h10l7 3 14 1 5 1 3 1-1 3h6l-1-3 5 1 2 2 1-1h6l4 2h5l3 2v-2l11 2 6 2h6l16 4h9l1 2h9l4 1v2h10l5 2 6 3v-2l8 1 8 2 10 1 7 1 5 2v2l9-1 5 2 1 2 2-2 9 1 7 2 13 2 2 2v3l2-4 10 3 11 1 6 3 13 1 4 2 10 1 6 2 10 1 1 1 8 1 9 3 8 1 3 3 6 4 3 5-1 6 1 4h-2l1 9 1 2-6 7h-7l-5-1-1 4 1 8v15l-2 18v3l-4 1-1-7-2 1 1 7h-4v-4l-5 1-3-6v-6l3-5v-4h-2l-1 3v-15l1-4-2-3 1-6 2-5-6-1-6-2-5-1-7-1-8-1-8-3h-6l-5-2h-5l-6-3v-2l-4 2-7-1-8-2-10-2-4-2-3 1-10-3-1-3-2-1-1 4-7-1-5-2-11-1-5-2-7-1-6-2h-3l-5-1-9-2-7-1-2-2h-2l2-6-3 1 1 2-1 2h-8l-5-2v-2l-3 1h-2l-8-1-5-1 1-5-4-1-1 5-8-2v-5l-4-1-2 1-3-2-1-3-1 2h-3l-1 4h-5v-4l-4-3v3l-4-2h-6l-1-3-13-2-2-2h-4l-13-2-10-2-4-1-8-1-5-2h-4l-8-2v-2l-6 1-7-2h-4l-10-3-1-1h-10l-11-4 1-3 4-1v-2l-3-3 4-5 1-2-5-1v-3l7-1z" fill="#ACACAC"/>
<path transform="translate(784,369)" d="m0 0 5 1 2 1v2h3l2 10-2 5-1 5h-3l1 2 13-1 4 2 2-2 5 1 3 2 3-1 6 8v2h-2l1 4-2 2v-2l-6 1-1 3-8-1h-17l-3-1-5 1-5-1-9 1-1-1-1 13v14l4-1 6 1 3 1v-2l16 1 7 2-2 3 5 1v-3l5 2 3 5 1 13-3 8v22l1 4 4-2-1 7h-2v-2h-2l1 6 3 1-2 8 2 2-1 2h-2v6l1 4-2 6-4 2-3-5-1 4-6 3-4-1-3 2h-5l-7 2h-7l-3-3v-3l-2 5-4 2-9-1-3-1h-6l-9-3h-4l-12-2-2-3h-5l-2-2 1-5-1-10h2l-3-4 1-2h1v-8h-2l1-10v-8l-2-1v-6l4 1v-10l-1 2h-2v-3h2v-7l2-6h-2l-1-7 6-5 3 1-1 3 3-5 6 1 7-2h16l2 1-2-8 1-5-1-6 1-4h2l-1-4-12-1-4 1-4-1-5 1-10-1-3 1h-5l-1-2-1 2h-11l-6 1h-4-4-2-4l-5-5-1-5h2l-2-4h3v-3h6l3-3 4 3 2-3 14 1 1 2 1-3 5-1 10 1 1 2 1-2 8-1 2 4 5-3h5l5 1 6 1 4-2 4 1 6 1v-2l9 1-1-8-1-5 4-11z" fill="#AEAEAE"/>
<path transform="translate(938,700)" d="m0 0h12l4 1h3l10 4 1 2h3l1 3 5 1v2l3 1 2 2 3 1 1 6 2 3h3v4l3 1 1 5 2 3-1 4h-2v5h2l1-4h2v6l-3 2 3 1 1 6-1 2h-2l-1 8-3 9-1 5-7 7v3h-2v2h-3v2l-4-1v2h-2l-2 4-2 2-4 1-7 3-5 1-2 2h-10l-10-2-6-3h-5l-2-5h-4l-8-8v-3l-4-1v-2h-2l-2-5-2-4-2-6h-2v-10l-1-2v-9l3-12 6-14h2l1-3h2l1-4 6-2v-3l4-3h3v-2h4v-2z" fill="#ACACAC"/>
<path transform="translate(325,463)" d="m0 0 9 1 4 1 13 2h2l11 2 5-1 5 5v-3l6 1 2 6 3 2 3 5 2 4 4 6v2h2v3h2l7 9 3 5v2h2l8 11 1 4 5 5 1 3h2l-1 4 3 1 4 6v3l4 2 3 5v3h2v2h2l12 16 4 5 6 8 1 3 6 5 1 7v2h-2l-1 3-5-1h-5v2h-15-4l-5-1h-3l-8-2 1 5-10-2-2-1v-2l-3 1-3-1-2-8 1-4-8-10-2-1-1-6-3-1-2-5-4-2v-5l-3-1-4-7-3-3v-2h-2l-2-5-2-2-1-4-3-2v-2h-2l-2-5-3-3-2-6-3-2-2-4v-4l-4-1-1-5-4-5 1-2-2-1 1-3h-4l-2-10-3-1-1-6-3-1v-3l-3-1v-4h-3l1-3-2-1z" fill="#414141"/>
<path transform="translate(442,478)" d="m0 0 7 1 4 1h3l3 1h9l6 3h8l11 1 2 4 1 1 3 2v2l3 1v3l3 1v4l4 2v3l4 2 1 3 2 1 1 4 6 4v2l2 1-1 3h2l5 5 4 5 5 6v3h3l1 5 4 2v2l3 1 3 3 1 4 2 1v4l3-1 4 6 3 1v3h2l5 7h2v4l6 5v3l4 2 5 5 1 4-3 3h-2v2l-8 1v-2h-2v2l-8 2-5-1-2 1v-2l-7-1 2 4-12-2-4-2-5 1-5-1-3-2v-8-3l-9-9-4-8-4-2-7-8v-3l-2-1-2-3-3-4-3-2-1-4-4-2-3-7-2-5-5-2-3-7-4-3-1-4-5-5-3-4-2-6-3-2v-4h-2v-2l-3-1-1-5h-2l-1-3-5-5-5-10z" fill="#424242"/>
<path transform="translate(310,580)" d="m0 0 4 1 2 6-2 5h2v2h-2l1 7v10h2l-1 7 1 4 2 12v9 3l1 8-2 3-3-1v7l3-5 2 1v8 3l1 3-1 4 1 3-2 3 2 8-1 1v13l-2 5-1 7 4 2-1 8-2 1-1 4h2l-1 9v2l2 1-1 3-2-1 2 5-1 9 2 3v3l-2 2 2 3v5h-2l3 4v11l-3 1 2 7v14l-3 1 2 7 1 1v7l-3 1 1 19-1 2v17l1 15-1 5-1 8 1 7v13l-1 4 1 11-2 10 1 4-4 2 1-5h-3v-14h-1v2h-2v12l-3-1-1-11-3-3-2 3h-2l-1-7 1-6-1-3v-19-3l-1-4 1-6-1-4 3-5v-1h-1l-1-8 2-1-2-4v-13l2-3h-2l-1-2v-7l2-4-1-14v-11l1-7-1-5 1-9v-36l1-8-1-10 2-6-1-4v-12l2-8h2v3h2l-1-3v-14l-1 4h-2l-1-6 4-3v-12l-3 1-1-3 3-3-1-9v-12h2l-2-4v-17-3-3l4 1v9l1-4v-12l2-3-2-1 1-7 2-3h-3l1-3 2-1v-5h-2l1-4 3-1z" fill="#ABABAB"/>
<path transform="translate(657,293)" d="m0 0h2v5l5 1v4l-1 2h-2l-1-3-1 4 3 1v2l3-1 1 5-6-1 2 7 3-1 1 1v9l1 6-1 9 2 7v9l-2 10h2v8l-1 4 1 8v17l-2 5 2 4v7l-1 3v19l1 2-1 6 1 3-1 6-1 9v10l1 7v24l-1 3 1 6v14l-1 3h-3l-1-5v4l-2 7-2 1-4-8-1 2-3-1v-8l1-3h-2l-1-4v4 4l-4-2v-3l-1-10-1-7 1-4-1-5-1-7h2l-2-4v-5l1-5-1-4 1-5-1-4v-12-4-8l1-3-2-6 1-13 2-4h3l-4-1-1-8-3-1-1-1-2 2h-3v-2l-9-1v2l-7-1v-2h-6l-2 2-5-1v-2l-6-1v2l-8-1v-2h-3l1-5h-4l-2 4-7-1 1-3h3l1-3h3v-2h-3v-3l14 1 9 2h4l5 1 5-1 5 5-1 2 3-1-1-2 4-2 5 1 2 4-3 1 4 2v-6h3l3-1 1 2 1-10h2l-1-6 1-2h-2l-1-11 1-5v-14l1-3 5 1-2-8-3 2-1-9 2-2 1 5 1-3 1-5 1-1-1-5 1-4h-3v-3h2l-1-3 2-1-1-4-2-1 1-2 4-2 2 3 3-1v-5z" fill="#ABABAB"/>
<path transform="translate(521,675)" d="m0 0 2 1v3l13-1 1 2 10-2 4 3 2-3h7l5-1 5 6-1 6 2 10-3 1 3 2 1 18-2 5-1-2h-2l2 4h3v22h-2v2h-2v2l3 1 2 9-3 3-6 2-3-1-5 1h-6-2-12-4-12l-3-1-6 1-3-2 1-3-2-1 1-4 2-4-2-5 1-6-2-7 1-8h2v-4h-2l-1-5 1-3-1-9v-5l3-1-2-17h2l1-3h2l2-4z" fill="#AEAEAE"/>
<path transform="translate(656,643)" d="m0 0 3 1v2l3-1 1-2 3 1-1 6 2 3-1 13 1 7v17l-1 4 1 1v13 3 30l-1 3-4-1v2l4 1 1 1v18l-1 4 1 4v9l1 7-2 5-1 2 1 7v4 7 4 33l-1 1v6l1 1v5l-1 2 1 4-3 3-1-7-1-1-1 4-3-1v-2l-4-1h-2v5l-5 2-1-5 2-1-1-6h2v-6h-2l1-5h6l1-5-1 1-2 1-2-1-1 3h-3l1-9-1-3 4-1 3-1-2-4h-2l-1-2v-6l-3-1v-10l3 1v8l3-1 1 3h2l-1-6h-3l-2-7h-3l-1-9v-16l1-2h-2l1-4 2-4-3-1v-4-10h2l-1-5-2-5 1-9v-47l3-1-2-5v-7l2-1-1-6 1-3-2-1 1-6v-7l1-4 3 1 2-7h2l1 4 5-1v4l2-1v-4l-3-1z" fill="#ADADAD"/>
<path transform="translate(518,819)" d="m0 0h2l3 3 6-1 3 1 6-1h2v2h8l2-1 10 2h2v2l6-1 32 8v2l-12 5-7 1-5 1-7 1-9 2v-3h-3v2l-6 3-9 1-3 1v-2l-4 2-10-1-7 3-8-1-3 1-2 2v-2l-5 2-1-2-4 1-5 1-3-2h-6l-2 2-4 1v-3h-7l-4-1-19-1-6-1h-2l-2 2-1-2h-8l-4-3-3-1-6 1-6-1-1 3v-5h-15l-1-1-9-2-5-2-1-2 10-2 1-3 2 1 5-2h9l1-2 2 1 1-2h12v-2h6v2l7-3 10-1h5l3-1 5 1 5-1 2 1 4-1h39l6-1 1 1h5z" fill="#424242"/>
<path transform="translate(543,493)" d="m0 0 14 1 8 3 5 5 12 11 11 8 3 3-1 2 5 3h3l1 4 4 3v2l3 1 7 8 5 6 2 2-1 3h2l1 2h4v4h-2l3 3 3 2v2h2l-3-5-2-2 4 1 6 7 9 7 1 4h4l2 4 5 2v4l6 1 4 5h2l7 9-3 1v2l-7 1h-13-4-12l-6-3-3-5 1-2 6 1v-2l4 1-1-4h-5v-2l-7 1-6-3v-3h-2l-3-3-2-4-3-2-1-3-5-4v-2l-4-2-3-5-3-2-1-3-2-1v-2h-2l-2-4-4-3-2-4-3-1-1-3-7-6v-3h-3v-4l-4-2v-3l-4-2-3-5-2-1-2-5-5-6v-2l-3-1-3-5z" fill="#424242"/>
<path transform="translate(943,721)" d="m0 0 9 2h2v2l3-1 4 2v2l3-1 4 4 3 5 1 3 3 4 2 6v5 3 8l-3 5-3 7h-2l-3 5-5 3-7 3-9 2h-6l-3-2-4-1-9-5-2-4-5-5-2-3-3-14v-4l2-1-1-4h2l1-7 4-4 1 1 3-6 4-4 4-1 2 1 1-3 6-2 3 1z" fill="#414141"/>
<path transform="translate(730,457)" d="m0 0 2 1h13l2-1v2l4-1 6-1 7 1h8l4-1 4 1 7 1-3 7-4-1-2 6-4 5-2 4-2 2 1 5-1 3h2l2-6 3-1v-2h2v-5l4-4 4 1-2 4-6 8h-2v4l-2 1-1 4h-2l-3 7h-2l-2 5-2 6 2 4-1 3h4v-4l5-5 4 1v4l4-2 3 1v-2l3-3 1-5h-3l3-11 2-4-4 1-1-5 4-2-1-4 1-5-3-3 1-4 6-8h2l-1 13 1 10-1 4 1 5-1 7 1 3-1 9v9l-4 1-9-1-1 2-2-1-5 2-4-1h-11l-1-1-9 1-2 1-2-2h-8l-2-1h-4l1-13 2-3h-3v-7l-1-4v-8l2-6 2-1-1-5h-2v-6l-1-6z" fill="#444"/>
<path transform="translate(452,881)" d="m0 0h2v11h2l-1-7 1-2h3l2 6 1-4 4 1 1 3h-2l2 10h-2l1 7 2-3 1 3-1 4-1 13 1 1v7 4 13l-3 1 3 1 1 11-1 6v16l-3 1-1 3h2l1-2v6h-2l-1 5 3 1-1 3h-3v4l2 4-1 5-2-1v-4h-3l1 4 1 3h-3v2l-4-2 1-6h-3l1 4-4 1-1 4-4 1-1-3-4 2-1 4-4 1-4-1h-3l-1 3h-5l-1-3h-2v2h-5l-4-2-3-6 3-5 7-4h3l1-3 4-1 12-2h4l3 2 1-2 8 2 1-2h-3l2-4-3-4-1-6 1-4-1-8 1-2v-11l-1-7 2-3v-6l-2-3 1-5-1-8 1-9h2l-2-6v-18l1-4v-8z" fill="#ABABAB"/>
<path transform="translate(516,880)" d="m0 0 4 1v5l3 1v3 7l-2 1 2 2v6l1 3v70 4 8l-2 1v4 7l6-1 2-3 9 2v-2l3-1 1 3 5 2 9 2-1 4 3-2 5 1 4 3v3h2v3l-5 2-1 2-8 1h-2l-6 2-7-4-1 2-4-1v-3l-6 1-3-2-5-1-1-7h-2l-1 3-4 1-1-3h-4l-2-5v-5l1-5-2-4v-11l-1-5 1-8v-5l-1-1v-10l-1-9v-11l1-2-1-4 1-1v-6l-1-5 2-8 3-1v-4l-3-1 1-4 1-3 1-4 1-2h2l-1 5 3-3 1-7z" fill="#AEAEAE"/>
<path transform="translate(417,643)" d="m0 0h2v6l-2 3 3-1 1 3 1-4 4 1v3 7l-1 3 1 3 1 6-2 4 1 2v7 3l2 8v-12l4 1-1 6 2 9-2 8h-2v-4h-2l-1 5 2 5v4l1-1-1-7 3 1 2 3-1 9v4 6 3l1 6v3l-1 12 1 3-1 7h-2v-2l-3 3 3 1 1 6h-2l-2 4v3l3 1v2h-3l-2 2-3-3v-4l-1-1-4 7-2-1 1-10v-5l-5 4-1-3v-8l2-1-3-10 2-3-1-11v-27l1-11 2-2-2-1v-22h2l-1-11 2-3-1-4h4l-3-5 1-6h2z" fill="#aaa"/>
<path transform="translate(453,1055)" d="m0 0 8 1 9-1 1 1h7 3l21 3 5 2 6 1 1 2 7 2 1 4-2 2h-3v-2l-2 1-1 4-5 1-6 2-14 1-7 2-17 1h-9l-5-2-1 1h-8l-1-1-9-1-1-3h-3l-1 3-9-2v-3l-2-1 1 3-7-1-4-4v-4l8-4 5-1 6-2 4 1 5-3 18-2z" fill="#aaa"/>
<path transform="translate(772,1068)" d="m0 0 4 1h13l12 1 5 2 9 3 6 3v3h-7l-1-3h-2v2 1l6 2h3l2 1v2l-8 1v2l-9 1-5 2-5-1v2h-14-2l-5 1h-19v-2h-2v2l-9-1-5-1v-2l-7 2-6-2-1-2-4 1-1-5h-3-4l-1-4h2l1-2 4 2h5l3-2h-3v-3l10-2 7-2 15-2h15z" fill="#ACACAC"/>
<path transform="translate(529,691)" d="m0 0 9 1 7-1h11l-1 11 1 6-1 2v7l2 4-2 6v10l-1 8 1 3v6h-6-4-7-3-4v-2l-3 2h-6v-31l-1-7 1-7 1-3h-2v-13l3-1z" fill="#414141"/>
<path transform="translate(756,780)" d="m0 0 2 1v13l-1 8-1 1-1 9-1 3v3l-2-1v7h-3l1 7v4l-3 10-3 8v11l-3-2-3 9-2 8h2v2h-2l-1 6-2 9-1 6 3 1-2 2-5-1-4-2-9-1 3-3 1-9v-5l2-1v-11l1-5v-3l2-1 2-8-2-1 2-4 1-3 2-13 2-6 1-6 2-1 2-9 2-6 2-5 3-5v-3h2l1-4h2l1-4z" fill="#414141"/>
<path transform="translate(330,975)" d="m0 0 4 1 1 3h4l-2-1v-3h9l3 1h8l1 3 8 4h2l-1-3-2-2 2-2h10v3h-4l3 7-1 4-7-1-4 1-2-1v2l-8 2 2-6h3v-2l-4 2-2 5-4 2-4-6-2-1v2l3 2-1 4-4-1-6 2h-9l-4 1-2-2-2 2h-6v-3l-1 3-8 1-2-1-6 1-2-2-1 1h-8l-3-1h-6l-5 1-5-1v-2l-3 2-5-1 2-7-4-1 1-2 4 1 1 2 8 1 1-3-8 1-2-3 3-1v-3l6 1 3-1 1 4 2-2-1-2 7-1 4-1 22-1 14-1v2l7-2z" fill="#aaa"/>
<path transform="translate(967,1042)" d="m0 0 10 1 5-1 14 1 11 1 4 2v3h2v-3l4 1 11 5 3 4-3 1v-3l-9 2v2l4-2h3v3l-9 3h-8l-2-1v2l-7 2h-14l-5 1h-20l-3-1h-6v-2l-6 1h-4-5l-5-3v-3h-2-4l-2-1v-3l4-1 2-2 1-2h2l1 1 1-2h5l3-3h8l9-1h7z" fill="#ACACAC"/>
<path transform="translate(840,1011)" d="m0 0 7 1 5-1 4 2h7l3 1 9 1 14 3 4 2-2 4-2-1-1-1-4 4-1 4-13 3-2-1v-2l-4 3-10 1v-2h-4v2h-5l-3-2v2h-8l-12-2v-2l-5 1h-6v-3l-7 1 1-10 3-2h5l4-2 10-2 1-1h11z" fill="#A8A8A8"/>
<path transform="translate(706,911)" d="m0 0 5 1 2 3 16 1-4 8-9 2-2 2-4-1-11 1-6 2v-2l-11 1-3-1-7 2-3-2-7 2-3-1-9-1-3 1v-2l-8-1-2-1-1 2-2-2-7-1 1-3 10-3h5l-3 1 2 4 6-2 4-1v-2l-3-1 9-2 2-3 4 3 7-2 5-1 1 1 15 1 1-2 1 2 3 1v-2h3v2h8v-2h-2z" fill="#434343"/>
<path transform="translate(311,314)" d="m0 0h8v3h2l1-3 9 2 1 4 5-2 1 2 2-2 4 1 2 2 4-1 11 1 1 3 3-2 10 1 2 2 6 1 5-1 1 3 3-1 7 2 4-1 3 3 4-1 2 1v2l-6 2 5 3-2 2-7-1v-2l-4-1v3h-5l-1-1v-5l-6-1-2-1v2l4 1 2 1v2l-6 1-6-2v-2h-3v2h-6l-4-2-8 1-1-3-12 1v-2h-10l-2-2-6-2-4 1-10-2-1-5-1-4z" fill="#ABABAB"/>
<path transform="translate(453,334)" d="m0 0 5 1 4 2v-2l5 1v2l5-1h8l1 4h2l1-3 14 3 2-1 11 3v2l7-1 7 2 4 1h3l3 1-1 4h-2v2l4 1v3l-6-1-1 2-4-3-4 1-1-1-7-1-5-1h-5v-2l-5 1h-7l-2 1-1-5-6 2-1-1h-9l-1-3-4 2-15-3-4-1-5-1 1-3 7 1 4-1-2-1z" fill="#ACACAC"/>
<path transform="translate(831,960)" d="m0 0h10l24 3 6 2 5 1v4l-5 3-5-1-2 2-8 1h-12l-10 1h-5l-3-3-1 3-10-2h-3v-2h2v-2l-10 3-7-1v-3l-7 2v-2l7-3 2-2 2 2v3l4-1v-2l-2-1 3-2 16-1 8-1z" fill="#A8A8A8"/>
<path transform="translate(347,1030)" d="m0 0 7 1 2 1 10-2 8 5v3h-4l4 3v3l-10 1-5-1v2h-9l-7 1-3-1-5 1-4-3-2 2-5-1-1-4 6-2v-2l-8 2-3 6h-2v-3l-4-1 1-2h3v-2l-2-1 6-3 4 1 2 1 1-3 9-1 3 2v-2z" fill="#aaa"/>
<path transform="translate(575,1069)" d="m0 0h19l6 3v-2h8l3 2 3-1 4 2-1 3h-5v2h3l-2 4-7-1v2h-29l-3-2-1 1h-7l-7-2 1-3 4-1-1-2h-9l-1-2 11-2z" fill="#A7A7A7"/>
<path transform="translate(850,1056)" d="m0 0h2v2l9-2 3 1 1 2h2l1-2 5 1 5 2v-3h2l3 5v5l-5 3-6-1-1 2h-7l-7 2-1-3h-5v2l-4-1h-3l-4-1-10-3-1-3h-2l1-4h2v3l3-1 1-2h-2v-2l4-1 1 2 7-2h5z" fill="#A9A9A9"/>
<path transform="translate(788,473)" d="m0 0 2 1-1 9-3 3 1 3h3l-3 10-2 5h3l-1 7-3 1v2l-7 1-1-4h-3l-3 4h-2v4h-4v-5l-2-4 5-9h2l1-4 2-4 2-1 1-3h2v-4h2l2-4z" fill="#aaa"/>
<path transform="translate(329,254)" d="m0 0h9l1 4v2l5-5 10 5v-2l14 2h3l4 3 1 3h3l-3-1v-3l6 1 2 2 1-2 6 3-1 4 5 1 5 3v2l-4-2-4-1v2l-13-2-4-2-3 1-5-2h-8l-1-4-1-3-1 5h-7l-4-2-3 2-4-2-6-1-2-2h-4l-1-4h9z" fill="#A7A7A7"/>
<path transform="translate(674,1032)" d="m0 0h9 2 8l12 2v2l-5 2h-4-3l3 1 3-1 6 2-1 2-10 1-9 1h-12v-2h-2v2h-3l-2-2h-4l-4 1-3-2 1-3h9l1-2-7 1v-3l14-1z" fill="#aaa"/>
<path transform="translate(507,343)" d="m0 0h4v2l7-1 7 2 4 1h3l3 1-1 4h-2v2l4 1v3l-6-1-1 2-4-3-4 1-1-1-7-1-5-1-3-5h3v-3l-9 1-2-2 9-1z" fill="#A3A3A3"/>
<path transform="translate(753,466)" d="m0 0h8v3l-8 10v2h-2v2h-3l-2 3h-2v3l-6-2 2-1 1-6 9-12h3z" fill="#A9A9A9"/>
<path transform="translate(554,828)" d="m0 0h20l1 4-4 1v3h-3v-3l-5-2h-5v2h2v2h-4v-3h-7l-1 3h-13l-6 1-7-1v-2l10-2 10-1h5z" fill="#B0B0B0"/>
<path transform="translate(390,698)" d="m0 0h3v4l2-1v28l-2 6-3-3v-2l-2-1v-7l3-5h-3v-14z" fill="#ACACAC"/>
<path transform="translate(620,725)" d="m0 0h3l1 3h4l-2 5-3-1v6l3-1 1 1 1 10-1 4v2l-4-1-1 2-2-5z" fill="#ABABAB"/>
<path transform="translate(508,226)" d="m0 0 7 1 2 2 6-1 2 2 3 2 4-2-1 4 3-1 1-2 5 2v2l-7 2-7-1-6-2-9-1-4-1h-2l2-5z" fill="#414141"/>
<path transform="translate(490,600)" d="m0 0h5l5 1 2 2v3l7-3 4-1 2 4-3 3h-14l-4-1-3-1-3-4v-2z" fill="#414141"/>
<path transform="translate(775,461)" d="m0 0 4 2v2h-4l2 2-1 2h-2l-2 4-4 7-3 5h-2l-1-6 1-4 6-7z" fill="#ABABAB"/>
<path transform="translate(784,1078)" d="m0 0 8 2 9-1 3 2-7 2h-10v-2l-8 2h-17l-2-2 8-1 2-1v2l5-2 9 1z" fill="#414141"/>
<path transform="translate(421,411)" d="m0 0h6l5 3 1-3 4 1v2h-3l-1 3-5-1-1 1-18-1v-2l4-2h8z" fill="#414141"/>
<path transform="translate(411,830)" d="m0 0 7 1v2l3-2h7l5 2 1 3-8 1-11-1v-2l-6 1 1-4z" fill="#B0B0B0"/>
<path transform="translate(570,507)" d="m0 0 4 2 3 8 3-1 4 4-2 6-6-4-4-6-3-5z" fill="#AEAEAE"/>
<path transform="translate(338,701)" d="m0 0h2l1 12-1 3-7-1-1-7 1-3h2l1 2z" fill="#A2A2A2"/>
<path transform="translate(428,515)" d="m0 0 4 5 10 14-1 2-6-4-1-3-2-1v-3l-4-2-3-6z" fill="#414141"/>
<path transform="translate(748,488)" d="m0 0h2l-2 5-8 13h-2v-3h-3l1-5h2l2-4h3z" fill="#A6A6A6"/>
<path transform="translate(625,757)" d="m0 0h2v13l-1 5-4-4-1-2v-11h3z" fill="#ADADAD"/>
<path transform="translate(545,234)" d="m0 0 9 2 5-1 1 5v3l-4-1v-2h-7l-6-2z" fill="#414141"/>
<path transform="translate(545,349)" d="m0 0 8 2-1 4-5-2 3 3v3l-6 1-3-2 1-3h2v-2h-3v-2z" fill="#B0B0B0"/>
<path transform="translate(638,579)" d="m0 0h2l1 6 4 1 2 1v-5l4 5 3 5-8-1-4-3v-2l-4-2-3-4z" fill="#ACACAC"/>
<path transform="translate(405,267)" d="m0 0 6 2-1 3-2 1 4 3-1 3-9-1v-5l3-1-1-4z" fill="#B0B0B0"/>
<path transform="translate(620,700)" d="m0 0h2l1 3v11l3-1v6l-6 1z" fill="#B0B0B0"/>
<path transform="translate(864,963)" d="m0 0 7 2 5 1v4l-5 3-4-1 1-2h2v-2h-6l-1-4z" fill="#B0B0B0"/>
<path transform="translate(323,251)" d="m0 0 5 2-1 4h-5l-1 4h-4v-3h2l-2-3v-3l6 1z" fill="#B0B0B0"/>
<path transform="translate(357,411)" d="m0 0 4 1 3 3v2h-2v2l3 1h-5l-6-2 2-6z" fill="#414141"/>
<path transform="translate(974,1051)" d="m0 0h8l8 1h4v2l-6 1-4-1h-14-3l-5 1-1-2z" fill="#414141"/>
<path transform="translate(476,413)" d="m0 0 7 1v4l-1 3-8-1v-6z" fill="#B0B0B0"/>
<path transform="translate(325,405)" d="m0 0 9 2-2 2-1 5-5 1-4-2v-2h4z" fill="#414141"/>
<path transform="translate(401,204)" d="m0 0h6v2l4-1v3l-5 2-3-2h-9l2-3z" fill="#414141"/>
<path transform="translate(309,854)" d="m0 0h2v6l-1 6h-3v5l-3-2 1-7h3l-1-5z" fill="#414141"/>
<path transform="translate(338,717)" d="m0 0 2 1 1 11-1 5-3-1v-15z" fill="#B0B0B0"/>
<path transform="translate(306,814)" d="m0 0 2 4v5l3 1h-4v6h-2l-1-3v-12z" fill="#414141"/>
<path transform="translate(473,567)" d="m0 0h3l2 5v3l3 1-3 1v4h-2v-3h-2l-1-4 1-5z" fill="#414141"/>
<path transform="translate(815,467)" d="m0 0 3 1 1 4-1 3-1 4-4-1 1-10z" fill="#B0B0B0"/>
<path transform="translate(420,208)" d="m0 0h13l4 4v2l-4-1-1-1-13-1z" fill="#414141"/>
<path transform="translate(595,245)" d="m0 0 4 3v3l-12-1-3-1v-2l4-1 2 2z" fill="#414141"/>
<path transform="translate(438,437)" d="m0 0 12 1 7 2 2 2h-8l-13-2-2-2z" fill="#414141"/>
<path transform="translate(660,918)" d="m0 0h17l3 1v2h-10l-8 1z" fill="#B0B0B0"/>
<path transform="translate(627,569)" d="m0 0 5 1-1 4h6l1 3-7 1-4-6z" fill="#B0B0B0"/>
<path transform="translate(500,344)" d="m0 0h8l3 4v4l-3 1-3-4h3v-3l-9 1-2-2z" fill="#414141"/>
<path transform="translate(739,464)" d="m0 0 3 1v2h-2l-1 9h-4l1-8z" fill="#B0B0B0"/>
<path transform="translate(444,332)" d="m0 0 6 2 2 5h-5-4v-2h2z" fill="#B0B0B0"/>
<path transform="translate(392,615)" d="m0 0 3 3 2 7 3 2-2 2-4-1-1-1z" fill="#B0B0B0"/>
<path transform="translate(686,603)" d="m0 0 3 2v2l4 1 2 5-4 1-1-3-3-1z" fill="#414141"/>
<path transform="translate(604,542)" d="m0 0 6 2 3 3v2l-2 1 1 2-4-2v-3h-3z" fill="#B0B0B0"/>
<path transform="translate(395,475)" d="m0 0 8 2v8h-3l-5-8z" fill="#414141"/>
<path transform="translate(314,404)" d="m0 0h6l1 3h-3l1 5-5 1z" fill="#414141"/>
<path transform="translate(374,1033)" d="m0 0 4 1 3 2v3h-2l-1 4-3-1 1-4z" fill="#B0B0B0"/>
<path transform="translate(304,773)" d="m0 0 1 4 2 2-1 4h4l-1 4-5-1-2-8z" fill="#414141"/>
<path transform="translate(618,603)" d="m0 0 4 3v2l-7 1h-3l-2-3 4-2 3 2z" fill="#414141"/>
<path transform="translate(488,415)" d="m0 0 8 2v2h-4l-1 3-6-3 1-3z" fill="#B0B0B0"/>
<path transform="translate(377,415)" d="m0 0 5 1 2 1-2 4-7-1v-3h2z" fill="#414141"/>
<path transform="translate(336,923)" d="m0 0 8 1 1 4-6 1-2-3h-3z" fill="#B0B0B0"/>
<path transform="translate(717,614)" d="m0 0 4 4-3 6h-2l-3-4 2-3h2z" fill="#414141"/>
<path transform="translate(340,409)" d="m0 0h2v7h-6l-1-4z" fill="#414141"/>
<path transform="translate(357,325)" d="m0 0h5l1 1 9 2 2 1-1 2-16-4z" fill="#414141"/>
<path transform="translate(460,234)" d="m0 0 8 1-1 5-8-2z" fill="#B0B0B0"/>
<path transform="translate(428,668)" d="m0 0 3 1 1 10-3 1-1-3z" fill="#B0B0B0"/>
<path transform="translate(593,1076)" d="m0 0 7 1 5 3-3 1-5-1-6-1v-2z" fill="#414141"/>
<path transform="translate(453,532)" d="m0 0 3 1 3 3 2 4 3-1-1 3-4 1-1-4h-2l-3-5z" fill="#414141"/>
<path transform="translate(546,453)" d="m0 0 11 1-1 3h-6l-4-1z" fill="#B0B0B0"/>
<path transform="translate(363,922)" d="m0 0h5v2h-4l-1 2-4-1v4l-3-1 2-5z" fill="#B0B0B0"/>
<path transform="translate(305,801)" d="m0 0 1 4 4 1v5l-4 1-2-10z" fill="#414141"/>
<path transform="translate(431,504)" d="m0 0h3v3l5 1v3h3v2h-6l2-1-1-2h-4v-4l-3-1z" fill="#414141"/>
<path transform="translate(524,420)" d="m0 0 4 1 7 1-1 4-6-1v-2h-4z" fill="#B0B0B0"/>
<path transform="translate(395,265)" d="m0 0h2v2l5 1v2h-8l-2-4z" fill="#B0B0B0"/>
<path transform="translate(380,985)" d="m0 0h9l1 3-10 1-1-3z" fill="#B0B0B0"/>
<path transform="translate(345,978)" d="m0 0 6 2-4 5-4-1v-2h2z" fill="#414141"/>
<path transform="translate(304,748)" d="m0 0h2l2 4-1 5h-3l-1-3 1-1v-3z" fill="#414141"/>
<path transform="translate(813,748)" d="m0 0 3 3 1 4h-3l-1 4h-2z" fill="#414141"/>
<path transform="translate(314,639)" d="m0 0 1 4 3 1h-2l-1 6-2-1-1-8z" fill="#414141"/>
<path transform="translate(555,545)" d="m0 0 4 2 5 5v3l-3-1v-3h-3z" fill="#414141"/>
<path transform="translate(620,471)" d="m0 0 5 1v9l-3-1-1-6z" fill="#B0B0B0"/>
<path transform="translate(349,409)" d="m0 0 6 2-1 3-5 2-1-6z" fill="#414141"/>
<path transform="translate(572,239)" d="m0 0 5 1v4l-5 2h-5v-2l5-1z" fill="#414141"/>
<path transform="translate(329,195)" d="m0 0 6 1 5 1-3 3-9-2z" fill="#414141"/>
<path transform="translate(307,894)" d="m0 0 3 1 1 7-2 2-3-3v-2h2v-3l-2-1z" fill="#414141"/>
<path transform="translate(620,430)" d="m0 0 3 2 1 9h-3l-2-5h2z" fill="#B0B0B0"/>
<path transform="translate(714,1078)" d="m0 0 5 4-3 3-3-1-1-4h2z" fill="#B0B0B0"/>
<path transform="translate(885,1061)" d="m0 0 4 1 3 4-6 2z" fill="#B0B0B0"/>
<path transform="translate(305,913)" d="m0 0 5 3v3l-5 1-1-5z" fill="#414141"/>
<path transform="translate(333,731)" d="m0 0h3v5l-4 4v-8z" fill="#B0B0B0"/>
<path transform="translate(333,705)" d="m0 0h2l1 7-1 3h-2l-1-7z" fill="#B0B0B0"/>
<path transform="translate(314,665)" d="m0 0h1l2 12-1 8h-1l-1-9 1-2-3-1h2z" fill="#414141"/>
<path transform="translate(300,605)" d="m0 0h3l1 3-2 7-2-1z" fill="#B0B0B0"/>
<path transform="translate(662,538)" d="m0 0h4l1 6-3 2-2-6z" fill="#B0B0B0"/>
<path transform="translate(493,223)" d="m0 0 3 1 1 3-10 1v-3z" fill="#414141"/>
<path transform="translate(862,965)" d="m0 0 2 2 6 1v2l-3 1-9-3 2-2 2 1z" fill="#414141"/>
<path transform="translate(298,910)" d="m0 0h2l1 10-2 2-2-4h2z" fill="#414141"/>
<path transform="translate(709,259)" d="m0 0h5l1 6h-2l-1 2z" fill="#414141"/>
</svg>
