<?xml version="1.0" encoding="UTF-8"?>
<!-- Generator: visioncortex VTracer 0.6.12 -->
<svg version="1.1" xmlns="http://www.w3.org/2000/svg" width="384" height="384">
<path d="M0 0 C126.72 0 253.44 0 384 0 C384 126.72 384 253.44 384 384 C257.28 384 130.56 384 0 384 C0 257.28 0 130.56 0 0 Z M295 58 C293.54 60.65 293 61.89 293 65 C292.34 65 291.68 65 291 65 C290.99 65.21 290.99 65.21 290.92 66.27 C290.81 68.16 290.69 70.05 290.56 71.94 C290.52 72.6 290.48 73.26 290.44 73.94 C290.42 74.25 290.42 74.25 290.32 75.84 C290.28 76.42 290.24 77 290.21 77.6 C290 79 290 79 289 80 C288.96 81.67 288.96 83.33 289 85 C288.34 85 287.68 85 287 85 C286.67 86.98 286.34 88.96 286 91 C285.34 91 284.68 91 284 91 C284 92.32 284 93.64 284 95 C283.34 95 282.68 95 282 95 C282 95.99 282 96.98 282 98 C281.34 98 280.68 98 280 98 C280 98.99 280 99.98 280 101 C279.01 101 278.02 101 277 101 C276.9 101.4 276.9 101.4 276.38 103.44 C276.15 103.86 276.15 103.86 275 106 C272.38 106.62 272.38 106.62 270.75 106.77 C268.77 107.03 267.17 107.63 265.31 108.38 C261.1 110.04 256.79 111.2 252.42 112.35 C250.58 112.84 248.79 113.37 247 114 C247.29 115.9 247.29 115.9 248 118 C249.46 118.94 249.46 118.94 251.38 119.56 C252.09 119.8 252.8 120.03 253.54 120.27 C254.35 120.51 255.16 120.75 256 121 C256.95 121.28 257.89 121.56 258.87 121.85 C266.36 124 266.36 124 270 124 C270 124.66 270 125.32 270 126 C271.32 126 272.64 126 274 126 C274.25 126.64 274.5 127.28 274.75 127.94 C275.16 128.62 275.57 129.3 276 130 C276.66 130.14 277.32 130.29 278 130.44 C278.33 130.53 278.33 130.53 280 131 C281.06 133.25 281.06 133.25 282 136 C282.75 137.23 283.49 138.46 284.24 139.68 C289.03 148.02 290.11 158.27 291.61 167.61 C291.68 168.07 291.68 168.07 292.07 170.41 C292.2 171.25 292.33 172.08 292.47 172.94 C293 175 293 175 295 177 C297.63 176.62 297.63 176.62 300 176 C300.09 175.51 300.17 175.01 300.26 174.5 C300.65 172.25 301.04 170 301.44 167.75 C301.57 166.97 301.71 166.2 301.85 165.39 C301.98 164.64 302.11 163.89 302.25 163.11 C302.31 162.76 302.31 162.76 302.61 161.01 C303 158.99 303.49 157 304 155 C304.21 154.06 304.43 153.13 304.65 152.16 C304.89 151.13 305.13 150.1 305.38 149.06 C305.49 148.55 305.6 148.04 305.72 147.51 C306.36 144.82 307.11 142.65 308.6 140.31 C310 138 310 138 310 135 C310.66 135 311.32 135 312 135 C312 134.01 312 133.02 312 132 C312.64 131.88 313.28 131.75 313.94 131.62 C314.62 131.42 315.3 131.21 316 131 C316.33 130.34 316.66 129.68 317 129 C318.56 128.38 318.56 128.38 320 128 C320 127.34 320 126.68 320 126 C320.99 126 321.98 126 323 126 C323 125.34 323 124.68 323 124 C325.64 123.67 328.28 123.34 331 123 C331 122.34 331 121.68 331 121 C331.78 120.95 332.56 120.9 333.37 120.85 C334.39 120.78 335.42 120.7 336.44 120.62 C336.7 120.61 336.7 120.61 338 120.53 C339.34 120.43 340.67 120.22 342 120 C343.03 117.95 343.11 117.1 343.06 114.88 C343.04 113.93 343.02 112.98 343 112 C339.43 110.74 335.97 109.74 332.26 109.01 C326.62 107.89 322.28 106.46 317.59 102.99 C316 102 316 102 313 102 C312.88 101.2 312.75 100.39 312.62 99.56 C312.52 99.14 312.52 99.14 312 97 C311.67 96.84 311.67 96.84 310 96 C308.44 92.76 307.25 89.37 306 86 C305.78 85.43 305.56 84.87 305.33 84.29 C304.07 80.86 303.66 77.55 303.28 73.95 C302.88 71.14 301.95 68.68 301 66 C300.64 64.34 300.3 62.67 300 61 C299.34 61 298.68 61 298 61 C298 60.01 298 59.02 298 58 C297.01 58 296.02 58 295 58 Z M168.68 64.47 C166.46 65.17 164.51 65.06 162.19 65 C158.3 64.95 154.8 65.2 151 66 C151 66.66 151 67.32 151 68 C150.28 67.81 149.56 67.63 148.81 67.44 C145.87 66.98 143.86 67.26 141 68 C141 68.66 141 69.32 141 70 C140.01 70 139.02 70 138 70 C137.67 70.66 137.34 71.32 137 72 C136.01 72 135.02 72 134 72 C134 72.99 134 73.98 134 75 C133.01 75 132.02 75 131 75 C131 75.66 131 76.32 131 77 C130.01 77 129.02 77 128 77 C128 77.66 128 78.32 128 79 C127.11 79.21 126.23 79.41 125.31 79.62 C121.38 80.93 119.08 83.48 117 87 C116.69 89.38 116.69 89.38 117 91 C116.69 91.04 116.69 91.04 115.12 91.25 C113 92 113 92 111.69 93.75 C110.84 96.51 111.24 98.25 112 101 C111.4 101.19 110.8 101.37 110.19 101.56 C105.24 104.82 104.21 111.89 102.93 117.4 C100.28 130.57 101.41 143.45 106 156 C106.66 156 107.32 156 108 156 C108.1 156.85 108.21 157.69 108.31 158.56 C108.92 162.31 110.39 165.58 112 169 C112.66 169 113.32 169 114 169 C114 169.66 114 170.32 114 171 C114.66 171 115.32 171 116 171 C116 171.99 116 172.98 116 174 C116.66 174 117.32 174 118 174 C118 174.99 118 175.98 118 177 C120.64 177.66 123.28 178.32 126 179 C126 180.32 126 181.64 126 183 C126.99 183 127.98 183 129 183 C129 183.66 129 184.32 129 185 C129.99 185 130.98 185 132 185 C132.33 185.99 132.66 186.98 133 188 C134.65 188 136.3 188 138 188 C138 188.99 138 189.98 138 191 C140.04 191.82 142.08 192.63 144.12 193.44 C144.69 193.67 145.26 193.9 145.85 194.13 C161.38 200.22 180.42 198.04 195.62 191.95 C198.98 190.35 202.25 188.52 205 186 C205 185.34 205 184.68 205 184 C205.6 183.88 206.2 183.75 206.81 183.62 C208.94 183.02 210.32 182.43 212 181 C212 180.34 212 179.68 212 179 C213.32 178.34 214.64 177.68 216 177 C216 176.34 216 175.68 216 175 C216.66 175 217.32 175 218 175 C219.89 172.79 220 172.04 220 169 C220.66 169 221.32 169 222 169 C222.33 167.35 222.66 165.7 223 164 C223.66 164 224.32 164 225 164 C225 163.34 225 162.68 225 162 C225.66 162 226.32 162 227 162 C227.14 161.09 227.29 160.19 227.44 159.25 C228.52 152.82 228.52 152.82 230.12 150.06 C231.27 147.37 230.77 145.76 230 143 C230.99 143 231.98 143 233 143 C233 142.01 233 141.02 233 140 C232.34 140 231.68 140 231 140 C231 137.36 231 134.72 231 132 C231.66 132 232.32 132 233 132 C232.67 129.03 232.67 129.03 231 114 C230.34 114 229.68 114 229 114 C229.01 113.43 229.02 112.86 229.03 112.27 C228.72 103.92 225.22 98.03 221 91 C220.34 91 219.68 91 219 91 C219 90.01 219 89.02 219 88 C218.34 88 217.68 88 217 88 C216.84 87.34 216.84 87.34 216 84 C215.01 84 214.02 84 213 84 C213 83.34 213 82.68 213 82 C212.34 82 211.68 82 211 82 C211 81.01 211 80.02 211 79 C209.68 79 208.36 79 207 79 C206.96 78.38 206.92 77.76 206.88 77.12 C206 75 206 75 204.6 74.29 C203.07 73.79 201.56 73.36 200 73 C200 72.34 200 71.68 200 71 C198.02 71 196.04 71 194 71 C194 70.01 194 69.02 194 68 C192.02 68 190.04 68 188 68 C187.84 67.67 187.84 67.67 187 66 C185.33 65.59 185.33 65.59 183.25 65.38 C182.53 65.3 181.81 65.23 181.06 65.15 C179.46 65.03 177.85 65 176.25 65 C174 65 174 65 171.88 64.44 C170 64 170 64 168.68 64.47 Z M206 199 C206 199.66 206 200.32 206 201 C204.68 201 203.36 201 202 201 C201.67 201.99 201.34 202.98 201 204 C200.18 204.12 199.35 204.24 198.5 204.37 C196.04 204.78 193.66 205.33 191.25 205.97 C181.08 208.63 162.95 212.97 153 208 C151.53 207.94 151.53 207.94 149.94 208 C148.97 208 148 208 147 208 C146.84 207.84 146.84 207.84 146 207 C144.33 206.96 142.67 206.96 141 207 C141 206.34 141 205.68 141 205 C140.46 204.81 139.91 204.61 139.36 204.41 C138.64 204.15 137.92 203.89 137.19 203.62 C136.48 203.37 135.77 203.11 135.04 202.85 C133 202 133 202 131.58 200.96 C129.76 199.86 128.75 199.74 126.64 199.73 C126 199.73 125.36 199.73 124.7 199.73 C124.03 199.73 123.37 199.74 122.69 199.75 C122.04 199.74 121.38 199.73 120.71 199.73 C116.37 199.74 113.07 200.52 109 202 C108.01 202 107.02 202 106 202 C106 202.66 106 203.32 106 204 C105.09 204.29 104.19 204.58 103.25 204.88 C100.71 205.72 98.36 206.73 96 208 C96 208.66 96 209.32 96 210 C95.42 210.12 94.84 210.25 94.25 210.38 C91.98 211.01 90.07 211.89 88 213 C88 213.66 88 214.32 88 215 C87.01 215 86.02 215 85 215 C85 215.66 85 216.32 85 217 C84.01 217.33 83.02 217.66 82 218 C82 218.66 82 219.32 82 220 C81.68 220.11 81.68 220.11 80.06 220.69 C78 222 78 222 77.25 224.62 C77.17 225.41 77.09 226.19 77 227 C75.68 227.33 74.36 227.66 73 228 C73 228.66 73 229.32 73 230 C72.34 230 71.68 230 71 230 C69.74 232.91 69 234.8 69 238 C68.34 238.16 68.34 238.16 65 239 C65.33 240.65 65.66 242.3 66 244 C65.01 244 64.02 244 63 244 C63 245.98 63 247.96 63 250 C62.55 250.08 62.1 250.15 61.64 250.23 C59.23 251.36 58.8 252.91 57.75 255.31 C57.57 255.7 57.57 255.7 56.67 257.68 C55.93 260.25 56.11 261.51 57 264 C56.67 264.16 56.67 264.16 55 265 C54.5 266.3 54.5 266.3 54.15 267.95 C54.08 268.25 54.08 268.25 53.76 269.77 C53.63 270.4 53.51 271.04 53.38 271.69 C53.24 272.3 53.11 272.91 52.97 273.54 C52.36 276.5 51.93 279.25 52 282.27 C52 284.88 51.85 285.84 50.56 288 C48.32 292.68 48.44 297.7 48.21 302.79 C48.12 304.77 47.92 306.29 47.39 308.23 C46.91 310.4 47.25 311.2 48.31 313.12 C48.58 313.62 48.84 314.12 49.11 314.63 C50 316 50 316 52 318 C53.51 317.98 53.51 317.98 55.12 317.62 C55.6 317.52 55.6 317.52 58 317 C58 317.99 58 318.98 58 320 C64.62 322.26 72.16 324.09 79 322 C79.33 322.66 79.66 323.32 80 324 C80.53 323.99 81.06 323.98 81.61 323.96 C88.63 323.88 88.63 323.88 92 325 C92.33 324.34 92.66 323.68 93 323 C93.33 323.66 93.66 324.32 94 325 C98.75 326.37 102.66 326.31 107 324 C107 324.66 107 325.32 107 326 C109.85 326.34 112.71 326.67 115.56 327 C116.36 327.1 117.16 327.19 117.99 327.29 C122.19 327.77 126.28 328.07 130.51 328 C132.45 328 134.33 328.22 136.25 328.5 C138.58 328.83 140.63 329 143 329 C144.13 329 145.27 329.01 146.4 329.02 C150.11 329.03 153.82 329.05 157.53 329.05 C159.13 329.06 160.74 329.07 162.34 329.08 C164.65 329.09 166.96 329.09 169.28 329.1 C169.99 329.1 170.7 329.11 171.44 329.11 C174.79 329.11 177.78 329.05 181 328 C181 328.66 181 329.32 181 330 C181.58 329.81 182.16 329.63 182.75 329.44 C185 329 185 329 187.06 329.56 C187.7 329.71 188.34 329.85 189 330 C189.41 329.68 189.83 329.36 190.25 329.04 C192.74 327.56 195.08 327.77 197.88 327.84 C198.44 327.85 199.01 327.85 199.59 327.86 C201.39 327.87 203.2 327.9 205 327.94 C206.8 327.97 208.61 327.99 210.41 328.01 C211.53 328.02 212.65 328.04 213.77 328.06 C216.42 328.1 218.53 327.93 221 327 C222.51 327 224.02 327 225.53 327.03 C227 327 227 327 229 326.5 C231.72 325.82 234.2 325.94 237 326 C237 325.34 237 324.68 237 324 C237.4 324.16 237.8 324.33 238.21 324.5 C240.43 325.12 242.39 325.1 244.69 325.06 C245.5 325.05 246.3 325.04 247.14 325.04 C247.75 325.02 248.37 325.01 249 325 C249.33 324.01 249.66 323.02 250 322 C250.91 322.17 251.81 322.33 252.75 322.5 C255.21 322.91 257.5 323.08 260 323 C260.8 323.02 261.61 323.04 262.44 323.06 C265.07 323 267.44 322.59 270 322 C270 321.34 270 320.68 270 320 C271.65 320.33 273.3 320.66 275 321 C275.33 320.34 275.66 319.68 276 319 C276.56 319.19 277.12 319.39 277.7 319.59 C280.53 320.09 282.08 319.55 284.75 318.56 C285.55 318.28 286.35 317.99 287.17 317.69 C287.78 317.46 288.38 317.24 289 317 C288.99 316.54 288.98 316.08 288.96 315.61 C288.92 312.23 288.96 309.25 290 306 C289.34 306 288.68 306 288 306 C288.33 300.72 288.66 295.44 289 290 C288.34 290 287.68 290 287 290 C287 286.7 287 283.4 287 280 C286.01 279.67 285.02 279.34 284 279 C284 278.01 284 277.02 284 276 C284.66 276 285.32 276 286 276 C286.03 274.92 286.05 273.83 286.06 272.75 C286.07 272.15 286.09 271.54 286.1 270.92 C285.99 268.8 285.58 267.05 285 265 C284.85 264.46 284.7 263.93 284.54 263.37 C284.01 261.5 283.48 259.62 282.94 257.75 C282.75 257.1 282.56 256.45 282.37 255.78 C281.92 254.19 281.46 252.59 281 251 C280.01 251 279.02 251 278 251 C277.21 248.25 276.9 245.86 277 243 C276.01 243 275.02 243 274 243 C274 241.35 274 239.7 274 238 C273.01 238 272.02 238 271 238 C270.67 236.68 270.34 235.36 270 234 C268.68 234 267.36 234 266 234 C265.99 233.76 265.99 233.76 265.92 232.54 C265.75 230.62 265.54 228.86 265 227 C263 225.75 263 225.75 261 225 C260.25 223.38 260.25 223.38 260 222 C258.68 222 257.36 222 256 222 C255.9 221.36 255.79 220.72 255.69 220.06 C255.46 219.38 255.23 218.7 255 218 C253.44 217.25 253.44 217.25 252 217 C252 216.34 252 215.68 252 215 C251.01 215 250.02 215 249 215 C249 214.34 249 213.68 249 213 C248.01 213 247.02 213 246 213 C246 212.34 246 211.68 246 211 C244.02 210.67 242.04 210.34 240 210 C240 209.34 240 208.68 240 208 C238.56 207.49 237.13 207 235.69 206.5 C234.89 206.22 234.09 205.94 233.26 205.66 C231 205 231 205 228 205 C227.67 204.34 227.34 203.68 227 203 C223.58 201.37 220.22 200.53 216.5 199.88 C216.04 199.79 216.04 199.79 213.72 199.37 C211.11 199.01 208.63 198.93 206 199 Z " fill="#000000" transform="translate(0,0)"/>
<path d="M0 0 C0.33 0.33 0.33 0.33 2 2 C4.12 2.62 4.12 2.62 6 3 C6 3.66 6 4.32 6 5 C6.99 5.17 6.99 5.17 12 6 C12 6.99 12 7.98 12 9 C13.32 9.33 14.64 9.66 16 10 C16 10.66 16 11.32 16 12 C16.66 12 17.32 12 18 12 C20.24 15.1 21.44 17.08 21 21 C21.62 21.06 22.23 21.11 22.87 21.17 C25 22 25 22 26.2 24.33 C26.52 25.3 26.83 26.27 27.12 27.25 C27.44 28.21 27.75 29.18 28.07 30.14 C28.22 30.62 28.37 31.1 28.53 31.59 C28.98 32.93 29.51 34.24 30.05 35.55 C35.05 48.5 31.26 63.69 26 76 C25.34 76 24.68 76 24 76 C23.77 76.87 23.55 77.73 23.31 78.62 C22.08 82.35 19.91 85.37 17 88 C16.34 88 15.68 88 15 88 C15 88.66 15 89.32 15 90 C13.68 90.33 12.36 90.66 11 91 C11 91.66 11 92.32 11 93 C10.34 93 9.68 93 9 93 C9 93.66 9 94.32 9 95 C-3.57 101.15 -14.59 103.31 -28.62 101.12 C-29.15 101.05 -29.67 100.97 -30.2 100.89 C-31.66 100.63 -31.66 100.63 -34 100 C-34.33 99.34 -34.66 98.68 -35 98 C-37.29 97.15 -37.29 97.15 -40.06 96.38 C-40.98 96.11 -41.9 95.85 -42.85 95.59 C-43.56 95.39 -44.27 95.2 -45 95 C-45 94.34 -45 93.68 -45 93 C-45.99 93 -46.98 93 -48 93 C-49.35 92.01 -49.35 92.01 -50.62 90.69 C-50.84 90.47 -50.84 90.47 -51.91 89.39 C-53.04 87.94 -53.54 86.76 -54 85 C-54.66 85 -55.32 85 -56 85 C-56.33 83.68 -56.66 82.36 -57 81 C-57.66 81 -58.32 81 -59 81 C-59 80.34 -59 79.68 -59 79 C-59.66 79 -60.32 79 -61 79 C-61.84 77.09 -62.67 75.17 -63.5 73.25 C-63.74 72.71 -63.98 72.17 -64.22 71.62 C-65.5 68.63 -66.32 66.32 -66 63 C-66.66 63 -67.32 63 -68 63 C-69.19 50.45 -69.27 40.69 -64.68 28.8 C-64.25 27.66 -63.85 26.52 -63.5 25.36 C-62.8 23.44 -61.43 22.43 -60 21 C-58.81 18.81 -58.81 18.81 -58 17 C-57.34 17 -56.68 17 -56 17 C-56 16.01 -56 15.02 -56 14 C-55.01 12.61 -55.01 12.61 -53.69 11.31 C-53.26 10.88 -52.83 10.44 -52.39 9.99 C-51 9 -51 9 -48 9 C-48 8.34 -48 7.68 -48 7 C-47.01 7 -46.02 7 -45 7 C-45 6.01 -45 5.02 -45 4 C-41.08 2.32 -37.33 1 -33 1 C-33 0.34 -33 -0.32 -33 -1 C-10.19 -3.23 -10.19 -3.23 0 0 Z " fill="#000000" transform="translate(186,82)"/>
<path d="M0 0 C0.33 0 0.66 0 1 0 C1.14 0.55 1.27 1.09 1.41 1.65 C4.08 11.02 9.6 18.05 18 23 C19.31 23.71 20.64 24.4 22 25 C19.91 26.63 17.9 28.05 15.56 29.31 C12.75 30.93 11.03 33.22 9.11 35.79 C8.75 36.19 8.38 36.59 8 37 C7.34 37 6.68 37 6 37 C4.25 41.3 2.62 45.65 1 50 C-1.72 47.28 -2.99 43.99 -4.53 40.52 C-6.4 36.56 -8.44 34.55 -12 32 C-12.47 31.48 -12.95 30.97 -13.44 30.44 C-15.67 28.38 -18.26 27.25 -21 26 C-20.67 25.01 -20.34 24.02 -20 23 C-18.68 23 -17.36 23 -16 23 C-16 22.34 -16 21.68 -16 21 C-14.68 20.67 -13.36 20.34 -12 20 C-12 19.34 -12 18.68 -12 18 C-10.8 16.91 -9.51 16.03 -8.19 15.1 C-6.8 13.82 -6.45 12.81 -6 11 C-5.34 11 -4.68 11 -4 11 C-3.9 10.48 -3.79 9.97 -3.69 9.44 C-2.76 6.15 -1.39 3.11 0 0 Z " fill="#000000" transform="translate(296,91)"/>
<path d="M0 0 C0.71 0.12 1.43 0.25 2.16 0.38 C5.67 1.15 8.95 2.32 12.31 3.56 C12.96 3.8 13.6 4.03 14.27 4.27 C15.85 4.84 17.42 5.42 19 6 C19 6.66 19 7.32 19 8 C20.65 8.33 22.3 8.66 24 9 C24 9.66 24 10.32 24 11 C24.6 11.14 25.2 11.29 25.81 11.44 C26.53 11.62 27.26 11.81 28 12 C28.52 12.12 29.03 12.25 29.56 12.38 C31.52 13.22 32.64 14.38 34 16 C34 16.66 34 17.32 34 18 C34.66 18 35.32 18 36 18 C38.13 19.88 38.13 19.88 40 22 C40 22.66 40 23.32 40 24 C40.66 24 41.32 24 42 24 C46.58 28.97 49.09 35.02 51.06 41.38 C52 44 52 44 54 45 C54.6 46.67 54.6 46.67 55.06 48.75 C55.23 49.47 55.39 50.19 55.56 50.93 C56.06 53.29 56.53 55.64 57 58 C57.21 58.52 57.41 59.03 57.62 59.56 C58.15 61.58 57.61 63.04 57 65 C57.66 65.33 58.32 65.66 59 66 C59.38 68 59.38 68 59.56 70.44 C59.91 74.81 59.91 74.81 61 77 C60.34 77 59.68 77 59 77 C59.31 77.64 59.62 78.28 59.94 78.94 C61.5 82.78 61.66 86.9 62 91 C61.79 91.03 61.79 91.03 60.73 91.15 C58.84 91.38 56.95 91.63 55.06 91.88 C54.4 91.95 53.74 92.03 53.06 92.11 C52.44 92.2 51.81 92.28 51.16 92.37 C50.87 92.4 50.87 92.4 49.4 92.59 C48.94 92.72 48.48 92.86 48 93 C47.67 93.66 47.34 94.32 47 95 C46.01 94.67 45.02 94.34 44 94 C43.67 94.66 43.34 95.32 43 96 C37.72 96 32.44 96 27 96 C26.67 96.66 26.34 97.32 26 98 C25.55 97.98 25.1 97.95 24.64 97.93 C19.55 97.79 14.88 98.45 9.91 99.46 C1.79 100.96 -6.03 101.1 -14.25 101 C-16.57 100.97 -18.89 100.95 -21.2 100.94 C-21.73 100.93 -22.25 100.92 -22.79 100.91 C-25.7 100.89 -28.19 101.28 -31 102 C-31.33 101.67 -31.66 101.34 -32 101 C-33.32 100.91 -34.65 100.88 -35.97 100.89 C-36.39 100.89 -36.39 100.89 -38.52 100.89 C-38.97 100.89 -38.97 100.89 -41.29 100.9 C-42.22 100.9 -43.15 100.91 -44.11 100.91 C-46.58 100.91 -49.06 100.92 -51.54 100.93 C-54.07 100.94 -56.59 100.95 -59.12 100.95 C-64.08 100.96 -69.04 100.98 -74 101 C-74 100.34 -74 99.68 -74 99 C-76.31 99 -78.62 99 -81 99 C-81 99.66 -81 100.32 -81 101 C-81.4 100.83 -81.81 100.67 -82.23 100.5 C-84.36 99.9 -86.16 99.98 -88.38 100.06 C-92.15 100.12 -94.66 99.72 -98 98 C-98.33 98.66 -98.66 99.32 -99 100 C-99 99.01 -99 98.02 -99 97 C-99.52 97.1 -100.05 97.19 -100.59 97.29 C-112.31 98.97 -124.55 96.64 -136 94 C-136 93.34 -136 92.68 -136 92 C-136.31 92.02 -136.31 92.02 -137.86 92.11 C-138.67 92.13 -139.48 92.16 -140.31 92.19 C-140.71 92.2 -140.71 92.2 -142.74 92.29 C-145 92 -145 92 -146.75 90.62 C-148.18 88.77 -148.61 87.29 -149 85 C-148.67 84.84 -148.67 84.84 -147 84 C-146.59 81.71 -146.59 81.71 -146.38 78.94 C-146.3 78.02 -146.23 77.1 -146.15 76.15 C-146.1 75.44 -146.05 74.73 -146 74 C-145.34 74 -144.68 74 -144 74 C-144.08 73.52 -144.17 73.04 -144.25 72.54 C-144.36 71.91 -144.46 71.28 -144.56 70.62 C-144.67 70 -144.77 69.37 -144.88 68.73 C-145 67 -145 67 -144 65 C-143.34 65 -142.68 65 -142 65 C-142.33 62.69 -142.66 60.38 -143 58 C-142.67 57.83 -142.67 57.83 -141 57 C-140.38 54.44 -140.38 54.44 -140 52 C-140.66 51.67 -141.32 51.34 -142 51 C-141.5 50.83 -141.5 50.83 -139 50 C-139 48.68 -139 47.36 -139 46 C-137.68 46 -136.36 46 -135 46 C-135.33 44.35 -135.66 42.7 -136 41 C-135.34 41 -134.68 41 -134 41 C-134 39.35 -134 37.7 -134 36 C-133.34 36 -132.68 36 -132 36 C-132 34.02 -132 32.04 -132 30 C-131.01 30 -130.02 30 -129 30 C-128.67 28.68 -128.34 27.36 -128 26 C-127.34 26 -126.68 26 -126 26 C-126 25.01 -126 24.02 -126 23 C-125.34 23 -124.68 23 -124 23 C-124 22.34 -124 21.68 -124 21 C-122.57 19.49 -122.57 19.49 -120.69 17.88 C-120.07 17.34 -119.46 16.8 -118.82 16.24 C-117 15 -117 15 -114 15 C-114.16 14.34 -114.16 14.34 -115 11 C-114.01 11 -113.02 11 -112 11 C-112 10.34 -112 9.68 -112 9 C-111.17 9.16 -111.17 9.16 -107 10 C-106.67 9.01 -106.34 8.02 -106 7 C-104.68 7 -103.36 7 -102 7 C-101.76 6.35 -101.52 5.71 -101.27 5.04 C-100 3 -100 3 -98.01 2.46 C-97.24 2.43 -96.48 2.4 -95.69 2.38 C-92.87 2.2 -91.15 2.07 -88.56 0.88 C-84.4 -0.55 -80.29 0.38 -76 1 C-76 1.66 -76 2.32 -76 3 C-75.46 2.79 -74.93 2.59 -74.38 2.38 C-71.56 1.93 -70.19 2.53 -67.59 3.52 C-65.02 4.29 -62.67 4.13 -60 4 C-60 4.66 -60 5.32 -60 6 C-58.68 5.67 -57.36 5.34 -56 5 C-56 5.66 -56 6.32 -56 7 C-55.61 6.84 -55.22 6.68 -54.82 6.52 C-52.49 5.85 -50.32 5.78 -47.89 5.68 C-47.4 5.66 -47.4 5.66 -44.92 5.56 C-43.88 5.52 -42.85 5.48 -41.81 5.44 C-40.77 5.39 -39.72 5.35 -38.67 5.31 C-36.12 5.2 -33.56 5.1 -31 5 C-30.67 4.34 -30.34 3.68 -30 3 C-29.43 3.01 -28.87 3.02 -28.29 3.04 C-27.92 3.04 -27.92 3.04 -26.06 3.06 C-25.7 3.07 -25.7 3.07 -23.85 3.1 C-22 3 -22 3 -21 2 C-19.48 1.93 -17.96 1.92 -16.44 1.94 C-15.61 1.95 -14.78 1.96 -13.93 1.96 C-13.3 1.98 -12.66 1.99 -12 2 C-12 1.34 -12 0.68 -12 0 C-8.18 -1.91 -3.97 -1.15 0 0 Z " fill="#000000" transform="translate(212,215)"/>
</svg>
