<?xml version="1.0" encoding="UTF-8"?>
<!-- Generator: visioncortex VTracer 0.6.12 -->
<svg version="1.1" xmlns="http://www.w3.org/2000/svg" width="384" height="384">
<path d="M0 0 C126.72 0 253.44 0 384 0 C384 126.72 384 253.44 384 384 C257.28 384 130.56 384 0 384 C0 257.28 0 130.56 0 0 Z M94 43 C93.67 43.99 93.34 44.98 93 46 C91.68 46 90.36 46 89 46 C89 46.66 89 47.32 89 48 C87.68 48.33 86.36 48.66 85 49 C85 50.32 85 51.64 85 53 C84.37 53.09 83.75 53.19 83.11 53.28 C81 54 81 54 79.99 55.47 C77.34 63.44 77.26 71.66 77 80 C77.66 80 78.32 80 79 80 C78.84 80.18 78.84 80.18 78.01 81.08 C76.52 83.92 76.79 86.54 76.88 89.69 C76.88 90.29 76.89 90.9 76.9 91.53 C76.93 93.02 76.96 94.51 77 96 C77.66 96 78.32 96 79 96 C79 96.66 79 97.32 79 98 C78.34 98 77.68 98 77 98 C77 100.97 77 103.94 77 107 C77.66 107 78.32 107 79 107 C78.68 107.48 78.35 107.95 78.02 108.45 C76.51 112.23 76.72 115.83 76.74 119.87 C76.74 120.77 76.73 121.68 76.73 122.61 C76.72 125.12 76.72 127.63 76.72 130.14 C76.73 132.85 76.72 135.56 76.71 138.27 C76.7 143.58 76.7 148.88 76.7 154.19 C76.7 158.5 76.7 162.82 76.69 167.13 C76.69 167.74 76.69 168.36 76.69 168.99 C76.69 170.24 76.69 171.48 76.69 172.73 C76.68 184.43 76.68 196.12 76.69 207.82 C76.69 218.52 76.68 229.22 76.66 239.91 C76.64 250.9 76.63 261.89 76.64 272.87 C76.64 279.04 76.64 285.21 76.62 291.37 C76.61 296.63 76.61 301.88 76.62 307.13 C76.63 309.8 76.63 312.48 76.62 315.16 C76.6 318.07 76.61 320.97 76.63 323.88 C76.62 324.72 76.61 325.56 76.6 326.43 C76.65 331.46 77.38 334.69 80 339 C80.99 339 81.98 339 83 339 C83.08 339.6 83.17 340.21 83.25 340.83 C84.22 343.65 85.38 344.22 87.94 345.69 C88.65 346.1 89.36 346.52 90.09 346.95 C93.41 348.77 95.71 349.14 99.44 349.13 C99.71 349.13 99.71 349.13 101.12 349.13 C102.96 349.14 104.8 349.14 106.64 349.13 C107.93 349.13 109.22 349.13 110.51 349.14 C113.22 349.14 115.93 349.14 118.64 349.13 C122.08 349.12 125.52 349.13 128.96 349.13 C131.63 349.14 134.3 349.14 136.97 349.13 C138.23 349.13 139.5 349.13 140.76 349.14 C147.73 349.15 154.64 348.98 161.59 348.35 C167.73 347.8 173.84 347.99 179.99 348.13 C180.88 348.14 181.76 348.15 182.67 348.16 C183.45 348.18 184.24 348.19 185.05 348.21 C187 348 187 348 189 346 C191.62 345.38 191.62 345.38 194 345 C194 345.66 194 346.32 194 347 C197.06 347.06 200.12 347.09 203.19 347.12 C204.05 347.14 204.92 347.16 205.81 347.18 C210.41 347.21 213.88 347.09 218 345 C219.33 344.64 220.66 344.3 222 344 C222 343.01 222 342.02 222 341 C220.68 341 219.36 341 218 341 C218 340.01 218 339.02 218 338 C213.93 337.01 210.15 336.89 206 337 C205.67 335.68 205.34 334.36 205 333 C204.01 333 203.02 333 202 333 C202 333.99 202 334.98 202 336 C201.67 334.68 201.34 333.36 201 332 C199.35 332.33 197.7 332.66 196 333 C196 332.01 196 331.02 196 330 C195.01 330 194.02 330 193 330 C193 330.99 193 331.98 193 333 C192.33 332.93 191.67 332.86 190.98 332.78 C185.18 332.2 179.54 331.92 173.7 332.06 C171.55 332.01 169.72 331.81 167.62 331.44 C163.87 330.86 160.59 331.3 156.88 331.94 C145.41 333.65 134.26 333 122.71 332.27 C121.89 332.22 121.06 332.17 120.21 332.12 C119.84 332.1 119.84 332.1 117.97 331.98 C116.07 332 114.75 332.28 113 333 C112.84 332.5 112.84 332.5 112 330 C109.69 330 107.38 330 105 330 C105 330.66 105 331.32 105 332 C104.02 331.74 103.04 331.47 102.06 331.19 C101.79 331.11 101.79 331.11 100.41 330.73 C99.94 330.49 99.48 330.25 99 330 C98.85 329.52 98.71 329.04 98.56 328.55 C98.37 328.04 98.19 327.53 98 327 C97.67 326.88 97.67 326.88 95.98 326.29 C94 325 94 325 93.58 323.44 C93.38 321.41 93.29 319.41 93.25 317.38 C93.22 316.67 93.19 315.96 93.16 315.23 C93.09 313.49 93.04 311.75 93 310 C93.33 310.99 93.66 311.98 94 313 C94.99 313 95.98 313 97 313 C97 311.02 97 309.04 97 307 C97.99 307 98.98 307 100 307 C99.88 302.32 99.76 297.65 99.63 292.97 C99.58 291.38 99.54 289.79 99.5 288.21 C99.11 272.85 99.11 272.85 98.21 265.89 C97.84 262.58 97.89 259.27 97.94 255.94 C97.94 255.26 97.95 254.59 97.95 253.89 C97.96 252.26 97.98 250.63 98 249 C97.34 249 96.68 249 96 249 C96.02 248.21 96.05 247.43 96.07 246.62 C96.19 240.69 96.06 235.65 94 230 C94.66 230 95.32 230 96 230 C96 229.01 96 228.02 96 227 C95.34 227 94.68 227 94 227 C94 220.4 94 213.8 94 207 C94.66 207 95.32 207 96 207 C96 205.68 96 204.36 96 203 C95.34 203 94.68 203 94 203 C94 192.68 94 192.68 94.02 189.48 C94.03 185.63 94.05 181.78 94.05 177.93 C94.06 176.27 94.07 174.6 94.08 172.94 C94.09 170.54 94.09 168.14 94.1 165.75 C94.1 165 94.11 164.25 94.11 163.49 C94.11 162.8 94.11 162.1 94.11 161.39 C94.11 161.09 94.11 161.09 94.12 159.55 C94 158 94 158 93 156 C93.66 156 94.32 156 95 156 C94.93 155.54 94.86 155.08 94.78 154.6 C94.08 149.7 93.94 144.96 94.06 140 C94 138 94 138 93 137 C92.98 135.69 92.98 135.69 93.12 134 C93.17 133.37 93.22 132.74 93.27 132.08 C93.32 131.4 93.38 130.71 93.44 130 C93.94 123.18 94.08 116.42 93.96 109.59 C93.92 106.18 94.05 103.3 95 100 C94.84 99.38 94.67 98.76 94.5 98.12 C93.8 95.17 94.39 92.97 95 90 C94.34 90 93.68 90 93 90 C93.16 89.03 93.33 88.06 93.5 87.06 C94.5 79.98 94.08 73.05 93 66 C93.22 65.94 93.22 65.94 94.36 65.65 C96.68 64.73 97.77 63.15 99.33 61.25 C105.3 56.77 113.57 57.74 120.64 57.8 C121.86 57.81 123.08 57.81 124.3 57.81 C127.49 57.82 130.67 57.84 133.86 57.86 C137.11 57.88 140.36 57.89 143.62 57.9 C149.32 57.92 155.02 57.95 160.72 57.99 C162.15 57.99 163.57 58 165 58 C170.67 58 176.33 58 182 58 C182 58.99 182 59.98 182 61 C183.32 60.67 184.64 60.34 186 60 C186 59.34 186 58.68 186 58 C189.96 58 193.92 58 198 58 C198 58.66 198 59.32 198 60 C198.99 60 199.98 60 201 60 C201 59.34 201 58.68 201 58 C204.13 57.93 206.99 57.94 210.06 58.56 C213.05 59.01 215.1 58.77 218 58 C218 58.99 218 59.98 218 61 C218.99 61 219.98 61 221 61 C221 60.01 221 59.02 221 58 C222.32 58 223.64 58 225 58 C224.67 58.66 224.34 59.32 224 60 C223.89 61.45 223.89 61.45 223.9 63.15 C223.9 63.48 223.9 63.48 223.91 65.1 C223.92 65.8 223.93 66.5 223.94 67.22 C223.95 68.72 223.95 70.21 223.96 71.71 C223.97 72.5 223.98 73.28 223.98 74.09 C224.08 87.09 224.05 100.02 223 113 C223.66 113.33 224.32 113.66 225 114 C225.1 114.78 225.21 115.57 225.31 116.38 C226 119 226 119 228.25 120.62 C229.17 121.09 230.08 121.54 231 122 C231.78 122.54 232.57 123.07 233.38 123.62 C239.3 126.73 246.23 126.12 252.77 126.06 C253.68 126.06 254.6 126.05 255.54 126.05 C258.44 126.04 261.35 126.02 264.25 126 C268.09 125.97 271.93 125.95 275.77 125.94 C276.65 125.93 277.53 125.92 278.44 125.91 C279.25 125.91 280.07 125.91 280.92 125.9 C281.63 125.9 282.35 125.89 283.09 125.89 C284.92 126 286.31 126.33 288 127 C287.67 127.66 287.34 128.32 287 129 C286.93 130.89 286.91 132.74 286.94 134.62 C286.94 134.88 286.94 134.88 286.95 136.19 C286.96 137.46 286.98 138.73 287 140 C286.34 140 285.68 140 285 140 C285 143.3 285 146.6 285 150 C285.66 150.33 286.32 150.66 287 151 C286.98 151.23 286.98 151.23 286.89 152.39 C286.73 154.49 286.59 156.59 286.44 158.69 C286.38 159.41 286.33 160.13 286.27 160.87 C286 164.81 285.98 168.18 287 172 C286.01 172 285.02 172 284 172 C284 174.64 284 177.28 284 180 C284.99 180 285.98 180 287 180 C287 181.32 287 182.64 287 184 C287.66 184 288.32 184 289 184 C288.98 184.46 288.95 184.92 288.93 185.4 C288.77 191.15 289.72 196.41 291 202 C291.99 202 292.98 202 294 202 C293.67 203.65 293.34 205.3 293 207 C293.66 207 294.32 207 295 207 C295.33 208.98 295.66 210.96 296 213 C296.99 213 297.98 213 299 213 C299.29 210.03 299.57 207.06 299.85 204.09 C300 202.6 300.14 201.11 300.29 199.61 C300.84 193.72 301.11 187.92 301 182 C301 179.08 301.22 176.22 301.5 173.31 C301.55 172.8 301.6 172.29 301.64 171.76 C301.76 170.51 301.88 169.25 302 168 C301.34 168 300.68 168 300 168 C300 167.01 300 166.02 300 165 C300.66 165 301.32 165 302 165 C302.09 158.42 302.16 151.84 302.21 145.26 C302.23 142.2 302.26 139.15 302.3 136.09 C302.35 133.14 302.37 130.19 302.38 127.24 C302.39 126.12 302.4 124.99 302.42 123.87 C302.45 122.29 302.46 120.71 302.45 119.14 C302.46 118.24 302.47 117.34 302.48 116.42 C301.82 113.09 300.63 112.11 298 110 C297.34 110 296.68 110 296 110 C296 109.01 296 108.02 296 107 C295.34 107 294.68 107 294 107 C294 106.34 294 105.68 294 105 C293.34 105 292.68 105 292 105 C291.67 104.34 291.67 104.34 290 101 C289.34 101 288.68 101 288 101 C288 100.01 288 99.02 288 98 C287.34 98 286.68 98 286 98 C286 97.01 286 96.02 286 95 C284.71 93.68 284.71 93.68 282.94 92.31 C278.2 88.45 274.32 83.96 270.55 79.16 C270.12 78.61 269.69 78.06 269.25 77.5 C268.88 77.02 268.52 76.53 268.14 76.03 C267 75 267 75 264 75 C264 74.01 264 73.02 264 72 C263.01 72 262.02 72 261 72 C261 71.01 261 70.02 261 69 C259.39 67.23 257.75 65.63 256 64 C254.41 62.45 252.83 60.88 251.25 59.31 C250.85 58.92 250.45 58.53 250.04 58.12 C248.37 56.47 247.06 55.11 246 53 C245.34 53 244.68 53 244 53 C243.88 52.71 243.88 52.71 243.25 51.25 C241.81 48.65 240.26 46.92 238 45 C237.01 45 236.02 45 235 45 C235 44.34 235 43.68 235 43 C232.28 42.23 229.91 41.89 227.09 41.94 C226.33 41.95 225.58 41.95 224.8 41.96 C224 41.97 223.2 41.99 222.38 42 C214.81 42.07 207.33 41.83 199.79 41.27 C196.23 41.02 193.46 41.04 190 42 C187.64 41.88 187.64 41.88 185.25 41.56 C184.45 41.46 183.65 41.36 182.83 41.25 C182.22 41.17 181.62 41.09 181 41 C181 41.66 181 42.32 181 43 C180.79 42.93 180.79 42.93 179.71 42.56 C173.14 40.61 166.78 40.81 160 41 C160 41.66 160 42.32 160 43 C159.34 43 158.68 43 158 43 C158 42.34 158 41.68 158 41 C157.05 41.14 156.1 41.29 155.12 41.44 C154.59 41.52 154.06 41.6 153.51 41.68 C152 42 152 42 150 43 C150 42.34 150 41.68 150 41 C144.18 40.95 138.35 40.92 132.53 40.9 C129.82 40.89 127.11 40.87 124.41 40.85 C121.79 40.83 119.17 40.82 116.55 40.81 C115.08 40.8 113.61 40.79 112.15 40.77 C105.87 40.77 100.1 41.54 94 43 Z M132 147 C132 147.66 132 148.32 132 149 C130.02 149 128.04 149 126 149 C125.67 149.99 125.34 150.98 125 152 C124.01 152 123.02 152 122 152 C122 153.32 122 154.64 122 156 C135.69 160.89 151.89 159.2 166.26 159.19 C168.01 159.19 169.77 159.19 171.52 159.19 C187.01 159.19 202.46 158.92 217.94 158.06 C218.33 158.04 218.33 158.04 220.33 157.93 C222.54 157.81 224.75 157.67 226.96 157.54 C227.6 157.5 228.23 157.46 228.88 157.42 C232.64 157.16 236.29 156.68 240 156 C240 155.01 240 154.02 240 153 C235.82 149.49 231.55 149.44 226.25 149.25 C225.86 149.23 225.86 149.23 223.89 149.12 C219.72 148.93 219.72 148.93 218 149 C217.67 149.33 217.34 149.66 217 150 C216.84 149.67 216.84 149.67 216 148 C214.51 147.68 214.51 147.68 212.62 147.59 C211.95 147.55 211.27 147.51 210.58 147.47 C209.87 147.44 209.17 147.41 208.44 147.38 C207.73 147.34 207.02 147.3 206.28 147.26 C204.52 147.16 202.76 147.08 201 147 C201 147.66 201 148.32 201 149 C200.34 149 199.68 149 199 149 C199 148.34 199 147.68 199 147 C198.03 147.19 197.06 147.37 196.06 147.56 C194.41 147.88 194.41 147.88 193 148 C192.84 147.84 192.84 147.84 192 147 C189.47 147.18 186.96 147.52 184.45 147.84 C182.12 147.99 181.11 147.78 179 147 C177.61 146.93 176.21 146.91 174.81 146.94 C174.1 146.95 173.38 146.96 172.64 146.96 C172.37 146.97 172.37 146.97 171 147 C171 147.66 171 148.32 171 149 C170.32 148.67 169.64 148.35 168.94 148.01 C165.62 146.69 162.47 146.74 158.94 146.81 C158.33 146.81 157.71 146.81 157.08 146.81 C153.87 146.85 151.12 147.2 148 148 C146.08 147.88 146.08 147.88 144.25 147.56 C143.64 147.46 143.02 147.36 142.39 147.25 C141.93 147.17 141.47 147.09 141 147 C141 147.66 141 148.32 141 149 C140.34 149 139.68 149 139 149 C139 148.34 139 147.68 139 147 C136.69 147 134.38 147 132 147 Z M136 188 C134.69 188.02 133.37 188 132.06 187.94 C128.5 187.88 126.17 188.42 123 190 C123 190.99 123 191.98 123 193 C122.01 193 121.02 193 120 193 C120 193.99 120 194.98 120 196 C123.81 198.36 127.67 198.66 132.03 199.11 C132.42 199.16 132.42 199.16 134.42 199.37 C142.65 200.17 150.84 200.27 159.1 200.21 C161.59 200.19 164.09 200.19 166.58 200.19 C168.2 200.18 169.82 200.17 171.44 200.17 C172.17 200.17 172.9 200.17 173.65 200.16 C178.16 200.12 182.57 199.78 187.05 199.22 C189.53 198.94 191.95 198.94 194.44 199 C199.8 199.07 205.14 198.85 210.5 198.56 C211.28 198.52 212.06 198.48 212.86 198.44 C213.6 198.4 214.33 198.36 215.09 198.32 C215.75 198.28 216.41 198.24 217.08 198.21 C219.13 197.99 221.02 197.53 223 197 C224.19 196.84 225.37 196.69 226.56 196.56 C231.19 195.92 231.19 195.92 233 194 C233 193.01 233 192.02 233 191 C222.42 187.39 212.07 187.68 201 188 C201 188.66 201 189.32 201 190 C200.34 190 199.68 190 199 190 C199 189.34 199 188.68 199 188 C198.57 188 198.57 188 196.38 188.02 C192.3 188.04 188.21 188.05 184.12 188.06 C183.38 188.06 182.64 188.07 181.88 188.07 C170.54 188.09 159.25 187.86 147.92 187.27 C147.41 187.24 146.9 187.22 146.38 187.19 C145.03 187.13 143.67 187.05 142.32 186.98 C140.03 187 138.19 187.38 136 188 Z M258.75 194.92 C257.49 196.27 256.23 197.62 255 199 C254.6 199.43 254.2 199.86 253.79 200.3 C252.02 202.32 251.04 203.62 250.75 206.31 C250.83 206.87 250.91 207.43 251 208 C250.42 208.06 249.84 208.12 249.25 208.19 C246.2 209.29 244.62 211.23 243 214 C243 214.66 243 215.32 243 216 C242.34 216.33 242.34 216.33 239 218 C239 218.99 239 219.98 239 221 C238.34 221 237.68 221 237 221 C237 221.66 237 222.32 237 223 C236.34 223 235.68 223 235 223 C235 223.66 235 224.32 235 225 C233.35 225.66 231.7 226.32 230 227 C230 228.32 230 229.64 230 231 C229.34 231 228.68 231 228 231 C227.53 231.64 227.05 232.28 226.56 232.94 C225.01 234.99 224.45 235.53 222 236 C222 237.65 222 239.3 222 241 C221.36 241.27 220.72 241.54 220.06 241.81 C218 243 218 243 217.5 244.5 C217.42 244.75 217.42 244.75 217 246 C215.67 246.67 214.33 247.33 213 248 C210.05 250.33 208.24 252.16 207.19 255.81 C207.13 256.53 207.06 257.26 207 258 C206.34 258 205.68 258 205 258 C202.63 260.42 200.68 263.06 199 266 C199.07 269 199.69 270.37 201 273 C212.04 275.59 224.78 273.63 236 273 C235.99 273.89 235.99 274.79 235.98 275.71 C235.97 279.02 235.95 282.34 235.95 285.65 C235.94 287.09 235.93 288.52 235.92 289.96 C235.91 292.02 235.91 294.08 235.9 296.14 C235.9 296.79 235.89 297.43 235.89 298.09 C235.89 298.69 235.89 299.29 235.89 299.91 C235.88 300.43 235.88 300.96 235.88 301.5 C236.01 303.13 236.42 304.47 237 306 C236.34 306 235.68 306 235 306 C235 306.91 235 307.81 235 308.75 C235 310.46 235 312.16 234.97 313.87 C235 315.89 235.2 317.77 235.5 319.77 C236.02 323.78 236.1 327.67 236.03 331.71 C236.01 333.13 236 334.56 235.99 335.98 C235.97 338.19 235.94 340.4 235.9 342.62 C235.87 344.77 235.86 346.93 235.84 349.09 C235.83 349.75 235.81 350.42 235.8 351.1 C235.8 351.71 235.79 352.33 235.79 352.96 C235.78 353.5 235.77 354.04 235.77 354.6 C236 356 236 356 238 358 C240.01 358.26 240.01 358.26 242.51 358.27 C243.44 358.28 244.38 358.29 245.34 358.3 C246.36 358.3 247.38 358.3 248.41 358.3 C249.45 358.3 250.5 358.31 251.54 358.31 C253.74 358.32 255.93 358.32 258.12 358.32 C260.93 358.31 263.74 358.33 266.56 358.35 C268.72 358.36 270.88 358.37 273.04 358.36 C274.07 358.36 275.11 358.37 276.15 358.38 C277.59 358.39 279.04 358.38 280.49 358.37 C280.9 358.37 280.9 358.37 282.99 358.37 C285 358 285 358 286.27 356.73 C287.15 354.65 287.22 353.16 287.18 350.9 C287.17 350.07 287.16 349.25 287.15 348.4 C287.13 347.51 287.11 346.62 287.09 345.7 C287.07 343.79 287.06 341.88 287.04 339.96 C287.03 338.98 287.02 337.99 287.01 336.97 C286.99 332.29 287.1 327.61 287.22 322.92 C287.24 322 287.26 321.08 287.29 320.14 C287.36 317.34 287.43 314.55 287.5 311.75 C287.83 298.83 288.08 285.92 288 273 C288.59 273.01 289.19 273.01 289.8 273.02 C309.77 273.17 309.77 273.17 318.25 272.62 C318.81 272.59 319.38 272.56 319.96 272.53 C322.94 272.31 323.81 272.19 326 270 C325.67 265.99 324.1 263.36 322 260 C321.87 259.57 321.87 259.57 321.19 257.38 C319.71 254.41 318.4 254 315.46 252.76 C313.34 251.66 312.33 249.93 311 248 C310.34 248 309.68 248 309 248 C309 247.01 309 246.02 309 245 C308.34 245 307.68 245 307 245 C306.67 244.34 306.67 244.34 305 241 C304.34 241 303.68 241 303 241 C303 240.01 303 239.02 303 238 C301.94 236.68 301.94 236.68 300.56 235.44 C298.91 233.93 298.01 233.03 297 231 C296.34 231 295.68 231 295 231 C294.67 230.34 294.67 230.34 293 227 C292.34 227 291.68 227 291 227 C290 225 289 223 288 221 C287.34 221 286.68 221 286 221 C285.73 220.43 285.46 219.86 285.19 219.27 C283.96 216.92 282.57 214.88 281 212.75 C280.48 212.04 279.97 211.34 279.44 210.61 C278.96 210.08 278.49 209.55 278 209 C277.34 209 276.68 209 276 209 C276 208.34 276 207.68 276 207 C275.55 206.94 275.09 206.88 274.62 206.81 C273 206 273 206 271.81 203.44 C271.68 203.04 271.68 203.04 271 201 C269.68 201 268.36 201 267 201 C266.84 200.18 266.84 200.18 266 196 C265.01 196 264.02 196 263 196 C263 195.34 263 194.68 263 194 C260 194 260 194 258.75 194.92 Z M150 229 C150 229.66 150 230.32 150 231 C149.8 230.96 149.8 230.96 148.81 230.75 C143.69 229.87 138.72 230.02 133.56 230.31 C132.84 230.35 132.12 230.38 131.37 230.42 C130.69 230.46 130.02 230.51 129.32 230.55 C129.01 230.57 129.01 230.57 127.46 230.67 C127.22 230.72 127.22 230.72 126 231 C125.67 231.66 125.34 232.32 125 233 C124.01 233 123.02 233 122 233 C122 233.99 122 234.98 122 236 C122.66 236 123.32 236 124 236 C124 236.99 124 237.98 124 239 C130.52 240.55 136.74 241.19 143.44 241.19 C144.12 241.19 144.81 241.19 145.52 241.19 C148.21 241.16 150.6 241.1 153.22 240.43 C155.46 239.89 156.79 240.4 159 241 C160.85 241.07 162.71 241.09 164.56 241.06 C165.51 241.05 166.46 241.04 167.44 241.04 C168.29 241.02 169.13 241.01 170 241 C170.99 241 171.98 241 173 241 C174.4 240.85 175.79 240.68 177.19 240.5 C177.9 240.41 178.62 240.31 179.36 240.22 C179.9 240.15 180.44 240.07 181 240 C181 239.01 181 238.02 181 237 C181.99 237 182.98 237 184 237 C184 237.66 184 238.32 184 239 C185.16 238.84 185.16 238.84 191 238 C191 237.34 191 236.68 191 236 C192.32 236 193.64 236 195 236 C194.84 235.34 194.84 235.34 194 232 C186.26 229.71 178.85 229.79 170.88 229.94 C168.41 229.97 165.95 230 163.49 230.03 C163.2 230.03 163.2 230.03 161.74 230.04 C157.73 230.06 153.94 229.75 150 229 Z " fill="#000000" transform="translate(0,0)"/>
<path d="M0 0 C1.5 0.75 1.5 0.75 3 2 C3.19 4.12 3.19 4.12 3 6 C3.74 6.08 4.49 6.17 5.25 6.25 C8.56 7.15 9.88 8.33 12 11 C12 11.99 12 12.98 12 14 C12.99 14 13.98 14 15 14 C15.33 14.66 15.66 15.32 16 16 C16.47 16.12 16.95 16.25 17.44 16.38 C19 17 19 17 20.19 18.75 C21.11 21.3 21.15 23.31 21 26 C21.99 26 22.98 26 24 26 C24 26.99 24 27.98 24 29 C24.74 29.08 25.49 29.16 26.25 29.25 C29.52 30.14 30.88 31.51 33 34 C33.58 34.65 34.17 35.3 34.77 35.97 C39.82 41.64 39.82 41.64 41 44 C38.69 44 36.38 44 34 44 C33.83 44.33 33.83 44.33 33 46 C32.47 45.84 31.93 45.68 31.38 45.52 C28.56 44.9 25.8 44.77 22.92 44.68 C22.35 44.66 21.78 44.64 21.19 44.62 C19.38 44.56 17.56 44.5 15.75 44.44 C14.52 44.39 13.28 44.35 12.05 44.31 C9.03 44.2 6.02 44.1 3 44 C2.67 44.66 2.34 45.32 2 46 C0.11 44.41 -0.9 43.52 -1.37 41.05 C-1.37 40.68 -1.37 40.68 -1.36 38.82 C-1.36 37.98 -1.36 37.14 -1.37 36.28 C-1.35 35.38 -1.34 34.48 -1.33 33.55 C-1.33 32.63 -1.32 31.7 -1.32 30.75 C-1.31 28.29 -1.29 25.84 -1.26 23.38 C-1.24 20.88 -1.24 18.38 -1.23 15.87 C-1.23 13.97 -1.21 12.08 -1.2 10.18 C-1.2 9.28 -1.19 8.37 -1.19 7.44 C-1.18 6.61 -1.17 5.78 -1.16 4.92 C-1.15 4.19 -1.15 3.45 -1.14 2.69 C-1 1 -1 1 0 0 Z " fill="#000000" transform="translate(238,67)"/>
<path d="M0 0 C1.32 0 2.64 0 4 0 C4 0.66 4 1.32 4 2 C3.01 2 2.02 2 1 2 C1.31 3.44 1.31 3.44 2 5 C3.56 5.69 3.56 5.69 5 6 C5 5.34 5 4.68 5 4 C8.88 5.88 8.88 5.88 10 7 C10.04 8.67 10.04 10.33 10 12 C10.8 12.12 11.61 12.25 12.44 12.38 C13.28 12.58 14.13 12.79 15 13 C15.17 13.33 15.17 13.33 16 15 C15.34 15 14.68 15 14 15 C14 15.99 14 16.98 14 18 C14.99 18 15.98 18 17 18 C17.33 17.34 17.66 16.68 18 16 C19 18 19 18 18.56 19.62 C18.47 19.85 18.47 19.85 18 21 C19.32 21 20.64 21 22 21 C22 21.66 22 22.32 22 23 C22.66 23.33 23.32 23.66 24 24 C22 25 22 25 20.38 24.56 C19.92 24.38 19.47 24.19 19 24 C19 24.66 19 25.32 19 26 C18.01 26 17.02 26 16 26 C16 28.64 16 31.28 16 34 C16.99 34 17.98 34 19 34 C19.17 33.67 19.17 33.67 20 32 C20.99 32.33 21.98 32.66 23 33 C23 32.34 23 31.68 23 31 C23.66 31 24.32 31 25 31 C25 30.34 25 29.68 25 29 C26.38 28.44 26.38 28.44 28 28 C28.66 28.33 29.32 28.66 30 29 C30.14 29.66 30.29 30.32 30.44 31 C30.62 31.66 30.81 32.32 31 33 C32.56 33.75 32.56 33.75 34 34 C34 34.99 34 35.98 34 37 C33.01 37 32.02 37 31 37 C31 37.66 31 38.32 31 39 C29.68 39 28.36 39 27 39 C27 39.66 27 40.32 27 41 C25.85 41.17 25.85 41.17 20 42 C20 42.99 20 43.98 20 45 C19.67 45.17 19.67 45.17 18 46 C17.28 47.64 16.61 49.31 16 51 C14.68 51 13.36 51 12 51 C12.31 52.44 12.31 52.44 13 54 C14.56 54.69 14.56 54.69 16 55 C16 55.66 16 56.32 16 57 C15.01 57 14.02 57 13 57 C13.19 57.58 13.37 58.15 13.56 58.75 C14.04 61.21 13.76 62.64 13 65 C13.99 65 14.98 65 16 65 C15.67 66.65 15.34 68.3 15 70 C14.34 70 13.68 70 13 70 C13 71.32 13 72.64 13 74 C13.99 74.33 14.98 74.66 16 75 C15.34 75.33 15.34 75.33 12 77 C12 77.99 12 78.98 12 80 C12.66 80 13.32 80 14 80 C14 81.32 14 82.64 14 84 C13.01 84 12.02 84 11 84 C11 85.32 11 86.64 11 88 C11.99 88 12.98 88 14 88 C13.67 88.66 13.34 89.32 13 90 C12.01 89.67 11.02 89.34 10 89 C10 90.32 10 91.64 10 93 C10.66 93 11.32 93 12 93 C12.17 94.81 12.17 94.81 13 104 C12.34 104 11.68 104 11 104 C11 104.99 11 105.98 11 107 C11.66 107 12.32 107 13 107 C13.94 109.32 14.04 110.89 13.66 113.36 C13.57 113.98 13.47 114.6 13.38 115.24 C13.27 115.88 13.17 116.53 13.06 117.19 C12.96 117.84 12.86 118.5 12.76 119.17 C12.51 120.78 12.26 122.39 12 124 C11.01 124 10.02 124 9 124 C9 125.32 9 126.64 9 128 C10.32 128 11.64 128 13 128 C13 127.34 13 126.68 13 126 C13.66 126 14.32 126 15 126 C15 127.32 15 128.64 15 130 C14.27 129.98 14.27 129.98 10.61 129.9 C9 130 9 130 7.56 130.59 C5.3 131.18 3.95 130.44 1.81 129.56 C1.1 129.28 0.38 128.99 -0.36 128.69 C-0.9 128.46 -1.44 128.24 -2 128 C-2.33 128.66 -2.66 129.32 -3 130 C-5.64 130 -8.28 130 -11 130 C-12.61 127.18 -13.23 125.25 -13 122 C-12.01 122 -11.02 122 -10 122 C-10 120.68 -10 119.36 -10 118 C-10.99 118 -11.98 118 -13 118 C-13 113.05 -13 108.1 -13 103 C-12.34 103 -11.68 103 -11 103 C-11.33 101.68 -11.66 100.36 -12 99 C-11.34 99 -10.68 99 -10 99 C-10.38 97.56 -10.38 97.56 -11 96 C-11.66 95.67 -12.32 95.34 -13 95 C-12.93 94.43 -12.86 93.86 -12.78 93.28 C-12.2 88.48 -11.9 83.83 -12 79 C-10.35 79.99 -8.7 80.98 -7 82 C-7.48 79.9 -7.82 79.14 -9.56 77.81 C-9.8 77.68 -9.8 77.68 -11 77 C-10.84 76.5 -10.84 76.5 -10 74 C-10.99 74 -11.98 74 -13 74 C-13 73.34 -13 72.68 -13 72 C-12.34 72 -11.68 72 -11 72 C-10.67 69.36 -10.34 66.72 -10 64 C-11.32 64 -12.64 64 -14 64 C-13.69 62.42 -13.38 60.83 -13.06 59.25 C-12.89 58.37 -12.71 57.49 -12.54 56.58 C-12.08 54.37 -11.57 52.18 -11 50 C-11.66 50 -12.32 50 -13 50 C-15 45.88 -15.24 42.55 -15 38 C-16.32 38 -17.64 38 -19 38 C-19 38.99 -19 39.98 -19 41 C-20.32 41 -21.64 41 -23 41 C-23.33 41.66 -23.66 42.32 -24 43 C-24.2 41.47 -24.39 39.94 -24.59 38.41 C-24.72 37.94 -24.86 37.48 -25 37 C-25.66 36.67 -26.32 36.34 -27 36 C-26.67 34.35 -26.34 32.7 -26 31 C-24.35 31 -22.7 31 -21 31 C-21.33 29.35 -21.66 27.7 -22 26 C-20.16 25.21 -19.28 24.93 -17.31 25.44 C-16.88 25.62 -16.45 25.81 -16 26 C-16 25.01 -16 24.02 -16 23 C-15.01 23 -14.02 23 -13 23 C-12.67 22.01 -12.34 21.02 -12 20 C-12 20.99 -12 21.98 -12 23 C-11.01 23 -10.02 23 -9 23 C-9 22.34 -9 21.68 -9 21 C-8.34 21 -7.68 21 -7 21 C-7 20.01 -7 19.02 -7 18 C-6.34 18 -5.68 18 -5 18 C-5.19 17.4 -5.37 16.8 -5.56 16.19 C-6.01 13.95 -5.92 13.03 -5 11 C-5.66 10.67 -6.32 10.34 -7 10 C-6.01 10 -5.02 10 -4 10 C-3.34 7.36 -2.68 4.72 -2 2 C-1.34 2 -0.68 2 0 2 C0 1.34 0 0.68 0 0 Z M15 21 C15 22.32 15 23.64 15 25 C15.99 25 16.98 25 18 25 C18 23.68 18 22.36 18 21 C17.01 21 16.02 21 15 21 Z M-13 31 C-13 32.32 -13 33.64 -13 35 C-11.68 34.67 -10.36 34.34 -9 34 C-9 33.01 -9 32.02 -9 31 C-10.32 31 -11.64 31 -13 31 Z M-1 32 C-1 32.99 -1 33.98 -1 35 C-0.01 35 0.98 35 2 35 C2 34.01 2 33.02 2 32 C1.01 32 0.02 32 -1 32 Z M22 36 C21.67 37.65 21.34 39.3 21 41 C21.99 41 22.98 41 24 41 C24.33 39.35 24.66 37.7 25 36 C24.01 36 23.02 36 22 36 Z M-11 37 C-11 38.32 -11 39.64 -11 41 C-10.01 41 -9.02 41 -8 41 C-8 39.68 -8 38.36 -8 37 C-8.99 37 -9.98 37 -11 37 Z M12 43 C12 43.99 12 44.98 12 46 C12.99 46 13.98 46 15 46 C15 45.01 15 44.02 15 43 C14.01 43 13.02 43 12 43 Z M-9 57 C-9 58.65 -9 60.3 -9 62 C-7.68 62 -6.36 62 -5 62 C-5.33 60.35 -5.66 58.7 -6 57 C-6.99 57 -7.98 57 -9 57 Z M2 57 C2 58.98 2 60.96 2 63 C2.99 63 3.98 63 5 63 C5 61.02 5 59.04 5 57 C4.01 57 3.02 57 2 57 Z M5 63 C5 63.99 5 64.98 5 66 C4.01 66 3.02 66 2 66 C2 66.99 2 67.98 2 69 C2.99 69 3.98 69 5 69 C5 68.34 5 67.68 5 67 C5.99 67 6.98 67 8 67 C8 65.68 8 64.36 8 63 C7.01 63 6.02 63 5 63 Z M6 85 C6 86.32 6 87.64 6 89 C6.99 89 7.98 89 9 89 C9 87.68 9 86.36 9 85 C8.01 85 7.02 85 6 85 Z M-4 123 C-3.67 124.32 -3.34 125.64 -3 127 C-1.85 126.83 -1.85 126.83 4 126 C4 125.01 4 124.02 4 123 C1.36 123 -1.28 123 -4 123 Z M5 124 C5 125.32 5 126.64 5 128 C5.99 128 6.98 128 8 128 C8 126.68 8 125.36 8 124 C7.01 124 6.02 124 5 124 Z " fill="#000000" transform="translate(260,216)"/>
</svg>
