<?xml version="1.0" encoding="UTF-8"?>
<!-- Generator: visioncortex VTracer 0.6.12 -->
<svg version="1.1" xmlns="http://www.w3.org/2000/svg" width="384" height="384">
<path d="M0 0 C126.72 0 253.44 0 384 0 C384 126.72 384 253.44 384 384 C257.28 384 130.56 384 0 384 C0 257.28 0 130.56 0 0 Z M269 36 C268.67 36.33 268.34 36.66 268 37 C266.53 37.21 265.05 37.37 263.56 37.5 C259.22 37.89 259.22 37.89 257 39 C257 39.66 257 40.32 257 41 C256.34 41.09 255.67 41.17 254.99 41.26 C249.95 42.06 246.51 42.62 243.23 46.64 C241.28 48.8 238.82 50.18 236.36 51.69 C235 53 235 53 234.8 55.15 C234.87 55.76 234.93 56.37 235 57 C233.35 57.33 231.7 57.66 230 58 C229.89 58.45 229.78 58.89 229.67 59.36 C229.51 59.96 229.35 60.56 229.19 61.19 C229.11 61.48 229.11 61.48 228.73 62.98 C228 65 228 65 226.53 67.35 C224.77 70.18 224.01 73.01 223.31 76.25 C223.25 76.53 223.25 76.53 222.93 77.98 C221.43 85.15 221.78 91.81 223 99 C222.34 99 221.68 99 221 99 C221 99.66 221 100.32 221 101 C220.01 101 219.02 101 218 101 C218 101.66 218 102.32 218 103 C217.4 103.14 216.8 103.29 216.19 103.44 C214.42 103.89 212.72 104.4 211 105 C211 105.66 211 106.32 211 107 C209.68 107 208.36 107 207 107 C207 107.99 207 108.98 207 110 C205.68 110 204.36 110 203 110 C203 110.66 203 111.32 203 112 C202.18 112.16 202.18 112.16 198 113 C198 113.66 198 114.32 198 115 C197.01 115 196.02 115 195 115 C195 115.66 195 116.32 195 117 C194.46 117.08 193.93 117.17 193.38 117.25 C190.67 118.1 188.83 119.4 186.53 121.01 C184.44 122.36 182.34 123.17 180 124 C180 124.66 180 125.32 180 126 C179.7 126.07 179.7 126.07 178.19 126.44 C176.42 126.89 174.72 127.4 173 128 C173 128.99 173 129.98 173 131 C172.73 131.05 172.73 131.05 171.35 131.32 C168.46 132.16 166.05 133.47 163.44 134.94 C162.96 135.2 162.47 135.47 161.98 135.74 C156.56 138.74 156.56 138.74 155 140 C155 140.66 155 141.32 155 142 C154.27 142.11 153.55 142.23 152.8 142.35 C149.92 143.02 147.81 143.99 145.25 145.44 C144.86 145.65 144.86 145.65 142.89 146.75 C141 148 141 148 140 150 C138.68 150 137.36 150 136 150 C136 149.01 136 148.02 136 147 C135.01 147 134.02 147 133 147 C133 146.34 133 145.68 133 145 C132.34 144.84 132.34 144.84 129 144 C129 143.34 129 142.68 129 142 C120.01 137.62 112.27 135.84 102.31 135.69 C101.59 135.67 100.86 135.65 100.12 135.63 C95.92 135.64 92.93 136.12 89.3 138.29 C87.31 139.38 85.23 139.67 83 140 C83 140.66 83 141.32 83 142 C82.61 142.07 82.61 142.07 80.62 142.44 C78 143 78 143 76 144 C76 144.66 76 145.32 76 146 C75.42 146.08 74.84 146.17 74.25 146.25 C71.35 147.22 70.05 148.75 68 151 C67.42 151.52 66.84 152.03 66.25 152.56 C65 154 65 154 65 157 C64.34 157 63.68 157 63 157 C62.33 158.1 61.66 159.2 61 160.31 C60.63 160.93 60.26 161.54 59.88 162.18 C59 164 59 164 59 167 C58.34 167 57.68 167 57 167 C55.37 171.78 54.72 175.96 55 181 C54.34 181 53.68 181 53 181 C52.38 199.26 52.38 199.26 56 208 C56.29 208.71 56.57 209.42 56.87 210.16 C57.55 211.79 58.25 213.4 59 215 C59.66 215 60.32 215 61 215 C61.33 216.32 61.66 217.64 62 219 C62.66 219 63.32 219 64 219 C64.33 220.32 64.66 221.64 65 223 C65.66 223 66.32 223 67 223 C67 223.99 67 224.98 67 226 C67.66 226 68.32 226 69 226 C69 226.66 69 227.32 69 228 C69.99 228 70.98 228 72 228 C72 228.66 72 229.32 72 230 C86.22 238.65 98.98 240.62 115.31 237 C120.29 235.76 124.6 233.62 129 231 C129 230.34 129 229.68 129 229 C129.99 229 130.98 229 132 229 C133.39 227.98 133.39 227.98 134.69 226.62 C135.12 226.18 135.56 225.74 136.01 225.29 C137 224 137 224 137 222 C144.06 225.67 150.78 229.69 157.4 234.1 C157.97 234.48 158.54 234.85 159.13 235.24 C159.38 235.41 159.38 235.41 160.66 236.27 C162 237 162 237 164 237 C164 237.66 164 238.32 164 239 C164.47 239.22 164.95 239.44 165.43 239.66 C170.29 241.99 174.64 244.7 179.02 247.83 C181 249 181 249 184 249 C184 249.66 184 250.32 184 251 C185.59 252.15 187.13 253.14 188.81 254.12 C189.26 254.4 189.72 254.68 190.18 254.96 C192.72 256.47 193.98 257 197 257 C197 257.66 197 258.32 197 259 C197.42 259.23 197.84 259.46 198.27 259.7 C200.16 260.75 202.05 261.81 203.94 262.88 C204.27 263.06 204.27 263.06 205.94 263.98 C206.25 264.16 206.25 264.16 207.84 265.05 C208.42 265.38 209 265.7 209.6 266.04 C211 267 211 267 212 269 C213.32 269 214.64 269 216 269 C216.06 269.43 216.12 269.87 216.19 270.31 C217.12 272.25 217.73 272.57 219.55 273.61 C220.36 274.07 221.17 274.53 222 275 C221.96 275.26 221.96 275.26 221.77 276.55 C220.26 287.09 219.26 295.9 223 306 C223.14 306.41 223.14 306.41 223.88 308.5 C224.54 310.36 225.25 312.18 226 314 C226.66 314 227.32 314 228 314 C228 314.99 228 315.98 228 317 C228.66 317 229.32 317 230 317 C230 317.99 230 318.98 230 320 C230.66 320 231.32 320 232 320 C232 320.66 232 321.32 232 322 C232.66 322 233.32 322 234 322 C234.33 322.99 234.66 323.98 235 325 C235.66 325 236.32 325 237 325 C237 325.66 237 326.32 237 327 C238.98 327.33 240.96 327.66 243 328 C243 328.99 243 329.98 243 331 C245.96 331.87 248.93 332.72 251.91 333.56 C252.91 333.85 253.92 334.14 254.92 334.44 C263.02 336.81 270.55 338.19 278.88 336 C281.45 335.34 283.3 335 286 335 C286 334.34 286 333.68 286 333 C286.36 332.95 286.36 332.95 288.17 332.68 C291.23 331.95 293.65 330.74 296.31 329.12 C296.54 329 296.54 329 297.69 328.35 C298.99 327.57 298.99 327.57 301 326 C301 325.01 301 324.02 301 323 C301.99 323 302.98 323 304 323 C304 322.34 304 321.68 304 321 C304.66 321 305.32 321 306 321 C307.07 319.79 307.07 319.79 308.12 318.19 C308.48 317.67 308.83 317.14 309.2 316.61 C310 315 310 315 310 312 C310.66 312 311.32 312 312 312 C317.78 299.96 321.72 285.57 317.47 272.35 C315.91 268.11 314.02 264.04 312 260 C311.34 260 310.68 260 310 260 C309.86 259.62 309.86 259.62 309.12 257.69 C307.4 253.56 307.4 253.56 306 252 C305.01 252 304.02 252 303 252 C303 251.01 303 250.02 303 249 C301.54 247.61 301.54 247.61 299.62 246.31 C299 245.88 298.37 245.44 297.73 244.99 C296 244 296 244 294 244 C294 243.34 294 242.68 294 242 C282.35 237.43 271.17 234.33 259 239 C258.15 239.28 257.3 239.56 256.42 239.85 C250.59 241.79 244.76 243.99 240 248 C240 248.66 240 249.32 240 250 C238.67 250.67 237.33 251.33 236 252 C235.68 252.2 235.68 252.2 234.06 253.19 C231.38 254.24 229.73 253.76 227 253 C227 252.34 227 251.68 227 251 C225.67 249.95 225.67 249.95 223.82 248.84 C223.16 248.44 222.5 248.04 221.81 247.62 C221.46 247.42 221.46 247.42 219.69 246.38 C219 245.95 218.31 245.53 217.6 245.1 C212.38 242 212.38 242 209 242 C209 241.34 209 240.68 209 240 C206.79 238.11 206.04 238 203 238 C203 237.34 203 236.68 203 236 C201.14 234.78 199.32 233.69 197.38 232.62 C196.26 232 195.15 231.37 194.04 230.73 C193.77 230.58 193.77 230.58 192.42 229.82 C190.84 228.91 189.32 227.92 187.81 226.88 C185.61 225.36 183.35 224.08 181 222.81 C176.87 220.56 172.94 218.07 169 215.5 C162.51 211.28 155.94 207.44 149 204 C149.22 203.46 149.43 202.93 149.66 202.38 C153.38 191.88 152.55 180.88 151 170 C157.66 165.09 164.3 160.23 171.5 156.12 C171.99 155.84 172.49 155.56 172.99 155.27 C174.33 154.51 175.66 153.76 177 153 C179.15 151.75 181.03 150.53 183 149 C183 148.01 183 147.02 183 146 C183.76 146.04 184.53 146.08 185.31 146.12 C188.01 146 189.07 145.83 191 144 C191 143.34 191 142.68 191 142 C191.72 141.9 192.44 141.79 193.19 141.69 C196.41 140.9 198.31 139.92 201 138 C201 137.34 201 136.68 201 136 C201.36 135.95 201.36 135.95 203.2 135.68 C206.28 134.93 208.18 133.82 210.81 132.06 C211.76 131.44 212.71 130.81 213.66 130.19 C214.19 129.84 214.71 129.5 215.24 129.14 C218.69 126.9 222.19 124.74 225.69 122.56 C227.09 121.69 228.49 120.82 229.89 119.94 C230.92 119.29 231.96 118.65 233 118 C233 118.66 233 119.32 233 120 C233.66 120 234.32 120 235 120 C235 120.66 235 121.32 235 122 C237.47 124.24 240.26 126.09 243 128 C243.64 128.45 244.27 128.9 244.93 129.36 C255.49 136.43 266.45 138.97 278.94 136.64 C288.35 134.45 295.55 130.15 302.8 123.86 C304 123 304 123 305.56 122.49 C307.83 121.72 308.48 120.07 309.69 118.06 C310.12 117.35 310.56 116.64 311.01 115.91 C312 114 312 114 312 112 C312.66 112 313.32 112 314 112 C320.91 98.54 323.04 83.3 318.59 68.69 C316.18 61.8 312.99 56.28 307 52 C306.19 49.75 306.19 49.75 306 48 C305.01 48 304.02 48 303 48 C303 47.34 303 46.68 303 46 C302.34 46 301.68 46 301 46 C301 45.34 301 44.68 301 44 C291.42 37.56 280.32 36.06 269 36 Z " fill="#000000" transform="translate(0,0)"/>
<path d="M0 0 C2.97 0 5.94 0 9 0 C9 0.66 9 1.32 9 2 C9.99 1.84 9.99 1.84 15 1 C15 1.66 15 2.32 15 3 C15.99 3 16.98 3 18 3 C18 3.66 18 4.32 18 5 C18.99 5 19.98 5 21 5 C21 5.66 21 6.32 21 7 C22.32 7 23.64 7 25 7 C25.16 7.33 25.16 7.33 26 9 C27.56 9.62 27.56 9.62 29 10 C29 10.99 29 11.98 29 13 C29.99 13 30.98 13 32 13 C33.29 14.61 34.33 16.11 35.38 17.88 C35.53 18.12 35.53 18.12 36.29 19.37 C44.36 32.77 44.36 32.77 44 39 C44.66 39.33 45.32 39.66 46 40 C45.67 42.64 45.34 45.28 45 48 C43.68 48 42.36 48 41 48 C41 49.32 41 50.64 41 52 C41.82 51.84 41.82 51.84 46 51 C45.34 53.97 44.68 56.94 44 60 C43.01 60 42.02 60 41 60 C41.03 60.48 41.07 60.96 41.11 61.46 C41.19 63.35 41.22 65.12 41 67 C39.5 68.44 39.5 68.44 38 69 C38.66 67.02 39.32 65.04 40 63 C38.68 63 37.36 63 36 63 C35.94 63.48 35.94 63.48 35.62 65.94 C35.41 67.59 35.41 67.59 35 69 C34.67 69.16 34.67 69.16 33 70 C32.38 71.56 32.38 71.56 32 73 C30.02 72.67 28.04 72.34 26 72 C27.83 68.11 30.2 64.73 32.66 61.22 C33.94 59.1 34.55 57.42 35 55 C35.66 55 36.32 55 37 55 C36.83 54.44 36.67 53.89 36.5 53.32 C35.95 50.77 35.94 48.54 36 45.94 C36.06 40.23 35.61 34.67 35 29 C34.34 29 33.68 29 33 29 C32.01 27.02 31.02 25.04 30 23 C30.99 23 31.98 23 33 23 C32.84 22.51 32.84 22.51 32 20 C31.13 20.1 30.27 20.21 29.38 20.31 C25.68 20.34 23.79 18.65 21.1 16.29 C20 15 20 15 20 13 C19.44 12.88 18.89 12.75 18.31 12.62 C15.78 11.94 13.42 11.01 11 10 C11 10.66 11 11.32 11 12 C10.01 12 9.02 12 8 12 C8 11.01 8 10.02 8 9 C5.69 8.67 3.38 8.34 1 8 C0.67 8.66 0.34 9.32 0 10 C-0.99 9.67 -1.98 9.34 -3 9 C-3.33 9.99 -3.66 10.98 -4 12 C-6.31 12 -8.62 12 -11 12 C-11 12.66 -11 13.32 -11 14 C-13.23 15.5 -15.49 16.85 -17.83 18.17 C-21.46 20.34 -22.95 22.33 -25 26 C-25.66 26 -26.32 26 -27 26 C-27.19 26.68 -27.39 27.35 -27.59 28.05 C-27.72 28.49 -27.72 28.49 -28.38 30.75 C-28.5 31.19 -28.5 31.19 -29.15 33.42 C-30 36 -30 36 -31.09 38.01 C-32.22 40.49 -32.23 42.35 -32.19 45.06 C-32.18 45.49 -32.18 45.49 -32.17 47.66 C-32.02 49.73 -31.65 51.07 -31 53 C-30.8 54.04 -30.62 55.09 -30.46 56.14 C-30.42 56.43 -30.42 56.43 -30.2 57.88 C-30.16 58.18 -30.16 58.18 -29.94 59.69 C-29.85 60.29 -29.76 60.9 -29.66 61.53 C-29.44 63.02 -29.22 64.51 -29 66 C-28.01 66 -27.02 66 -26 66 C-24.25 67.81 -24.25 67.81 -23 70 C-23.31 71.75 -23.31 71.75 -24 73 C-24.66 72.67 -25.32 72.34 -26 72 C-26 71.01 -26 70.02 -26 69 C-26.99 69 -27.98 69 -29 69 C-29 69.99 -29 70.98 -29 72 C-28.34 72 -27.68 72 -27 72 C-26.88 72.47 -26.75 72.95 -26.62 73.44 C-26 75 -26 75 -24 76 C-24 76.66 -24 77.32 -24 78 C-23.01 78 -22.02 78 -21 78 C-20.84 77.5 -20.84 77.5 -20 75 C-20 75.66 -20 76.32 -20 77 C-18.68 76.67 -17.36 76.34 -16 76 C-15.67 76.99 -15.34 77.98 -15 79 C-13.19 79.33 -13.19 79.33 -4 81 C-4 81.66 -4 82.32 -4 83 C-3.01 83 -2.02 83 -1 83 C-1 82.34 -1 81.68 -1 81 C0.65 81 2.3 81 4 81 C4 81.66 4 82.32 4 83 C4.99 83 5.98 83 7 83 C7.16 82.5 7.16 82.5 8 80 C8.33 80.66 8.66 81.32 9 82 C10.98 81.67 12.96 81.34 15 81 C15 80.01 15 79.02 15 78 C15.66 78 16.32 78 17 78 C17.33 79.65 17.66 81.3 18 83 C18.99 83 19.98 83 21 83 C20.84 81.68 20.84 81.68 20 75 C20.66 75 21.32 75 22 75 C22 75.66 22 76.32 22 77 C23.32 77 24.64 77 26 77 C26 76.34 26 75.68 26 75 C26.99 75 27.98 75 29 75 C29.62 76.25 29.62 76.25 30 78 C29.06 80.19 29.06 80.19 28 82 C26.68 82 25.36 82 24 82 C24 82.66 24 83.32 24 84 C13.57 88.53 4.4 90.97 -7 91 C-7.33 90.34 -7.66 89.68 -8 89 C-10.64 87.9 -13.29 86.95 -15.99 86.03 C-20.03 84.58 -22.71 82.75 -26 80 C-26.26 79.92 -26.26 79.92 -27.57 79.54 C-29 79 -29 79 -30.19 76.44 C-30.32 76.04 -30.32 76.04 -31 74 C-31.99 74 -32.98 74 -34 74 C-34 73.34 -34 72.68 -34 72 C-39.92 72.9 -43.75 74.3 -48.43 78.02 C-50 79 -50 79 -52.94 78.81 C-53.62 78.54 -54.3 78.28 -55 78 C-54.01 77.67 -53.02 77.34 -52 77 C-52 76.34 -52 75.68 -52 75 C-50.04 74 -48.09 73 -46.12 72 C-45.57 71.71 -45.01 71.43 -44.44 71.13 C-43.91 70.86 -43.37 70.59 -42.82 70.31 C-42.33 70.06 -41.84 69.81 -41.33 69.55 C-40 69 -40 69 -38 69 C-38.33 67.68 -38.66 66.36 -39 65 C-40.16 65.16 -40.16 65.16 -46 66 C-46 66.66 -46 67.32 -46 68 C-48.97 68.99 -51.94 69.98 -55 71 C-55 71.66 -55 72.32 -55 73 C-55.99 73 -56.98 73 -58 73 C-58 73.66 -58 74.32 -58 75 C-58.99 75 -59.98 75 -61 75 C-61 75.66 -61 76.32 -61 77 C-61.82 77.16 -61.82 77.16 -66 78 C-66 79.65 -66 81.3 -66 83 C-65.18 82.84 -65.18 82.84 -61 82 C-61 82.99 -61 83.98 -61 85 C-61.64 85.33 -62.28 85.65 -62.93 85.99 C-63.76 86.43 -64.59 86.86 -65.44 87.31 C-65.85 87.53 -65.85 87.53 -67.93 88.61 C-70.22 90.15 -70.24 90.54 -71 93 C-72.71 94.06 -72.71 94.06 -74.81 95 C-77.24 96.12 -79.13 97.1 -81.25 98.75 C-83.33 100.24 -84.49 100.27 -87 100 C-87 100.66 -87 101.32 -87 102 C-87.66 102.16 -87.66 102.16 -91 103 C-91 102.34 -91 101.68 -91 101 C-90.01 101 -89.02 101 -88 101 C-88 100.01 -88 99.02 -88 98 C-87.36 97.88 -86.72 97.75 -86.06 97.62 C-85.72 97.52 -85.72 97.52 -84 97 C-83.84 96.67 -83.84 96.67 -83 95 C-81.26 93.96 -81.26 93.96 -79.12 92.94 C-78.43 92.6 -77.73 92.25 -77.01 91.9 C-75.35 91.16 -73.74 90.53 -72 90 C-72 89.34 -72 88.68 -72 88 C-71.18 87.67 -71.18 87.67 -67 86 C-67 84.68 -67 83.36 -67 82 C-71.05 82.26 -71.05 82.26 -73 83 C-74.38 85.56 -74.38 85.56 -75 88 C-76.16 88.16 -76.16 88.16 -82 89 C-82 89.66 -82 90.32 -82 91 C-82.5 91.16 -82.5 91.16 -85 92 C-85 91.01 -85 90.02 -85 89 C-84.01 88.67 -84.01 88.67 -79 87 C-79.1 86.24 -79.21 85.47 -79.31 84.69 C-79.21 83.8 -79.11 82.91 -79 82 C-75.94 79.64 -72.61 78.34 -69 77 C-69 76.34 -69 75.68 -69 75 C-67.68 74.67 -67.68 74.67 -61 73 C-61 72.34 -61 71.68 -61 71 C-60.01 70.84 -60.01 70.84 -55 70 C-55 69.34 -55 68.68 -55 68 C-54.18 67.84 -54.18 67.84 -50 67 C-50 66.34 -50 65.68 -50 65 C-49.01 65 -48.02 65 -47 65 C-47 64.34 -47 63.68 -47 63 C-46.01 62.84 -46.01 62.84 -41 62 C-41.14 61.32 -41.29 60.64 -41.44 59.95 C-43.26 50.79 -43.75 42.85 -41.25 33.75 C-41.09 33.17 -40.94 32.59 -40.77 32 C-39.59 28.03 -37.99 23.96 -35 21 C-34.01 21 -33.02 21 -32 21 C-31.86 20.22 -31.71 19.43 -31.56 18.62 C-31 16 -31 16 -30 14 C-29.34 14 -28.68 14 -28 14 C-27.89 13.52 -27.78 13.05 -27.66 12.56 C-27.55 12.3 -27.55 12.3 -27 11 C-25.6 10.5 -24.19 10.01 -22.76 9.61 C-20.13 8.7 -17.87 7.26 -15.52 5.8 C-14 5 -14 5 -12 5 C-12 4.34 -12 3.68 -12 3 C-8.04 2.67 -4.08 2.34 0 2 C0 1.34 0 0.68 0 0 Z M-16 9 C-16.33 10.32 -16.66 11.64 -17 13 C-15.68 12.67 -14.36 12.34 -13 12 C-13 11.01 -13 10.02 -13 9 C-13.99 9 -14.98 9 -16 9 Z M-23 13 C-23 14.32 -23 15.64 -23 17 C-22.01 17 -21.02 17 -20 17 C-20 15.68 -20 14.36 -20 13 C-20.99 13 -21.98 13 -23 13 Z M-35 30 C-36.4 33.14 -37.26 35.55 -37 39 C-36.01 39 -35.02 39 -34 39 C-33.34 36.03 -32.68 33.06 -32 30 C-32.99 30 -33.98 30 -35 30 Z M39 38 C39.33 40.31 39.66 42.62 40 45 C40.99 45 41.98 45 43 45 C42.67 42.69 42.34 40.38 42 38 C41.01 38 40.02 38 39 38 Z M-39 46 C-39 47.32 -39 48.64 -39 50 C-38.01 50 -37.02 50 -36 50 C-36 48.68 -36 47.36 -36 46 C-36.99 46 -37.98 46 -39 46 Z M-39 57 C-39 57.99 -39 58.98 -39 60 C-38.01 60 -37.02 60 -36 60 C-36 59.01 -36 58.02 -36 57 C-36.99 57 -37.98 57 -39 57 Z M-37 62 C-36.67 63.98 -36.34 65.96 -36 68 C-35.34 68 -34.68 68 -34 68 C-33.67 69.32 -33.34 70.64 -33 72 C-32.01 72 -31.02 72 -30 72 C-30.33 70.68 -30.66 69.36 -31 68 C-31.66 68 -32.32 68 -33 68 C-33.33 66.02 -33.66 64.04 -34 62 C-34.99 62 -35.98 62 -37 62 Z M13 83 C13 83.99 13 84.98 13 86 C13.99 86 14.98 86 16 86 C16 85.01 16 84.02 16 83 C15.01 83 14.02 83 13 83 Z " fill="#000000" transform="translate(270,41)"/>
<path d="M0 0 C0 0.66 0 1.32 0 2 C3.73 3.93 3.73 3.93 5.47 4.39 C7.45 5.18 8.34 6.24 9.69 7.88 C10.12 8.39 10.56 8.9 11.01 9.43 C12 11 12 11 12 14 C12.66 14 13.32 14 14 14 C17.22 24.59 18.05 33.69 13 44 C11.26 47.01 9.46 49.54 7 52 C6.01 52 5.02 52 4 52 C3.67 52.99 3.34 53.98 3 55 C2.34 55 1.68 55 1 55 C1 55.66 1 56.32 1 57 C-7.18 61.72 -17.26 60.08 -26 58 C-26 57.34 -26 56.68 -26 56 C-26.93 55.9 -27.86 55.79 -28.81 55.69 C-31.72 55.21 -33.23 54.46 -35 52 C-35 51.34 -35 50.68 -35 50 C-35.66 50 -36.32 50 -37 50 C-38.22 48.5 -38.22 48.5 -39.5 46.44 C-39.92 45.78 -40.35 45.11 -40.78 44.43 C-43.57 38.86 -44.37 33.81 -43.88 27.62 C-43.83 26.97 -43.78 26.32 -43.73 25.64 C-42.95 17.48 -39.93 10.73 -34 5 C-33.77 4.77 -33.77 4.77 -32.58 3.63 C-22.81 -4.5 -11.39 -3.33 0 0 Z " fill="#000000" transform="translate(286,58)"/>
<path d="M0 0 C0 0.66 0 1.32 0 2 C2.64 1.34 5.28 0.68 8 0 C8 0.66 8 1.32 8 2 C9.65 1.67 11.3 1.34 13 1 C13 1.99 13 2.98 13 4 C14.16 3.84 14.16 3.84 20 3 C20 3.99 20 4.98 20 6 C20.42 6.09 20.42 6.09 22.56 6.56 C27 8.01 30.14 11.41 33 15 C33 15.66 33 16.32 33 17 C34.65 17 36.3 17 38 17 C38 17.66 38 18.32 38 19 C38.99 19 39.98 19 41 19 C41.33 17.68 41.66 16.36 42 15 C42.64 14.9 43.28 14.79 43.94 14.69 C44.62 14.46 45.3 14.23 46 14 C46.75 12.44 46.75 12.44 47 11 C47.99 11.66 48.98 12.32 50 13 C49.62 13.3 49.62 13.3 47.69 14.81 C46.11 16.07 44.72 17.29 43.31 18.75 C42 20 42 20 40 20 C40 21.32 40 22.64 40 24 C41.32 24 42.64 24 44 24 C44 23.34 44 22.68 44 22 C44.24 21.87 44.24 21.87 45.43 21.23 C45.74 21.06 45.74 21.06 47.31 20.19 C47.93 19.85 48.54 19.51 49.18 19.17 C51 18 51 18 52.47 16.49 C54.23 14.78 55.9 13.95 58.12 12.94 C61.89 11.22 61.89 11.22 63 9 C63.47 8.9 63.95 8.79 64.44 8.69 C66 8 66 8 67.19 5.44 C67.46 4.63 67.72 3.83 68 3 C70.97 3 73.94 3 77 3 C77 3.66 77 4.32 77 5 C76.22 5.41 75.44 5.82 74.63 6.24 C73.61 6.79 72.58 7.33 71.56 7.88 C71.05 8.14 70.53 8.41 70 8.69 C66.11 10.77 66.11 10.77 65 13 C63.68 13 62.36 13 61 13 C61 13.66 61 14.32 61 15 C58.74 17.85 56.31 18.68 53 20 C52.55 20.5 52.09 20.99 51.62 21.5 C49.16 23.78 46.22 24.25 43 25 C43 25.66 43 26.32 43 27 C42.34 27 41.68 27 41 27 C41.16 27.66 41.16 27.66 42 31 C40.68 31 39.36 31 38 31 C38 31.99 38 32.98 38 34 C39.65 34 41.3 34 43 34 C43.5 35.97 44 37.93 44.48 39.91 C44.88 41.51 45.31 43.1 45.75 44.69 C46.07 47.61 45.27 49.39 44 52 C42.68 52 41.36 52 40 52 C39.96 52.58 39.93 53.16 39.89 53.76 C39.45 58.89 38.62 62.56 36 67 C35.34 67 34.68 67 34 67 C33.34 69.31 32.68 71.62 32 74 C33.81 73.44 33.81 73.44 36 72 C36.89 70.22 37.56 68.45 38.19 66.56 C39 65 39 65 40.59 64.29 C41.06 64.19 41.52 64.1 42 64 C42.33 65.32 42.66 66.64 43 68 C43.93 68.17 44.86 68.33 45.81 68.5 C49.61 69.56 52.24 71.51 55.31 73.88 C60.27 77.7 65.02 80.03 71 82 C71 82.99 71 83.98 71 85 C72.98 85.33 74.96 85.66 77 86 C77.33 86.99 77.66 87.98 78 89 C78.99 89 79.98 89 81 89 C81 89.66 81 90.32 81 91 C82.32 91 83.64 91 85 91 C85 91.66 85 92.32 85 93 C90.29 95.14 90.29 95.14 93 96 C93 96.66 93 97.32 93 98 C93.73 98.27 94.46 98.53 95.21 98.81 C97.94 99.9 100.22 101.38 102.62 103.06 C107.25 106.29 107.25 106.29 110 107 C110 107.66 110 108.32 110 109 C110.99 109 111.98 109 113 109 C113 109.66 113 110.32 113 111 C113.59 111.12 114.18 111.23 114.79 111.35 C117.13 112.04 118.51 112.9 120.44 114.38 C127.52 119.6 127.52 119.6 131.06 120.56 C133.88 119.74 134.47 117.85 135.92 115.4 C137 114 137 114 139.75 113.12 C140.49 113.08 141.24 113.04 142 113 C142 112.34 142 111.68 142 111 C145.42 107.22 149.13 105.27 154 104 C154 104.66 154 105.32 154 106 C155.15 105.74 156.29 105.47 157.44 105.19 C158.08 105.04 158.71 104.89 159.37 104.73 C161 104 161 104 161.72 102.43 C161.77 102.19 161.77 102.19 162 101 C166.18 100.79 169.35 100.66 173 103 C173 102.34 173 101.68 173 101 C176.96 101.66 180.92 102.32 185 103 C185 103.66 185 104.32 185 105 C185.99 105 186.98 105 188 105 C188 105.66 188 106.32 188 107 C189.32 107 190.64 107 192 107 C192 107.66 192 108.32 192 109 C192.66 109 193.32 109 194 109 C194 110.65 194 112.3 194 114 C194.38 114.03 194.38 114.03 196.31 114.19 C199 115 199 115 200.88 117.31 C202.08 120.19 202.15 121.17 201 124 C201.32 124.06 201.32 124.06 202.94 124.38 C203.28 124.48 203.28 124.48 205 125 C205.33 125.66 205.66 126.32 206 127 C205.01 127 204.02 127 203 127 C203 127.99 203 128.98 203 130 C203.99 130 204.98 130 206 130 C206 129.34 206 128.68 206 128 C206.66 128 207.32 128 208 128 C210.02 135.11 211.51 141.53 211 149 C210.01 149 209.02 149 208 149 C207.67 150.98 207.34 152.96 207 155 C207.99 155 208.98 155 210 155 C210 155.66 210 156.32 210 157 C209.34 157 208.68 157 208 157 C207.67 158.98 207.34 160.96 207 163 C206.76 163.05 206.76 163.05 205.56 163.31 C204 164 204 164 203.31 165.56 C203.26 165.8 203.26 165.8 203 167 C203.66 167.33 204.32 167.66 205 168 C204.34 168 203.68 168 203 168 C202.34 169.65 201.68 171.3 201 173 C200.67 172.34 200.34 171.68 200 171 C198.56 171.31 198.56 171.31 197 172 C196.31 173.56 196.31 173.56 196 175 C196.99 175 197.98 175 199 175 C199 175.66 199 176.32 199 177 C198.55 177.08 198.09 177.16 197.62 177.25 C196 178 196 178 195.19 179.92 C193.62 182.66 192.26 183.02 189.31 184.06 C188.42 184.39 187.52 184.72 186.6 185.05 C185.74 185.37 184.88 185.68 184 186 C182.24 186.77 180.5 187.57 178.77 188.39 C173.97 190.05 169.14 190.14 164.12 190.06 C163.53 190.06 162.94 190.05 162.33 190.05 C160.89 190.04 159.44 190.02 158 190 C158 189.34 158 188.68 158 188 C157.28 187.86 156.56 187.71 155.81 187.56 C154.51 187.3 154.51 187.3 148 186 C148 185.34 148 184.68 148 184 C147.34 184 146.68 184 146 184 C146 181.69 146 179.38 146 177 C144.68 176.67 143.36 176.34 142 176 C142.33 177.65 142.66 179.3 143 181 C140.56 180.19 140.56 180.19 138 179 C137.19 177.38 137.19 177.38 137 176 C136.34 176 135.68 176 135 176 C135 175.34 135 174.68 135 174 C134.34 174 133.68 174 133 174 C133 173.01 133 172.02 133 171 C132.01 171 131.02 171 130 171 C129.01 168.03 128.02 165.06 127 162 C126.34 162 125.68 162 125 162 C122.26 150.77 122.26 150.77 123.5 146.12 C123.96 144.18 124.04 142.73 124 140.75 C123.93 136.77 124.43 132.93 125 129 C123.68 128.67 122.36 128.34 121 128 C121 127.34 121 126.68 121 126 C119.68 126 118.36 126 117 126 C116.67 125.34 116.34 124.68 116 124 C115.4 123.88 114.8 123.75 114.19 123.62 C111.3 122.8 110.06 121.13 108 119 C106.25 118.25 106.25 118.25 105 118 C105 117.34 105 116.68 105 116 C104.01 116 103.02 116 102 116 C102 115.34 102 114.68 102 114 C101.29 113.74 100.58 113.49 99.86 113.22 C96.76 111.99 94.08 110.27 91.31 108.44 C86.17 105.09 86.17 105.09 84 104 C84 103.01 84 102.02 84 101 C82.68 101.33 81.36 101.66 80 102 C80 101.34 80 100.68 80 100 C79.28 99.73 78.56 99.46 77.81 99.19 C75.51 98.27 73.48 97.1 71.39 95.78 C69.78 94.88 68.15 94.23 66.44 93.56 C63.24 92.25 61.41 90.49 59 88 C57.35 87.15 55.77 86.59 54 86 C54 85.34 54 84.68 54 84 C53.6 83.9 53.6 83.9 51.56 83.38 C47.6 82.09 44.48 79.69 41.15 77.24 C38.83 75.9 37.63 75.6 35 76 C34.31 76.98 33.64 77.98 33 79 C32.01 79 31.02 79 30 79 C29.77 79.64 29.55 80.28 29.31 80.94 C28 83 28 83 25.38 83.75 C24.59 83.83 23.81 83.92 23 84 C23 84.66 23 85.32 23 86 C20.92 86.82 18.83 87.63 16.75 88.44 C16.16 88.67 15.58 88.9 14.97 89.13 C3.96 93.41 -6.93 93.09 -18 89 C-19.96 88.13 -21.31 87.34 -23 86 C-23 85.34 -23 84.68 -23 84 C-23.54 83.94 -24.07 83.88 -24.62 83.81 C-28.81 82.38 -31.97 79.52 -34.44 75.88 C-35.06 73.78 -34.96 72.93 -34 71 C-35.65 70.67 -37.3 70.34 -39 70 C-38.67 68.68 -38.34 67.36 -38 66 C-38.99 65.67 -39.98 65.34 -41 65 C-40.67 62.36 -40.34 59.72 -40 57 C-40.99 57 -41.98 57 -43 57 C-43.33 53.37 -43.66 49.74 -44 46 C-43.34 46 -42.68 46 -42 46 C-42 45.01 -42 44.02 -42 43 C-42.66 43 -43.32 43 -44 43 C-43.25 39.88 -42.37 36.82 -41.44 33.75 C-41.17 32.86 -40.9 31.97 -40.62 31.05 C-40.42 30.37 -40.21 29.7 -40 29 C-39.01 29 -38.02 29 -37 29 C-37.23 28.3 -37.45 27.6 -37.69 26.88 C-38.1 23.09 -37.13 21.08 -35 18 C-33.43 16.21 -31.76 14.6 -30 13 C-29.34 12.34 -28.68 11.68 -28 11 C-25.88 10.88 -25.88 10.88 -24 11 C-23.96 10.4 -23.92 9.8 -23.88 9.19 C-22.72 6.29 -21.28 5.76 -18.57 4.42 C-16.68 3.92 -15.76 4.22 -14 5 C-14 4.01 -14 3.02 -14 2 C-9.22 0.37 -5.04 -0.28 0 0 Z M-7 1 C-7 2.32 -7 3.64 -7 5 C-5.68 4.67 -4.36 4.34 -3 4 C-3 3.01 -3 2.02 -3 1 C-4.32 1 -5.64 1 -7 1 Z M-15 12 C-15 12.66 -15 13.32 -15 14 C-15.28 14.03 -15.28 14.03 -16.69 14.19 C-19.45 15.16 -20.61 16.43 -22.56 18.54 C-24.73 20.75 -27.19 22.59 -29.64 24.47 C-31 26 -31 26 -31.2 28.18 C-31.13 28.78 -31.07 29.38 -31 30 C-31.66 30 -32.32 30 -33 30 C-33.33 32.64 -33.66 35.28 -34 38 C-34.66 38 -35.32 38 -36 38 C-36 38.99 -36 39.98 -36 41 C-36.33 41.16 -36.33 41.16 -38 42 C-37.92 42.46 -37.83 42.92 -37.75 43.39 C-37.17 46.87 -36.77 49.59 -38 53 C-37.01 53 -36.02 53 -35 53 C-34.94 53.77 -34.88 54.54 -34.82 55.34 C-34.73 56.35 -34.65 57.36 -34.56 58.38 C-34.52 58.88 -34.48 59.39 -34.44 59.91 C-34.25 62.22 -34.04 63.91 -33 66 C-32.34 66 -31.68 66 -31 66 C-31 66.66 -31 67.32 -31 68 C-30.34 68 -29.68 68 -29 68 C-29 68.99 -29 69.98 -29 71 C-29.99 71 -30.98 71 -32 71 C-32 71.99 -32 72.98 -32 74 C-31.34 74 -30.68 74 -30 74 C-29.67 75.98 -29.34 77.96 -29 80 C-27.68 80 -26.36 80 -25 80 C-25 79.01 -25 78.02 -25 77 C-25.66 77 -26.32 77 -27 77 C-27 76.01 -27 75.02 -27 74 C-27.66 74 -28.32 74 -29 74 C-29 73.34 -29 72.68 -29 72 C-27.56 72.31 -27.56 72.31 -26 73 C-25.67 74 -25.33 75 -25 76 C-24.5 76.17 -24.01 76.33 -23.5 76.5 C-23 76.67 -22.51 76.83 -22 77 C-21.31 78.56 -21.31 78.56 -21 80 C-19.35 80.33 -17.7 80.66 -16 81 C-16 81.66 -16 82.32 -16 83 C-13.69 83 -11.38 83 -9 83 C-9 83.66 -9 84.32 -9 85 C-8.43 84.92 -7.87 84.83 -7.29 84.75 C-6.92 84.7 -6.92 84.7 -5.06 84.44 C-4.33 84.33 -3.6 84.23 -2.85 84.12 C-2.54 84.1 -2.54 84.1 -1 84 C-0.67 84.33 -0.34 84.66 0 85 C1.35 85.07 2.71 85.08 4.06 85.06 C4.8 85.05 5.53 85.04 6.29 85.04 C6.85 85.02 7.42 85.01 8 85 C8 84.01 8 83.02 8 82 C8.51 81.97 9.02 81.95 9.54 81.92 C14.71 81.5 17.98 80.27 22 77 C22 77.66 22 78.32 22 79 C22.83 78.84 22.83 78.84 27 78 C27 77.01 27 76.02 27 75 C26.34 75 25.68 75 25 75 C25.81 72.56 25.81 72.56 27 70 C27.99 69.64 28.99 69.31 30 69 C30.69 66.94 30.69 66.94 31 65 C31.66 65 32.32 65 33 65 C33.33 62.69 33.66 60.38 34 58 C34.66 58 35.32 58 36 58 C36.06 57.48 36.12 56.96 36.18 56.43 C36.56 53.29 36.95 50.22 37.62 47.12 C38 45 38 45 37 43 C36.66 41.34 36.33 39.67 36 38 C35.36 35.33 34.68 32.66 34 30 C33.34 30 32.68 30 32 30 C31.67 28.35 31.34 26.7 31 25 C31.66 25 32.32 25 33 25 C33 24.01 33 23.02 33 22 C32.34 22 31.68 22 31 22 C31 21.01 31 20.02 31 19 C29.35 18.67 27.7 18.34 26 18 C26.33 16.68 26.66 15.36 27 14 C26.01 14 25.02 14 24 14 C23.67 14.66 23.34 15.32 23 16 C22.84 15.67 22.84 15.67 22 14 C20.35 13.3 18.68 12.64 17 12 C16.77 11.8 16.77 11.8 15.62 10.81 C12.85 9.43 9.95 10.4 7 11 C7 10.34 7 9.68 7 9 C-0.93 8.67 -7.57 8.78 -15 12 Z M-25 13 C-25.33 14.32 -25.66 15.64 -26 17 C-24.68 16.67 -23.36 16.34 -22 16 C-22 15.01 -22 14.02 -22 13 C-22.99 13 -23.98 13 -25 13 Z M-30 18 C-30 18.99 -30 19.98 -30 21 C-29.01 21 -28.02 21 -27 21 C-27 20.01 -27 19.02 -27 18 C-27.99 18 -28.98 18 -30 18 Z M35 23 C35 23.99 35 24.98 35 26 C35.99 26 36.98 26 38 26 C38 25.01 38 24.02 38 23 C37.01 23 36.02 23 35 23 Z M-38 31 C-38 31.99 -38 32.98 -38 34 C-38.66 34 -39.32 34 -40 34 C-41.03 36.05 -41.11 36.9 -41.06 39.12 C-41.04 40.07 -41.02 41.02 -41 42 C-40.01 42 -39.02 42 -38 42 C-37.67 39.69 -37.34 37.38 -37 35 C-36.34 35 -35.68 35 -35 35 C-35 33.68 -35 32.36 -35 31 C-35.99 31 -36.98 31 -38 31 Z M39 35 C39.33 37.31 39.66 39.62 40 42 C40.99 42 41.98 42 43 42 C42.67 39.69 42.34 37.38 42 35 C41.01 35 40.02 35 39 35 Z M41 45 C41 46.32 41 47.64 41 49 C41.99 49 42.98 49 44 49 C44 47.68 44 46.36 44 45 C43.01 45 42.02 45 41 45 Z M39 69 C39 71.18 39 71.18 40 74 C42.47 76.09 45.25 77.6 48.06 79.19 C49.71 80.15 51.35 81.12 53 82.08 C53.83 82.57 54.67 83.05 55.53 83.55 C59.27 85.75 62.95 88.06 66.62 90.38 C68.46 91.53 70.3 92.68 72.14 93.83 C73.48 94.67 74.81 95.53 76.13 96.4 C76.84 96.86 77.55 97.32 78.27 97.79 C78.91 98.21 79.56 98.63 80.22 99.07 C82 100 82 100 85 100 C85 100.66 85 101.32 85 102 C86.8 103.26 86.8 103.26 89.31 104.69 C90.23 105.21 91.14 105.74 92.05 106.27 C92.29 106.41 92.29 106.41 93.51 107.11 C95.04 108.02 96.52 108.97 98.01 109.95 C98.5 110.27 98.99 110.59 99.49 110.92 C100.44 111.55 101.39 112.18 102.33 112.82 C104.85 114.46 105.9 115 109 115 C109 115.66 109 116.32 109 117 C111.4 118.98 114.11 120.54 116.75 122.19 C117.48 122.66 118.21 123.14 118.96 123.63 C119.67 124.08 120.38 124.52 121.11 124.98 C121.43 125.19 121.43 125.19 123.08 126.23 C125.45 127.18 126.63 126.84 129 126 C128.84 125.34 128.84 125.34 128 122 C127.01 122 126.02 122 125 122 C125 121.34 125 120.68 125 120 C124.37 119.67 123.74 119.34 123.09 119 C116.7 115.62 110.61 111.91 104.6 107.9 C104.03 107.52 103.46 107.15 102.87 106.76 C102.37 106.42 101.86 106.08 101.34 105.73 C100 105 100 105 98 105 C98 104.34 98 103.68 98 103 C96.38 101.79 94.79 100.73 93.06 99.69 C92.56 99.38 92.06 99.07 91.55 98.74 C87.84 96.46 84.06 94.32 80.23 92.23 C74.91 89.29 69.72 86.1 64.58 82.84 C64 82.47 63.41 82.11 62.81 81.73 C61.66 81 60.52 80.28 59.38 79.54 C58.85 79.21 58.33 78.88 57.79 78.54 C57.32 78.24 56.85 77.95 56.38 77.64 C55 77 55 77 52 77 C51.67 76.01 51.34 75.02 51 74 C49.68 74 48.36 74 47 74 C46.9 73.55 46.79 73.09 46.69 72.62 C45.81 70.54 45.03 69.98 43 69 C40.81 68.88 40.81 68.88 39 69 Z M17 81 C17 81.99 17 82.98 17 84 C17.99 84 18.98 84 20 84 C20 83.01 20 82.02 20 81 C19.01 81 18.02 81 17 81 Z M3 87 C3 87.99 3 88.98 3 90 C3.99 90 4.98 90 6 90 C6 89.01 6 88.02 6 87 C5.01 87 4.02 87 3 87 Z M165 105 C165 105.99 165 106.98 165 108 C166.32 108 167.64 108 169 108 C169 107.01 169 106.02 169 105 C167.68 105 166.36 105 165 105 Z M175 105 C175 106.32 175 107.64 175 109 C174.51 108.99 174.51 108.99 172.01 108.96 C170.71 108.96 169.42 108.95 168.12 108.94 C167.47 108.93 166.82 108.92 166.15 108.91 C165.84 108.91 165.84 108.91 164.26 108.9 C163.68 108.9 163.11 108.89 162.51 108.89 C161 109 161 109 159 110 C159 110.66 159 111.32 159 112 C157.02 112 155.04 112 153 112 C152.67 112.66 152.34 113.32 152 114 C151.2 114.27 150.39 114.54 149.56 114.81 C147 116 147 116 145.88 118.56 C145.73 118.96 145.73 118.96 145 121 C144.54 121.14 144.08 121.29 143.61 121.44 C141.36 122.22 140.65 123.5 139.31 125.44 C138.88 126.05 138.44 126.67 137.99 127.31 C137 129 137 129 137 131 C136.34 131 135.68 131 135 131 C132.05 142.06 129.52 153.19 135 164 C135.66 164.33 136.32 164.66 137 165 C137.13 165.44 137.26 165.89 137.39 166.35 C139.26 171.45 146.34 175.45 150.87 178.18 C152 179 152 179 153 181 C154.66 181.38 156.33 181.7 158 182 C159.54 182.5 161.05 183.04 162.57 183.6 C164 184 164 184 167 184 C167 183.34 167 182.68 167 182 C167.61 182.1 168.23 182.19 168.86 182.29 C169.67 182.4 170.48 182.51 171.31 182.62 C171.71 182.68 171.71 182.68 173.74 182.98 C176.32 183 177 182.51 179 181 C181 180.49 182.95 180.27 185 180 C185 179.01 185 178.02 185 177 C185.28 176.87 185.28 176.87 186.69 176.19 C187.45 175.8 188.21 175.4 189 175 C189.44 174.78 189.89 174.56 190.34 174.34 C191.69 173.62 191.69 173.62 194 172 C194.35 170.67 194.69 169.34 195 168 C196.17 166.68 197.42 165.51 198.75 164.34 C201.49 161.41 202.25 158.42 202.56 154.5 C202.92 150.26 202.92 150.26 203.58 148.16 C204.2 144.99 203.67 142.11 203.19 138.94 C203.15 138.63 203.15 138.63 202.94 137.04 C202.12 131.44 202.12 131.44 200 129 C200.66 129 201.32 129 202 129 C202 128.01 202 127.02 202 126 C201.34 125.67 200.68 125.34 200 125 C200 124.01 200 123.02 200 122 C198.02 122 196.04 122 194 122 C194 121.01 194 120.02 194 119 C193.01 119 192.02 119 191 119 C191 118.01 191 117.02 191 116 C190.2 115.71 189.39 115.42 188.56 115.12 C186 114 186 114 185 112 C184.01 112 183.02 112 182 112 C182 111.34 182 110.68 182 110 C180.02 110.33 178.04 110.66 176 111 C176 110.34 176 109.68 176 109 C176.66 109 177.32 109 178 109 C178 107.68 178 106.36 178 105 C177.01 105 176.02 105 175 105 Z M136 121 C136 121.99 136 122.98 136 124 C136.99 124 137.98 124 139 124 C139 123.01 139 122.02 139 121 C138.01 121 137.02 121 136 121 Z M132 126 C132 126.99 132 127.98 132 129 C132.99 129 133.98 129 135 129 C135 128.01 135 127.02 135 126 C134.01 126 133.02 126 132 126 Z M129 133 C129 133.99 129 134.98 129 136 C129.99 136 130.98 136 132 136 C132 135.01 132 134.02 132 133 C131.01 133 130.02 133 129 133 Z M206 141 C206 141.99 206 142.98 206 144 C206.99 144 207.98 144 209 144 C209 143.01 209 142.02 209 141 C208.01 141 207.02 141 206 141 Z M191 176 C191 177.32 191 178.64 191 180 C191.99 180 192.98 180 194 180 C194 178.68 194 177.36 194 176 C193.01 176 192.02 176 191 176 Z M172 185 C172 185.99 172 186.98 172 188 C173.32 188 174.64 188 176 188 C176 187.01 176 186.02 176 185 C174.68 185 173.36 185 172 185 Z " fill="#000000" transform="translate(102,141)"/>
<path d="M0 0 C0.25 0.01 0.25 0.01 1.54 0.05 C7.69 0.33 11.71 3.84 16 8 C22.54 15.55 25.57 24.49 25.06 34.44 C24.35 42.92 20.14 52.01 14 58 C12.09 59.3 10.1 60.28 8 61.25 C7.48 61.51 6.96 61.76 6.42 62.02 C-2.83 66.46 -10.49 65.32 -20 62 C-20.28 61.91 -20.28 61.91 -21.71 61.43 C-24.86 60.29 -24.86 60.29 -26 58 C-26.23 57.93 -26.23 57.93 -27.38 57.59 C-30.99 56.27 -33.06 52.15 -35 49 C-39.74 38.21 -39.45 28.17 -35.38 17.25 C-34.93 16.16 -34.47 15.08 -34 14 C-33.34 14 -32.68 14 -32 14 C-31.75 13.26 -31.5 12.51 -31.25 11.75 C-30.14 8.42 -27.66 5.98 -24.69 4.23 C-23.25 3.53 -21.8 2.91 -20.31 2.31 C-19.79 2.1 -19.26 1.89 -18.72 1.67 C-12.49 -0.75 -6.55 -1.72 0 0 Z " fill="#000000" transform="translate(109,156)"/>
<path d="M0 0 C1.61 1.26 2.7 2.39 4 4 C4 4.66 4 5.32 4 6 C4.22 6.05 4.22 6.05 5.36 6.29 C7.53 7.23 8.06 8.32 9.19 10.38 C9.53 10.98 9.88 11.59 10.23 12.21 C11 14 11 14 11 17 C11.66 17 12.32 17 13 17 C13.78 23.5 14.21 29.51 13 36 C12.34 36 11.68 36 11 36 C11.17 36.66 11.17 36.66 12 40 C11.34 40 10.68 40 10 40 C9.67 41.32 9.34 42.64 9 44 C8.34 44 7.68 44 7 44 C7 45.32 7 46.64 7 48 C6.34 48 5.68 48 5 48 C4.96 48.6 4.92 49.2 4.88 49.81 C3.71 52.71 2.37 53.08 -0.4 54.28 C-2 55 -2 55 -4.31 56.56 C-10.79 60.46 -18.82 60.74 -26 59 C-29.5 57.65 -32.76 55.87 -36 54 C-36 53.34 -36 52.68 -36 52 C-36.99 52 -37.98 52 -39 52 C-44.56 46 -47.82 37.81 -48.44 29.69 C-47.83 18.94 -43.13 10.2 -35.68 2.67 C-26.69 -5.26 -10.14 -6.6 0 0 Z " fill="#000000" transform="translate(287,259)"/>
</svg>
