<?xml version="1.0" encoding="UTF-8"?>
<svg version="1.1" viewBox="0 0 1254 1254" width="1254" height="1254" xmlns="http://www.w3.org/2000/svg">
<path transform="translate(0)" d="m0 0h1254v1254h-1254z" fill="#FAFAFA"/>
<path transform="translate(261,746)" d="m0 0 6 3v2l-4 1 2 4 4-2 7-2 3 4h2v-5l2-1 8 5 8-1h5l2 5-7-2v2l5 1 7 3 1 3 6-1 3 3v2h5l2 2 4 1v2l4 1v4l4 2 1 2 5 2 4 2-2 4 6 1v5l7 1v4h2v2l5 1 2 6 2 1v-2h2l1 4 2 1 2 5 4 2 1 7 3 1v4l4 1 2 6 4 8 3 4 1 5h2l2 5v4h2l3 9 4 6-1 4-1 2 5 4 7 15-1 4h-2l1 3 5 4v7h2l1 3-1 2h2l1 7 3 10 4 5v16l1 5 4-1 4 3-1 2-6-2 4 4-2 6h2v6h2v2h6l1 4-6 3 2 10 3 3-1 4h-3l1 4 5 4 1 18 5-2-1 8-5-1v2l6 2-1 6 2 4-4 4 4-1v9l-1 4 5 1-1 3-2 1 1 4v8l4 1 3 3v6h-3v-6h-4l1 2 1 11 1 3 4-2 2 4v5l-4-2h-2v-3h-2l-1 3h-3v2h-2l-1-4-6-2-1-3v-9l-1 5-2 1-1 4h-3l-4 1-1-5-3 3-1 2-2-4-1-1h-3l-2 7-5-1 1-3h2l-3-6 1-5v-2l-2-5 1-7 3-1v-4h-2l-1 4-3-1-1-4 1-4-1-4h4v2h2l1-4-10-1v-14l3-3-4-1-2-3v-3h2l-2-4v-6l-1-4 1-3-4-5-3-4v-6-4l1-3h-2l-1-2v-8h4v-3h-3l-1-4 1-3 2-1v-2l-4-3-5 1v-7l4 1v-4l-3 1v-2h-2v-2h-3l1-10h2v-2h-3l-2 3-3-1-1-8 3 1 2-3-3-3v-3l3-1 1 3h2l-3-6-5-1-1-4-5 1-4-3 1-4 4 1 7 3-2-3-4-1 3-6h3l-5-6-6 2-1 6-3-1v-3l-4-2 3-5-4-1-1-10-4-6-3-18-3-7-2-7-3-7v-4h3l2 7 1 2 4 1v-7l-3-2-1-3-4-4v-3l-4 1-1-2 1-2-4-4-1-5-3-5-1-6h-2l-2-6h4v-2l-3-1 1-2h3v-3l-3-1v-2h-5l2 5v4l-3-1-2-4v-4h-4l2-4v-6l-5-2-3-3v-2l-4 1-3-4-2-4-4-1-2-1h-9v-4l2-1-3-1v2l-4-2-1-2-1 4h-9v3h-2v-3l-6 1-3 1-1 2h4l1 4-2 4-6 1-2 5-1 5-5 2-1 5-5-2v2l3 1-2 5-2 1-1 7-6 2-2 9-3-1-3 6 4-1v4l-3-1-1 3h-3l1 7-5 7-3 1-2 11h4l-1 10-5 12-3 12-3 8-3 7-1 5-3-1v-7l-4-2 1 6-3 3v2l3 1-2 14h-2l-1 5 3-1 1 2-2 7-3-1-4 11v3 5l7 2 1-8 4-3h2v4l4 2v3l3 1-3 3-3-2-2 12-4 1v6l-2 3-4-1v5l5-1-1 8 4 3v4l-5-1-3 1 1 3 1 4h-3v5l6-5 2 3-2 7h-5l-4-2 1 8h3l-1 6 4-1v-5l-3-1v-3l4 1 2 5v4h-2l-1 10 2 1-1 5h-2v-2l-4-1 1-9h-2-3l2 6v4l-4-1v12h2v2l-8 1v2l4-1 3 1 4 1v6l-4 1-4 2 2 5h2l4-4v5l1 4-1 2h-2l-3-4-2 2-4-1-1 2h2v3h-2v3l3-2h3v4h-3l-1 4 4 1-2 2-2 5h-2l-1-3-1 6 6-1 1 3-3 3h-8l-3-3v-3l-4 1-2-2h-4l-1-10-3 1-1-4h3l3 1-2-6-2-1 2-7h-3l1 6h-2v2h-2l1 4-1 5 1 2v12l-3 3-4 9-5 1 1-3h2v-4h-4v-4l-8 1-3 9h-5l-1 4-4 1-1-5v-10l-5-1-1 1h-6l-5 1v4l-7-1-1-10h3l2 3 1-3v-3h-5l-1-1-1-10-1-3 2-1 3-19h3v8l1 3h3l-1 5h-2l1 4-1 2h-3l1 8 2 1v-2h4v-3l-3 1v-4l3-5 1-5 2-3-4-2-1-4 2-4-4-1v-2h-5l-1-1 1-9 4-4h3v12l4 2-2-6 1-5 7-3v-2l-3-3-2-3 1-6 10-1v9h-2l4 4-1 13-1 2-1 1h3l1 4 3-2v-5l-1-5 3-9v-6l-3-1 4-1-1-6 2-2-1-4 2-7-2-5 1-5 1-2h2l-1-9 1-4 2-1-1-4-1-5 3-1-1-7 4-2-2-7 2-5 2-8-1-6 5-1v-9l-1-3v-4l2-5 3-6 2-9h2v-8l4-2v-9l2-2 2-10 3-1-1-7 4-3v-7l3-2 3-8v-4l2-2 2-5h2v-3l2-1 1-6h2v-4l4-1v-5l4-1-1-5 2-4h3l1-5h3l1-5 2-2 1-5h3l-1-5 6-2 1-4 3-5 4-1 1-4 2-2h3l2-4h2l1-5 6-2 1-4 2-3h4l1-4 5-2h5l1-4z" fill="#CFCFCF"/>
<path transform="translate(1e3 740)" d="m0 0h4l-1 5 4 1v3l-4-1-5-2-1 9 4 2 7 6 3 2v3h-2v2l6 2 4-1 2 5 6 7v4l8 3 1 3-1 3 4 2v2l3 1 6 7 1 5 2 2v3h2v2l4 3v6l4 6 4 7 1 3 1 5 5 5 1 4-1 2 4 2 1 4-4 1 3 4 4 2-1 9 3 6v2h3l1 7 2 1v8l2 6 1 5 5 5v3h-3l3 11-1 5 4 10 1 1 2-5 3 1 1 6v6l-4 1-2-1v3l9 1v6l-4-1-1-1-1 9h3l1-5 4 1v5 4l3 7-1 5-3-1-2-7-2-1 3 9 1 5-1 6 4 9 1 5-1 2v6l5 2-1 7-1 2-3 1 5 6 1 10v3 6l3 4-1 5-2 1 2 10-1 2h2l1 4h5l1-4h5v-3l-3 1-7-5-3-1 2-4 4-4-2-4-2-1v-3h2l-1-5v-8l-4-1 2-4h2l-1-4 1-2-5-1v-2h3l-1-7 4-2-2-3-4-1-2-5 1-4h3v-4h-2l-2-8 1-5v-2l-2-4 8-4 3-2 1 4-3 6-2 1v5l2 4-1 4 2 2v11l4 1-1 10-1 4 5 5-2 4-1 8-2 2 10 3v6l4 4-1 4h-2v-2h-3v-3h-2l-1-2 2 5-1 8h2l2 9v4l4 2-1 4h-3v2h3v15h-4l-5 1v2l9-1 1 4-4 4-6 1-2-4-2 2-1-1v-9l-1-6h2v2h4l-4-8 1-5 1-2h-6l-2-1v4l4-1 1 2-3 9v4l2 5-2 5 1 1v6l-4 1v6l-3-3v-2l-4-1 1-2h2l-2-4-3-1-1-4h-4v-7h-3l-1 5v8l-3-1-1-7h-4l1 8-3 1 1 5-2 1-2-7-5-5-6-3 2-6h-3v-4h3v-4l-5-1-1 3 1 4-5-1-1-5-1-9 7 1 1-2h-6l-1-10 4-1v-14l-2-1-1 6-7-2-1-1-1-21 6-1-2-2-1-7 3-1 3-3h4v-2l-5 1-2-5v2h-4l1-4h3v-4l5-1h-3l-5-3 1-4 1-5h-3l-1 7-1 6h-2v-15l-4-2 2-5 2 1v2l2 1 1 1-1-13-3-1 1-4h3l2-4h2v-3l-6-1-1-1v-5l4-1-2-2-1-13-6 2-4-3v-3h4v-7l-2-1 1-5-7-3v-2l3-1h8v-2l-4-2h-4l-3-1v-5l-2-4 2-1 3 1 1-3-2-5-4-6-4-2-1-7 3-3 1-7 7 1-2-3-7-3v-9h-2l1 5h-4l-1-4v-2l-1-5 3-2-3-5-1-6-4-4-2-4 2-2h-5l-1-5 2-3v-6h-3l2 1-1 5-1 2h-2l-1-7-6-12-3-3-2-5v-7l1-3-1-3h2v-2l-3-1v-2h-2l-1 3-3-1 1-4-1-5 1-1-4-1-2-6-3-2 1 4-1 5-4-1-2-6h-7v-3h10v-3l-9 1-4-3v-2h-2v-2l-4 1h2l1 3-5 1-1-1v-5h-2l-1 5-5 5-6 2h-6l-1 6-3-1-4 1-3 9-7 6h-3l-2 5-3 4-5 2-5 12h-4l-3 2 3 1 1 4h-6l1 4-2 10-5 4-3 5-2 1-1 5-4 7-2 1 2 4-3 11-2 1-2-1v3l-5 5 5 2v10l-5 5v6l-5-1v-3l-2-1 1 9 2-2h3l-1 3h-2l-1 3-4-1-1 2 3 1-3 8v4h-3l4 1-1 10-3 6-3 4-2 16-1 9-6 2h-2l1 8-1 9-1 2h-5v2l4 1-1 10-2 7-2 4h-4v4l-3 3h2v-2h3l2 4-1 6h-2l-1-2-2 4h-2l3 4 2 8v5l-3 3-2-3-2 7 5-1-1 4-2-1v4l2 2-1 13-4 4-1-7-5-3 4 5 1 7 2-1-1 7-3 1 2 4-3 8-1 8-2 1-1 10-2-1-1-7h-2-4l-1-5-10-1-2-2-1 7h-4v-3h-4l-2 16h-2l-1-6-3-1v-3h3l-2-4v-12l1-2h-2l3-12 2-7-4 1-1-2h3l-1-4-2-2-2 8-5 3h-3l1-5 2-1 2-4 3-15 3-1v-4h-5l2-6 4-1 4 1 4-1 1-3-4 1v-7l-1-4 2-3 3 1v2h2l1-9 1-2h-4l-1-2-3-1 1-4 2-2-1-8h-4l1-6h4l2 6 2 2v6h3v-6h2l-4-7-1-4v-7l1-3 4-1-2-3 1-7h6 3l-1-4-1-3 4-4v-9l2-2v-3l-5-1 1-5 3-5h2l-1 6 4-1-1-4 2-4v-6l2-2 2-7-1-4 5-2-3-2 1-4h2l1-3h3l-1-2v-6l3-1v-5l4-5 2-11h2l1-3 3-2-1-9 2-2 3 1 1-5h2l-1-10 5-4 1-2h3v-4l2-1v-5l4-1 3-5-2-4 7-4 1-3 1-5 7-1 2 1-3-4v-3l7-6 1-2h-2v-2h6l1-4 2-3 4-2v-6l3-2 3 4 2-1-2-3 3-1v-5l5-4h4l6-3 2 2-1 6h6l5 1 2 1 1-4 9 1-3-4h-4l-4-2-2 5-3 1-2-3 2-2-6-1 1-5v-2l-1-4-5-1 1-5 8 2 4 4 2-2h9v-2l-4 1-1-1v-6h4l4 4 9-2h2l7-1 3-2h6l3-3 11-1 1 1 2-3 5-2z" fill="#CFCFCF"/>
<path transform="translate(291,540)" d="m0 0 10 1 5 3 14 3 1-3h3v2l5 1 1 4 4 3v2l7-1 5 4 2 3 3 2 1 5h5l-1 3-7-1v3l5 1 3 6 3 1 1 11 4 2v4h2v3l2-1 2-4 4 7 2 7 1 5 1 3 1 13-2 5h-2v-6l1-4-2-6-1-1 1 7-2 18 2 9-2 4h-2v2h-2l2 4-2 8v3l4-4 4 1-4 6-5-1-2 5-2 1-1 7 1 4h-2v-3l-3 1-1 5h-3l-2 6-4 4-6 3-2 5-5 2-3 3h-2v2l-9 4h-4l-7 2h-10l-4 2h-11l-7-3-6-2-4-5-7-1-2-4-2-1v-5l-5-1-2-1-1-9h-7l-2-5-4-2-1-6h-3l-2-9-3-7v-7h-3l-2-14v-10l-1-2 1-9 3-9-2-3 1-4-4-2 3-2h2l1-3h2v-2l-4-1 1-4h3l4-9-1-2-3 2 1-4h6l1-4 4-8 4-2h4l1-5 2-6 7-2v-2l5-3h2l1-3h9v-3l9-3 5-1z" fill="#FAFAFA"/>
<path transform="translate(955,541)" d="m0 0 6 3 2 2h10l3-1 4 2-2 1v2l11 3 2-2 1 5 3 2v4l3-1 9 9-1 3 4 5v2l4 1 2 8 1 2h2l-1-7 3 1 4 6v2h-5v11l2 6 5 6v8l3 5-1 2h-2v4l3 2v5h-2v2h-2l-1 8-2 6-1 4 4 2 1 5-6 12-2-1-1-12-2 7-1 5-5 2v8h-3l-2 5-3 4v7l2 1-4 1-1 2v-2l-2-1 1-1v-6l-2 4-4 2-1 6-4 4-10 5-7 2-3 2h-10l-9 3-6-1v-2l-9-1-5-4v-2l-5-1-4-5v-2l-5-1-7-2-2 4-4-6h4l1-2-1-2v-6l-10-3-4 1v-3h3l-1-5-4-10-5-12 2-7h-2l-3-7-2-8-2-1 1 8 2 6 3 6-1 5 3 3v6l-3-1-3-7-2-4v-5l-1-4 1-4-3-1 1-9-2-1 1-1v-8l2-2 2 5-1 4 1 3 2-2 1-10 1-14 1-4-2 1v5h-2v9l-3-1v-9l-1-4 3-1 4-14h2l2-8 2 4 2-1 1-4h-3l1-5h2l2 3 1-4h-4v-2l7-2v-2l-1 2h-2l1-6 5 1 5-2 2-6 5-5 8-6 8-3h3v-2l6-4 15-1z" fill="#FAFAFA"/>
<path transform="translate(927,770)" d="m0 0 3 2-1 6h6l5 1 2 1 1-4h6l2 1-1 7-3-1-4 1-3 9-7 6h-3l-2 5-3 4-5 2-5 12h-4l-3 2 3 1 1 4h-6l1 4-2 10-5 4-3 5-2 1-1 5-4 7-2 1 2 4-3 11-2 1-2-1v3l-5 5 5 2v10l-5 5v6l-5-1v-3l-2-1 1 9 2-2h3l-1 3h-2l-1 3-4-1-1 2 3 1-3 8v4h-3l4 1-1 10-3 6-3 4-2 16-1 9-6 2h-2l1 8-1 9-1 2h-5v2l4 1-1 10-2 7-2 4h-4v4l-3 3h2v-2h3l2 4-1 6h-2l-1-2-2 4h-2l3 4 2 8v5l-3 3-2-3-2 7 5-1-1 4-2-1v4l2 2-1 13-4 4-1-7-5-3 4 5 1 7 2-1-1 7-3 1 2 4-3 8-1 8-2 1-1 10-2-1-1-7h-2-4l-1-5-10-1-2-2-1 7h-4v-3h-4l-2 16h-2l-1-6-3-1v-3h3l-2-4v-12l1-2h-2l3-12 2-7-4 1-1-2h3l-1-4-2-2-2 8-5 3h-3l1-5 2-1 2-4 3-15 3-1v-4h-5l2-6 4-1 4 1 4-1 1-3-4 1v-7l-1-4 2-3 3 1v2h2l1-9 1-2h-4l-1-2-3-1 1-4 2-2-1-8h-4l1-6h4l2 6 2 2v6h3v-6h2l-4-7-1-4v-7l1-3 4-1-2-3 1-7h6 3l-1-4-1-3 4-4v-9l2-2v-3l-5-1 1-5 3-5h2l-1 6 4-1-1-4 2-4v-6l2-2 2-7-1-4 5-2-3-2 1-4h2l1-3h3l-1-2v-6l3-1v-5l4-5 2-11h2l1-3 3-2-1-9 2-2 3 1 1-5h2l-1-10 5-4 1-2h3v-4l2-1v-5l4-1 3-5-2-4 7-4 1-3 1-5 7-1 2 1-3-4v-3l7-6 1-2h-2v-2h6l1-4 2-3 4-2v-6l3-2 3 4 2-1-2-3 3-1v-5l5-4h4z" fill="#CFCFCF"/>
<path transform="translate(952,535)" d="m0 0 8 1 3-1 3 1 8 1v2l10 1 2 2 5 1v2h3l1 2 5 3 10 7 2 4 8 7 1 4 6 9 2 5 1 2 1 7 2 4v10l3 9-1 9-1 2v10l1 5h4l1 12-4 7-2 3-2 7-4 1 2 3v7l-4 1-1 5-3 5h-2l-1 5h-4l-2 5-3 6-6 1-2 6-9 3-1 4-4-1-4 2-4 1-2 3 6-1 2 2 2-3v3h4l-2 5-3 1-5-3h-4l1 4-6 2h-9l-1-5h6l4-1h2v-2h-12l-2 6-7-1-6-3-1-2-5-2v-2h-2l-1 4-5-1-3 1h-4l1-5-4 2v-4l-6-1v-2h-5v-2l-5-1-3-3v-2l-5 1-2-5-6-4-7-9-3-4v-2l-3-1v-4l-2-1v-3l-3-3-2-3 1-5-2-3-3-1 1-7-2-5-1-11-1-9-1-8 2-5 1-6-2-4 4-2 1-6-1-3 4-7-1-5 4-1v-3h2l-1-4 5-3 1-5 1-4 2 2 2 1-1-5 3-3h3l1-4 1-1h5l-1-5 4-2 2-2 2 1 1-3 13-7 9-1v3h2l1-5 11-2h4zm3 6-13 2h-5l-6 4-1 3-3-1-8 4-8 6-5 6-1 4-7 2-3-1-1 6h2v1l-6 1 1 2h3l-1 4-2-3h-2l-1 5h3l-1 4-2 1-2-4-2 8h-2l-4 14-3 1 1 7v6l3 1v-9h2v-5l2-1-2 11v13l-1 5-2 1-1-5 1-4-3-3-1 3v7l-1 2h2l-1 9 3 1-1 7 1 3 1 5 3 5 2 5h2v-6l-3-3 1-6-3-3-1-7-1-1-1-8 2 1 4 13 1 2h2l-2 8 5 11 4 10 1 5h-3v3l5-1 9 3v6l1 4-4-1v3l4 4 1-4 9 3h3l2 4 3 4h4l2 4 3 2 9 1v2l8 1 7-3h10l5-3 5-1 11-6 4-5 1-5 4-2 1-3v6l-1 2h2l1 2v-2l4-2h-2v-7l5-7v-2l3-1v-7l5-2 2-11 1-1 1 12 2 1 6-12-1-6-4-1 2-9 2-5v-4h2v-2h2v-5l-3-2v-4h3l-2-6-1-1v-8l-6-7-1-9v-7h5l-2-4-3-5h-2l1 7h-2l-2-4-1-6-4-1-4-8v-3l-8-8-3 1-1-5-2-1-1-5-3 2-10-3v-2l2-1-6-2-1 1h-10l-3-3z" fill="#CFCFCF"/>
<path transform="translate(282,532)" d="m0 0h4l1 3 4-1h7l6 1v2l5-2 2 1 14 2 1 2 5 1 17 8 5 5v4h5l5 6 1 3 3 3v2l3 1 5 9v2h2l6 15 2 8 1 6 1 9 1 5v19l-3 9 2 4-4 2-3 12h-2l-2 10-4 7h-2l-2 7-1 1h-6l2 5-1 4-6 4-2 4v3h-4l-5 5-2 1-3-1-2 4-3 2-4-1 1-2-4 2-1 4-6 3h-2l-2-3h-5l-7 4-1 3h-7l-1-3-6 1-4-3v2l-6-2-2-1-4 1-1-4-3-1v-3l-4-1v-2l-3 2 3 4-3 2-3-3-1-4-9-3-3-6-8-7-4-7-1-4h-3l-5-8v-3h-2l-1-6-3-1-2-4v-5h-2v-5l-2-2-2-6 1-7-3-1v-7l-1-3 1-4h-2l1-13-1-3 3-3v-9l5-5 2 1-2-3 1-11 3-1 2-4v-5l4-3 1-4h3l1-3 4 2v-7l4-2 4-4h2l1-5 7-6 4-2 2-3 5 1 2-4h4v-2l3 1v2l5-1 3-4zm9 8-1 2-12 3-3 1 1 3h-9l-1 3-5 2-2 1v2l-7 2-3 8v3l-6 1-2 1-4 8-1 4h-6l-1 4 4-2-3 9-2 2-3 1v3l4 1v2h-2l-2 4h-3l-1 2 4 1-1 5 2 3-4 11v6l1 3v9l2 14h3v7l4 9 1 7h3l1 6 4 2 2 5h7l1 9 4 2h3v5l3 3 1 2 7 1 5 6 11 3 1 1h11l4-2h10l8-3h4l8-3v-2l4-1 3-3 3-1 3-6 7-3 4-7v-2h3l1-5 3-1v3h2l-1-7 1-4 2-1 2-5 5 1 4-7h-4l-4 4 1-8 1-4-2-3h2v-2l3-1 1-4-2-9 1-8 1-10-1-6 2 2 1 7-1 2v6h2l2-5-1-15-2-2-1-7-3-7-3-4-1 4-2 1v-3h-2l-1-5-3-1-1-11-4-2-2-5-5-1v-3l7 1 1-3h-5l-1-6-4-2-5-5-3-1-5 1-2-4-3-3-1-3h-4v-2l-4 1v2l-14-3-5-3z" fill="#CFCFCF"/>
<path transform="translate(599,155)" d="m0 0 2 1 1 4 3-1 7 1 6-3 7 2 5-1 3-1 7 2h6l7-3 3-1-1 4 10 2h12l5 2h5l5 3h10l6 1 2-4h2l-1 4 3 1v2l5 1 1 1h9l2 2 9 1 6 3 4 4 7 1 3 2 8 4v2l4-1v2l11 3 4 3v3l-7-1-10-6-5-2-10-3-3-2v-2l-4-1-1-1-17-1-5-5v-2h-8l-6-3-8-1-1 2h-2v-2l-7-1-8-1-12-3-7-1-9-2-5 2-1 1h-10l-9-3-18 2h-14l-7 2-16 1-8 1-6-1v2l-9 2-7 3h-4l-1 4h-10l-8 4h-4l-1 3h-8l-10 4-5 3-3 2-7 2-4 2v2l-7 2-1 3-5 1-5 4h-2v2h-2v2l-6 3-2 3h-3l-1 4-5 2-2 6-3 2h-3l-2 4-4 2-2-1-1 4-5 9-2 6-3 4-5 1-1 5-2 3h-3l1 7h-2l-1 11-3 7-3 1-3 11v10l1 4-3 9 4 10-3 3v7l3 8 2 6-1 5 2 6 4 10 3 6 2 1 2 9 4 4 2 7 3 4 5 3 3 4v2h2l3 6 6 2 2 7 10 3 2 2 2 7 11 4 5 5 4 2 2 4 5 2-2 4-4 1-3-4v-2l-4-3v-2h-2v2l-5-1 1-6-6-1-4 1-1-4 1-2-10-3-1-3 1-2-4-1-4-2-1-3h-4l-1-4-6-4-1-5-4-2v-3l-2-1v-2l-3 1-2-1-2-5v-7l-3 1-5-8-2-5-1-4 2-1-5-3v-3h2l-1-3-3 2h-4l1-5 4-3-2-1 1-5-3-1 1-4-1-11-2-4-1-8 1-1-1-10v-8l2-5 1-4 1-11 2-6v-3l1-5 3-6 3-9 4-8 2-5 4-2 2-7 2-1 1-3 4-1 1-4 4-1 1-5 1-2h3l1-4 3-1 1-3 6-5 4-2 2-4h3l5-6 2-1 1-3h7l4-7h5l7-4 2-1 1-6 4-2 4-4 4-2h3l1 6 4-1 3 1 1-3 7-3 7-2 4-3 9-1 5-3h7v-2h6l2-2h5l2-3 6 2h2l9-1v-2h14l4-1 3 1v-6z" fill="#CECECE"/>
<path transform="translate(714,525)" d="m0 0h2l-1 4-12 3-1 2-9 1-5 3-16-1-7 2h-8v2l-3 1-15-1-5 1-1-1h-10l-5 7-1 2-5 2-3-1-2 5-6 4-6 3h-2l-2 4-4 4-7 2-10 6-4 2-3 3-11 4-5 4-4 1v-3l-4 2h-4l-1 4-1 1-10 2-11 3-17 1-7-4 1-2 6 2h8l12-3 8-3 11-3 3-3 8-2 8-3h3l2-4 7-2 6-3 7-3 6-7h3l1-4h3v2h2v-4h5v-2h2l2-4 8-6h2l2-5h4l2-8 7-1 15 6 1-3 4 1 4-2 3-4 6 2v2l9 1 4-1 12-1 9-2 2-2h6l2-1h8z" fill="#CECECE"/>
<path transform="translate(550,502)" d="m0 0h7l2 3-2 6h-2l1 4v6l1 4h-2l-1 5-4 7-3 6-1 1v4h6l2 3 4 1v-3l7-1 1-5 12-3v-2h2l2-5 6-4 2 2 5-4 4 1v2h3l-1 4-4-2-4 1-2 4-5 4h-4l-2 4-5 3h-2v3h5v2l5-1 1 4-3 3h-6l-1-4-3-3-6 4-4 3-8 2-1 4-12 5-10 2-5 4-3-1 1-5 4-2 5-10h2v-5h2v-3h2l2-4 2-5 2-4v-7l5-6 1-8 2-5h2l-5-6z" fill="#CECECE"/>
<path transform="translate(363,298)" d="m0 0 2 4 2 5h5l2 10-2 3h-3l-1-9-1-1-2 5v9l-3 1 1 9v4l1 7 1 3h3l-1-19 4-1 1 1v11l1 6-2 4-7 1 2 5v5l1 5 1 1v-10l3-6 2 1 2 9-1 9 2 3v8l2 2 1 5 2 1 1 10 3 1 1 5v4h-2v3l3 1 1 5h2l3 5 2 1 2 4v4l4 2 4 4v5 3l-6-4-4-10-8-10-4-4-3-6v-2l-4-10-3-2-3-8-4-2-3-21-3-2 1-15-2-7 1-5-1-5 1-14 1-8v-7z" fill="#CFCFCF"/>
<path transform="translate(375,829)" d="m0 0h3l4 5v6l4 1 3 6 3 5 2 9h3l1 5 2 1-1 10 7 2-1 7h2l-1 2-3-1 3 5 2 1v-3h3l1 7 2 8v3l2 2 2 7 1 6 2 2v7l3 8v4l1 6-2 4h-2v4l3 1 1-5 3-1 1 7-1 3h-2l-1-2-1 12-3-4-4-17-1-2v-9l-1-3 3 1v3l2-1 1-4-6-2h-2l-3-8v-7l-2-9-1-5 3-1 1-3h-4l-1 2-4-11-1-5-2-1-2-7-2-3-3-9-4-10-8-16-3-3v-7l-3-1z" fill="#FAFAFA"/>
<path transform="translate(767,1030)" d="m0 0 3 3-1 5v4 7l1 4v3 2l-3 1 1 13-2 1-1 8h-2l1 7h2l1 6h3l-3-3 1-9 2-6h2l-1 11 2 5v6l2 4 2-5h2l1-4 4-1 1 2v10l-1 2 1 2v9l-2 4-4-2 1-4h2l-2-5-1 5-2 4-9-1 1-5-3-7v-4h2l-1-3-2 3-8-1-1-1v-5l1-2 1-11 2-8 2-16 1-9h2l-1-7z" fill="#CFCFCF"/>
<path transform="translate(853,267)" d="m0 0 3 1v2l4-1 1 4v2 3l2 3 1 7 4 8v11l3 3-2 5 2 7v14 3l3 1-1 3-4-1 2 3-2 10 1 6-4-1v5l-1 3-1 6-2 2-2 5-2 1-1 12-6-1 3-13 3-4 2-6 1 2h2l-2-8v-9l3-3 3-11v-16l1-4-6-1-1-8v-14h2l-3-14-4-2-2-3v-5-2l-1-4z" fill="#CECECE"/>
<path transform="translate(790,459)" d="m0 0 3 1 4-1-1 5-8 3-1 2-7 4-4 3-2-1-2 4-6 2-6 4h-3l1 3-3 2-5-1-13 6h-6l-1 3h-7l-4 5h-3v-2l-12 2-3 5-3-1 1-1-5 1-3 3-5-1-4-2v3h2v2l-5 1 1-4-6 3h-6v-4l3-1h8l1-4 11-1h11l1-5h11l9-5h7l16-6 3-2h3v-3l10-2 5-3 8-7 8-5 6-3z" fill="#CECECE"/>
<path transform="translate(866,550)" d="m0 0h3l-1 3h-2l-2 6h-3l-1 6-3 3v6l-4 3-1 6h-2l-1 5-3 10-2 13v18l-2 2 3 3-1 10h-3v2l4 1v10l-1 2h3l1 3-5 1-5-2-1-2v-15l2-5h2l-2-5-3-1-1-5 1-4h2l1-7h-2v-6l3-1-1-9-1-1v-5l5-2 4-11 1-3h2l-1-3 1-7 6-9 3-5h3z" fill="#CECECE"/>
<path transform="translate(473,1048)" d="m0 0 5 1-2 4h-2l2 4v5l3 3 3 1v2l-3 2 3 1v3h-3l3 9v10l1 5h-2v2l4 1-1 6 2 5v5l-2 3h3 3l-1 5-4 1v-3h-6l-2-2v-4h5v-2h-2l-1-7-4-4 1-7v-6h-2v-2l-5-1-1-6 8 1-1-2-3-1v-6l4-4-1-3-10-1-2-4 3-8-1-5 3 1 1 3-1 7 4 2-1-7z" fill="#CECECE"/>
<path transform="translate(798,910)" d="m0 0 3 1-3 9-2 1 1 3 4 1-1 4h-4l-3 6-1 9-3 1v8l-3 4 1 8-3 4v6l-4 1v9l-2 7-1 1-1 15-3 8-1 5-1 2v6h-3l-2-10 1-3 1-12h2l1-12 4-5 6-22 2-7-1-1v-9l3-12 6-1 2-16 2-6z" fill="#CECECE"/>
<path transform="translate(847,685)" d="m0 0h7l1 5 4 1-2 4 4 1 3 7v3l3 1 1 3-1 2 5 1 2 5 2 4 5-1 1 3-1 2 3 1v3l4 1 1 2 3 1v2h5l4 3 3 1v2l10 2 4 3-1 4-5 3h-3l-1 4-4-1v-3h-2l-1-8h-2l-6-7-10-5-3-3-3-1-2-5v-3l-3-1v-2l-7-2-3-5-1-4 2-3h-2l-1 2h-2l-3-8-2-4-5-4-2-5z" fill="#CECECE"/>
<path transform="translate(142,867)" d="m0 0h3l-1 6-2 6-1 4-2 2 1 3-4 2v8l-2 6h-3l2 5v4h-2l-1 10-1 3-2 1-1 5 1 5v2h-3v8l-2 7 1 5-6 4 1-4-4-2 1-9 5-8 2-5 4-19v-3-3l3-6 2-12 3-3h2v-16l4-5z" fill="#CECECE"/>
<path transform="translate(382,713)" d="m0 0 4 1-1 9-5 4-2 3-12 3-2 7-9 11-3 3v6l-1 2-3-1v-6l-5-1-6-4 1-3 8-4h5v-2l10-7 2-2h3l2-5 3-1 2 1 2-5h2l1-4 2-1z" fill="#CECECE"/>
<path transform="translate(409,446)" d="m0 0h2v3l3 1v3l4 2v2l5 1 4 5 3 2v2h3l4 4 3 1 5 5 5 2v3l10 4 1 2 9 3v3l8 2 8 5 9 3v2h6l2 4h-7l-8-3-4-2v-2h-3l-1-2-9-3-5-3-9-6-4-2v-2h-2l-1 2-8-4-1-5-10-8-6-1-3-6-7-3-1-5-4-4-2 1-1-4z" fill="#CECECE"/>
<path transform="translate(1050,1048)" d="m0 0 3 1 1 4-1 4 4 1v2l-4 4 3 1v9l2 3v5l-2 3-1 5 3-1 2 5v17l-3-2-1-15-5 1v3l3 3-2 1-6-1v-5l3-4 3-1v-2h-2l-1-4-3-2 1-4 3-1 1-9-3-1-2 5h-1v-11h2l3 3-2-10v-4z" fill="#CFCFCF"/>
<path transform="translate(112,979)" d="m0 0h2v2l3-2 4 1 2 6 1 1v6h-4v-5h-4v7h-2v12h-2v8l4 1v3h-3v-2l-2 2-1 5 1 8-3 2v10l1 6-3 7h-2v-8l1-7v-17l2-12-1-8 3-4v-5l3-2z" fill="#CECECE"/>
<path transform="translate(939,503)" d="m0 0h9l6 1h12l4 1h11l6 3v3l-3 1-5-2v-2l-3 2-6-1h-3l-7-2h-10l-5 4-5-1h-3l-1 1-10 1-3-1v2l-7 2v2l-4-1-5 3-1 2-8 2-1-2 5-4 1-2 16-4 2-2 7-1 1-1h8v-2h2z" fill="#CECECE"/>
<path transform="translate(483,1029)" d="m0 0 3 2 1 4v7l1 7h2l-1 10 4 12-3 3 2 7v13l3 1v12l-2 4h-3v-7l-1-6h2v-3h-2l-1-9v-6l1-2h-4l1-12 1-4-3-3 1-6-1-3 1-3-2-3v-7l-2-6z" fill="#CECECE"/>
<path transform="translate(375,829)" d="m0 0h3l4 5v6l4 1 3 6 3 5 2 9h3l1 5 2 1-1 10 7 2-1 7h2l-1 2-3-1-1 2-3-2-2-7-2-3-3-9-4-10-8-16-3-3v-7l-3-1z" fill="#FBFBFB"/>
<path transform="translate(1140,994)" d="m0 0 4 5 2 4-2 2 1 16 1 5 2 1v25l2 8v9l-3 1-2-1-1-17-2-4 2-3 1-6-2-1v-5l-1-4-1-5-1-4v-5-4l1-2-3-1 1-6-1-4z" fill="#CECECE"/>
<path transform="translate(826,844)" d="m0 0h1l1 8-4 2 1 11-5-1-1 7h-3l-1 4-3 9-3 3-1 3h-3l-1-7 4-7 4-6 2-2 1-15 8-8z" fill="#CECECE"/>
<path transform="translate(362,866)" d="m0 0 6 2 1 4 3 1-1 8h2l1 5 2 1v3h-2l1 4h-2v2h2l1 3v7l5 2 1 8-5-5-4-1-2-7-4-8-1-1v-5l-3-1 3-1-2-10v-5l-3-1z" fill="#FBFBFB"/>
<path transform="translate(187,784)" d="m0 0 1 4h-3v5l-4 4-1 5-2 1-1 4h-3l-2 6-3 1-1 7-4 1 1 4-2 5h-3v5l-3 1-1 6-1 2-4-1 1-9 4-3 2-9 2 3v-4-4l5-2 2-1 1-9 5-5 5-4 5-9z" fill="#CECECE"/>
<path transform="translate(458,920)" d="m0 0 2 4 4 10 3 4v9l4 9 1 10 1 4v10h2l2 11 2 6h-4l-1-3-3-2 1-4-1-8-1-4-1-5-1-4-1-8-2-4 1-6-3-1v-7l-2-2v-3l-4-1-3-6 3-3-1-4z" fill="#CECECE"/>
<path transform="translate(401,574)" d="m0 0 4 5 4 6 4 18 1 8 2 6 1 12 1 7-1 3h-2l-1 11-2 5-1-4-1-5 1-5v-11l1-9-2-16h-2v-7l-3-9-1-7-2-4h-5l-1-3z" fill="#CECECE"/>
<path transform="translate(431,1018)" d="m0 0 3 1 2 3 3 1v12h-2v3h3v6l-3 2v5l4 1 1 5-4 1 2 8 2 10 1 4-4 2v-8h-3l-1-7 2-3h-2l-1-14-1-5-1-12 2-4h-4z" fill="#FBFBFB"/>
<path transform="translate(894,307)" d="m0 0h2l1 11 3 3-1 17-2 7v8l-3 10v9l-2 3h-2l-2 9-3-1 1-7 3-1-1-7 3-5-1-7 4-2-1-13 2-4-1-12-1-7 1-4-3-1-1-3z" fill="#CECECE"/>
<path transform="translate(748,320)" d="m0 0 4 2 2 13v8l-5 1-2 6-4 2-1 4-6 3h-11l-2 1-6-2-5-1-4-4v-2h5l4 2h2l2 2 3 1h9l1-3 6-1 4-6 3-2 1-6 2-1v-5l-2-2-1-6z" fill="#CECECE"/>
<path transform="translate(491,478)" d="m0 0h10v3l6 3 7 2 5 2 2-1 12 2 5 3 7 3v4h-3l-1-2-4 1-7 1v-2l2-2-5-1h-6l-1-3h-6l-1-3-9 1-1-4-5-1-1-1-7-1z" fill="#CECECE"/>
<path transform="translate(505,508)" d="m0 0 5 1 1 2 8 1 3-1 1 2 10 2 1 4-4 5 2 4-4 2-1 5-1 3-4-1 1-4 2-7-5-1-1-10h-7l-9-4z" fill="#CECECE"/>
<path transform="translate(1096,836)" d="m0 0 3 1 3 7 3 3v2h2v3h2l2 15 4 1 1 14 3 5v3l-2 2-2-1v-5h-2l-1-6 1-3-4-1v-8l-1-5h-2l-3-4 1-5h-4l1-5-2-4-1-5-3-1z" fill="#CECECE"/>
<path transform="translate(635,126)" d="m0 0h12l7 2 2 1 26 1 5 3-1 2-11 1-1-3-5 1-3-1-1 2h-3v-2l-5 1-2-2-7 1-9-2-5 2-4-1-2-2 5-1z" fill="#CECECE"/>
<path transform="translate(378,1041)" d="m0 0 4 1v2h-2l1 6h3l2 13 1 4-2 2-1 2 3-1 1 4-2 5 2 1-2 10h2l1-2v7h-3l-1-3-3-1v-5l2-2-1-5 1-5-4-3 1-10-1-5 1-1-4-3v-10z" fill="#CECECE"/>
<path transform="translate(884,384)" d="m0 0 4 2v3l-5 5-1 17-6 1v2h-2l-2 6-5 6-2 4-3 1v-5l2-1 5-9h2l-1-4 3-1 4-8 3-5-4-2v-4l5 1 1-5h2z" fill="#CECECE"/>
<path transform="translate(646,506)" d="m0 0 9 1 4 2 7-1 1 2-1 2h-10l1 6h-3l-1-5-3-1-1 1h-8l-4 1-1-1h-11l-3-3v-1h11l1-2z" fill="#CECECE"/>
<path transform="translate(415,938)" d="m0 0 3 1v3l2-1 1-3h2l2 5-1 2 1 5-2 4h-2v4l3 1 1-5 3-1 1 7-1 3h-2l-1-2-1 12-3-4-4-17-1-2v-9z" fill="#FBFBFB"/>
<path transform="translate(184,635)" d="m0 0 3 1v6l-1 3 3 3-1 7 2 5v10l3 1 2 8-1 4-4-7-4-11v-2l-3-2-1-9v-12z" fill="#CECECE"/>
<path transform="translate(280,503)" d="m0 0h17l1 1 7 1v2h-9l-2 1h-9l-4 1-1 3h-15l-1 3-7 2h-4l1-3 12-5 6-1 2 1v-2l5-3z" fill="#CECECE"/>
<path transform="translate(864 1e3)" d="m0 0h2v8l-2 10-3 1 2 6h3l-1 2-3-1v6l-1 2h5l3-1v6l-4 4h-2l-1-6-4-2-3-3 4-8-1-8 1-5 1 3 2-2v-4h2l-1-7z" fill="#CECECE"/>
<path transform="translate(1029,719)" d="m0 0h3l-1 5-3 4-1 12-1 4-1 2-4-1-2-4-6-3v-4l7-4 2-3h3l1-4h4z" fill="#CECECE"/>
<path transform="translate(363,298)" d="m0 0 2 4 2 5h5l2 10-2 3h-3l-1-9-1-1-2 5v9l-3 1 1 9-1 5-3-3 1-17 1-8v-7z" fill="#CECECE"/>
<path transform="translate(1130,948)" d="m0 0h2v3h2l2 3-1 6 2 4 2 17 1 1 1 11-3-1-1-2h-4v-9-3l-1-4 3-1-2-4-2-11v-3l-1-1z" fill="#CECECE"/>
<path transform="translate(430,968)" d="m0 0h3v7l-2 3v6l-2 1v6l2-4 4 2 1 5h-2l-1 5-3 4h-2l-2-9-1-5-1-4h2v-3l-3-1 1-3 4 1-1-4z" fill="#FAFAFA"/>
<path transform="translate(802,210)" d="m0 0 4 2 9 5 7 3-1 4 3 1 2 4 5 2 2 4 5 1v2h-2v3h-3l-2-5-4-2-8-5-4-1-1-8-5-2-6-5z" fill="#CECECE"/>
<path transform="translate(319,505)" d="m0 0h2v2l7 1 10 2 2 2 7 3 10 4 5 5-1 2-8-3-1-2-4-1-1-2-6-1-4-3-5-1-2-2-8-1h-3l-1 4-3-1-1-4-1-3z" fill="#CECECE"/>
<path transform="translate(715,313)" d="m0 0 2 1-2 4-4 2-1 3h-2l1 5-3 5 1 10 4 3-1 4-4-1-4-4 1-3 1-2h-2v-17l3-3 5-3z" fill="#CECECE"/>
<path transform="translate(387,782)" d="m0 0 7 6 3 6 4 3 1 4 5 7 3 1 7 10-1 4h-4l-4-8-5-9-5-4-2-3v-3l-4-2v-3l-4-2-2-3z" fill="#CECECE"/>
<path transform="translate(323,781)" d="m0 0h2l1 5h2v-5l3 1 1 5h2v7l4-1 7 8 5 3v2l-6 1v-2l-5-2v-4l-3 1-3-4h-3l-2-6h-2v-2h-4l-1-4z" fill="#FBFBFB"/>
<path transform="translate(762,503)" d="m0 0 3 3h6l-1 5-7 3-11 3-4 3v-2h-2v2h-6l1-3 6-2 1-4 5-1v2h4v-2l5-1z" fill="#CECECE"/>
<path transform="translate(1123,912)" d="m0 0 4 1 3 5 1 8 2 4v5l-2 2v9l-3-2v-5l-2-4-1-9-2-6v-5z" fill="#CECECE"/>
<path transform="translate(363,527)" d="m0 0h7l4 4 2 6 6 2 4 4 4 8v4l-4-1v-3l1-2-4-1-3-3v-3h-3l-1-2-6-1-1-6-6-4z" fill="#CECECE"/>
<path transform="translate(1147,1072)" d="m0 0h3l3 10 2 5-1 7-1 1v7l-3 1-3-4-4-1 5-5 1-6-4-2 2-4-1-8z" fill="#CECECE"/>
<path transform="translate(820,437)" d="m0 0 4 1-1 5h-4l-1 3-3 2h-4l-1 4-3 5-8 1-2-1 2-6 10-4h2l2-5 2-2h2z" fill="#CECECE"/>
<path transform="translate(787,1065)" d="m0 0h1l2 8v10l-4-2-2 8-5 3h-3l1-5 2-1 2-4 3-15z" fill="#CECECE"/>
<path transform="translate(1043,754)" d="m0 0h2v2h2l5 5 3 5v2l4 2 2 2v5h-5-3l2-7-5 1-1-5v-2h-5l-1-4-5-2v-3z" fill="#CECECE"/>
<path transform="translate(347,822)" d="m0 0h2l3 9 2 3 2-7 4 5 4 8 2 7v3l-3-1-6-11-5 1-1 2-1-7-3-3v-5z" fill="#FBFBFB"/>
<path transform="translate(884,268)" d="m0 0h2l1 6 5 1v13l3 1 1 8-1 4 1 5-4-2-2-12-2-2v-9l-4-7z" fill="#CECECE"/>
<path transform="translate(843,407)" d="m0 0 2 4 1 1v6l-6-1-1 3h-2v6l-5 1-1 6h-4v2h-4l2-4h2l2-5 6-7 3-7 3-1z" fill="#CECECE"/>
<path transform="translate(608,344)" d="m0 0 4 1 1 1v5h2v-3h2l-1 5h3l1 2 10 2 8-2h2l1-2h4l-1 3-5 3-6 2h-9l-6-4-7-3-2-7z" fill="#CECECE"/>
<path transform="translate(1061,778)" d="m0 0h2v3l5 1 7 8 3 6v4l3 3 2 4v3l-3-1v-2h-2l-6-12-4-1-1-5-6-9z" fill="#CECECE"/>
<path transform="translate(539,138)" d="m0 0 4 1v4l-7 1-9 3-1 4h-3v-3l-3 2h-7l-3 1v3l-4-1v-2l9-5h4l1-2 15-3z" fill="#CECECE"/>
<path transform="translate(903,806)" d="m0 0 3 1-1 3h-4v2l-3 3-2 6-2 1-1 4h6v2l-6 3-2 3-6-1-1 4h-2l1-4 3-3h2l1-7 4-4 3-7h2l1-4z" fill="#FBFBFB"/>
<path transform="translate(415,207)" d="m0 0h2v3h-2v3h-5l-1 4-2 4h-3l-2 7-3 3-3-1 1-2-2-1 9-15h2l1-3 2 1v2l5-2z" fill="#CECECE"/>
<path transform="translate(760,1102)" d="m0 0h2v5l4 1 1 5-1 2-3-1-1-2-1 7-1 1-1 8h-3v-10l-1-2 1-5v-5z" fill="#CECECE"/>
<path transform="translate(229,731)" d="m0 0 5 1 8 6-1 4-8 2-1 3-3 1-2-4 1-7 2-3z" fill="#CECECE"/>
<path transform="translate(875,627)" d="m0 0 3 3-1 6 2 4h-2l1 8 2 6 3 6-1 5 3 3v6l-3-1-3-7-2-4v-5l-1-4 1-4-3-1 1-9-2-1 1-1v-8z" fill="#FBFBFB"/>
<path transform="translate(208,708)" d="m0 0 5 1v3l4 2v2h4l2 4v3l5 2v5h-5l-1-3h-2l-5-8-4-4-3-5z" fill="#CECECE"/>
<path transform="translate(189,588)" d="m0 0h2v8l-4 6h2v7h-2v6l-4 2-1-1v-10l2-5 1-5z" fill="#CECECE"/>
<path transform="translate(1067,618)" d="m0 0h2l1 2v19l1 2-4 20h-2l-4-4v-2h4l-1-6 4-2-2-13z" fill="#CECECE"/>
<path transform="translate(515,318)" d="m0 0 1 4h-3l-1 7-1 4-2 7 3 1 1 7 3 1v5l-5-2-3-3-1-6v-11l4-11z" fill="#CECECE"/>
<path transform="translate(518,538)" d="m0 0 2 2 1-2 4 1-1 4-4 4-1 7-3 1-1 5h-3l-1 5-3 1 2-9 3-4h2l1-5-1-5z" fill="#CECECE"/>
<path transform="translate(887,527)" d="m0 0h3v4l-5 3h-2v3l-5 2-1 3-3 2-1 4-1 1-7-1v-2l8-6h2l2-4 4-7 5-1z" fill="#CECECE"/>
<path transform="translate(353,855)" d="m0 0h3l2 7 1 2 3 1v6l2 1 2 7v8l-4 2v-7l-4-9-2-7-3-7z" fill="#CECECE"/>
<path transform="translate(605,127)" d="m0 0h6l1 2 14 1-2 1-1 2h-6l-4-1-1 2h-6l-6-2-5 1h-7l1-3 4-1h7z" fill="#CECECE"/>
<path transform="translate(1063,662)" d="m0 0h2v12l-2 4h-2l-2 6-4 2-1-1v-5l4-2 1-5 1-2h-3v-3h4l1-5z" fill="#CECECE"/>
<path transform="translate(836,242)" d="m0 0h3l3 3 6 4-2 3 4 5 2 1 1 6-1 2-3-1-6-12-6-2z" fill="#CECECE"/>
<path transform="translate(195,684)" d="m0 0h3l2 3 1 4 5 2v8l5 1-1 4h-3l-5-5-6-8-2-7z" fill="#CECECE"/>
<path transform="translate(402,683)" d="m0 0h2v2h2l-8 16h-2v6l-5 3-3 3h-1v-7l3-1 2 1 2-8 3-2 1-6 2-1z" fill="#CECECE"/>
<path transform="translate(866,234)" d="m0 0 2 1v2l3 1 5 10v3l6 1 1 2v8l1 4h-4l-3-11-3-3-1-6-4-3v-2h-2z" fill="#CECECE"/>
<path transform="translate(437,866)" d="m0 0 4 2 6 9 3 6-1 7h-3l-2-4v-3l-3-1v-5l-1-4h-2z" fill="#CECECE"/>
<path transform="translate(210,550)" d="m0 0h3v4h-3l-2 4-4 6-2 6-3 4h-2l-1 6h-2l1-6 1-3v-5h2v-2h3l3-9 3 1 2-4z" fill="#CECECE"/>
<path transform="translate(614,508)" d="m0 0h7l-2 4-4-1-3 3-2 4-5 5 1 3-1 2h-3v-2h-6v-3l5-2 1-2 3-2 5-8z" fill="#CECECE"/>
<path transform="translate(544,315)" d="m0 0 5 2 5 3 2 1 1 3v13l1 5-5 3-1-4 2-3-1-4-1-10h-2l-1-5-5-2z" fill="#CECECE"/>
<path transform="translate(373,274)" d="m0 0h1l1 6-3 4-2 12-5 1v-12l1-3h2l1-4z" fill="#CECECE"/>
<path transform="translate(123,1014)" d="m0 0 4 1 2 4v5l-4 2 1 2-1 2-4-1-3-4 1-6 1-2h3z" fill="#CECECE"/>
<path transform="translate(370,597)" d="m0 0 4 5 3 9 1 5 1 3 1 13-2 5h-2v-6l1-4-2-6-2-3v-9l-3-5-2-2z" fill="#FBFBFB"/>
<path transform="translate(516,354)" d="m0 0 8 1 2 4 12-3 2-2 4 1-2 5-5 2h-9l-9-3-3-3z" fill="#CECECE"/>
<path transform="translate(447,891)" d="m0 0 3 1 2 4h3l3 12v10l-5-2v-9l-2-2 1-6h-3l-2-5z" fill="#CECECE"/>
<path transform="translate(1040,615)" d="m0 0 2 1 1 9v6l-5-1 2 3v8h-4l-1-12 3-5 1-8z" fill="#CECECE"/>
<path transform="translate(805,485)" d="m0 0 3 1-7 6-5 3h-3l-2 5-4 1-3 2-4-1 1-4 5-1 3-2 2-4 3 1z" fill="#CECECE"/>
<path transform="translate(876,777)" d="m0 0h2v2h-2l1 5-1 2h-4l-1 4h-3l-1 5-5 1-2 4-5-1 2-5 6-2 9-10z" fill="#CECECE"/>
<path transform="translate(573,132)" d="m0 0h11l1 3 2 1v2l-9 1-1-4h-3v2l-5-1-3-1-1 3-7-1 5-4z" fill="#CECECE"/>
<path transform="translate(851,807)" d="m0 0h2l-1 4-2 2-2 6-4 1-2 8h-2l-2 4h-3l1-7 4-4h3l2-7 3-1v-4z" fill="#CECECE"/>
<path transform="translate(1054,570)" d="m0 0 5 1 4 8v9h1v6l-3-1-2-7-5-11z" fill="#CECECE"/>
<path transform="translate(853,1042)" d="m0 0h4l1 10-4 9 2 1-1 1v9h-4l-1-4 3-17h2v-2l-2-1z" fill="#CECECE"/>
<path transform="translate(473,999)" d="m0 0h5l3 5 3 16 2 3-2 4h-3l-1-11-2-1-1-10z" fill="#CECECE"/>
<path transform="translate(749,146)" d="m0 0 12 3 7 4 2 3v3h-3v-2l-4-1-4-3h-6l-1-3h-5v-3z" fill="#CECECE"/>
<path transform="translate(121,1088)" d="m0 0 7 2-2 1 3 3v4l-3 3-3-1-1 2-4-1 1-7h-2l1-2 3 1-1-4z" fill="#FBFBFB"/>
<path transform="translate(246,517)" d="m0 0h5l-1 5-4 1-3 1v2l-5 1v4l-8 1 5-5 1-4 8-5z" fill="#CECECE"/>
<path transform="translate(828,463)" d="m0 0 3 2-2 5-5 5-6 3-3 4-5 1-2-4 3-1 2 1v-2l3-1v-3h5v-2l6-4z" fill="#CECECE"/>
<path transform="translate(774,158)" d="m0 0 13 3 5 3 1 8-5-2-2-5-7 1 1-4h-5z" fill="#CECECE"/>
<path transform="translate(1042,1007)" d="m0 0h2l4 8 1 1 1 11-5 1-2-1v-3h-2v2h-2l1-4 1-1h5l-1-5-3-2z" fill="#CECECE"/>
<path transform="translate(609,321)" d="m0 0h2l-1 7-3 4 7 1v3l-5 1-1 5-4 1 1-17z" fill="#CECECE"/>
<path transform="translate(502,571)" d="m0 0h3l-1 7-4 1-1 4h-2v3l-2 2-1 4-1 3-4 1 3-10 2-4h3v-6l1-2h3z" fill="#CECECE"/>
<path transform="translate(849,835)" d="m0 0 4 1-1 4-1 2h3l-1 4-4 1-3-1-1 4h-1l-2-8 2-3h4z" fill="#CECECE"/>
<path transform="translate(144,935)" d="m0 0 3 3v7l-2 4-1 9h-3l-1-9 2-8z" fill="#CECECE"/>
<path transform="translate(1084,811)" d="m0 0 7 6 2 2-1 4 4 8-1 3-3-1-1-7h-3l-1-7-3-1-1-6z" fill="#CECECE"/>
<path transform="translate(472,162)" d="m0 0 4 1 4-1-2 4-6 1v2h-4v2l-9 2-1 3-3-1 5-5 7-4h2l1-3z" fill="#CECECE"/>
<path transform="translate(218,751)" d="m0 0h2l-1 5h-3l-2 4h-2l-10 10h-2l2-4 3-1 1-7 4-1 2-3z" fill="#CECECE"/>
<path transform="translate(392,249)" d="m0 0h2l-1 7h-2l-3 9-4 5-3-1 2-3 1-5 2-5h2l1-5z" fill="#CECECE"/>
<path transform="translate(1064,596)" d="m0 0h2l5 10-2 10h-4l-1-15-1-4z" fill="#CECECE"/>
<path transform="translate(848,1085)" d="m0 0 3 1-1 20-1 4h-4l1-7-1-5 2-6v-6z" fill="#CECECE"/>
<path transform="translate(496,152)" d="m0 0 1 2 4-1-1 3-7 1v2h-3v4l-6-1-1-4 9-5z" fill="#CECECE"/>
<path transform="translate(980,753)" d="m0 0 10 1 8 4 1 2 4 2v4l-6-2-3-3-5-1-4-4-6-1z" fill="#FBFBFB"/>
<path transform="translate(392,555)" d="m0 0 6 4 5 9v3h-5l-3-6-2-1v-4h-2z" fill="#CECECE"/>
<path transform="translate(226,532)" d="m0 0h2l-1 5-7 6-2 4-4 2-2-1v-2h2l2-6 3-3 4-2z" fill="#CECECE"/>
<path transform="translate(431,192)" d="m0 0h2l-1 4-4 4h-3l-2 4h-3l-1 3h-2v-2l-2-1 5-6 6-3z" fill="#CECECE"/>
<path transform="translate(1082,828)" d="m0 0 4 2 1 1v5l-5 1v2h-3l-3-4 1-5z" fill="#CECECE"/>
<path transform="translate(650,320)" d="m0 0 4 4 2 5v14l-6 1-1-3 3-3 1-6-2-3v-5h-2z" fill="#CECECE"/>
<path transform="translate(432 1e3)" d="m0 0 4 1v9l1 5-7-1-1-9z" fill="#FBFBFB"/>
<path transform="translate(1035,1063)" d="m0 0h3l3 3h2l-1 7-3-1 1-3-4-1 1 3v10l-3-1-1-5v-7z" fill="#CECECE"/>
<path transform="translate(850,441)" d="m0 0 4 1-2 7-7 5-1 3-4 3h-2l2-4 2-3h2l1-5h2l1-3z" fill="#CECECE"/>
<path transform="translate(195,987)" d="m0 0 3 2-2 5-1 8-1 1h-5v-2h-2l3-9 4-1z" fill="#FAFAFA"/>
<path transform="translate(149,914)" d="m0 0h4l-1 8 1 4-2 5-2-1v-7h-4l1-6z" fill="#CECECE"/>
<path transform="translate(330,757)" d="m0 0 6 1 3 5 1 6-4 1-3-6-5-5z" fill="#CECECE"/>
<path transform="translate(166,1059)" d="m0 0h2l-2 8-1 9 2 1-2 3-4-1 2-1-2-3 1-14z" fill="#FBFBFB"/>
<path transform="translate(382,252)" d="m0 0 2 1-1 4-3 8-4 7h-2v-6l3-6h2v-5z" fill="#CECECE"/>
<path transform="translate(401,837)" d="m0 0h8l2 3 2 1-1 4h-8l-3-3-1-4z" fill="#CECECE"/>
<path transform="translate(151,846)" d="m0 0h3v4h-2l-1 5-3 8-1 2h-3l2-9z" fill="#CECECE"/>
<path transform="translate(430,1117)" d="m0 0 5 1 5-1 7 1-3 7h-2v-2h-3v-2h-8z" fill="#CECECE"/>
<path transform="translate(735,518)" d="m0 0 4 1v2l-10 4h-2l-2 2-7-1 1-3 4-1 2-2 4 1 1-1h5z" fill="#CECECE"/>
<path transform="translate(528,309)" d="m0 0h9l5 3v2h-4v-2h-8l-2 2-5 1-1 2-3-1 1-3z" fill="#CECECE"/>
<path transform="translate(866,1048)" d="m0 0h1v9h-2l1 6-4 2v-7l-3-2 1-4h4z" fill="#CECECE"/>
<path transform="translate(788,1026)" d="m0 0 3 1v4l-2 1-1 7-5 3v-7l-3-1 2-2 3 2 1-4z" fill="#CECECE"/>
<path transform="translate(217,946)" d="m0 0h2l-1 10-2 4-1 3-2-1v-5h-3v-5h2v3l2-2 1-5z" fill="#CECECE"/>
<path transform="translate(564,149)" d="m0 0 3 1-1 5-3 5-7 1v-4l4-2 2-5z" fill="#CECECE"/>
<path transform="translate(791,201)" d="m0 0h3v2l6 3 1-3 4 1v3l-3-1v4l-7-1-3-3-1 2-1-4z" fill="#CECECE"/>
<path transform="translate(864,673)" d="m0 0 5 1 1 3-4 1 1 4-5 1-4-2 1-3h2v-4z" fill="#CFCFCF"/>
<path transform="translate(901,756)" d="m0 0 1 4h-3l1 3-6 2-4 5h-2l-1 2-3-1 4-6 3-1v-2l8-4z" fill="#CECECE"/>
<path transform="translate(730,157)" d="m0 0 3 1-1 3-12 3-4-1-1-4 11-1 3 2z" fill="#CECECE"/>
<path transform="translate(703,137)" d="m0 0h16l5 2 1 4-5-1-1-1h-7l-3-2-5 1z" fill="#CECECE"/>
<path transform="translate(1046,1028)" d="m0 0 4 1v6l-1 1 2 6v4h-3l-2-10h-2l1-7z" fill="#CECECE"/>
<path transform="translate(130,941)" d="m0 0 3 1 3 7-1 4-6 1-2-1v-3h2z" fill="#CECECE"/>
<path transform="translate(137,911)" d="m0 0 4 1 2 2v5l-6 5-3-1 2-5 1-3z" fill="#CECECE"/>
<path transform="translate(148,1072)" d="m0 0h3l-1 17-2 4h4l-1 4-2-1v-2h-2l-2 4-1-6 3-3 2-13h-2z" fill="#FBFBFB"/>
<path transform="translate(186,617)" d="m0 0h2v3h-2v13l-3 1-1-5-2-1v-5h2l1-4z" fill="#CECECE"/>
<path transform="translate(384,989)" d="m0 0h2l1 14-4-2v-2h-2v2l-4-1 2-3h4l-2-6z" fill="#CECECE"/>
<path transform="translate(172,826)" d="m0 0h4v3l3 1-3 7-4-1-2-5z" fill="#CECECE"/>
<path transform="translate(941,770)" d="m0 0 5 3 4-1 2 5h-9l-1 3-5-2z" fill="#FBFBFB"/>
<path transform="translate(1119,895)" d="m0 0 2 2 3 9-1 5-3-2-1-5-3-1 1-6z" fill="#CECECE"/>
<path transform="translate(881,768)" d="m0 0 2 1 2 7-1 1-9-1v-3z" fill="#CECECE"/>
<path transform="translate(910,526)" d="m0 0 3 1-1 4-8 3-4-1 2-4 4-2z" fill="#CECECE"/>
<path transform="translate(875,319)" d="m0 0 4 1v4l1 8-1 2-3-1-1-4z" fill="#CECECE"/>
<path transform="translate(374,290)" d="m0 0h3l-2 10-1 3-1 4-2-1-1-6 1-1v-6z" fill="#CECECE"/>
<path transform="translate(1014,812)" d="m0 0h5l5 7 2 2-4 3-3-3-1-3-4-4z" fill="#FBFBFB"/>
<path transform="translate(375,643)" d="m0 0h7l-3 1 3 6-2 11-3-4 1-3-2-8-2-1z" fill="#FBFBFB"/>
<path transform="translate(381,271)" d="m0 0 3 1-3 10-3 6h-2l1-9 1-5h2z" fill="#CECECE"/>
<path transform="translate(816,1108)" d="m0 0h1v8l2-1 3-6h3l-1 9h-9v-9z" fill="#FBFBFB"/>
<path transform="translate(197,1056)" d="m0 0 5 1-1 4-1 3 1 5-1 2h-2l-1-7-2-2 1-5z" fill="#CECECE"/>
<path transform="translate(812,884)" d="m0 0 4 1 2 3-1 4-2 5h-2l-2-5z" fill="#CECECE"/>
<path transform="translate(224,868)" d="m0 0 2 4v2h-2l-1 5-2 4h-2l-1-2-3-2 4-2 3-7h2z" fill="#FBFBFB"/>
<path transform="translate(851,596)" d="m0 0 4 1 1 4v7l-4 1-2-6 1-4z" fill="#CECECE"/>
<path transform="translate(590,150)" d="m0 0h3l2 2 2 1v3l-9 1-4-4z" fill="#CECECE"/>
<path transform="translate(305,771)" d="m0 0 10 2 3 4-1 2-4 1-3-3-4-2z" fill="#FBFBFB"/>
<path transform="translate(197,771)" d="m0 0h2l-1 4-4 6h-2l-1 3h-3l1-7 7-4z" fill="#CECECE"/>
<path transform="translate(133,992)" d="m0 0 2 2-1 9-3 1-2-1-1-8z" fill="#CECECE"/>
<path transform="translate(1117,974)" d="m0 0 5 1-1 5 2 2-1 4h-4l-1-6z" fill="#CECECE"/>
<path transform="translate(854,884)" d="m0 0 3 1-3 8-4 6h-2l-1 4-2 1 2-6h2l2-10 2-1z" fill="#FBFBFB"/>
<path transform="translate(708,509)" d="m0 0 4 1v2l-4 1v3l-4 1-5-3 3-4h2v2z" fill="#CECECE"/>
<path transform="translate(857,427)" d="m0 0 3 1 2 10-4 1-4 2v-3h2v-9z" fill="#CECECE"/>
<path transform="translate(849,394)" d="m0 0 2 1 1 9-4 2h-3l1-7z" fill="#CECECE"/>
<path transform="translate(408,230)" d="m0 0 3 1v3h-2l-1 4-4 3-2-2 1-5 1-2z" fill="#CECECE"/>
<path transform="translate(828,192)" d="m0 0 9 6h2l3 5v3l-4-2-5-4v-2l-5-2z" fill="#CECECE"/>
<path transform="translate(811,182)" d="m0 0 5 1 9 5v4l-4-2-5-3-4-1z" fill="#CECECE"/>
<path transform="translate(885,324)" d="m0 0 5 2 2 1 1 7-3 1-4-6-3-1v-3z" fill="#CECECE"/>
<path transform="translate(1037,1094)" d="m0 0 3 1 2 10 1 3-3 1-3-5-1-9z" fill="#CECECE"/>
<path transform="translate(823,1020)" d="m0 0h1l1 13-2 6h-2v-4h2v-3l-4-1v-2l3-1v-3l-2-1 1-3z" fill="#FBFBFB"/>
<path transform="translate(855,1095)" d="m0 0h4l-1 12-1 2h-3v-11z" fill="#CECECE"/>
<path transform="translate(373,770)" d="m0 0 9 4 1 6h-5l-2-4-4-2z" fill="#CECECE"/>
<path transform="translate(355,757)" d="m0 0 8 4v2l3-1 2 5-5-1-5-3v-2l-4-1z" fill="#CECECE"/>
<path transform="translate(468,1036)" d="m0 0h3l1 2v6l-1 1h-6l1-7z" fill="#CECECE"/>
<path transform="translate(963,731)" d="m0 0h8l4 1v2l-9 2-5-1z" fill="#FBFBFB"/>
<path transform="translate(1149,1105)" d="m0 0 4 1v9h-4l-3-6v-3z" fill="#CECECE"/>
<path transform="translate(1057,1090)" d="m0 0h2l1 9v12l-3-2z" fill="#CECECE"/>
<path transform="translate(368,603)" d="m0 0 3 1 3 5v9l-3-1-2-5z" fill="#CECECE"/>
<path transform="translate(127,1076)" d="m0 0 3 4-4 1 1 6h-3l-1-4-7-1v-3l5-1 4 1z" fill="#FBFBFB"/>
<path transform="translate(461,960)" d="m0 0 5 4-1 5-1 3-4-1v-10z" fill="#CECECE"/>
<path transform="translate(1027,743)" d="m0 0h2v2l4 1v2l6 2v2l2 1-6 1-3-5-4-1z" fill="#CECECE"/>
<path transform="translate(120,1062)" d="m0 0 1 3 1 7-3 3-3-1v-6z" fill="#FBFBFB"/>
<path transform="translate(156,858)" d="m0 0 4 1 2 10-3 1-3-2 1-5-2-1z" fill="#CECECE"/>
<path transform="translate(468,1067)" d="m0 0 3 1v10l-4-2-1-1v-7z" fill="#CECECE"/>
<path transform="translate(364,584)" d="m0 0 3 1 4 6 4-1 1 5-5-2-1 3-2-3h-3z" fill="#FBFBFB"/>
<path transform="translate(1037,573)" d="m0 0 1 2 5 2 1 2v7l-5 1 2-5 1-2h-3v-4h-3z" fill="#CECECE"/>
<path transform="translate(384,1107)" d="m0 0 8 4v4h-2l-3-3-1 5h-2z" fill="#CECECE"/>
<path transform="translate(121,1031)" d="m0 0 4 2 2 6-7 2v-4-5z" fill="#CECECE"/>
<path transform="translate(859,872)" d="m0 0 3 4-1 6-1 2-3-1 1-4-3-1 2-4z" fill="#FBFBFB"/>
<path transform="translate(788,1065)" d="m0 0h2l3 9v4l-1 5h-2l-1-10-1-2z" fill="#FBFBFB"/>
<path transform="translate(410,658)" d="m0 0h2l1 7-1 2h-2l-1 4-2-1 2-11z" fill="#CECECE"/>
<path transform="translate(1038,1082)" d="m0 0 4 2v3h-3l1 4-3 2-1-1v-9z" fill="#CECECE"/>
<path transform="translate(392,1042)" d="m0 0 2 2-1 1 1 9-3 1-2-5-2-1 1-4h3z" fill="#CECECE"/>
<path transform="translate(375,978)" d="m0 0h3l1 5 5 2v3l-6-1-3-3z" fill="#CECECE"/>
<path transform="translate(228,856)" d="m0 0 4 1 2 3v6l-4 1v-5l-2-3z" fill="#CECECE"/>
<path transform="translate(495,167)" d="m0 0h7l-1 4-5 2-3 1-1-4 3-1z" fill="#CECECE"/>
<path transform="translate(396,1096)" d="m0 0h2v7l-2-1-3 5-3 1 1-4 3-1-2-4z" fill="#CECECE"/>
<path transform="translate(1032,1049)" d="m0 0h3l1 12-4 1z" fill="#CECECE"/>
<path transform="translate(785,1046)" d="m0 0 5 1-1 5-2 2-4-1 1-6z" fill="#CECECE"/>
<path transform="translate(403,606)" d="m0 0 4 1-1 6-1 2h-5l1-5z" fill="#CECECE"/>
<path transform="translate(794,170)" d="m0 0 5 1 9 5 3 4-7-1-1-4-4-1-5-3z" fill="#CECECE"/>
<path transform="translate(168,1116)" d="m0 0 6 1v6h-3-3l-1-6z" fill="#CECECE"/>
<path transform="translate(740,501)" d="m0 0h6l3 3-3 3h-4v-2h-2l-1-3z" fill="#CECECE"/>
<path transform="translate(392,1057)" d="m0 0h3v4l2 1h-2l1 4-3 3-2-7z" fill="#CECECE"/>
<path transform="translate(458,1012)" d="m0 0h4l2 8-1 2-4-1z" fill="#CECECE"/>
<path transform="translate(193,971)" d="m0 0 6 1 3 5 1 3-4 1-2-5-4-2z" fill="#FBFBFB"/>
<path transform="translate(836,952)" d="m0 0h1v7h-2l-3-3-1 5-4-4 2-1v-2l4-1 3 1z" fill="#FBFBFB"/>
<path transform="translate(215,886)" d="m0 0h4l-2 10-1-3h-4l1-5z" fill="#FBFBFB"/>
<path transform="translate(1048,1092)" d="m0 0 3 1v5l3 3-2 1-6-1v-5z" fill="#CECECE"/>
<path transform="translate(859,1067)" d="m0 0 3 2 2 5-2 7-3-1 1-7-2-2z" fill="#CECECE"/>
<path transform="translate(1029,558)" d="m0 0h3v2l3 1v5l-4 1-2-5z" fill="#CECECE"/>
<path transform="translate(475,480)" d="m0 0 5 2 6 2 1 3h-7l-5-4z" fill="#CECECE"/>
<path transform="translate(435,456)" d="m0 0 5 3h6v2l-11 1-1-5z" fill="#CECECE"/>
<path transform="translate(315,1038)" d="m0 0h2l-1 9h2v2h-6l1-8z" fill="#CECECE"/>
<path transform="translate(870,852)" d="m0 0 1 3-5 10-4-2v-2l3-2 3-5z" fill="#FBFBFB"/>
<path transform="translate(385,240)" d="m0 0h2l1 7-3 5-3-1z" fill="#CECECE"/>
<path transform="translate(773,1106)" d="m0 0h4l-2 11h-2l-2-5z" fill="#FBFBFB"/>
<path transform="translate(182,1043)" d="m0 0 2 3-2 4-2 9-3 3v-3l2-9v-3h2z" fill="#FBFBFB"/>
<path transform="translate(387,1017)" d="m0 0h2l3 10-5-1-2-4z" fill="#CECECE"/>
<path transform="translate(254,746)" d="m0 0h3l2 4v3l-5 1-2-6z" fill="#CECECE"/>
<path transform="translate(1052,686)" d="m0 0h2l-1 6-3 6h-3v-3h2v-4h2z" fill="#CECECE"/>
<path transform="translate(395,231)" d="m0 0 1 2-1 5h-3v5l-4-1 2-5 1-2h2z" fill="#CECECE"/>
<path transform="translate(860,222)" d="m0 0 5 5v4 2l-4-2-2-4z" fill="#CECECE"/>
<path transform="translate(664,153)" d="m0 0h4v3h-6l-1 3-4-1v-4h6z" fill="#CECECE"/>
<path transform="translate(776,1075)" d="m0 0h4l1 3-2 2-1 4h-4l1-4z" fill="#CECECE"/>
<path transform="translate(1137,1028)" d="m0 0h2l-1 10h-4l1-7z" fill="#CECECE"/>
<path transform="translate(402,919)" d="m0 0 3 3 2 4-1 5-3-3-2-5z" fill="#FBFBFB"/>
<path transform="translate(417,825)" d="m0 0 5 5 3 6-1 3-3-1v-6l-3-1z" fill="#CECECE"/>
<path transform="translate(725,309)" d="m0 0h9l4 4h-4l-5-1h-5z" fill="#CECECE"/>
<path transform="translate(393,1071)" d="m0 0 3 1 2 4-1 5-3-4v-2h-4l1-3z" fill="#CECECE"/>
<path transform="translate(468,1066)" d="m0 0 7 1 2 4-4 1-1 5h-1l-1-9z" fill="#FBFBFB"/>
<path transform="translate(378 1e3)" d="m0 0h1l1 11-2-1v-2h-3v-6z" fill="#CECECE"/>
<path transform="translate(884,842)" d="m0 0 6 2-6 8h-1z" fill="#FBFBFB"/>
<path transform="translate(832,834)" d="m0 0h4l-1 5-5 1v3h-2l1-4z" fill="#CECECE"/>
<path transform="translate(902,814)" d="m0 0 4 1v4l-5 1-1 5-2-4 2-2z" fill="#FBFBFB"/>
<path transform="translate(1021,528)" d="m0 0 4 1 2 4 4 1 1 4-3 1-1-5h-3l-4-4z" fill="#CECECE"/>
<path transform="translate(754,496)" d="m0 0 6 2-4 5-4-1 1-5z" fill="#CECECE"/>
<path transform="translate(634,149)" d="m0 0 8 1v3l-9 1v-3z" fill="#CECECE"/>
<path transform="translate(439,1087)" d="m0 0 3 1-1 7h3v3l-4 1-2-10z" fill="#FBFBFB"/>
<path transform="translate(1032 1e3)" d="m0 0h5l1 5-5-1h-4l1-3z" fill="#CECECE"/>
<path transform="translate(208,991)" d="m0 0h2l1 7-2 5-2-2v-9z" fill="#CECECE"/>
<path transform="translate(317,741)" d="m0 0h5l3 4-1 1h-6l-2-4z" fill="#CECECE"/>
<path transform="translate(917,547)" d="m0 0h5l-1 3-6 3h-4v-2z" fill="#FBFBFB"/>
<path transform="translate(509,170)" d="m0 0h5l-1 4h-5l-4 1v-4z" fill="#CECECE"/>
<path transform="translate(692,134)" d="m0 0h10l-1 3-9 1z" fill="#CECECE"/>
<path transform="translate(196,1080)" d="m0 0 1 3 1 6-1 2h-2l-3-6z" fill="#CECECE"/>
<path transform="translate(321 1e3)" d="m0 0h5l1 6h-6l-1-5z" fill="#CECECE"/>
<path transform="translate(319,990)" d="m0 0 4 2-1 5 3 1-1 3-4-1-2-8z" fill="#CECECE"/>
<path transform="translate(116,964)" d="m0 0 2 1v10l-2 2-1-1v-10z" fill="#CECECE"/>
<path transform="translate(182,815)" d="m0 0h4l-1 4-5 3h-4v-2l4-1z" fill="#CECECE"/>
<path transform="translate(320,753)" d="m0 0 4 1 1 6-4 1-2-3z" fill="#CECECE"/>
<path transform="translate(401,429)" d="m0 0 7 1 1 4-4 1-4-2z" fill="#CECECE"/>
<path transform="translate(649,345)" d="m0 0h2l-2 5-4 2-5-4v-2h3v2h4z" fill="#CECECE"/>
<path transform="translate(433,204)" d="m0 0h1v8l-3 2-2-2 1-5h2z" fill="#CECECE"/>
<path transform="translate(453,176)" d="m0 0 1 2-1 3-4 2h-4v-2h2l2-4z" fill="#CECECE"/>
<path transform="translate(389,1029)" d="m0 0 3 3v8l-4-1 1-5-1-4z" fill="#CECECE"/>
<path transform="translate(922,779)" d="m0 0 3 3v2l-5 1-1 2-4-1v-3l5-1z" fill="#FBFBFB"/>
<path transform="translate(229,553)" d="m0 0 4 1-3 6-4 1 1-5z" fill="#CECECE"/>
<path transform="translate(370,381)" d="m0 0 3 1 1 6h2v6h-2l-1-7h-2z" fill="#FBFBFB"/>
<path transform="translate(727,142)" d="m0 0 10 1 3 3-5 1-2-1v-2h-6z" fill="#CECECE"/>
<path transform="translate(802,956)" d="m0 0 4 1 1 4-1 2-6-1v-2h3z" fill="#CECECE"/>
<path transform="translate(1054,798)" d="m0 0 4 3v4l-5-1-1-5z" fill="#CECECE"/>
<path transform="translate(862,598)" d="m0 0 3 1v5l-3 3-2-4 1-4z" fill="#CECECE"/>
<path transform="translate(419,215)" d="m0 0 4 1 1 5-3 1-3-2z" fill="#CECECE"/>
<path transform="translate(1124,1093)" d="m0 0 8 2-2 4-5-1-2 1v-5z" fill="#FBFBFB"/>
<path transform="translate(858,1083)" d="m0 0h3v10l-3-1-1-8z" fill="#CECECE"/>
<path transform="translate(818,932)" d="m0 0 2 3v9h-3l-1-6z" fill="#CECECE"/>
<path transform="translate(1103,887)" d="m0 0 3 3v7h-3l-1-4v-5z" fill="#CECECE"/>
<path transform="translate(200,792)" d="m0 0 3 1 2 9h-3l-2-5-1-4z" fill="#CECECE"/>
<path transform="translate(847,676)" d="m0 0 6 2 1 3-6 2z" fill="#CECECE"/>
<path transform="translate(319,1059)" d="m0 0 5 5-1 5-4-4z" fill="#CECECE"/>
<path transform="translate(376,1022)" d="m0 0 5 1 2 3h-3l-5 1-1-2z" fill="#CECECE"/>
<path transform="translate(134,979)" d="m0 0h3l-1 8h-4l1-7z" fill="#CECECE"/>
<path transform="translate(135,926)" d="m0 0 2 2v5l-2 4-4-1z" fill="#CECECE"/>
<path transform="translate(312,752)" d="m0 0 4 1-1 4h-5l-1-4z" fill="#CECECE"/>
<path transform="translate(1044,590)" d="m0 0h7l-1 4-6 1z" fill="#CECECE"/>
<path transform="translate(210,577)" d="m0 0h4l-1 4-2 2-4-1 2-4z" fill="#CECECE"/>
<path transform="translate(912,534)" d="m0 0h4l-2 5-5 1 1-5z" fill="#CECECE"/>
<path transform="translate(391,395)" d="m0 0h4v3l3 1 1 4-4-1v-3l-4-1z" fill="#CECECE"/>
<path transform="translate(384,1095)" d="m0 0 3 1 1 8-4-1-1-7z" fill="#CECECE"/>
<path transform="translate(773,1034)" d="m0 0 4 2-1 3h-2l-1 4h-2l1-8z" fill="#CECECE"/>
<path transform="translate(323,1033)" d="m0 0 2 1v5l-3 1v-2h-4l1-3h4z" fill="#CECECE"/>
<path transform="translate(325,1021)" d="m0 0h3l1 5-2 4h-2z" fill="#CECECE"/>
<path transform="translate(826 1e3)" d="m0 0 2 2v6l-3 1-2-2 2-6z" fill="#FBFBFB"/>
<path transform="translate(175,908)" d="m0 0h1v8l-2 8-3-2 1-4 2-4z" fill="#FBFBFB"/>
<path transform="translate(430,901)" d="m0 0 3 4v2l-5 1-1-5z" fill="#CECECE"/>
<path transform="translate(825,895)" d="m0 0 4 1v2h2v3h-5l-1-1z" fill="#CECECE"/>
<path transform="translate(426,841)" d="m0 0h2v2h2l2 8-4-1z" fill="#CECECE"/>
<path transform="translate(1075,807)" d="m0 0 3 3 1 4h-4l-2-4z" fill="#CECECE"/>
<path transform="translate(1068,808)" d="m0 0 3 1v6l-4 1v-6z" fill="#CECECE"/>
<path transform="translate(1038,710)" d="m0 0h3l-2 5-5 3v-5l4-1z" fill="#CECECE"/>
<path transform="translate(518,580)" d="m0 0h8l1 3-5 1-4-2z" fill="#CECECE"/>
<path transform="translate(770,1076)" d="m0 0h2l-1 10h-3l1-9z" fill="#CECECE"/>
<path transform="translate(767,1030)" d="m0 0 3 3-1 5-3 1v-7z" fill="#CECECE"/>
<path transform="translate(320,1016)" d="m0 0h6v4l-7 1z" fill="#CECECE"/>
<path transform="translate(383 1e3)" d="m0 0h3l-1 6-2 2-2-4v-3z" fill="#CECECE"/>
<path transform="translate(1106,965)" d="m0 0h5v6l-4-1z" fill="#CECECE"/>
<path transform="translate(1056,962)" d="m0 0 5 1v4l-2 1-4-3z" fill="#CECECE"/>
<path transform="translate(1053,808)" d="m0 0 5 1v5l-5-1z" fill="#CECECE"/>
<path transform="translate(261,746)" d="m0 0 6 3v2l-5 2-1-1z" fill="#CECECE"/>
<path transform="translate(1017,686)" d="m0 0 2 2-3 3h-2l1 6-3-3 1-4z" fill="#FBFBFB"/>
<path transform="translate(1034,629)" d="m0 0h1l1 5v7l-3-2v-9z" fill="#FBFBFB"/>
<path transform="translate(763,492)" d="m0 0 4 1-2 4-5 1 1-4z" fill="#CECECE"/>
<path transform="translate(815,459)" d="m0 0h4l-1 4-2 4-3-4z" fill="#CECECE"/>
<path transform="translate(542,155)" d="m0 0 4 1-2 7h-4z" fill="#CECECE"/>
<path transform="translate(539,150)" d="m0 0 4 1 1 3-7 1v-4z" fill="#CECECE"/>
<path transform="translate(180,1121)" d="m0 0 3 1-2 5h-4l1-4z" fill="#CECECE"/>
<path transform="translate(1149,1117)" d="m0 0 4 1v6l-2 2v-4h-3z" fill="#CECECE"/>
<path transform="translate(174,1099)" d="m0 0 5 3 1 3-4 1-2-1z" fill="#FBFBFB"/>
<path transform="translate(786,1078)" d="m0 0 2 4 2 2-1 3h-4z" fill="#FBFBFB"/>
<path transform="translate(776,1015)" d="m0 0h3l-1 9-3-1v-7z" fill="#CECECE"/>
<path transform="translate(869,996)" d="m0 0h3l-1 8h-4l1-6z" fill="#CECECE"/>
<path transform="translate(808,926)" d="m0 0 4 1-1 5h-4v-5z" fill="#CECECE"/>
<path transform="translate(805,891)" d="m0 0 3 3-5 5-1-4z" fill="#CECECE"/>
<path transform="translate(1033,845)" d="m0 0 3 1 1 2 3 1-1 3-3 1-1-4h-2z" fill="#FBFBFB"/>
<path transform="translate(877,710)" d="m0 0 3 4-1 3-5-2 1-4z" fill="#CECECE"/>
<path transform="translate(189,631)" d="m0 0 3 1v3h2l-1 4-3-1z" fill="#CECECE"/>
<path transform="translate(551,345)" d="m0 0h2l-2 5-3 1-1 3h-2v-2h2l1-5h3z" fill="#CECECE"/>
<path transform="translate(615,315)" d="m0 0h3l-1 4-6 2 1-5z" fill="#CECECE"/>
<path transform="translate(746,168)" d="m0 0h8l1 3-7 1z" fill="#CECECE"/>
<path transform="translate(526,164)" d="m0 0h7v3l-7 1z" fill="#CECECE"/>
<path transform="translate(698,147)" d="m0 0 5 1v4l-5-1z" fill="#CECECE"/>
</svg>
