<?xml version="1.0" encoding="UTF-8"?>
<svg version="1.1" viewBox="0 0 1254 1254" width="1254" height="1254" xmlns="http://www.w3.org/2000/svg">
<path transform="translate(0)" d="m0 0h1254v1254h-1254z" fill="#272727"/>
<path transform="translate(511,153)" d="m0 0h7l11 1h8l1 2 2-2 5 1 6 3 5-1 5 2 1-2 4 1 4 4h2l1-3 9 1 4 2h5l2 3 8 1 5 1 6 1 4 1 1 3h5l5 3 9 3 5 3h2l1 3 4-1 2 4 4-1v2h4l1 3 5-1 1 3 5 1 4 4 5 1 1 1v5l5-2 1 4 5 1v3l4-1 2 3h3l3 5h4v3h3l1 3 6 3 2 3 4 1 1 3h3l-1 3 6 1 1 2h-2v3h6l3 3 1 3h3l2 4 4 1 3 5 4 3 1 3 4 1 1 7 5 1 1 3 4 4v2h3l2 3-1 7h2l1-2 2 5 2 1 1 8h4l1 4 4 4v4l3 1v3h-2v2l4-1 1 1v5h3l2 4v5h3l4 12 3 4v3l-1 1 1 4 2 1-1 5 4 1 2 2 2 8 2 10h2l3 9 1 5-1 3 2 1h-2v3l3 1v8l2 2 1 11v6 2l3 1v9l2 4v3 12l-1 3 2 2v5l-3 2v2l3 1 1 8-1 4v3 13l-4-1 2 7 2 3-2 7-3 5v9l-1 4h-2v2h2l-1 7h-2l1 4-2 1 1 6h-2l-1 5-1 3 1 2h-2l1 7-3 1 2 1-1 8-3 1v2h2l-1 8-3 2 1 4-4 4-1-3v3l-1 4h-4v2h2v2h-3l1 6-2 4-1-1-1 7-5 2-1 2 4 1-1 3-4-1 1 8-6 1 1 2v6l-1 2-3 1v4h-2l-1 5-3 1v3h-2l-1 3-1 4-2 3-4 1-2 8h-4l1 2-4 4-1 3-4 3v3l-4 1 1 3h-2l-3 6h-2l-2 5h-2l-2 4-4 5-9 8-4 2-4 4-4 1-1 3h-3v2l-4 3h-4l-2 4h-2v2l-6 2-1-3h-3l3 4-6 3-2 2-1 3-4 2h-4v2l-9 3v2l-6 1-4 4-5 2-1-1-2 3-8 1-2 4h-3v-3l-2 1v4h-3l-2 3-6 1-2-1v3l-4-1-1 3-6 3-9 3-1-3v3h-4v2h-4v2l-5-1v2l-6-2v-2h-3v2l2 1v3h-6v2h-5v2l-4-2-1 2h-7v2h-3v-2l-4 2h-7l-1 2-7-2-3 1-7-1-1-2h-2l-3 4h-3v2l-2-1 1-2-7 1-1 3-4-1v-2h-3v2l-4-1-4 2-1-3-8 1-4-1v2h-5l-2-3-13-1-3-2-1 4-5-1-2-2-4-2-4 2-3-3-3 1-2-1v-2l-7 1-8-3-8-2-3-3-5 1v-3h-8l-3-1-4-1v-2l-9-2-10-6-8-4-1-2-8-3-5-4-3 1-3-2-1-3-4-1v-3h-5l-4-4-7-2-7-3v-2l-4 1-3-2v-4h-5l-1-3-7-3-5-3-2-4-4-2-1-3-6-3 2-1-4-4h-4l1-4-4-1v-3l-5-2v-2l-4-2 1-3h-3l-1-6h-6l-1-5h2l-2-1v-2l-5-1 1-5-5-2-3-1 2-5h-2l-1 3-3-3-1-5-4-1-1-6-2-1-2-4-3-2-1-5-4-1v-8h-4l1-5-6-2v-3l2-1-2-4-4-3-1-5-3-2-1-7-1-3 1-3-3 1-3-5v-3h2v-2l-4-1v-2h3l-1-2-3-1v-3-1h-2l1-9-1-3-3 2-2-4v-4h4l1-2-4-1-4-4v-4h2l-5-15v-6-2l-2-5 4-2-2-3h-2l-1-9 3-1v-2h-3l1-3-2-1 1-7-2-3 3-5 4-4h-3l-4-1v-5l-1-1v-7l3-7-1-4v-14l5-2-1-3-3-1 1-3 1-1-1-7 3-1-1-6h2l-1-4 2-5h-2v-7l1-3 1-4 2-2 4 2-1-5h2l-1-6 2-4h-2v-3l2-1 1-3 3 1 1-9-1-3 2-6h2l2-7 1-4h2l-1-4h3l1-8 3-6h2l1 2 3-4v-2l-3-1 1-3h3l-1-6 4-3h2l-1-4h3l2-11 2-2 3-1-1-4 2-3 4 1-1-5h2l2-4 1-4h2l4-8 7-4 1-3h4v-4h3l1-7 5-2 2-2v-4l4-3h3v-4h3v-3h4l1-6h4v-3h2v-2h3l2-6h5l3-6 4-3 1-3 10-3 1-3h4v-3h3v-3h3l1-3 6-1 2 1-1-4 6-3 3-1v-2h3v-2l5-1 2-2 5-1v-2l7-2 1-2h4v-2l5-2 4-3 6 1 1-3 10-3 7-2 1 1 2-4h6 2v-3h7v2l4-2h3l2-4h4v-2h8l5 1 9-2v-2l5 1 1-2h7 3l3-1 16-1 4-1h12l2 1z" fill="#272727"/>
<path transform="translate(511,153)" d="m0 0h7l11 1h8l1 2 2-2 5 1 6 3 5-1 5 2 1-2 4 1 4 4h2l1-3 9 1 4 2h5l2 3 8 1 5 1 6 1 4 1 1 3h5l5 3 9 3 5 3h2l1 3 4-1 2 4 4-1v2h4l1 3 5-1 1 3 5 1 4 4 5 1 1 1v5l5-2 1 4 5 1v3l4-1 2 3h3l3 5h4v3h3l1 3 6 3 2 3 4 1 1 3h3l-1 3 6 1 1 2h-2v3h6l3 3 1 3h3l2 4 4 1 3 5 4 3 1 3 4 1 1 7 5 1 1 3 4 4v2h3l2 3-1 7h2l1-2 2 5 2 1 1 8h4l1 4 4 4v4l3 1v3h-2v2l4-1 1 1v5h3l2 4v5h3l4 12 3 4v3l-1 1 1 4 2 1-1 5 4 1 2 2 2 8 2 10h2l3 9 1 5-1 3 2 1h-2v3l3 1v8l2 2 1 11v6 2l3 1v9l2 4v3 12l-1 3 2 2v5l-3 2v2l3 1 1 8-1 4v3 13l-4-1 2 7 2 3-2 7-3 5v9l-1 4h-2v2h2l-1 7h-2l1 4-2 1 1 6h-2l-1 5-1 3 1 2h-2l1 7-3 1 2 1-1 8-3 1v2h2l-1 8-3 2 1 4-4 4-1-3v3l-1 4h-4v2h2v2h-3l1 6-2 4-1-1-1 7-5 2-1 2 4 1-1 3-4-1 1 8-6 1 1 2v6l-1 2-3 1v4h-2l-1 5-3 1v3h-2l-1 3-1 4-2 3-4 1-2 8h-4l1 2-4 4-1 3-4 3v3l-4 1 1 3h-2l-3 6h-2l-2 5h-2l-2 4-4 5-9 8-4 2-4 4-4 1-1 3h-3v2l-4 3h-4l-2 4h-2v2l-6 2-1-3h-3l3 4-6 3-2 2-1 3-4 2h-4v2l-9 3v2l-6 1-4 4-5 2-1-1-2 3-8 1-2 4h-3v-3l-2 1v4h-3l-2 3-6 1-2-1v3l-4-1-1 3-6 3-9 3-1-3v3h-4v2h-4v2l-5-1v2l-6-2v-2h-3v2l2 1v3h-6v2h-5v2l-4-2-1 2h-7v2h-3v-2l-4 2h-7l-1 2-7-2-3 1-7-1-1-2h-2l-3 4h-3v2l-2-1 1-2-7 1-1 3-4-1v-2h-3v2l-4-1-4 2-1-3-8 1-4-1v2h-5l-2-3-13-1-3-2-1 4-5-1-2-2-4-2-4 2-3-3-3 1-2-1v-2l-7 1-8-3-8-2-3-3-5 1v-3h-8l-3-1-4-1v-2l-9-2-10-6-8-4-1-2-8-3-5-4-3 1-3-2-1-3-4-1v-3h-5l-4-4-7-2-7-3v-2l-4 1-3-2v-4h-5l-1-3-7-3-5-3-2-4-4-2-1-3-6-3 2-1-4-4h-4l1-4-4-1v-3l-5-2v-2l-4-2 1-3h-3l-1-6h-6l-1-5h2l-2-1v-2l-5-1 1-5-5-2-3-1 2-5h-2l-1 3-3-3-1-5-4-1-1-6-2-1-2-4-3-2-1-5-4-1v-8h-4l1-5-6-2v-3l2-1-2-4-4-3-1-5-3-2-1-7-1-3 1-3-3 1-3-5v-3h2v-2l-4-1v-2h3l-1-2-3-1v-3-1h-2l1-9-1-3-3 2-2-4v-4h4l1-2-4-1-4-4v-4h2l-5-15v-6-2l-2-5 4-2-2-3h-2l-1-9 3-1v-2h-3l1-3-2-1 1-7-2-3 3-5 4-4h-3l-4-1v-5l-1-1v-7l3-7-1-4v-14l5-2-1-3-3-1 1-3 1-1-1-7 3-1-1-6h2l-1-4 2-5h-2v-7l1-3 1-4 2-2 4 2-1-5h2l-1-6 2-4h-2v-3l2-1 1-3 3 1 1-9-1-3 2-6h2l2-7 1-4h2l-1-4h3l1-8 3-6h2l1 2 3-4v-2l-3-1 1-3h3l-1-6 4-3h2l-1-4h3l2-11 2-2 3-1-1-4 2-3 4 1-1-5h2l2-4 1-4h2l4-8 7-4 1-3h4v-4h3l1-7 5-2 2-2v-4l4-3h3v-4h3v-3h4l1-6h4v-3h2v-2h3l2-6h5l3-6 4-3 1-3 10-3 1-3h4v-3h3v-3h3l1-3 6-1 2 1-1-4 6-3 3-1v-2h3v-2l5-1 2-2 5-1v-2l7-2 1-2h4v-2l5-2 4-3 6 1 1-3 10-3 7-2 1 1 2-4h6 2v-3h7v2l4-2h3l2-4h4v-2h8l5 1 9-2v-2l5 1 1-2h7 3l3-1 16-1 4-1h12l2 1zm11 54-10 1-2 1v2l-3 1v2l-4-1-4-5h-5l-3 1-4-1v2h-5l-2 1-4-1v-2h-2v2l-3 1 3 1-2 3-3-3-6 1-4 2-1-2-1 2-9-1-5 2-2 7h-2v-2l-10 1h-7v4l-6-1-1 4-8 1-1 3h-3v2l-9 1-1 4h-2v2l-11-2-1 3-6 3v2l-4 2-4 1-1 6 1 3-4 1-4 2-1-4 4-1v-4l-5 2-11 7-2 1v3l-3-1v2l-3 1-1 4h-3l1 4h-3v2l-4-1-2 5-2 1-1 4-6 4v2l-3-1-2 2-2-1v3l2 2-5 1v3h-2v2l-2 1v3l-4-2 1 4-4-2 1 5-5 1v3l-2 1h2v2l-4 1-1 2-5 3v4l-5 5 1 4-4-1-1 5-2 1-1 4h-2l-3 7v3l1 1-4 4-2 3v3l-3 1 1 4-4 1 2 4-4 1v2l-4 2 2 2 3 1v2l-4 2-4 4 2 5-3 1 2 1v2h-2l1 6-3 1v-3h-2l-2 9 1 4h-3l1 6-4 4v11l2 3-5 2v2h2l-1 10h-2v2h2v2h-3l-1 9 1 5v2l-3 3 1 9-1 5v4 5l-1 2 2 1v3h-2l1 4 2 5-2 1v2l2 2 1 9 1 5-2 6 4 4 1 3h-2l-1 5 3 6v4l6-1-1 2-4 1 2 10-2 1v2l4 1 1 8 4 8 1 4h2l-1 7h4v5l2 1-2 3 4 1 2 10h5l2-6-3-2-3-1v-3l5-1 4 2-1 7 4 1v3h-2v2h3v3h3v6l2 2-2 1-4-2-3 2v4h2l-1 4 5 4 3-2 1-6 3 1 1 3-3 1v3h3l-2 4-2 1v2l6 5v3l3 1 1 4 2 1 1 3 5-2 1-3 3 3 2 4 4 1v4h3l-2 10 3 4h3l-1-4-2-6 2 1 1 2 5 1 2 8 6-1v3h4v4l3 2v6h2l1-2 3-1 1 3h2l-1 3 4 1v2l3 1 2 6 7-1 3 5 7-1 1 8 3-1v-2l5 5 1 4h9l3 6 7 2 4-1 3 2-1 2 5 2 12 3 1 4h3v-2l4 3h5l1 3 1-2 3 2h7l2 2 8 2 1-3 4 1 1 2h6l11 3 1 2 7 1 1-3 3 2 1-1 9-1 1 3 9-2v2h3v-2l6 2h3l2-1 1 2 4-1 4-2 1 2 7-1 1-2 1 2 6 1 3-1h6v-5h2v2l9-2v-2l7 1 1-5 2 1 2 3 5-2 4 1-1-4 3-2 2 3 4-1 4-4v5h2l2-5h5l3-2 1 3 3-3v-1h2v-2h-2v-2l3 1 2 2 4-5 3-1 3 1 2-1-1-4 7-1 2-1v-4h4v2l5-1 2-3-2-2 5-4-1 5 4 1 2-4 8-4 4-4 5 2 1-2-1-3h4l2-3 2 2-1-5 5-1 3-1 2-5 4-2 7-10h2l1 2h2v-4l2-1-2-3h5v-5l7-3-1-4h3v-2h2v-3h3v-2h4l-1-3h-2l1-2 4 1-1-4 3-1 1-2h2l2-3v-4h2v-3h2l5-6 4-7v-3l4 1 1-2-1-4 1-1v-5h2l3-3 2-4 2 1v-3h-2l2-7v-4h3l1-5 2-1 1-5 1-2h-2v-2h3l1-5 1-3h2v-7l3-1-1-7 4-3-2-1 1-4 3-5v-9-3l1-4 1-7v-7l2-1v-7-3l-1-2 2-1 1-4v-3-10l1-2-2-6v-5l2-1-1-5v-4l1-5-2-3v-12h-2v-5h4l-2-4h-4l1-7v-3-2l-2-2 1-3-2-2 1-2-2-1v-6l1-2h-3l2-4-3-1-1-6h-2v-5l2-1-4-6-3-3-4 1v-3l4-1v-5l-5-5h2l-1-4-3-1-1-9-2-3-3-9-3-5-1-4h-3l-1-4-2-1-1-5-2-2v-2l-5-4-4-7-5-7h-2l-1-4-5-3-5-6-4 1-3 3 4-6-8-10-5-3-3-1v-3l-3-1-4-4h-3l-1-4-9-5-1-4-8-4-4-3-6-2-3-3-5-3-2-2-4-1-8-5-5-2-6 1-1-3-1 1v-5l-3 1-9-3-5-1v4h-2l-1-4h-5l1-6-2-1v4l-6-3-1 3 1 2-2-1-2-4h-4l-4-1v-2l-10-2h-5v3l-5-2-1-2-10 1-3 1v-2l3-1-3-4-6 1-5-2-2-1-4 3-5-1-2 1v-3z" fill="#969696"/>
<path transform="translate(855,779)" d="m0 0 9 3v3l5 3 2 4 5 4v3h3v3l5 2 3 3-1 6h6l2 1v3l4 1 3 2v4h5v3l5 2 4 5 3 2v3l3 1 7 7v3l6 3v4h4l4 5v2h2l1 4h4v3l5 2 5 5 3 2 1 4 4 1v3l4 1v2l4 2 2 2v4l5 1 2 2v3h2l1 2 4 2v2l4 1v4l4 1 4 4v2h3v4l5 1v3l4 2 7 8 5 5 2 4h3l7 8 5 5 8 7 4 4v2h3v3l4 1 4 7 5 3 7 10-1 3h-3l1 4h-2l1 7h2v-3h3l-2-4 1-3 3 3 5 12-1 12v2h-2l1 4v4l-3 3v6l-3 3-5-1-1 4h-2l1 4-5 1-2-1 1 4-3 1v3l-4 4-1 3h-2l-1 3-4 2v2h-2v2l-4 1-3 1-1 4-3-1-1 3-10 4-5 1-4 1h-10l-7-3-1-3-5-1-2-4-3 1-4-2v-4h-2l-4-4-3-2-1-6 2-1-7-5 2 5h-3l-5-5-3-2-4-7-5-1-1-3h2v-2h-2l-1-2h-4v-3h-4l-1-5-6-4v-3l-8-4 1-4h-4v-3l-4-1-3-2v-2h-2v-6l-7-1-1-5 1-2-5-1v-2l-4-1-1-4-3-1-1-2-3-1-3-3-1-5-4 1-3-6-3-1-4-4v-5l-4 1-1-3-4-1-2-3 3-1-3-3-4-2-4-5-5-3-2-4-4-2-3-3 1-4-6-2-4-4 5 1-1-2h-5l-1-2-3-1 1-4-9-4v-5l-4-2h-3l-1-3h-2l-1-5-4-1v-2l-3-1-1-4-4-1-6-6h-2l1-5-4 1-4-5v-1l-4-1-2-4-3-3v-6h2l1-3h2l1-2 2-1 1-3h2l2-4 2-1-2-4h-2l1-3 5 4h3l2-6 5-5 4-6h6l1-5 4-1 1-4 4-1v-3l5-1 1-6 8-2 1-5 4-1-3-4v-3h3v-2h2l2 3h2l2-6 4-1v-5l2-1v2h2z" fill="#949494"/>
<path transform="translate(829,829)" d="m0 0h5l-1 6 4-1-1 5 4 2-1 5h3v2l-4 1v3l5 1-1 5 8 1 3 1 1-2 4 2 1 3 5 1 1 3 5 2v4l-1 4h3l1-3 1 3 5-1 1 5 4 1v2l4 1 2 2 2 4 1-3 4 1v5l2 1v-3h4l-1 6 4 3 6 2 3 2 1 3 5 1-1 4 5 1 8 9 3 3-1 2-4-2v-2h-3l-1-3-1 2-3-1-1-2-3-1 3 5 5 3 2 5 5 2 3 3 4 1v3h3l2 3h4l-2 1v3h5l4 5 3 1v2l4-1 1 2v3l6 3 1 3 5 1 2 2v3l7-1 2-2v-6l-4-1-2-1 1-4-5-4-4-5 1-2h-3v-4h-3v-3l-3-1-3-5-4-3-2-4-4-4v-2l-4-1-1-3-6-3 1-5-4-1 2-4h-3l-3-3v-5l-4-2v-2h-2l1-3 6 1 1 4 5 2 2 3 3 1v3h2v2h3l2 3 2 4h3v3h4v3h3l3 3 1 4 3 1v3h4l6 8 6 5 3 3-2-6 5 1 2 2-1 5-3 1-4 4v7l5-2 3 2v-2l5 1h9l2 4-1 2 4 1 4 4 4 1 1 4 4 3h2l4 7 3 1 1 4h2v2h2v2h2v2h3l3 5 3 3 6 7 5 4v8l2 6-1 8-3 6-2 5h-2l-1 3-2 1-1 3-5 3-3 4h-2l-1 3-7 3-6 5-2 3h-2l-1 2-8 1-8 2-1-3h-3v-2l-3-1-5-4-6-5-2-2-1-2h-3l-2-6h-3l-1-3-3-1v-4h-3l-1-5-4-1-1 2v-3l-1-2-4-2-1-2-1-4-2-1v-3l-6-2-1-3-5-5-4-2v-3l-4-1-1-5-7-3v-3l-3-1-1-2-3-1v-4l-3-1 1-2h-3v-2l-3-1-1-2-5-3-1-3-2-1v-4l-7-3v-4l-3-1-2-4-5-5v-2l-4-2-1-3-4-1 1-7-5 3-3-5-4-1-3-6-5-3-2-2v-4h-3l-1-2-3-1v-4l-4-1v-3l8-3 5 5 4 5 4 4 3 1v3l3 1v3h4v5l3 1-1 3h4v4l2 1v2l4-2 2 4 6 4 5 7v3l7-1-1 4-1 2 4-1 4 4 2 7h3v-2l3 1v2h-2l1 2 2-1 1 3 3 1h-2v2l4 1 1 2h5v3h2l2 5v3h3v-4h2v5l4 2 4 5h2v-3h2l-1-5h-3v2h-2l-2-6-3-1 3-1v-5l-1 3-3-1 1-2h-3l-1 4-2-4v-3l-3-3v-2h-2l-2-6-4 2-2-5-2-1v-2l-3-1-2-3h-4l2-3-1-3h-4l-1-5-8-6-3-5-5-5-5-4-1-3-4-2-4-4-2-1v-3l-5-2v-3l-5-4-8-7h-3l-2-1 2-4h-2l-1-4-4 1v2l-3-1 2-6h-2l-1-2-5-2-3-5v-6l-5 1-2-4-2-1v-2l-2-1-1-2h-2l2-5h4v3h3l2 5 7 5h2l1 6h7l1 2h-3l10 10 5 2v3l4 1 1 4 6 1v-2l-5-4-5-6-5-4v-4l-5 1v-6h-4l-2-3-4-5-6-4-6-8v-2l-3-1-1-4-7 2 2 4-1 3-6-1-2 4v5l5 2 1 5 4 9v2h2l-1-3 5 2v4h4v3h5l-1 4 2 1 5 5 2 1v2l-6 2h-4v-2l1-1-4-1-4-3v-3h-3l1-4-5-1-1-2 1-3h-2v-4h-2l-2 4-4-5-3-3-4-1 1-2h-2l1-4-4-1-1-3-4-1v-3h-3l-2-4 4-6 5-2 3-5 3 1v2h-2l2 2 3-9h3l1-5 2-1 1-3 3-1z" fill="#282828"/>
<path transform="translate(408,368)" d="m0 0 3 1-1 4 3-2 4 1 1 21-1 2h2l1 10v4l3 2 2 9v5l-2 2 1 4h3l4 5v2l4 2v2l7 2 4 2 8 1 7 2v2l9-1 6 2 7 2 3 2 4-2 4 3 3-1-1 4 1 4-8-2-1 3-5-1-4 4h-9l-7 2-6 2h-6l-3 2h-3-4l-2 6h-4l-1-3-1 1-1 7-5 8-3 4 2 1v4l-2 5-1 1v8l-3 1 1 7-1 5-2 11-1 11-4 1-3-1-1 5h-2l-1-5 3-1v-2l-4-1 1-6-3-1 3-6h-3l-1-6v-3l-2-7 1-3v-4l-1-4 1-5-3-2v-6l-7-6v-4l-2-1v-3l-4 1 1-4-7-1-8-4-12-2-5-1-17-3-6-2-8-1 1-7 3-1 2 1-1 3h1l2-4 8-1 2-2h13v-2l7-1 3-1 5 1v-2l4-1 3 1v-2l6-2 4-2 2 4 9 2v-2l4-1-1-5-3 2-1 3h-2v2l-5-2-2-4 1-6h5l1-9 2-3h2l-1-6h2v-9l1-5 3-11 1-10 2-4v-7z" fill="#959595"/>
<path transform="translate(773,725)" d="m0 0h7l-1 7 5-1 4 3v2h-2v2l5-1 1 5 5 1 1 5h3v4l3 3 9-2-3-2 2-4 4 2 3 2v3l2 1 1 6 4 4v2h-3v3l2 1 2 6-4-1v3l-2 1 2 2-1 4h-3v-4h-2v-3h-6l-3 3-1 3h-2l-1 4h-3l-2 6-3-1-1 3-3-1v5l-4-1-1 4-4 1v3h-4v3h-2v3h-3l-2 5-1 3 3 2-1 3h-3v2l-3-1-4 4h-5l-1-1-1 3-7-1v-2h-3l-1-4-4-3v-3h3v-2h2l-1-2-3-1-2-3h-2l-2-3-1-2v-1l-3-1v-2l-3-1v-2h3v-3l-8-1 1-4-1-2-4 2-2-4-1-5h-5l1-5 4-1 5-6 4 1 3 5 5 1-1-5h2v-3h2l2 4-1 5h-2v5l4 1v2l4 1h2 2v-2l2-1-2-4v-3l4-2v-7l-4 2v5l-4-2v-2h-5l-1-4 1-2 2-2h3v2l3-2-1-2h3l-1-5 4-1 1-3 3-2 1-4 4-2h3l1-5 3-1-2-4 1-5 5-5z" fill="#959595"/>
<path transform="translate(493,182)" d="m0 0h7l4 1 2 3 6 1v-2h9l5-1 3 1v-3h6v3l6-1h8l1 2 7 2 1-2h4l5 5 5-2 8 1 1 2 4-1 1 6 2-3 6 1 4-1v2h8l1 4h2l1-3 7 3v2l7 1 2 4 2-1 3 3 2 1v-3l5 2 3 2v2h-2l-1 5h-7v-2l-4-1-5-2-9-2-9-4h-5l-2-2h-6v-3h-6l-4-2h-2v-3l-6 1h-4v-2l-7-2v5l-7-2-5-1h-3l-2-1-3 1-4-2-7 2-1-4h-3v3l-5-1-3 1-2-2-4-1-5-3-1 3-4-1-5 2-6 2-3-1-6 1-1 2-6-1h-5l-3 2-5-1v2l-9 1-8 2-7-1-4 3-5-1v3l-5 1-3-1-1 3h-5v2h-3v-2l-5 3-3 3h-4v3l-5-1-5 2-1 2h-2v2h-2l-1 2h-3l-2 2h-7l-2 3h-5v2l-3 3h-5v2l-3 1-1 2h-4v2h-3l-1 3h-2l-1 2h-3l-1 3-3-1-1-2-5-2 2-1v-4h2v2h2v-2l4-3 4-1 1-3 4-1v-2l4 1v-3h3v-3l5 1 1-2h2v-2l3-1 1-2 6-1 1-2 7-2 2 1v-2h5l3 1 3-7 6 1v2l7-1 2-4-2-4 3-2 3 1 4-1v-2l7-3 1-2 3 1-3 4h-2l1 2 2-2 11-1v-5l6-1 4 1 2-3 4 1 1-2 14 1 5-3 3 1 7-1 5-1 2 1v-2z" fill="#272727"/>
<path transform="translate(675,233)" d="m0 0h8l1 4 2 1v2l4 1v2l5 1 1 2 4 1v-2l4 1 3 6 4 2 2 4v3h5l4 1v5l5-1v5l5 3 1 3 2 1 1-4 5 4 1 3-1 5 5 1 2 5-1 4-1 2 5-2 3 3v2h3l1 5h-2v3h2v3l-3 3-3-1-3-6-4-2v-3l-3-1v-2l-3-3v-2l-3-1-4-6-5-3 1-5-5-2-5-5-1-4-5-1-2-7-7-2-8-4-1-7-2-4-6-1v3l-5-1-1-3-5-2-3-2v-3h3z" fill="#272727"/>
<path transform="translate(779,766)" d="m0 0 1 2 3 1-2 5 3 1-1 4h-4v-2l-5 1v4h-2l-1 4-3 1-1 2 9 2v-2l3-3 3 1-9 9-2-2 1-2-7-1 1 2h-5v3h6v-2h3l-1 4h-2v4l-6 2h-3-2l1-5h-3l-2-4-2 3-3-1-1-4 2-1v2l3-3 3-1 1-2 3-1 1-3-5 1v-2l7-1h2v-3l3-1h3 2v-3l-2-1 4-3h3l-1-3z" fill="#292929"/>
<path transform="translate(851,808)" d="m0 0 7 2v3l5 2 5 5 5 2 1 5-1 3h5v2h4v4h4l1 2 3 1 1 8 4-3 4 5v2l3 1-4 2-5-2-1 2-5-3-6-7-4-6-4-2v-2l-4-2-1-3 1-2-5-1v-3h-2v-3h-5v-2l-4 1-4-4h4v-2h-2l-1-4z" fill="#272727"/>
<path transform="translate(760,319)" d="m0 0h3l2 3 4 1 2 5v3l8 1 2 6-3 5 1 4h4v2h2l1-2 2 8-5-1v4l4 1-2 4h2l-1 5h-2l-4-5v-4h-3l1-4h-2v-4l-2-1 2-3h-4l-6-11-2-1-3-9-3-3v-3z" fill="#272727"/>
<path transform="translate(316,253)" d="m0 0h2v2l4-1-1 4 4 1-1 3-4 1-1 2-3 2v2h-3l-1 5-8 2-2-1v-3l-4-1 1-5 4 1-1-3h3v-3l8-2 1-4z" fill="#272727"/>
<path transform="translate(909,863)" d="m0 0h2v2l5 1 8 9v3h3l1 2 4 2-3 6-2-1v-3l-6 2-3-5-3-1v-3l-4-2v-5l-2-1z" fill="#272727"/>
<path transform="translate(750,769)" d="m0 0 3 1v7l-5 3 3 4-1 3h-2v2l-4 2-1-2-3-1-1-2-3-1v-5l2-1-1-7 7 1 4 4-1-5z" fill="#292929"/>
<path transform="translate(207,529)" d="m0 0h4l1 5-1 2 2 1v5l2 2-3 1 1 3 2 2v8l-1 3-3-1v-4l-3-1 1-4-3-4 1-3v-4h-2v-8z" fill="#272727"/>
<path transform="translate(206,466)" d="m0 0 6 3 1 4-1 5-2 12-3 1v-4l-4 1-1-9 2-3h-2l1-7 3-1z" fill="#272727"/>
<path transform="translate(227,375)" d="m0 0 2 2v3l4 1v9l-4 2h-3l-1 8-7-1 2-7h2v-4h3l-2-4 1-6z" fill="#272727"/>
<path transform="translate(969,1017)" d="m0 0 7 5v2l3-1 1 3 3 1h-3l7 8 5 6-3 1-3-3-3-1-2-4-2-1v-2l-6-1-2-1-1-3-7-6 1-2z" fill="#989898"/>
<path transform="translate(946,927)" d="m0 0 4 4v2l4 2 4 1 5 6 6 5 4 6 2 2 1 4-4-2-7-7-6-5v-3l-3 2v2l-3-1 1-5-4-2-5-5v-5z" fill="#272727"/>
<path transform="translate(217,405)" d="m0 0h2l3 7v3l-1 2-2 1v2l-2 1-2 6h2l1 5h-2v-2l-5 2 2-7-4-1 1-7 3-5-1-5h4z" fill="#272727"/>
<path transform="translate(208,437)" d="m0 0 5 5-1 5 4 4-3 1 1 4-1 4h-4l1 3-4-2-2-4h3l-2-9 3-5-1-5z" fill="#272727"/>
<path transform="translate(773,745)" d="m0 0 4 1v2h-2l-1 3h-4v3h-3l-1 3-7 6-4 5-4-2 2-4 3 1-1-5 4-1v-3l6-3 3-5z" fill="#2A2A2A"/>
<path transform="translate(652,222)" d="m0 0 5 1h3l2-1 4 3v2l-1 1h7l2 1-1 3-4 1-1 3-4-2v-2l-3-1v-3l-5 1-6-4z" fill="#272727"/>
<path transform="translate(813,471)" d="m0 0 4 3-1 4 2 4-4 1v-3h-2v5l6 1-4 4-4 1-2 3-3-5 3-1-2-10 5-1z" fill="#272727"/>
<path transform="translate(564,792)" d="m0 0 9 1v4h3v2l-6 2h-4l2-5-5 4-3 3-4-1v-5l6-4v2l2-1z" fill="#292929"/>
<path transform="translate(440,791)" d="m0 0 7 2-1 4h3l1-2v3l4-1v-2h2l3 7 1 2h-5l-1-3-7 2v-2l-4 1-2-2h-2v-4l2-1z" fill="#272727"/>
<path transform="translate(804,530)" d="m0 0 8 1 1 4-1 2 2 1-6-1 1 3 3 1-1 4h-4v-2l-5 2 2-5h-2z" fill="#2C2C2C"/>
<path transform="translate(1031 1e3)" d="m0 0 3 1 1 8 3 2 2 3h2l-1 7-5-2-2-1v-7l-3-1v-4l-4-1v-3z" fill="#989898"/>
<path transform="translate(802,547)" d="m0 0h4l1 8 3 1-1 4h-2v2h-3v5h-2l-4-6 2-5h3l1-6z" fill="#272727"/>
<path transform="translate(999,962)" d="m0 0 4 2 1 5h3l6 9 4 3v3l-5-1v-2l-3-1-2-5-5-4-1-4-3-1z" fill="#989898"/>
<path transform="translate(220,604)" d="m0 0 6 1 5 6-1 4-4 3h-2l-1-9-3-1z" fill="#2D2D2D"/>
<path transform="translate(778,797)" d="m0 0 3 1-2 6-6 5h-2v3l-6 1v-3l4-5h4l2-4z" fill="#2B2B2B"/>
<path transform="translate(245,645)" d="m0 0 5 5 1 7h-7l-2-4-2-1 2-5z" fill="#272727"/>
<path transform="translate(204,492)" d="m0 0 5 1 3 8-8 5v-4l-3-2 2-4z" fill="#272727"/>
<path transform="translate(593,785)" d="m0 0 6 1v7h-3l-1-2-3 1-2 2-3-3 1-2h-2v2l-3-1 1-3 5-1 3 2z" fill="#272727"/>
<path transform="translate(214,570)" d="m0 0 4 2-1 2h2l-2 4 4 2-4 1v4h-2v-5h-2l-1-6v-3z" fill="#272727"/>
<path transform="translate(231,633)" d="m0 0h3v2l5-1 4 4v3l-5 1-1 2h-3v-6l-3-3z" fill="#272727"/>
<path transform="translate(1075,1031)" d="m0 0h2v7l2 3v3l-7 1-2-3 3-1-2-4 1-3 3 3z" fill="#282828"/>
<path transform="translate(206,507)" d="m0 0 4 2 1 1-1 7-5-1-2-2 1-6z" fill="#272727"/>
<path transform="translate(229,619)" d="m0 0 5 2 2 4h-2l2 4h-3v-2l-5-1-2-5z" fill="#272727"/>
<path transform="translate(793,588)" d="m0 0 3 2v6l2 1h-2v4l2 1h-3-4l1-6-2-3z" fill="#272727"/>
<path transform="translate(807,508)" d="m0 0h3l2 11h-2v4h-2v-2h-2l-1 3-1-4 2-1v-6h2l-2-4z" fill="#272727"/>
<path transform="translate(905,878)" d="m0 0h3l2 7 6 2 1 2h-3l-1 3-4-5-5-5-1-3z" fill="#272727"/>
<path transform="translate(648,216)" d="m0 0h3l1 4-6 4-8-5 4-1 3-1 3 1z" fill="#272727"/>
<path transform="translate(399,780)" d="m0 0 4 1 3 3 8 1-3 3h-4v-2l-4 1-4-2-1-4z" fill="#272727"/>
<path transform="translate(430,720)" d="m0 0 6 2h3v2h6l1 3h-4l-1 2-1-3h-6v-2l-5-1z" fill="#989898"/>
<path transform="translate(812,502)" d="m0 0h5l1 1v8l-4 1v-4h-4l1-4z" fill="#272727"/>
<path transform="translate(902,925)" d="m0 0 3 3 2 3v-2h3l3 3 2 1-1 3h-3l-2-2-6-2-2-5z" fill="#989898"/>
<path transform="translate(350,671)" d="m0 0h2l1 3 4 2 1 2 5 3 1 3-6-1-1-3-5-4-4-2v-2z" fill="#989898"/>
<path transform="translate(788,374)" d="m0 0 3 1 2 2 5 2 1 5-2 2-2-4 1-2h-4l-1 2-4-4z" fill="#272727"/>
<path transform="translate(960 1e3)" d="m0 0 5 1v2l4-1 1 4h-2l-3 3-3-2-2-4z" fill="#989898"/>
<path transform="translate(419,787)" d="m0 0 5 2-1 4h3v2l-9-2-3-3v-2z" fill="#272727"/>
<path transform="translate(1024,991)" d="m0 0 1 3 4 1-1 6-3-2-1 2h-2l-1-6z" fill="#989898"/>
<path transform="translate(279,664)" d="m0 0 5 1 1 2 3-1-2 7h-2l-3-3-2-1z" fill="#989898"/>
<path transform="translate(803,571)" d="m0 0h3v5l-4 4-1-1-2 2v-6l-2-1z" fill="#272727"/>
<path transform="translate(785,759)" d="m0 0 4 1h3l1 5 2 1-2 4-6-5z" fill="#272727"/>
<path transform="translate(471,796)" d="m0 0 6 1-2 5-6-1v3l2 1h-4v-8z" fill="#272727"/>
<path transform="translate(516,796)" d="m0 0 5 3v5l-3 1-8-2 2-2 3-1z" fill="#272727"/>
<path transform="translate(609,780)" d="m0 0 1 2 4 1v1h-5v3l-7-1-1-2h3v-2z" fill="#272727"/>
<path transform="translate(253,659)" d="m0 0h2l2 5-4 1v2l-3 1-2-7z" fill="#272727"/>
<path transform="translate(260,634)" d="m0 0 4 1 1 1v5l-6 1-2-4h3z" fill="#272727"/>
<path transform="translate(270,682)" d="m0 0h2l2 4-1 4-4-1v-2h-3v-3l-2-1h5z" fill="#272727"/>
<path transform="translate(1017,984)" d="m0 0 5 2 1 3-2 4-6-4v-2h2z" fill="#989898"/>
<path transform="translate(764,790)" d="m0 0 5 1 3 1-1 3-4-1v2l-4 1-2-1v-3l4-1z" fill="#989898"/>
<path transform="translate(779,786)" d="m0 0 3 1-9 9-2-2 1-2-4-1 1-2 7 2v-2z" fill="#272727"/>
<path transform="translate(289,682)" d="m0 0h2v3l4 1 3 5 3 1v2l-5-1-2-4-4-2-2-4z" fill="#272727"/>
<path transform="translate(305,236)" d="m0 0h2l-1 3 6-1-1 5-3 2-4-4z" fill="#272727"/>
<path transform="translate(248,604)" d="m0 0 4 1 1 3h2v2l-6 2-1-4z" fill="#989898"/>
<path transform="translate(432,277)" d="m0 0 4 1-1 3-7 1-4 2h-2v-2l6-3z" fill="#989898"/>
<path transform="translate(476,819)" d="m0 0h7l5 4-7 1-5-3z" fill="#272727"/>
<path transform="translate(768,646)" d="m0 0h6l1 7-4-1-2 2z" fill="#272727"/>
<path transform="translate(803,449)" d="m0 0 7 2-2 9h-3l1-6-3-3z" fill="#272727"/>
<path transform="translate(364,317)" d="m0 0h3v2l-8 6h-2l2-6z" fill="#989898"/>
<path transform="translate(641,193)" d="m0 0 9 2-1 3h-7z" fill="#272727"/>
<path transform="translate(989,921)" d="m0 0 4 1 1 4h-2l1 4-6-5 2-1z" fill="#272727"/>
<path transform="translate(807,463)" d="m0 0 4 4-2 6-3-1v-8z" fill="#272727"/>
<path transform="translate(239,556)" d="m0 0h2l-1 8-4 3-3-5h6l-1-5z" fill="#989898"/>
<path transform="translate(480,797)" d="m0 0 3 1 2 4-4 2v-2l-4-1z" fill="#272727"/>
<path transform="translate(246,593)" d="m0 0 3 1 2 6-5 1z" fill="#989898"/>
<path transform="translate(940,922)" d="m0 0 3 1v6l1 2h-4l-1-8z" fill="#272727"/>
<path transform="translate(307,379)" d="m0 0h2l-1 7-3 1-1-5z" fill="#989898"/>
<path transform="translate(993,1039)" d="m0 0 4 2 1 6-6-2v-2h3z" fill="#989898"/>
<path transform="translate(498,799)" d="m0 0 1 4v3l-4 1-2-4-2-2h6z" fill="#272727"/>
<path transform="translate(232,365)" d="m0 0 5 2-4 2-2 7-3-1v-2h2l1-6z" fill="#272727"/>
<path transform="translate(765,766)" d="m0 0h2v7l-5 1 2-5z" fill="#272727"/>
<path transform="translate(631,684)" d="m0 0h3l-1 4-1 2-4-1-2-1v-2h4z" fill="#989898"/>
<path transform="translate(411,553)" d="m0 0 5 1-1 5-4 1z" fill="#989898"/>
</svg>
